<svg width="75" height="70" viewBox="0 0 75 70" fill="none" xmlns="http://www.w3.org/2000/svg">
<path d="M37.4999 56.1279C37.8397 56.128 38.1151 56.4034 38.1151 56.7432V69.3701C38.115 69.7098 37.8396 69.9853 37.4999 69.9854C37.1602 69.9854 36.8848 69.7098 36.8847 69.3701V56.7432C36.8847 56.4033 37.1601 56.1279 37.4999 56.1279Z" fill="#09584B"/>
<path d="M46.8866 55.3457C47.1415 55.3458 47.3788 55.5069 47.4667 55.7617L51.331 66.9619C51.4423 67.2841 51.2723 67.6327 50.9501 67.7441C50.6278 67.8555 50.2792 67.6855 50.1679 67.3633L46.3066 56.1631C46.1952 55.8438 46.3651 55.4922 46.6874 55.3809C46.7548 55.3574 46.8222 55.3457 46.8866 55.3457Z" fill="#09584B"/>
<path d="M28.1103 55.3447C28.1776 55.3447 28.2451 55.3565 28.3095 55.3799C28.6316 55.4913 28.8016 55.8399 28.6903 56.1621L24.8319 67.3623C24.7206 67.6846 24.372 67.8545 24.0497 67.7432C23.7274 67.6318 23.5575 67.2832 23.6689 66.9609L27.5302 55.7607C27.6181 55.5059 27.8554 55.3447 28.1103 55.3447Z" fill="#09584B"/>
<path d="M58.6112 52.0342C58.8425 52.0342 59.0653 52.1663 59.1708 52.3916L63.1581 60.9756C63.3017 61.2832 63.1669 61.6494 62.8593 61.793C62.5517 61.9364 62.1854 61.8017 62.0419 61.4941L58.0546 52.9072C57.9113 52.5997 58.0459 52.2333 58.3534 52.0928C58.4383 52.0547 58.5264 52.0342 58.6112 52.0342Z" fill="#09584B"/>
<path d="M16.3886 52.0342C16.4764 52.0342 16.5645 52.0518 16.6464 52.0928C16.9538 52.2364 17.0886 52.6027 16.9452 52.9102L12.9579 61.4941C12.8144 61.8017 12.4481 61.9363 12.1405 61.793C11.833 61.6494 11.6982 61.2832 11.8417 60.9756L15.829 52.3916C15.9345 52.1662 16.1543 52.0342 16.3886 52.0342Z" fill="#09584B"/>
<path d="M6.26651 46.6758C6.37188 46.6758 6.48048 46.7022 6.57706 46.7607C6.86979 46.9336 6.96654 47.3087 6.79386 47.6016L2.80655 54.3721C2.63375 54.665 2.25574 54.7615 1.96573 54.5889C1.67277 54.416 1.57608 54.041 1.74894 53.748L5.73624 46.9775C5.85051 46.7843 6.05563 46.6758 6.26651 46.6758Z" fill="#09584B"/>
<path d="M68.7333 46.6758C68.9441 46.6759 69.1494 46.7843 69.2636 46.9775L73.2509 53.748C73.4236 54.0409 73.3239 54.4189 73.0341 54.5889C72.7411 54.7617 72.3632 54.6621 72.1933 54.3721L68.206 47.6016C68.0331 47.3086 68.1298 46.9336 68.4228 46.7607C68.5194 46.7023 68.628 46.6758 68.7333 46.6758Z" fill="#09584B"/>
<path d="M43.9159 43.6904C44.118 43.6905 44.3173 43.7901 44.4345 43.9746C44.6161 44.2617 44.531 44.6425 44.247 44.8242C42.2314 46.1074 39.8993 46.7842 37.4999 46.7842C37.1601 46.7842 36.8847 46.5088 36.8847 46.1689C36.8848 45.8292 37.1602 45.5537 37.4999 45.5537C39.6649 45.5537 41.7685 44.9414 43.5878 43.7871C43.6903 43.7227 43.8047 43.6904 43.9159 43.6904Z" fill="#09584B"/>
<path d="M30.0878 42.9814C30.2225 42.9815 30.3545 43.0255 30.4687 43.1133C31.8983 44.2441 33.5976 45.0176 35.3817 45.3545C35.7156 45.4161 35.9354 45.7384 35.871 46.0723C35.8095 46.4062 35.4871 46.6258 35.1532 46.5615C33.1758 46.1895 31.2919 45.3281 29.7069 44.0771C29.4403 43.8662 29.3935 43.4795 29.6044 43.2129C29.7245 43.0636 29.9062 42.9814 30.0878 42.9814Z" fill="#09584B"/>
<path d="M37.5028 28.8398C40.4617 28.8399 42.8611 31.2394 42.8612 34.1982C42.8583 37.1572 40.4588 39.5566 37.4999 39.5566C37.3974 39.5566 37.2948 39.5537 37.1952 39.5479C37.7313 38.9414 38.0566 38.1473 38.0566 37.2773C38.0564 35.3849 36.5212 33.8467 34.6288 33.8467C33.6709 33.8467 32.8094 34.2364 32.1855 34.8662C32.1591 34.6466 32.1444 34.4267 32.1444 34.1982C32.1446 31.2394 34.544 28.8398 37.5028 28.8398Z" fill="#09584B"/>
<path d="M34.6259 35.1064C35.8241 35.1065 36.7968 36.0792 36.7968 37.2773C36.7968 38.4755 35.824 39.4482 34.6259 39.4482C33.4276 39.4482 32.455 38.4755 32.455 37.2773C32.4579 36.0762 33.4277 35.1064 34.6259 35.1064Z" fill="#09584B"/>
<path fill-rule="evenodd" clip-rule="evenodd" d="M37.4999 24.709C42.732 24.709 46.9892 28.9661 46.9892 34.1982C46.9892 39.4307 42.7321 43.6875 37.4999 43.6875C32.2678 43.6874 28.0107 39.4303 28.0107 34.1982C28.0107 28.9658 32.2678 24.709 37.4999 24.709ZM37.4999 25.9395C32.9473 25.9395 29.2411 29.6453 29.2411 34.1982C29.2411 38.7509 32.947 42.457 37.4999 42.457C42.0529 42.457 45.7587 38.7512 45.7587 34.1982C45.7587 29.6455 42.0528 25.9395 37.4999 25.9395Z" fill="#09584B"/>
<path d="M48.0058 39.3252C48.1053 39.3252 48.208 39.3487 48.3017 39.4014C48.6004 39.5654 48.7087 39.9375 48.5448 40.2363C48.1171 41.0185 47.6015 41.7598 47.0155 42.4365C46.7929 42.6943 46.4061 42.7207 46.1483 42.498C45.8906 42.2754 45.8642 41.8886 46.0868 41.6309C46.6141 41.0186 47.08 40.3505 47.4667 39.6445C47.5781 39.4396 47.789 39.3252 48.0058 39.3252Z" fill="#09584B"/>
<path d="M25.7607 35.9365C26.0477 35.9365 26.3056 36.1387 26.3642 36.4316C26.6044 37.6442 27.044 38.8011 27.662 39.873C27.8319 40.166 27.7322 40.5439 27.4364 40.7139C27.1435 40.8838 26.7655 40.7842 26.5956 40.4883C25.9073 39.2991 25.4238 38.0163 25.1571 36.6719C25.0898 36.3379 25.3066 36.0156 25.6405 35.9482C25.6816 35.9395 25.7226 35.9365 25.7607 35.9365Z" fill="#09584B"/>
<path d="M46.0282 25.1836C46.1863 25.1836 46.3447 25.2452 46.4677 25.3682C48.4892 27.419 49.7519 30.1233 50.0273 32.9795C50.0595 33.3163 49.8103 33.618 49.4735 33.6504C49.1337 33.6826 48.8349 33.4365 48.8026 33.0967C48.5536 30.5216 47.4138 28.0809 45.5917 26.2295C45.3545 25.9863 45.3574 25.5967 45.5976 25.3594C45.7176 25.2424 45.8731 25.1836 46.0282 25.1836Z" fill="#09584B"/>
<path d="M34.1864 22.0791C34.453 22.0791 34.6991 22.2549 34.7782 22.5244C34.866 22.8496 34.6786 23.1924 34.3534 23.2861C32.2266 23.8985 30.3339 25.1143 28.8837 26.8047C28.661 27.0623 28.2742 27.0917 28.0165 26.8691C27.7588 26.6465 27.7296 26.2597 27.9521 26.002C29.5604 24.1299 31.6582 22.7822 34.0165 22.1025C34.0721 22.085 34.1308 22.0791 34.1864 22.0791Z" fill="#09584B"/>
<path d="M38.3261 21.6387C40.3621 21.7705 42.3574 22.4063 44.0917 23.4756C44.3817 23.6543 44.4695 24.0323 44.2939 24.3223C44.1151 24.6094 43.7372 24.7002 43.4472 24.5215C41.8828 23.5577 40.0838 22.9834 38.247 22.8662C37.9072 22.8457 37.6523 22.5527 37.6728 22.2129C37.6934 21.8879 37.9629 21.6387 38.2851 21.6387H38.3261Z" fill="#09584B"/>
<path fill-rule="evenodd" clip-rule="evenodd" d="M37.4999 18.4287C46.195 18.4287 53.2704 25.5042 53.2704 34.1992C53.2703 42.8942 46.1949 49.9697 37.4999 49.9697C28.8045 49.9697 21.7295 42.8941 21.7294 34.1992C21.7294 25.5042 28.8049 18.4288 37.4999 18.4287ZM37.4999 19.6592C29.4817 19.6592 22.9599 26.1805 22.9599 34.1992C22.96 42.2179 29.4813 48.7392 37.4999 48.7393C45.5186 48.7393 52.0398 42.2179 52.04 34.1992C52.04 26.1805 45.5187 19.6592 37.4999 19.6592Z" fill="#09584B"/>
<path d="M22.0253 23.5342C22.2684 23.5342 22.4969 23.6779 22.5937 23.915C22.7226 24.2256 22.5732 24.5859 22.2597 24.7148C21.2607 25.125 20.2558 25.588 19.2714 26.0918C15.2314 28.1572 11.5869 30.8825 8.42862 34.1992C11.5838 37.5155 15.2286 40.2426 19.2714 42.3076C20.2381 42.8027 21.2461 43.2657 22.2597 43.6846C22.5731 43.8135 22.7224 44.1739 22.5937 44.4873C22.4648 44.8008 22.1044 44.9502 21.7909 44.8213C20.7452 44.3907 19.7108 43.913 18.7118 43.4033C14.3731 41.1856 10.4771 38.2295 7.1337 34.6172C6.91697 34.3828 6.91693 34.0166 7.1337 33.7822C10.4793 30.17 14.3727 27.2168 18.7118 24.999C19.7255 24.4805 20.7597 24.0029 21.7909 23.5811C21.867 23.5489 21.9463 23.5342 22.0253 23.5342Z" fill="#09584B"/>
<path d="M52.9775 23.5293C53.0565 23.5293 53.1357 23.544 53.2118 23.5762C54.2605 24.0097 55.2978 24.4864 56.2939 24.9961C60.6328 27.2138 64.5272 30.1679 67.873 33.7803C68.0894 34.0147 68.0896 34.381 67.873 34.6152C64.5244 38.2275 60.6266 41.1825 56.288 43.4004C55.2685 43.9218 54.2313 44.3994 53.2089 44.8213C52.8955 44.9501 52.535 44.8007 52.4062 44.4873C52.2776 44.174 52.4269 43.8135 52.7401 43.6846C53.7333 43.2744 54.7382 42.8114 55.7314 42.3047C59.7742 40.2393 63.4189 37.5122 66.5741 34.1963C63.4189 30.8799 59.7714 28.1546 55.7314 26.0889C54.7647 25.5938 53.7595 25.1308 52.7431 24.7119C52.4301 24.5829 52.2806 24.2234 52.4091 23.9102C52.5057 23.6729 52.7373 23.5294 52.9775 23.5293Z" fill="#09584B"/>
<path fill-rule="evenodd" clip-rule="evenodd" d="M37.5028 15.1318C44.9764 15.1318 52.1187 16.8458 58.7284 20.2236C65.033 23.4463 70.6177 28.151 74.8769 33.8291C75.0408 34.0487 75.0407 34.3477 74.8769 34.5674C70.6171 40.2451 65.0329 44.9511 58.7284 48.1738C52.1191 51.5517 44.9765 53.2656 37.5028 53.2656C30.0264 53.2656 22.887 51.5516 16.2743 48.1738C9.96968 44.9512 4.38295 40.2456 0.12296 34.5674C-0.0409285 34.3477 -0.0410446 34.0488 0.12296 33.8291C4.3827 28.1515 9.96996 23.4463 16.2743 20.2236C22.8836 16.8458 30.0262 15.1318 37.5028 15.1318ZM37.4999 16.3633C23.2057 16.3633 10.0721 22.8586 1.38565 34.1992C10.0721 45.5399 23.2095 52.0342 37.4999 52.0342C51.7941 52.0341 64.9278 45.5398 73.6112 34.1992C64.9308 22.8585 51.7934 16.3633 37.4999 16.3633Z" fill="#09584B"/>
<path d="M2.27628 15.3086C2.48722 15.3086 2.6923 15.417 2.80655 15.6104L6.79386 22.3809C6.96654 22.6767 6.86996 23.0518 6.57706 23.2246C6.28418 23.3973 5.9062 23.3006 5.73624 23.0078L1.74894 16.2344C1.5761 15.9414 1.67578 15.5635 1.96573 15.3936C2.06242 15.335 2.17081 15.3086 2.27628 15.3086Z" fill="#09584B"/>
<path d="M72.7235 15.3115C72.829 15.3115 72.9374 15.3379 73.0341 15.3965C73.3271 15.5693 73.4237 15.9443 73.2509 16.2373L69.2636 23.0078C69.0907 23.3006 68.7156 23.3974 68.4228 23.2246C68.1299 23.0518 68.0333 22.6767 68.206 22.3838L72.1933 15.6133C72.3075 15.42 72.5127 15.3116 72.7235 15.3115Z" fill="#09584B"/>
<path d="M12.3984 8.13281C12.6296 8.1329 12.8524 8.26487 12.9579 8.49023L16.9452 17.0771C17.0887 17.3847 16.9538 17.7509 16.6464 17.8916C16.3388 18.0352 15.9725 17.9004 15.829 17.5928L11.8417 9.00879C11.6983 8.70121 11.833 8.33489 12.1405 8.19141C12.2254 8.15342 12.3135 8.13281 12.3984 8.13281Z" fill="#09584B"/>
<path d="M62.6015 8.13379C62.6893 8.13379 62.7773 8.15142 62.8593 8.19238C63.1669 8.33594 63.3017 8.70218 63.1581 9.00977L59.1708 17.5938C59.0271 17.9011 58.6609 18.0361 58.3534 17.8926C58.046 17.7491 57.9113 17.3827 58.0546 17.0752L62.0419 8.49121C62.1473 8.2657 62.3672 8.13388 62.6015 8.13379Z" fill="#09584B"/>
<path d="M24.2489 2.20605C24.5038 2.20612 24.7411 2.36724 24.829 2.62207L28.6903 13.8223C28.8046 14.1415 28.6346 14.4931 28.3124 14.6045C27.9901 14.7158 27.6415 14.5459 27.5302 14.2236L23.6689 3.02344C23.5575 2.70117 23.7275 2.35256 24.0497 2.24121C24.1171 2.21779 24.1845 2.20605 24.2489 2.20605Z" fill="#09584B"/>
<path d="M50.748 2.20605C50.8153 2.20608 50.8828 2.2178 50.9472 2.24121C51.2693 2.35255 51.4392 2.70126 51.328 3.02344L47.4696 14.2246C47.3582 14.5466 47.0095 14.7166 46.6874 14.6055C46.3653 14.4942 46.1955 14.1454 46.3066 13.8232L50.1679 2.62207C50.2558 2.36734 50.4932 2.20605 50.748 2.20605Z" fill="#09584B"/>
<path d="M37.4999 0C37.8397 5.96618e-05 38.1151 0.275431 38.1151 0.615234V13.2422C38.1151 13.582 37.8397 13.8574 37.4999 13.8574C37.1601 13.8574 36.8847 13.582 36.8847 13.2422V0.615234C36.8847 0.275394 37.1601 0 37.4999 0Z" fill="#09584B"/>
</svg>
