<svg width="234" height="219" viewBox="0 0 234 219" fill="none" xmlns="http://www.w3.org/2000/svg">
<path d="M233.616 110.501C220.326 92.7869 202.904 78.1064 183.234 68.0514C162.612 57.5123 140.327 52.165 117.009 52.165C93.6824 52.165 71.4075 57.5123 50.7757 68.0514C31.1053 78.1062 13.6751 92.7852 0.383906 110.501C-0.127969 111.187 -0.127969 112.119 0.383906 112.805C13.6744 130.519 31.1057 145.2 50.7757 155.255C71.397 165.794 93.6819 171.141 117.009 171.141C140.327 171.141 162.611 165.794 183.234 155.255C202.904 145.2 220.327 130.521 233.616 112.805C234.128 112.119 234.128 111.187 233.616 110.501ZM117 167.3C72.402 167.3 31.4263 147.035 4.32446 111.653C31.4263 76.2695 72.4137 56.0051 117 56.0051C161.598 56.0051 202.574 76.27 229.666 111.653C202.583 147.036 161.596 167.3 117 167.3Z" fill="black"/>
<path d="M69.4515 141.241C66.3346 139.962 63.1993 138.517 60.128 136.945C47.5232 130.501 36.1524 122.001 26.2987 111.652C36.143 101.305 47.514 92.7953 60.128 86.3523C63.1445 84.8076 66.2888 83.3635 69.4515 82.0563C70.4296 81.6541 70.8957 80.5299 70.4935 79.5518C70.0913 78.5738 68.9671 78.1076 67.989 78.5098C64.7259 79.8535 61.4993 81.3433 58.3822 82.9338C44.8448 89.8532 32.689 99.0761 22.2573 110.347C21.5809 111.078 21.5809 112.221 22.2573 112.952C32.6958 124.222 44.8437 133.436 58.3822 140.356C61.5449 141.974 64.7715 143.463 67.989 144.78C68.2267 144.88 68.4735 144.926 68.7203 144.926C69.479 144.926 70.1919 144.478 70.4936 143.738C70.8958 142.769 70.4296 141.644 69.4515 141.241Z" fill="black"/>
<path d="M175.619 82.9429C172.438 81.3159 169.203 79.8261 166.013 78.5098C165.035 78.1076 163.91 78.5738 163.508 79.5518C163.106 80.5299 163.572 81.6542 164.55 82.0563C167.649 83.336 170.784 84.7803 173.883 86.3615C186.497 92.8056 197.868 101.315 207.712 111.662C197.868 122.009 186.488 130.51 173.883 136.955C170.866 138.499 167.731 139.943 164.559 141.251C163.581 141.653 163.115 142.777 163.517 143.755C163.819 144.495 164.541 144.943 165.29 144.943C165.537 144.943 165.784 144.898 166.022 144.797C169.294 143.444 172.53 141.954 175.638 140.364C189.175 133.445 201.324 124.231 211.763 112.96C212.439 112.229 212.439 111.086 211.763 110.355C201.315 99.0848 189.156 89.8628 175.619 82.9429Z" fill="black"/>
<path d="M117 62.4492C89.8703 62.4492 67.7971 84.5238 67.7971 111.652C67.7971 138.781 89.8717 160.855 117 160.855C144.129 160.855 166.203 138.781 166.203 111.652C166.203 84.5238 144.129 62.4492 117 62.4492ZM117 157.018C91.9833 157.018 71.6347 136.671 71.6347 111.652C71.6347 86.6338 91.9817 66.2868 117 66.2868C142.019 66.2868 162.366 86.6338 162.366 111.652C162.366 136.671 142.019 157.018 117 157.018Z" fill="black"/>
<path d="M93.8741 84.2509C94.2946 84.2509 94.7059 84.1138 95.0624 83.8396C99.5229 80.3114 104.825 77.8981 110.391 76.847C111.433 76.6551 112.119 75.6496 111.918 74.6076C111.726 73.5655 110.72 72.88 109.678 73.0811C103.508 74.2419 97.631 76.9292 92.6859 80.8323C91.8541 81.4905 91.7078 82.697 92.366 83.5287C92.7407 83.9949 93.3074 84.2509 93.8741 84.2509Z" fill="black"/>
<path d="M85.6015 91.3246C84.6875 90.7945 83.5083 91.1053 82.9782 92.0285C80.8301 95.7395 79.3219 99.7432 78.49 103.939C78.2798 104.981 78.9562 105.986 79.9982 106.196C80.1262 106.224 80.2542 106.233 80.373 106.233C81.2688 106.233 82.0732 105.602 82.256 104.688C83.0055 100.904 84.3766 97.2933 86.3053 93.948C86.8355 93.0339 86.5247 91.8548 85.6015 91.3246Z" fill="black"/>
<path d="M107.184 145.702C100.548 143.791 94.6426 139.998 90.1179 134.724C89.4232 133.919 88.2167 133.828 87.4124 134.523C86.6082 135.217 86.5167 136.424 87.2113 137.228C92.2295 143.069 98.7742 147.274 106.132 149.394C106.306 149.449 106.489 149.467 106.662 149.467C107.494 149.467 108.262 148.919 108.509 148.078C108.783 147.063 108.198 145.994 107.184 145.702Z" fill="black"/>
<path d="M135.555 141.845C130.674 144.853 125.062 146.644 119.331 147.01C118.271 147.074 117.475 147.988 117.539 149.048C117.603 150.063 118.444 150.84 119.45 150.84H119.578C125.93 150.428 132.155 148.445 137.566 145.108C138.471 144.551 138.746 143.372 138.197 142.467C137.64 141.571 136.46 141.288 135.555 141.845Z" fill="black"/>
<path d="M154.358 113.363C153.297 113.262 152.365 114.03 152.264 115.09C151.487 123.125 147.932 130.739 142.246 136.516C141.506 137.275 141.515 138.49 142.265 139.231C142.639 139.596 143.124 139.779 143.608 139.779C144.102 139.779 144.596 139.587 144.979 139.203C151.286 132.805 155.226 124.368 156.085 115.457C156.186 114.406 155.409 113.463 154.358 113.363Z" fill="black"/>
<path d="M148.097 94.6615C148.444 95.3014 149.102 95.6579 149.778 95.6579C150.089 95.6579 150.409 95.5847 150.702 95.4202C151.634 94.9083 151.972 93.7475 151.46 92.8151C150.126 90.3745 148.517 88.0621 146.689 85.9505C145.994 85.1461 144.788 85.0638 143.983 85.7585C143.179 86.4532 143.097 87.6598 143.791 88.464C145.437 90.3744 146.89 92.4587 148.097 94.6615Z" fill="black"/>
<path d="M117 76.2248C123.755 76.2248 130.318 78.1352 135.994 81.7366C136.314 81.9377 136.671 82.0383 137.018 82.0383C137.649 82.0383 138.27 81.7275 138.636 81.1516C139.202 80.2558 138.937 79.0676 138.051 78.5009C131.762 74.4974 124.486 72.3858 117 72.3858C115.94 72.3858 115.08 73.245 115.08 74.3053C115.08 75.3656 115.94 76.2248 117 76.2248Z" fill="black"/>
<path d="M146.606 111.655C146.606 95.3295 133.325 82.0491 117 82.0491C100.676 82.0491 87.3947 95.3304 87.3947 111.655C87.3947 127.98 100.676 141.26 117 141.26C133.325 141.26 146.606 127.979 146.606 111.655ZM117 137.423C102.796 137.423 91.2323 125.86 91.2323 111.655C91.2323 97.4502 102.795 85.8867 117 85.8867C131.205 85.8867 142.768 97.4495 142.768 111.655C142.768 125.859 131.205 137.423 117 137.423Z" fill="black"/>
<path d="M117 43.2352C118.06 43.2352 118.919 42.376 118.919 41.3157V1.91952C118.919 0.859224 118.06 0 117 0C115.94 0 115.08 0.859224 115.08 1.91952V41.3157C115.08 42.376 115.94 43.2352 117 43.2352Z" fill="black"/>
<path d="M85.8947 44.3801C86.1689 45.1753 86.9093 45.678 87.7045 45.678C87.9147 45.678 88.125 45.6415 88.3261 45.5684C89.3315 45.221 89.8617 44.1333 89.5143 43.1277L77.4762 8.18222C77.1289 7.17674 76.0411 6.64659 75.0356 6.99394C74.0301 7.34129 73.5 8.42902 73.8473 9.43456L85.8947 44.3801Z" fill="black"/>
<path d="M49.3855 54.8908C49.7145 55.5946 50.4001 56.006 51.1313 56.006C51.4056 56.006 51.6798 55.9511 51.9357 55.8232C52.8955 55.3753 53.3159 54.2327 52.8681 53.273L40.4277 26.4918C39.9798 25.532 38.8372 25.1115 37.8776 25.5594C36.9179 26.0073 36.4974 27.1499 36.9452 28.1095L49.3855 54.8908Z" fill="black"/>
<path d="M17.8973 71.7836C18.2538 72.3869 18.8937 72.7251 19.5518 72.7251C19.8808 72.7251 20.2191 72.6428 20.5207 72.46C21.4347 71.9207 21.7364 70.7507 21.1971 69.8366L8.75672 48.7128C8.21742 47.7987 7.03827 47.4971 6.13335 48.0364C5.2193 48.5757 4.91765 49.7457 5.45695 50.6597L17.8973 71.7836Z" fill="black"/>
<path d="M145.665 45.5661C145.875 45.6392 146.086 45.6758 146.287 45.6758C147.082 45.6758 147.822 45.1731 148.096 44.3778L160.153 9.43231C160.5 8.42684 159.97 7.33911 158.965 6.99169C157.959 6.64434 156.871 7.1745 156.524 8.17996L144.477 43.1255C144.129 44.1218 144.66 45.2187 145.665 45.5661Z" fill="black"/>
<path d="M182.064 55.8225C182.329 55.9413 182.603 56.0053 182.868 56.0053C183.59 56.0053 184.285 55.594 184.614 54.8902L197.054 28.1089C197.502 27.1491 197.082 26.0066 196.122 25.5588C195.162 25.111 194.02 25.5314 193.572 26.4911L181.132 53.2818C180.684 54.2415 181.104 55.3839 182.064 55.8225Z" fill="black"/>
<path d="M213.478 72.4596C213.78 72.6424 214.118 72.7247 214.447 72.7247C215.105 72.7247 215.745 72.3865 216.101 71.7832L228.542 50.6593C229.081 49.7453 228.77 48.5661 227.865 48.036C226.951 47.4967 225.772 47.8075 225.242 48.7124L212.802 69.8362C212.262 70.7503 212.564 71.9203 213.478 72.4596Z" fill="black"/>
<path d="M117 175.118C115.94 175.118 115.08 175.977 115.08 177.037V216.433C115.08 217.494 115.94 218.353 117 218.353C118.06 218.353 118.919 217.494 118.919 216.433V177.037C118.919 175.977 118.06 175.118 117 175.118Z" fill="black"/>
<path d="M148.106 173.974C147.758 172.968 146.67 172.438 145.665 172.785C144.659 173.133 144.129 174.22 144.477 175.226L156.524 210.171C156.798 210.967 157.539 211.469 158.334 211.469C158.544 211.469 158.754 211.433 158.955 211.36C159.961 211.012 160.491 209.925 160.144 208.919L148.106 173.974Z" fill="black"/>
<path d="M184.614 163.462C184.166 162.502 183.023 162.082 182.064 162.53C181.104 162.978 180.684 164.12 181.132 165.08L193.572 191.861C193.901 192.565 194.586 192.976 195.318 192.976C195.592 192.976 195.866 192.922 196.122 192.794C197.082 192.346 197.502 191.203 197.054 190.243L184.614 163.462Z" fill="black"/>
<path d="M216.104 146.57C215.565 145.656 214.395 145.354 213.48 145.894C212.566 146.433 212.265 147.603 212.804 148.517L225.244 169.641C225.601 170.244 226.241 170.582 226.899 170.582C227.228 170.582 227.566 170.5 227.868 170.317C228.782 169.778 229.083 168.608 228.544 167.694L216.104 146.57Z" fill="black"/>
<path d="M88.3352 172.787C87.3297 172.44 86.242 172.97 85.8946 173.975L73.8473 208.921C73.5 209.926 74.0301 211.014 75.0356 211.361C75.2458 211.435 75.4561 211.471 75.6572 211.471C76.4524 211.471 77.1928 210.968 77.467 210.173L89.5142 175.228C89.8707 174.231 89.3407 173.134 88.3352 172.787Z" fill="black"/>
<path d="M51.9357 162.531C50.976 162.083 49.8334 162.504 49.3856 163.463L36.9453 190.245C36.4974 191.204 36.9178 192.347 37.8776 192.795C38.1427 192.914 38.4169 192.978 38.682 192.978C39.4041 192.978 40.0988 192.566 40.4278 191.862L52.8682 165.072C53.3161 164.112 52.8955 162.97 51.9357 162.531Z" fill="black"/>
<path d="M20.521 145.894C19.607 145.354 18.4278 145.656 17.8976 146.57L5.45727 167.703C4.91798 168.617 5.22876 169.796 6.13367 170.326C6.43532 170.509 6.77352 170.591 7.10257 170.591C7.7607 170.591 8.40055 170.253 8.75702 169.65L21.1974 148.526C21.7367 147.603 21.4351 146.433 20.521 145.894Z" fill="black"/>
<path d="M117 94.9358C116.68 94.9358 116.36 94.945 116.049 94.9632C117.722 96.8553 118.737 99.3325 118.737 102.047C118.737 107.952 113.947 112.751 108.042 112.751C105.053 112.751 102.366 111.535 100.419 109.57C100.337 110.255 100.291 110.941 100.291 111.654C100.291 120.886 107.777 128.372 117.009 128.372C126.241 128.372 133.727 120.886 133.727 111.654C133.718 102.422 126.232 94.9358 117 94.9358Z" fill="black"/>
<path d="M108.033 108.821C111.771 108.821 114.806 105.787 114.806 102.048C114.806 98.3098 111.771 95.275 108.033 95.275C104.294 95.275 101.26 98.3098 101.26 102.048C101.269 105.796 104.294 108.821 108.033 108.821Z" fill="black"/>
</svg>
