<svg width="273" height="191" viewBox="0 0 273 191" fill="none" xmlns="http://www.w3.org/2000/svg">
<path d="M266.062 35.632L186.797 6.79473C184.805 6.07238 182.641 5.96781 180.589 6.4947C178.536 7.02159 176.691 8.15541 175.293 9.74785L120.877 0.156962C118.569 -0.245848 116.192 0.133047 114.123 1.23358C112.055 2.33412 110.413 4.09332 109.458 6.2323H55.7862C52.9898 6.2323 50.3079 7.34269 48.3305 9.3192C46.3531 11.2957 45.2422 13.9764 45.2422 16.7716V18.3977L8.71316 24.8357C5.95921 25.321 3.51094 26.88 1.90695 29.1697C0.302964 31.4594 -0.325355 34.2922 0.160214 37.0449L24.9797 177.741C25.2202 179.104 25.7268 180.406 26.4708 181.574C27.2148 182.741 28.1815 183.75 29.3158 184.544C30.45 185.338 31.7296 185.901 33.0815 186.2C34.4333 186.5 35.831 186.53 37.1946 186.29L120.265 171.649C121.612 171.41 122.898 170.91 124.053 170.178H140.138C140.325 170.178 140.5 170.132 140.685 170.122L170.74 175.42L209.965 189.69C212.593 190.646 215.493 190.519 218.027 189.338C220.562 188.157 222.523 186.017 223.479 183.391L272.364 49.1402C272.838 47.8397 273.05 46.4586 272.99 45.0759C272.93 43.6931 272.597 42.3359 272.012 41.0815C271.427 39.8271 270.6 38.7003 269.579 37.7652C268.559 36.8302 267.363 36.1054 266.062 35.632ZM185.595 10.0958L193.421 12.9431L179.847 10.5505C180.717 10.0699 181.68 9.78071 182.672 9.70228C183.663 9.62386 184.66 9.75802 185.595 10.0958ZM120.267 3.61674L135.107 6.2323H124.987L119.962 5.34663C119.277 5.22569 118.576 5.24169 117.897 5.39372C117.219 5.54575 116.578 5.83078 116.011 6.2323H113.53C114.308 5.22501 115.347 4.44913 116.534 3.98824C117.722 3.52735 119.012 3.39891 120.267 3.61674ZM48.7569 16.7716C48.7569 15.8489 48.9387 14.9353 49.292 14.0828C49.6452 13.2304 50.163 12.4558 50.8157 11.8033C51.4685 11.1509 52.2434 10.6334 53.0962 10.2802C53.9491 9.92715 54.8631 9.74541 55.7862 9.74541H140.138C141.061 9.74541 141.975 9.92715 142.828 10.2802C143.681 10.6334 144.456 11.1509 145.109 11.8033C145.761 12.4558 146.279 13.2304 146.632 14.0828C146.986 14.9353 147.167 15.8489 147.167 16.7716V159.638C147.167 161.502 146.427 163.289 145.109 164.606C143.79 165.924 142.002 166.664 140.138 166.664H127.44C127.775 166.106 128.058 165.518 128.285 164.908H140.138C141.536 164.906 142.876 164.351 143.864 163.363C144.853 162.375 145.409 161.035 145.41 159.638V16.7716C145.409 15.3745 144.853 14.035 143.864 13.0471C142.876 12.0592 141.536 11.5035 140.138 11.502H98.8879C96.7506 10.2358 94.2319 9.77225 91.7836 10.1944L84.3648 11.502H55.7862C54.3885 11.5035 53.0484 12.0592 52.06 13.0471C51.0717 14.035 50.5157 15.3745 50.5142 16.7716V17.4684L48.7569 17.778V16.7716ZM149.131 165.071C150.138 163.437 150.674 161.557 150.682 159.638V88.4583C156.603 70.0303 164.991 52.4879 175.618 36.3086C175.954 36.6349 176.376 36.8579 176.835 36.9509C176.908 36.964 176.984 36.9738 177.06 36.9802C177.402 37.0072 177.746 36.9628 178.07 36.8498C178.394 36.7369 178.692 36.5577 178.943 36.3238C187.617 50.7593 193.414 66.7365 196.014 83.374L181.335 166.585C181.145 167.655 180.538 168.606 179.648 169.229C178.757 169.852 177.656 170.097 176.585 169.91L149.131 165.071ZM175.947 34.3789L176.235 30.9762C176.266 30.626 176.434 30.3022 176.702 30.0753C176.971 29.8484 177.319 29.7368 177.669 29.7648C177.711 29.7685 177.75 29.7732 177.79 29.7804C178.116 29.8386 178.408 30.0162 178.61 30.2785C178.811 30.5409 178.908 30.8689 178.88 31.1986L178.594 34.6015C178.579 34.7752 178.53 34.9444 178.45 35.0993C178.37 35.2541 178.26 35.3918 178.127 35.5043C177.994 35.6168 177.84 35.7019 177.674 35.7549C177.508 35.8079 177.333 35.8276 177.159 35.813C176.985 35.7984 176.816 35.7497 176.661 35.6697C176.506 35.5898 176.368 35.4801 176.256 35.3469C176.143 35.2137 176.058 35.0597 176.005 34.8936C175.952 34.7275 175.932 34.5526 175.947 34.3789ZM179.62 35.1829C179.684 35.0275 179.731 34.8658 179.761 34.7006L180.048 31.2976C180.075 30.9707 180.038 30.6415 179.939 30.3289C179.839 30.0164 179.679 29.7265 179.467 29.4758C179.255 29.2251 178.996 29.0186 178.705 28.868C178.413 28.7174 178.095 28.6257 177.768 28.5981C177.441 28.5705 177.111 28.6076 176.799 28.7072C176.486 28.8068 176.196 28.967 175.945 29.1786C175.694 29.3903 175.488 29.6492 175.337 29.9407C175.186 30.2321 175.095 30.5504 175.067 30.8773L174.779 34.2811C174.754 34.6175 174.798 34.9555 174.909 35.2742C164.716 50.645 156.571 67.2791 150.682 84.7556V16.7716C150.671 14.9982 150.207 13.2569 149.334 11.7128L202.829 21.1413C203.899 21.3312 204.85 21.9377 205.474 22.8278C206.097 23.7179 206.342 24.8189 206.155 25.8892L196.635 79.8549C193.686 64.0657 187.923 48.9346 179.62 35.1829ZM128.818 159.44L119.047 104.052C122.967 94.9544 127.668 86.2141 133.098 77.9289C133.326 78.1969 133.608 78.4131 133.926 78.5629C134.245 78.7127 134.591 78.7928 134.943 78.7976C135.018 78.7976 135.094 78.7943 135.17 78.7874C135.518 78.7533 135.855 78.6457 136.158 78.4717C136.462 78.2977 136.724 78.0613 136.929 77.7782C140.04 81.5733 142.509 85.8512 144.239 90.4427V159.638C144.237 160.725 143.805 161.766 143.036 162.535C142.267 163.303 141.225 163.735 140.138 163.737H128.677C129.02 162.33 129.069 160.866 128.818 159.44ZM103.998 18.7436C103.572 16.3806 102.344 14.2367 100.521 12.673H140.138C141.225 12.6743 142.267 13.1066 143.036 13.8749C143.805 14.6433 144.237 15.685 144.239 16.7716V87.3878C142.485 83.4422 140.179 79.766 137.39 76.4698C137.416 76.3393 137.43 76.2067 137.434 76.0737L137.126 72.6727C137.096 72.3459 137.003 72.0281 136.85 71.7375C136.698 71.4469 136.489 71.1892 136.237 70.979C135.985 70.7689 135.694 70.6104 135.381 70.5126C135.067 70.4149 134.738 70.3798 134.411 70.4094C134.084 70.439 133.766 70.5326 133.475 70.685C133.185 70.8374 132.927 71.0456 132.716 71.2976C132.506 71.5495 132.348 71.8405 132.25 72.1537C132.152 72.467 132.117 72.7964 132.147 73.1232L132.455 76.5241C132.461 76.5889 132.497 76.6412 132.507 76.7042C127.2 84.7202 122.573 93.1667 118.678 101.955L103.998 18.7436ZM136.266 76.1788C136.283 76.3527 136.265 76.5281 136.213 76.695C136.162 76.8619 136.078 77.017 135.966 77.1514C135.855 77.2858 135.717 77.3968 135.563 77.4781C135.408 77.5594 135.239 77.6094 135.065 77.6252C134.891 77.6411 134.716 77.6224 134.549 77.5703C134.382 77.5181 134.227 77.4336 134.093 77.3215C133.959 77.2095 133.848 77.0721 133.768 76.9172C133.687 76.7623 133.638 76.593 133.622 76.419L133.313 73.018C133.282 72.6675 133.391 72.3188 133.616 72.0485C133.842 71.7782 134.165 71.6083 134.516 71.576C134.557 71.5726 134.597 71.5703 134.637 71.5703C134.968 71.5709 135.288 71.6951 135.532 71.9185C135.776 72.1419 135.929 72.4484 135.959 72.7781L136.266 76.1788ZM77.7211 12.673L51.6858 17.2619V16.7716C51.6871 15.685 52.1195 14.6433 52.8882 13.8749C53.6569 13.1066 54.6991 12.6743 55.7862 12.673H77.7211ZM36.5843 182.83C34.7483 183.154 32.859 182.735 31.3318 181.666C29.8047 180.598 28.7649 178.966 28.4412 177.131L3.62165 36.435C3.29794 34.5999 3.71681 32.7114 4.78612 31.1849C5.85543 29.6584 7.48759 28.6191 9.32354 28.2955L92.3941 13.6542C94.2301 13.3307 96.1194 13.7494 97.6465 14.8182C99.1736 15.887 100.213 17.5184 100.537 19.3536L125.357 160.05C125.68 161.885 125.262 163.773 124.192 165.3C123.123 166.826 121.491 167.866 119.655 168.189L36.5843 182.83ZM146.912 167.653C147.454 167.196 147.948 166.685 148.388 166.129L176.382 171.063C177.758 171.304 179.175 170.99 180.32 170.188C181.465 169.387 182.245 168.164 182.489 166.789L207.309 26.0925C207.55 24.7163 207.235 23.3007 206.433 22.1562C205.631 21.0117 204.408 20.2319 203.032 19.9877L148.461 10.3697C147.828 9.53745 147.076 8.80367 146.228 8.19242L203.337 18.258C205.173 18.5817 206.805 19.621 207.875 21.1475C208.944 22.6739 209.363 24.5624 209.039 26.3976L184.22 167.093C183.896 168.929 182.856 170.56 181.329 171.629C179.802 172.698 177.913 173.116 176.077 172.793L146.912 167.653ZM190.148 153.719L207.958 159.494L207.718 158.482C207.317 156.786 206.927 155.061 206.542 153.331C209.781 151.996 213.223 151.221 216.722 151.04C216.586 151.505 216.589 151.999 216.729 152.462C216.869 152.925 217.14 153.338 217.511 153.65C217.732 153.836 217.985 153.982 218.257 154.081C218.602 154.206 218.971 154.253 219.336 154.22L219.378 154.208C217.942 164.298 214.093 173.893 208.157 182.178L184.459 173.557C186.145 172.011 187.277 169.955 187.681 167.703L190.148 153.719ZM229.817 54.4584C229.911 54.5065 230.007 54.5486 230.106 54.5842C230.627 54.7739 231.197 54.7836 231.724 54.6117C231.822 54.566 231.916 54.5138 232.007 54.4555C233.651 64.2216 234.979 94.6592 205.892 150.319C201.036 129.615 199.687 108.243 201.901 87.0926L204.629 71.6269C205.317 68.6401 206.074 65.6375 206.976 62.6048C213.693 58.2837 220.921 54.8127 228.493 52.2714C228.494 52.7218 228.618 53.1634 228.851 53.5487C229.085 53.934 229.419 54.2485 229.817 54.4584ZM229.777 51.63L231.338 48.5907C231.5 48.2788 231.778 48.0435 232.113 47.936C232.448 47.8285 232.811 47.8575 233.125 48.0167C233.437 48.178 233.673 48.4564 233.781 48.7912C233.889 49.1259 233.86 49.4898 233.7 49.8031L232.139 52.8424C231.977 53.1543 231.699 53.3896 231.364 53.4972C231.029 53.6047 230.666 53.5758 230.352 53.4167C230.04 53.2555 229.803 52.977 229.695 52.6421C229.588 52.3073 229.617 51.9434 229.777 51.63ZM206.901 58.7519L209.754 42.5789L212.703 43.6002C210.507 48.5465 208.57 53.6039 206.901 58.7519ZM206.34 157.739L190.353 152.555L199.761 99.2245C199.7 100.743 199.613 102.253 199.593 103.787C199.622 121.979 201.888 140.099 206.34 157.739ZM218.096 150.881L220.289 148.262C220.515 147.994 220.839 147.826 221.189 147.796C221.539 147.766 221.887 147.875 222.156 148.101C222.425 148.326 222.594 148.649 222.626 148.999C222.658 149.348 222.55 149.696 222.326 149.967L220.133 152.586C220.022 152.72 219.884 152.831 219.73 152.912C219.575 152.993 219.406 153.043 219.232 153.058C219.058 153.074 218.883 153.055 218.716 153.002C218.549 152.95 218.395 152.866 218.261 152.754C218.127 152.642 218.016 152.504 217.936 152.349C217.855 152.195 217.806 152.025 217.79 151.852C217.775 151.678 217.794 151.503 217.847 151.336C217.899 151.17 217.984 151.015 218.096 150.881ZM220.612 153.675C220.764 153.578 220.905 153.465 221.031 153.337L223.224 150.717C223.541 150.338 223.739 149.874 223.792 149.383C223.846 148.891 223.752 148.395 223.523 147.958C223.294 147.52 222.94 147.16 222.506 146.923C222.072 146.686 221.578 146.583 221.086 146.628C220.759 146.655 220.44 146.748 220.149 146.899C219.858 147.051 219.6 147.259 219.39 147.512L217.466 149.812C213.629 149.918 209.841 150.705 206.279 152.135C236.86 94.1455 234.768 62.9148 233.03 53.5688C233.084 53.5073 233.135 53.4431 233.182 53.3764L234.743 50.3371C234.969 49.8976 235.059 49.401 235.002 48.9101C234.946 48.4192 234.744 47.9562 234.424 47.5798C234.104 47.2033 233.679 46.9302 233.204 46.7952C232.728 46.6602 232.223 46.6693 231.753 46.8214C231.44 46.9207 231.15 47.081 230.9 47.2931C230.65 47.5051 230.444 47.7648 230.295 48.0569L228.814 50.9418C221.317 53.385 214.147 56.7372 207.466 60.9235C209.3 54.9865 211.493 49.1663 214.033 43.4951L214.295 42.9111L209.96 41.4105L212.5 27.0074C212.734 25.6685 212.705 24.2969 212.415 22.969L263.858 41.6842C264.879 42.0571 265.711 42.8196 266.17 43.8044C266.63 44.7892 266.68 45.916 266.309 46.9376L217.424 181.188C217.051 182.209 216.289 183.04 215.303 183.499C214.318 183.958 213.191 184.008 212.169 183.638L209.288 182.59C215.382 174.028 219.271 164.097 220.612 153.675ZM269.061 47.9389L220.177 182.189C219.861 183.056 219.377 183.853 218.754 184.533C218.13 185.213 217.379 185.764 216.542 186.154C215.705 186.544 214.8 186.766 213.878 186.806C212.956 186.846 212.034 186.704 211.167 186.389L181.408 175.562C182.123 175.26 182.803 174.881 183.435 174.43L211.768 184.738C213.082 185.214 214.531 185.15 215.798 184.56C217.065 183.97 218.046 182.901 218.525 181.589L267.41 47.3381C267.887 46.0247 267.823 44.576 267.232 43.3098C266.641 42.0435 265.572 41.0632 264.259 40.5838L211.975 21.5623C211.69 20.7579 211.307 19.9911 210.837 19.2788L264.86 38.9331C265.728 39.2487 266.524 39.7319 267.205 40.3553C267.886 40.9787 268.437 41.73 268.827 42.5662C269.217 43.4025 269.438 44.3074 269.479 45.2292C269.519 46.1511 269.377 47.0718 269.061 47.9389Z" fill="black"/>
<path d="M106.998 163.88C109.394 163.457 111.611 162.334 113.369 160.653C115.126 158.971 116.345 156.806 116.872 154.432C117.399 152.058 117.209 149.581 116.327 147.314C115.445 145.047 113.911 143.093 111.918 141.698C109.925 140.303 107.563 139.531 105.131 139.478C102.698 139.424 100.305 140.094 98.2527 141.4C96.2008 142.707 94.5825 144.592 93.6027 146.818C92.6228 149.044 92.3253 151.511 92.7478 153.906C93.3177 157.116 95.1381 159.968 97.8097 161.838C100.481 163.708 103.786 164.442 106.998 163.88ZM93.9015 153.702C93.5192 151.535 93.7884 149.304 94.6749 147.29C95.5615 145.276 97.0256 143.57 98.8821 142.388C100.739 141.206 102.904 140.6 105.105 140.648C107.306 140.696 109.443 141.395 111.246 142.657C113.049 143.919 114.437 145.688 115.235 147.738C116.033 149.789 116.205 152.03 115.728 154.178C115.252 156.326 114.149 158.285 112.559 159.807C110.968 161.328 108.963 162.344 106.795 162.726C103.888 163.235 100.899 162.571 98.4815 160.879C96.0644 159.187 94.4173 156.606 93.9015 153.702Z" fill="black"/>
<path d="M119.35 166.459C120.726 166.215 121.949 165.435 122.751 164.291C123.553 163.146 123.867 161.731 123.626 160.354L98.8066 19.6584C98.5624 18.2828 97.7822 17.0601 96.6372 16.2588C95.4922 15.4574 94.076 15.1427 92.6992 15.3838L9.6288 30.0249C8.25255 30.269 7.02939 31.0489 6.22767 32.1934C5.42595 33.3378 5.11115 34.7534 5.35232 36.1296L30.1718 176.826C30.4161 178.201 31.1963 179.424 32.3413 180.225C33.4862 181.027 34.9025 181.341 36.2793 181.1L119.35 166.459ZM92.9026 16.5371C93.9735 16.3497 95.0749 16.5945 95.9654 17.2178C96.856 17.8411 97.4628 18.792 97.6529 19.8619L105 61.5144C104.263 61.7743 103.549 61.9908 102.835 62.2062C102.416 62.3328 101.983 62.4884 101.57 62.6002C100.376 62.9232 99.203 63.1905 98.0391 63.3958C86.5403 65.409 74.7121 62.7808 65.1494 56.0879C55.5867 49.395 49.0705 39.1839 47.0303 27.6947C46.8605 26.7331 46.7537 25.7772 46.6611 24.8545L46.6438 24.6901L92.9026 16.5371ZM6.5062 35.9261C6.31867 34.8558 6.56353 33.7549 7.18706 32.8648C7.8106 31.9747 8.76189 31.3681 9.83224 31.1782L45.4827 24.8947C45.4888 24.9572 45.5017 25.0261 45.508 25.0888C45.6006 26.0002 45.707 26.9375 45.8762 27.898C47.9706 39.6929 54.6603 50.1757 64.4775 57.0467C74.2947 63.9177 86.4377 66.6157 98.2425 64.5488C99.4271 64.3401 100.621 64.0667 101.834 63.7399C102.232 63.6329 102.65 63.4851 103.053 63.3644C103.768 63.1506 104.474 62.9568 105.21 62.6997L109.325 86.0271C106.235 81.1863 102.459 76.8198 98.1134 73.0641C98.1091 73.0465 98.1148 73.0296 98.11 73.012L97.225 69.7134C97.0531 69.0733 96.6339 68.5278 96.0595 68.1967C95.4852 67.8656 94.8028 67.7761 94.1625 67.948C93.5222 68.1198 92.9763 68.5388 92.6451 69.1129C92.3139 69.687 92.2244 70.3691 92.3963 71.0091L93.2815 74.3078C93.3415 74.478 93.4206 74.6409 93.5171 74.7934C90.386 84.196 88.1759 93.8804 86.9179 103.71C85.0559 98.8328 81.9489 94.5276 77.9061 91.2228C73.8632 87.9179 69.0253 85.7285 63.8733 84.8722C63.7509 84.8509 63.6248 84.8695 63.5137 84.9252C63.4027 84.981 63.3125 85.071 63.2565 85.1819C63.2 85.2922 63.1799 85.4175 63.199 85.5399C63.2181 85.6623 63.2754 85.7755 63.3627 85.8634C65.2452 87.7513 66.6564 90.0558 67.4822 92.5902C68.308 95.1247 68.5251 97.8179 68.116 100.452C67.7069 103.086 66.683 105.586 65.1273 107.751C63.5716 109.916 61.5277 111.684 59.1612 112.913C56.7947 114.141 54.172 114.796 51.5055 114.823C48.839 114.85 46.2036 114.249 43.8127 113.068C41.4217 111.888 39.3424 110.162 37.7431 108.029C36.1437 105.896 35.0693 103.417 34.6068 100.792L29.3385 70.9255C30.4591 70.6091 31.4893 70.0333 32.3456 69.2446C33.202 68.456 33.8603 67.4767 34.2673 66.3863C34.6744 65.2958 34.8186 64.1248 34.6883 62.9682C34.558 61.8116 34.1569 60.702 33.5175 59.7293L43.0238 42.3764C43.0929 42.2499 43.1129 42.1023 43.08 41.962C43.047 41.8217 42.9636 41.6985 42.8455 41.6158C42.7273 41.5332 42.5829 41.497 42.4398 41.5141C42.2966 41.5312 42.1648 41.6004 42.0695 41.7086L29.0094 56.5699C27.8115 56.2845 26.5613 56.3015 25.3717 56.6194C24.182 56.9373 23.0901 57.5461 22.1945 58.3909C21.2988 59.2357 20.6276 60.2899 20.2411 61.4586C19.8547 62.6274 19.7652 63.8738 19.9808 65.0857L29.5822 119.514C29.5902 119.558 29.6034 119.602 29.6214 119.644C30.3798 123.804 32.0161 127.755 34.4213 131.234C36.8266 134.713 39.9456 137.64 43.5708 139.82C42.1011 141.219 40.8203 142.804 39.7606 144.535C36.1094 136.654 31.3164 129.353 25.536 122.868C25.6247 122.608 25.6692 122.334 25.6678 122.059L25.5499 118.645C25.5258 117.983 25.2402 117.358 24.7557 116.906C24.2712 116.454 23.6273 116.213 22.965 116.235C22.5375 116.255 22.1226 116.386 21.761 116.615C21.3995 116.844 21.1038 117.163 20.9031 117.541L6.5062 35.9261ZM96.0397 74.9422C95.8713 74.9874 95.6956 74.999 95.5226 74.9763C95.3497 74.9536 95.1829 74.8971 95.0318 74.8099C94.8808 74.7228 94.7483 74.6068 94.6422 74.4684C94.536 74.3301 94.4581 74.1722 94.413 74.0038L93.5279 70.7064C93.4372 70.3664 93.4849 70.0042 93.6606 69.6993C93.8363 69.3943 94.1257 69.1713 94.4655 69.079L94.5795 69.0543C94.9065 68.9972 95.2432 69.0642 95.5233 69.2424C95.8034 69.4205 96.0068 69.6969 96.0936 70.0172L96.9784 73.3148C97.0692 73.655 97.0215 74.0173 96.8456 74.3223C96.6696 74.6274 96.3798 74.8503 96.0397 74.9422ZM86.5776 135.136C85.0733 134.433 83.5047 133.877 81.8936 133.474C83.4915 131.557 84.8445 129.449 85.9214 127.197C86.0499 129.815 86.2573 132.463 86.5776 135.136ZM63.9993 142.566C56.5063 143.876 48.799 142.164 42.5667 137.805C36.3345 133.445 32.0858 126.793 30.7518 119.307C30.7441 119.263 30.7311 119.22 30.713 119.18L21.1347 64.8825C20.9176 63.6702 21.0631 62.4209 21.553 61.2909C22.0429 60.161 22.8554 59.2006 23.8888 58.53C24.9222 57.8594 26.1306 57.5085 27.3626 57.5211C28.5946 57.5337 29.7955 57.9094 30.8149 58.601C31.8343 59.2926 32.6269 60.2695 33.0936 61.4093C33.5602 62.5491 33.68 63.8011 33.4381 65.0087C33.1961 66.2162 32.6032 67.3256 31.7335 68.1978C30.8637 69.0701 29.7559 69.6666 28.5486 69.9125C28.3992 69.9433 28.2677 70.0311 28.182 70.1572C28.0962 70.2833 28.0629 70.4378 28.0891 70.588L33.4531 100.995C33.9333 103.728 35.0342 106.315 36.671 108.556C38.3077 110.798 40.4369 112.634 42.8948 113.925C45.3527 115.215 48.0739 115.925 50.8492 116C53.6245 116.074 56.38 115.512 58.9039 114.356C61.4277 113.2 63.6528 111.481 65.408 109.331C67.1633 107.18 68.4019 104.657 69.0287 101.953C69.6555 99.2499 69.6539 96.4388 69.0239 93.7361C68.3938 91.0335 67.1522 88.5112 65.3945 86.3632C71.8545 87.8315 77.607 91.4895 81.6751 96.7159C85.7433 101.942 87.8763 108.415 87.7119 115.035C87.5476 121.655 85.0961 128.014 80.7736 133.033C76.4512 138.051 70.5242 141.419 63.9993 142.566ZM30.2141 56.9735L39.446 46.4684L32.726 58.7357C32.0198 57.9809 31.1644 57.3808 30.2141 56.9735ZM21.7256 118.777C21.7149 118.457 21.8198 118.145 22.0209 117.897C22.2221 117.648 22.506 117.481 22.8206 117.425C22.8816 117.414 22.9434 117.407 23.0053 117.405C23.3574 117.393 23.6996 117.522 23.9571 117.762C24.2146 118.002 24.3664 118.335 24.3793 118.686L24.497 122.099C24.5089 122.451 24.3806 122.793 24.1403 123.051C23.8999 123.308 23.5671 123.459 23.2152 123.471C22.8633 123.483 22.521 123.355 22.2637 123.114C22.0063 122.874 21.855 122.542 21.8431 122.19L21.7256 118.777ZM36.0758 179.947C35.005 180.134 33.9035 179.89 33.013 179.266C32.1225 178.643 31.5156 177.692 31.3255 176.622L22.1078 124.369C22.4628 124.552 22.8575 124.646 23.2572 124.642C23.3743 124.638 23.4909 124.626 23.6063 124.606C24.0968 124.513 24.5479 124.275 24.9004 123.922C30.7885 130.533 35.5968 138.03 39.1479 146.139C39.1894 146.246 39.2616 146.338 39.3556 146.405C39.4496 146.471 39.561 146.508 39.676 146.511C39.7915 146.517 39.9062 146.488 40.0046 146.427C40.1029 146.366 40.1801 146.277 40.2258 146.17C41.3408 144.019 42.8272 142.08 44.6167 140.445C45.6627 141.015 46.7417 141.522 47.8479 141.964C50.8594 146.789 55.9641 157.515 57.3208 176.202L36.0758 179.947ZM58.477 175.999C58.0623 164.37 55.0521 152.98 49.6666 142.663C53.0318 143.769 56.5679 144.262 60.1071 144.12L63.2695 162.071L59.8154 162.235C59.7382 162.237 59.6623 162.255 59.5922 162.288C59.5221 162.32 59.4592 162.366 59.4073 162.423C59.3553 162.48 59.3153 162.547 59.2896 162.62C59.264 162.693 59.2532 162.77 59.2579 162.847C59.2652 163.002 59.3339 163.148 59.4489 163.253C59.5638 163.357 59.7156 163.412 59.8708 163.405L62.0781 163.3L60.4345 164.526C60.3729 164.572 60.3209 164.629 60.2816 164.695C60.2422 164.761 60.2163 164.834 60.2052 164.91C60.1941 164.987 60.1981 165.064 60.217 165.138C60.2359 165.213 60.2693 165.283 60.3152 165.345C60.3612 165.406 60.4188 165.458 60.4849 165.497C60.5509 165.537 60.6241 165.563 60.7001 165.574C60.7762 165.585 60.8537 165.581 60.9283 165.562C61.0028 165.543 61.0729 165.51 61.1345 165.464L64.009 163.319L65.7501 164.285C65.8175 164.324 65.892 164.349 65.9692 164.359C66.0464 164.369 66.1249 164.363 66.1999 164.342C66.275 164.321 66.3451 164.286 66.4063 164.238C66.4674 164.189 66.5184 164.13 66.5561 164.061C66.5938 163.993 66.6176 163.918 66.626 163.841C66.6344 163.764 66.6272 163.685 66.605 163.611C66.5828 163.536 66.5459 163.467 66.4965 163.407C66.4471 163.346 66.3863 163.297 66.3174 163.26L64.4905 162.248L61.2901 144.082C62.2569 144.007 63.2282 143.891 64.2029 143.719C65.0693 143.566 65.9125 143.359 66.747 143.136L70.6186 163.551L68.9684 165.471C68.8671 165.588 68.8168 165.741 68.8284 165.896C68.84 166.051 68.9127 166.195 69.0304 166.296C69.1481 166.397 69.3012 166.447 69.456 166.436C69.6108 166.424 69.7546 166.352 69.8559 166.234L70.8222 165.11L71.0106 166.689C71.0196 166.765 71.0436 166.839 71.0812 166.906C71.1188 166.973 71.1692 167.032 71.2296 167.08C71.29 167.128 71.3592 167.163 71.4333 167.184C71.5073 167.204 71.5847 167.21 71.6611 167.201L71.694 167.197C71.8413 167.171 71.9731 167.089 72.0623 166.969C72.1515 166.849 72.1913 166.7 72.1737 166.551L71.9181 164.415L74.6169 164.834C74.7702 164.857 74.9263 164.818 75.051 164.726C75.1758 164.634 75.2592 164.497 75.2828 164.344C75.3065 164.191 75.2685 164.035 75.1773 163.909C75.086 163.784 74.9489 163.7 74.7959 163.676L71.7434 163.203L67.8755 142.802C70.1802 142.087 72.3888 141.093 74.452 139.842C75.3157 148.221 77.506 162.325 82.8554 171.702L58.477 175.999ZM84.088 171.485C78.5549 162.077 76.3778 147.456 75.5588 139.155C77.5523 137.818 79.3773 136.245 80.994 134.472C83.0904 134.931 85.114 135.675 87.0085 136.683C87.1032 136.736 87.211 136.762 87.3198 136.758C87.4286 136.754 87.5341 136.72 87.6244 136.659C87.7146 136.598 87.7862 136.513 87.8309 136.414C87.8756 136.315 87.8918 136.205 87.8776 136.097C87.3887 132.312 87.0916 128.504 86.9872 124.689C88.8548 119.724 89.355 114.349 88.4357 109.126C88.27 108.186 88.0463 107.267 87.7952 106.36C88.9503 95.9715 91.1697 85.7286 94.4187 75.793C94.9308 76.1045 95.5382 76.2207 96.1292 76.1203C96.2003 76.1077 96.272 76.0928 96.3429 76.0735C96.7228 75.9657 97.0722 75.7678 97.3595 75.4969C97.6467 75.226 97.8644 74.8898 97.9941 74.517C102.784 78.745 106.814 83.7612 109.911 89.3483L122.472 160.558C122.66 161.628 122.415 162.729 121.791 163.619C121.168 164.51 120.217 165.116 119.146 165.306L84.088 171.485Z" fill="black"/>
</svg>
