<svg width="299" height="301" viewBox="0 0 299 301" fill="none" xmlns="http://www.w3.org/2000/svg">
<path d="M157.091 273.753C182.887 271.493 206.748 261.481 225.772 245.657C206.103 261.481 181.92 271.17 157.091 273.753Z" fill="black"/>
<path d="M264.788 190.755C266.077 186.879 267.367 183.004 268.335 179.129C267.367 182.681 266.077 186.556 264.788 190.755Z" fill="black"/>
<path d="M268.335 220.466C268.335 220.789 268.012 220.789 268.012 221.112C268.335 220.466 268.657 219.821 269.302 219.175C268.979 219.498 268.657 219.821 268.335 220.466Z" fill="black"/>
<path d="M273.172 152.646C273.172 155.876 272.527 159.105 271.882 162.335C271.237 166.533 270.593 170.732 269.625 174.607C271.237 167.502 272.85 160.074 273.172 152.646Z" fill="black"/>
<path d="M60.0358 74.4922C49.3951 85.7955 41.334 99.0365 36.1749 113.569C41.6565 99.6824 50.04 86.4414 60.0358 74.4922Z" fill="black"/>
<path d="M249.311 175.253C249.311 174.93 249.311 174.93 249.311 174.607C249.311 175.253 248.989 175.576 248.989 176.222C248.989 175.899 249.311 175.576 249.311 175.253Z" fill="black"/>
<path d="M226.739 220.466C228.029 218.529 229.319 216.591 230.609 214.653C226.417 219.175 221.903 223.373 217.711 227.894C220.935 225.634 223.837 223.373 226.739 220.466Z" fill="black"/>
<path d="M117.108 249.532C148.708 259.867 184.821 255.991 213.841 233.385C215.131 231.447 216.421 229.832 218.033 228.217C202.878 239.844 184.176 247.271 165.475 252.762C149.352 255.991 133.23 252.762 117.108 249.532Z" fill="black"/>
<path d="M48.1062 159.105C48.4286 151.678 49.0735 144.25 49.396 136.176C47.7837 143.604 47.4613 151.355 48.1062 159.105Z" fill="black"/>
<path d="M48.1062 159.105C47.7837 165.242 48.1058 171.701 49.3956 178.483C59.0689 214.007 85.5085 239.198 117.108 249.532C77.1249 235.645 50.6857 197.86 48.1062 159.105Z" fill="black"/>
<path d="M269.303 218.852C270.593 216.591 270.915 215.622 270.915 215.622C270.27 216.914 269.625 217.883 269.303 218.852Z" fill="black"/>
<path d="M236.413 207.548C242.217 197.214 246.409 186.557 248.989 176.222C243.507 189.786 238.025 203.027 230.609 214.653C232.866 212.393 234.801 210.132 236.413 207.548Z" fill="black"/>
<path d="M211.584 83.2117C207.07 79.3363 202.556 75.7838 197.719 72.5543C202.233 76.1068 206.748 79.6592 211.584 83.2117Z" fill="black"/>
<path d="M179.341 236.614C183.532 235.322 187.724 233.384 191.593 231.447C187.724 233.061 183.532 234.676 179.341 236.614Z" fill="black"/>
<path d="M126.137 60.2822C112.917 62.8659 100.341 68.0331 88.0886 75.138C78.4153 84.8266 65.5175 94.5152 59.0686 107.433C55.8442 117.122 49.3953 123.581 49.3953 133.269C49.3953 134.238 49.3953 134.884 49.3953 135.853C52.2973 120.028 59.7135 104.527 71.9664 91.2856C87.1212 76.1069 105.178 66.7413 126.137 60.2822Z" fill="black"/>
<path d="M130.007 58.9904C128.717 59.3134 127.427 59.6363 126.137 60.2822C131.941 58.9904 137.745 58.3445 143.549 58.3445C139.035 58.0215 134.521 58.3445 130.007 58.9904Z" fill="black"/>
<path d="M228.996 183.973C232.221 175.576 234.8 167.502 236.413 159.106C242.861 110.663 207.393 68.679 159.026 58.9904C153.867 58.3445 148.708 58.0215 143.871 58.3445C158.381 58.9904 172.569 63.8347 184.822 68.679C227.384 91.2856 244.796 141.343 228.996 183.973Z" fill="black"/>
<path d="M64.2281 70.2938C76.8035 59.9593 90.991 50.9167 106.468 45.4265C105.823 45.7494 104.856 45.7494 104.211 46.0724C88.4114 51.5626 75.1912 59.9593 64.2281 70.2938Z" fill="black"/>
<path d="M264.788 190.755C257.049 211.747 243.829 230.155 227.384 244.365C238.67 234.999 248.343 223.696 255.76 210.778C259.629 204.642 262.531 197.537 264.788 190.755Z" fill="black"/>
<path d="M60.0358 74.4922C61.3256 73.2003 62.6159 71.5856 64.2281 70.2938C63.5832 70.9397 62.9374 71.2626 62.2925 71.9085C61.6476 72.8774 60.6807 73.5233 60.0358 74.4922Z" fill="black"/>
<path d="M52.6201 226.925C28.7592 192.692 23.9225 151.355 35.5305 116.153C28.7592 134.561 26.5021 154.261 30.049 175.253C33.2734 197.86 42.9468 220.466 59.069 236.614C63.5832 240.489 68.0974 243.719 72.6116 247.271C64.873 240.166 57.7792 234.676 52.6201 226.925Z" fill="black"/>
<path d="M157.091 273.753C146.128 274.722 135.165 274.399 123.557 272.139C134.843 274.399 146.128 274.722 157.091 273.753Z" fill="black"/>
<path d="M252.536 146.187C252.536 145.219 252.536 144.25 252.213 143.281C252.213 145.542 252.213 147.802 252.213 150.063C252.536 148.771 252.536 147.479 252.536 146.187Z" fill="black"/>
<path d="M123.557 272.139C103.888 267.294 87.7665 258.252 72.6116 247.271C74.5463 248.886 76.4803 250.824 78.415 252.762C92.2801 262.773 107.757 269.232 123.557 272.139Z" fill="black"/>
<path d="M191.271 285.057C223.193 272.139 252.212 253.085 268.012 221.112C242.862 264.388 195.463 289.255 147.741 290.224C162.251 290.547 176.761 289.255 191.271 285.057Z" fill="black"/>
<path d="M176.116 60.6052C183.855 63.8347 190.948 68.0331 198.042 72.5544C194.818 69.9708 191.916 67.7102 188.046 65.1265C184.177 63.5118 179.985 62.22 176.116 60.6052Z" fill="black"/>
<path d="M49.3959 120.351C33.2737 168.794 52.6204 220.466 97.7626 246.302C130.007 262.45 165.476 262.45 197.72 246.302C213.842 239.843 226.74 226.925 236.414 214.007C265.111 174.93 262.532 123.581 237.381 86.7642C262.854 126.487 262.854 183.004 229.965 220.466C204.169 249.532 165.476 262.45 126.783 255.991C104.211 249.532 81.6404 236.614 65.5181 217.237C46.1715 188.171 39.7226 155.876 49.3959 123.581C67.4528 72.5543 124.202 43.8117 176.116 60.6052C171.602 58.9905 167.088 57.0526 162.251 55.7608C110.66 46.0722 65.5181 75.1379 49.3959 120.351Z" fill="black"/>
<path d="M189.981 48.01C209.65 56.4068 225.772 70.2937 237.38 87.0872C226.095 69.6478 210.295 55.7609 189.981 48.01Z" fill="black"/>
<path d="M130.006 39.6132C121.945 40.5821 113.885 42.5199 106.468 45.4265C115.497 42.8429 124.202 42.5198 133.231 39.6132C152.577 36.3837 168.7 42.8428 184.822 46.0723C186.756 46.7182 188.369 47.3641 189.981 48.01C185.145 46.0723 180.308 44.1346 175.148 42.8428C159.026 39.6132 146.128 36.3837 130.006 39.6132Z" fill="black"/>
<path d="M211.585 83.2119C212.875 84.1807 214.165 85.4725 215.455 86.4414C214.81 85.7955 214.487 85.1496 213.843 84.5037C213.198 84.1807 212.553 83.8578 211.585 83.2119Z" fill="black"/>
<path d="M39.7224 71.9085C30.0491 81.5971 25.2124 93.5463 21.3431 106.464C28.1144 89.3479 37.7877 74.8151 50.3631 61.574C46.8162 64.8036 43.2693 68.356 39.7224 71.9085Z" fill="black"/>
<path d="M21.3431 106.464C18.1186 113.892 15.8606 121.643 13.926 130.04C13.6035 132.623 13.2811 134.884 13.2811 137.468C13.2811 136.176 13.6035 134.561 13.926 133.269C16.5055 124.227 18.4411 115.184 21.3431 106.464Z" fill="black"/>
<path d="M12.6371 171.055C11.6698 160.074 11.9923 148.771 13.282 137.145C11.0249 149.094 11.0249 159.751 12.6371 171.055Z" fill="black"/>
<path d="M49.0725 248.24C31.6605 227.248 20.0525 205.611 13.9261 178.483C13.2812 175.899 12.9596 173.638 12.6371 171.055C13.9269 184.619 17.1505 197.86 23.5994 210.778C30.0483 224.019 38.4318 237.26 49.0725 248.24Z" fill="black"/>
<path d="M147.741 290.224C139.68 289.901 131.619 289.255 123.557 288.286C100.986 285.057 84.8642 275.368 65.5175 262.45C59.3911 258.252 53.9091 253.408 49.0725 248.24C50.3623 249.855 51.33 251.147 52.6198 252.762C79.0602 279.244 113.562 290.87 147.741 290.224Z" fill="black"/>
<path d="M52.6191 58.9903C51.6517 59.9592 51.0069 60.928 50.0395 61.5739C51.3293 60.2821 52.6191 58.9903 53.9089 58.0215C53.5864 58.3444 52.9415 58.6674 52.6191 58.9903Z" fill="black"/>
<path d="M268.979 176.545C268.657 177.191 268.657 178.16 268.335 178.806C268.335 178.483 268.335 178.483 268.657 178.16C268.657 177.837 268.979 177.191 268.979 176.545Z" fill="black"/>
<path d="M268.657 120.351C252.535 49.3018 178.373 4.08847 110.66 26.6951C107.435 27.664 103.888 29.2787 100.019 30.8935C107.113 27.9869 114.851 25.4033 123.557 23.4656C197.719 10.5475 262.208 65.4494 271.882 139.728C272.527 142.958 273.171 145.864 273.171 149.094C272.849 139.405 270.914 129.071 268.657 120.351Z" fill="black"/>
<path d="M78.4162 39.6133C68.7428 45.4265 61.3266 51.2396 53.9104 58.0216C68.4204 47.6871 81.6406 38.6445 97.1179 32.1854C90.669 34.7691 83.8977 37.6756 78.4162 39.6133Z" fill="black"/>
<path d="M138.712 25.7264C126.137 26.3723 113.562 28.9559 100.986 33.1543C100.341 33.4772 99.6966 33.8002 99.0517 34.1231C108.725 31.2166 119.366 28.9559 130.006 26.6952C132.908 26.0493 135.81 25.7264 138.712 25.7264Z" fill="black"/>
<path d="M275.429 188.817C276.397 185.911 277.042 183.004 277.686 180.097C277.042 183.004 276.074 185.911 275.429 188.817Z" fill="black"/>
<path d="M168.699 265.68C181.597 262.45 194.495 259.221 207.393 252.762C215.131 248.24 221.58 243.073 227.384 237.26C205.458 256.637 176.438 266.971 147.096 266.971C154.512 266.971 161.606 266.649 168.699 265.68Z" fill="black"/>
<path d="M188.047 278.598C174.827 282.473 161.607 283.765 148.064 283.765C162.251 284.088 175.794 282.796 188.047 278.598Z" fill="black"/>
<path d="M279.621 130.363C278.976 124.873 277.686 119.059 276.397 113.569C277.364 119.382 278.654 124.873 279.621 130.363Z" fill="black"/>
<path d="M126.782 249.532C127.75 249.855 128.717 249.855 129.362 249.855C128.072 249.532 126.782 249.209 125.492 249.209C126.137 249.209 126.46 249.532 126.782 249.532Z" fill="black"/>
<path d="M107.435 243.073C114.207 246.302 120.011 247.917 125.815 249.209C118.076 247.271 109.37 244.042 101.631 239.843C103.566 241.135 105.501 242.104 107.435 243.073Z" fill="black"/>
<path d="M101.631 239.843C99.0518 238.229 96.4718 236.614 93.8923 234.999C96.1494 236.614 98.7294 238.552 101.631 239.843Z" fill="black"/>
<path d="M293.163 127.779C295.42 140.051 295.743 152.646 294.453 165.565C297.033 152.969 295.42 140.374 293.163 127.779Z" fill="black"/>
<path d="M292.518 123.581C292.196 121.32 291.551 119.382 291.228 117.122C278.33 68.6789 249.31 26.6952 200.944 10.5476C181.597 4.08853 162.251 -2.37051 139.679 0.859008C212.552 -1.72461 278.653 54.1461 292.518 123.581Z" fill="black"/>
<path d="M275.106 223.696C265.433 239.844 252.535 252.762 239.638 265.68C255.76 252.762 265.433 239.844 275.106 223.696Z" fill="black"/>
<path d="M228.996 183.973C227.707 187.202 226.417 190.432 224.805 193.661C226.095 190.432 227.707 187.202 228.996 183.973Z" fill="black"/>
<path d="M294.453 165.565C288.004 184.942 288.004 204.319 275.106 223.696C288.004 204.319 291.229 184.942 294.453 165.565Z" fill="black"/>
<path d="M65.517 275.368C81.6392 288.286 100.986 294.745 120.332 297.975C125.169 298.298 129.683 298.944 134.52 299.267C107.435 296.36 81.6392 286.672 60.0354 271.17C61.9701 272.462 63.5823 274.076 65.517 275.368Z" fill="black"/>
<path d="M81.6392 26.6951C75.5128 30.5705 69.0639 34.7689 63.2599 39.2902C80.3494 30.5705 97.7614 21.8508 117.108 15.7147C104.533 18.2984 91.9574 21.5279 81.6392 26.6951Z" fill="black"/>
<path d="M294.13 181.389C289.293 199.474 281.555 216.591 271.881 233.384C283.167 216.914 290.261 199.151 294.13 181.389Z" fill="black"/>
<path d="M201.59 26.3722C211.585 31.2165 221.259 37.0296 230.287 43.8116C221.581 37.0296 211.908 31.2165 201.59 26.3722Z" fill="black"/>
<path d="M7.47831 194.63C8.44564 197.537 9.41297 200.443 10.3803 203.35C4.89875 186.879 2.3192 170.086 2.3192 153.292C1.67431 167.179 3.28653 181.712 7.47831 194.63Z" fill="black"/>
<path d="M233.189 46.0723C232.221 45.4264 231.254 44.4575 230.287 43.8116C232.222 45.4264 234.478 47.0411 236.413 48.6559C235.123 48.01 234.156 47.0411 233.189 46.0723Z" fill="black"/>
<path d="M281.556 179.774C285.102 165.888 286.392 151.678 284.78 136.499C281.556 117.122 275.107 97.7446 265.433 78.3675C261.564 72.2314 257.05 66.7412 252.536 61.2511C278.976 93.8692 290.262 138.114 281.556 179.774Z" fill="black"/>
<path d="M150.643 25.7263C146.774 25.4034 142.904 25.4034 139.035 25.7263C142.582 25.4034 146.451 25.4034 150.643 25.7263Z" fill="black"/>
<path d="M159.026 26.6952C156.124 26.3723 153.223 26.0493 150.643 25.7263C153.868 26.0493 157.091 26.3723 160.638 27.0182C159.993 27.0182 159.348 26.6952 159.026 26.6952Z" fill="black"/>
<path d="M175.148 29.9247C169.989 28.9558 165.153 27.987 160.316 27.0181C168.377 28.9558 175.148 31.2165 182.242 33.1542C179.985 32.1854 177.406 31.2165 175.148 29.9247Z" fill="black"/>
<path d="M34.8853 222.727C37.4649 227.571 40.0444 232.093 42.9464 236.614C52.6198 249.532 62.2931 255.991 75.1908 265.68C59.3911 253.408 45.2035 238.875 34.8853 222.727Z" fill="black"/>
<path d="M220.291 91.2856C218.679 89.6708 217.067 88.056 215.455 86.7642C243.185 119.059 248.989 163.304 223.516 201.089C217.067 207.548 213.842 214.007 207.393 220.466C202.557 224.665 197.398 228.217 191.916 231.124C192.883 230.801 193.851 230.478 194.496 230.155C242.862 201.089 255.76 133.269 220.291 91.2856Z" fill="black"/>
<path d="M30.0493 94.5151C45.849 66.0954 70.999 47.0412 99.0517 34.1231C93.8926 35.7379 89.0566 37.6756 84.8648 39.6133C49.3959 58.9904 23.6004 91.2856 17.1515 133.269C17.1515 149.417 13.9271 162.335 17.1515 178.483C20.0535 194.63 26.1793 209.163 34.8853 222.727C12.9591 181.066 9.73528 135.207 30.0493 94.5151Z" fill="black"/>
<path d="M131.619 270.201C152.255 273.753 173.859 271.493 194.496 262.45C196.108 261.481 197.72 260.835 199.332 259.867C178.373 269.555 154.513 273.108 131.619 270.201Z" fill="black"/>
<path d="M194.495 36.3838C190.304 35.4149 186.434 34.1231 182.565 33.1543C190.304 36.3838 198.687 38.9674 206.426 42.8428C202.557 40.5822 198.365 38.3215 194.495 36.3838Z" fill="black"/>
<path d="M58.7463 228.54C63.2606 234.03 67.4523 238.552 71.9666 243.073C89.0561 258.575 110.015 267.294 131.619 270.201C103.244 265.357 77.1257 250.501 58.7463 228.54Z" fill="black"/>
<path d="M249.31 84.8266C262.208 104.204 265.433 123.581 268.657 142.958C271.882 159.106 265.433 172.024 262.208 188.171C255.759 211.424 242.217 230.478 224.805 244.365C225.45 244.042 226.094 243.396 226.739 243.073C275.106 201.089 284.779 133.269 246.086 78.3676C239.315 68.356 230.931 59.9593 221.258 52.8544C232.221 61.897 240.604 73.5233 249.31 84.8266Z" fill="black"/>
<path d="M217.067 49.3018C213.842 46.7182 209.973 44.7805 206.426 42.8428C211.585 45.7494 216.421 48.9789 221.258 52.8544C219.968 51.5625 218.679 50.2707 217.067 49.3018Z" fill="black"/>
<path d="M250.6 241.135C243.184 248.563 235.123 254.699 227.384 261.804C236.413 255.345 244.152 248.563 250.6 241.135Z" fill="black"/>
<path d="M114.529 282.796C108.402 280.536 101.954 278.598 96.1496 276.337C102.276 279.244 108.402 281.181 114.529 282.796Z" fill="black"/>
<path d="M12.3146 95.807C2.31882 117.445 -2.1954 141.343 1.02904 165.565C-1.55052 140.697 2.64126 117.122 12.3146 95.807Z" fill="black"/>
<path d="M168.7 285.057C152.578 285.057 139.68 288.286 123.558 285.057C120.656 284.411 117.753 283.765 114.529 282.796C116.464 283.442 118.399 284.088 120.333 285.057C139.68 288.286 159.027 288.286 178.373 285.057C194.496 281.827 210.618 275.368 223.516 265.68C224.805 264.388 226.095 263.096 227.707 261.804C227.385 262.127 227.062 262.127 226.74 262.45C207.393 275.368 191.271 281.827 168.7 285.057Z" fill="black"/>
<path d="M96.1496 276.337C89.0558 273.431 81.9622 269.878 75.1908 265.68C81.6397 270.524 88.7334 273.754 96.1496 276.337Z" fill="black"/>
<path d="M224.805 244.365C217.066 249.532 209.328 254.699 199.655 259.866C208.361 255.668 217.066 250.501 224.805 244.365Z" fill="black"/>
<path d="M126.782 10.5477C155.802 7.31814 184.822 13.7772 210.617 26.6953C215.454 29.2789 220.29 32.1855 224.805 35.415C222.225 33.4773 219.646 31.8625 217.066 29.9248C200.944 20.2362 181.597 13.7772 162.25 10.5477C99.0514 1.18205 37.4652 39.6133 12.3146 95.807C32.951 51.2396 76.8027 17.0067 126.782 10.5477Z" fill="black"/>
<path d="M252.535 150.063C251.891 158.137 249.633 166.533 249.633 174.607C251.246 166.533 252.213 158.137 252.535 150.063Z" fill="black"/>
<path d="M262.209 226.925C262.854 225.634 263.498 224.665 264.143 223.373C260.274 229.832 255.76 235.645 250.6 241.135C255.115 236.937 258.984 232.416 262.209 226.925Z" fill="black"/>
<path d="M252.536 61.2511C244.474 51.5625 235.123 42.5199 224.805 35.415C235.123 43.1658 244.152 51.5625 252.536 61.2511Z" fill="black"/>
<path d="M33.2731 168.794C30.0487 152.646 33.2731 139.728 36.4976 123.581C42.9464 104.204 52.6198 84.8265 68.742 71.9084C81.6397 62.2198 97.762 52.5313 113.884 46.0722C177.406 27.0181 247.376 77.0757 252.213 143.281C251.891 135.53 250.923 127.779 249.311 120.351C242.862 94.515 226.74 75.1379 204.169 58.9903C191.271 49.3018 175.149 46.0722 159.026 42.8427C139.68 39.6132 120.333 42.8427 104.211 49.3018C84.8642 58.9903 68.742 68.6789 55.8442 84.8265C42.9464 100.974 36.4976 117.122 33.2731 136.499C26.8242 172.024 38.1099 204.319 58.7463 228.54C56.8117 225.957 54.5544 223.373 52.6198 220.466C46.1709 204.319 36.4976 188.171 33.2731 168.794Z" fill="black"/>
<path d="M275.106 201.089C278.008 193.984 279.943 186.879 281.556 179.774C278.009 194.63 271.882 209.163 264.143 223.373C268.335 216.268 272.204 209.163 275.106 201.089Z" fill="black"/>
<path d="M91.3134 249.532C126.782 268.909 165.476 268.909 200.944 252.762C226.74 239.844 242.862 217.237 255.76 191.401C262.209 175.253 265.433 155.876 262.209 136.499C261.886 135.853 261.886 135.53 261.564 134.884C269.303 188.171 235.446 243.073 181.598 259.221C135.811 271.493 90.0237 257.606 60.6812 220.466C62.2935 222.727 63.9057 224.665 65.5179 226.925C71.9668 236.614 81.6401 243.073 91.3134 249.532Z" fill="black"/>
<path d="M235.124 51.5624C236.414 52.8542 238.026 54.146 239.316 55.4378C238.348 54.469 237.381 53.1772 236.414 52.2083C236.091 52.2083 235.446 51.8854 235.124 51.5624Z" fill="black"/>
<path d="M65.5179 249.532C70.3546 253.408 75.1913 256.96 80.0279 260.19C44.2366 235.645 22.3104 196.568 21.3431 155.876C21.3431 167.502 23.2777 179.452 26.8246 191.401C33.2735 214.007 46.1713 233.384 65.5179 249.532Z" fill="black"/>
<path d="M109.37 275.045C98.4065 271.17 89.0564 266.003 80.0279 260.19C84.5422 263.419 89.378 266.326 94.5371 268.909C99.3738 271.493 104.533 273.431 109.37 275.045Z" fill="black"/>
<path d="M178.373 278.598C268.657 255.991 310.575 149.417 255.76 75.138C255.437 74.8151 255.115 74.4921 254.792 74.1692C268.013 92.9004 276.396 115.184 278.331 139.728C281.555 194.63 252.535 246.303 204.169 268.909C194.495 272.139 181.597 275.368 171.924 278.598C150.965 281.181 130.328 281.827 109.37 275.045C112.916 276.337 116.464 277.629 120.333 278.598C139.68 281.827 159.026 281.827 178.373 278.598Z" fill="black"/>
<path d="M115.174 18.2984C131.941 14.7459 148.386 14.423 164.508 17.0066C147.741 14.423 131.296 14.7459 115.174 18.2984Z" fill="black"/>
<path d="M107.435 20.2361C107.435 20.2361 107.758 20.2361 108.08 19.9132C108.08 20.2361 107.758 20.2361 107.435 20.2361Z" fill="black"/>
<path d="M228.997 68.356C236.736 78.6905 244.475 89.3479 250.279 99.6824C248.022 94.5151 245.765 89.6709 242.863 84.8266C238.348 78.6905 233.834 73.2003 228.997 68.356Z" fill="black"/>
<path d="M107.113 20.2362C87.4442 25.7263 69.0649 35.7379 52.6202 49.3018C42.302 57.3756 34.8858 68.356 28.1145 79.3364C29.7267 77.0757 31.6614 74.4921 33.2736 71.9085C52.6202 46.0723 78.0933 29.9247 107.113 20.2362Z" fill="black"/>
<path d="M255.76 197.86C247.376 212.716 238.67 226.28 227.384 237.26C239.315 226.925 249.311 213.684 255.76 197.86Z" fill="black"/>
<path d="M21.3431 155.876C21.3431 124.55 33.5955 94.838 53.9095 72.2314C50.0402 76.1068 46.4933 80.3052 42.9464 84.5036C27.4691 107.11 20.6982 131.978 21.3431 155.876Z" fill="black"/>
<path d="M184.822 39.6133C201.267 46.7183 215.777 55.4379 228.997 68.356C228.353 67.3872 227.707 66.4183 226.74 65.4495C213.842 52.5314 200.945 46.0724 184.822 39.6133Z" fill="black"/>
<path d="M123.558 33.1541C95.8281 38.3214 71.6448 52.5312 53.9104 72.5543C80.6733 45.1034 115.175 30.5705 150.644 32.5082C141.938 31.5394 132.909 31.8623 123.558 33.1541Z" fill="black"/>
<path d="M250.279 99.6824C254.793 110.663 257.694 122.289 261.886 134.884C260.274 124.55 257.372 114.215 252.858 104.204C251.89 102.589 250.924 101.297 250.279 99.6824Z" fill="black"/>
<path d="M8.76816 128.425C8.12327 130.04 7.80083 131.655 7.47839 133.269C1.67439 179.129 16.5068 224.988 49.0737 257.283C16.5068 224.342 1.0295 175.576 8.76816 128.425Z" fill="black"/>
<path d="M178.373 20.2361C200.299 26.6952 216.422 38.9673 235.124 51.5624C217.067 35.0919 194.818 23.4657 170.312 18.2984C173.214 18.9443 175.793 19.5902 178.373 20.2361Z" fill="black"/>
<path d="M254.792 74.1692C250.278 67.3872 244.797 61.251 239.316 55.4378C244.475 61.5739 249.633 68.679 254.792 74.1692Z" fill="black"/>
<path d="M184.822 39.6133C173.537 35.4149 161.928 32.8313 150.32 32.1854C162.251 33.1543 173.537 35.7379 184.822 39.6133Z" fill="black"/>
<path d="M49.0737 257.283C61.649 269.878 76.8031 280.213 94.2151 287.317C83.5744 282.796 73.2562 276.337 62.2931 268.909C57.4564 265.357 53.2655 261.481 49.0737 257.283Z" fill="black"/>
<path d="M94.2151 287.317C102.276 290.87 110.66 293.454 120.334 294.745C110.983 293.131 102.599 290.547 94.2151 287.317Z" fill="black"/>
<path d="M8.76699 128.425C11.3465 117.122 14.2485 106.141 17.1505 97.7447C13.2812 107.756 10.3792 118.091 8.76699 128.425Z" fill="black"/>
<path d="M17.1505 97.7447C20.6974 91.9316 24.2451 85.4725 28.1145 79.3364C23.6002 85.4725 19.4077 90.6398 17.1505 97.7447Z" fill="black"/>
<path d="M38.1091 223.696C16.5054 187.202 13.9258 143.281 28.4358 106.141C27.7909 107.756 27.146 109.048 26.5012 110.663C11.3463 150.063 17.7952 191.078 38.1091 223.696Z" fill="black"/>
<path d="M28.7587 106.141C41.9789 76.1067 63.9052 51.8853 94.5374 39.6132C106.79 36.0607 118.398 32.5082 129.684 30.5705C120.01 31.5394 110.337 33.4771 100.986 36.3836C65.5174 48.6558 41.0116 74.8149 28.7587 106.141Z" fill="black"/>
<path d="M129.684 30.5705C148.063 28.9558 165.798 30.8936 182.887 36.3838C175.149 33.4772 167.088 31.2166 158.704 29.9247C148.708 28.31 139.357 28.9558 129.684 30.5705Z" fill="black"/>
<path d="M78.7378 264.711C62.2931 254.053 48.4274 239.844 38.1091 223.696C41.3336 229.186 45.2036 234.676 49.3954 239.844C58.1013 249.855 67.7747 257.929 78.7378 264.711Z" fill="black"/>
<path d="M148.064 283.765C140.003 283.765 131.619 282.796 123.558 281.827C107.436 278.275 92.2804 272.785 78.7378 264.711C91.3131 272.462 105.179 278.598 120.333 281.827C129.684 283.119 139.035 283.765 148.064 283.765Z" fill="black"/>
<path d="M220.291 55.7608C208.683 47.0411 196.108 40.9051 183.21 36.3837C218.356 49.9477 246.409 78.0445 258.984 111.309C258.984 110.986 258.984 110.986 258.984 110.663C252.535 88.0561 236.413 71.9084 220.291 55.7608Z" fill="black"/>
<path d="M255.76 230.155C266.401 217.56 271.238 203.35 275.429 188.817C269.948 207.225 259.952 224.988 246.087 239.844C229.965 255.991 210.618 268.909 188.047 278.598C213.842 268.909 236.413 252.762 255.76 230.155Z" fill="black"/>
<path d="M60.6812 220.466C50.0406 205.611 42.9462 188.817 40.0442 171.701C41.9789 185.911 46.4931 200.12 55.844 214.007C57.4562 216.268 59.069 218.206 60.6812 220.466Z" fill="black"/>
<path d="M213.842 226.926C204.169 233.385 191.271 243.073 178.373 246.303C163.218 252.439 145.162 252.762 129.362 249.855C133.554 250.824 138.068 251.47 142.904 252.762C194.495 255.991 239.638 217.237 249.311 165.565C255.76 123.581 236.413 81.5971 197.72 58.9904C194.173 57.0527 190.304 55.438 186.757 54.1462C197.075 58.3445 205.459 66.4184 213.842 71.9085C262.209 110.663 262.209 184.942 213.842 226.926Z" fill="black"/>
<path d="M255.76 197.86C269.947 169.44 269.625 138.76 258.984 111.309C262.209 127.133 268.335 143.281 265.433 159.106C262.209 172.024 258.984 184.942 255.76 197.86Z" fill="black"/>
<path d="M75.1912 188.171C74.8688 187.202 74.5463 185.911 74.2239 184.942C77.7708 193.984 83.5748 202.704 91.3134 210.778C130.007 249.532 194.496 236.614 220.291 191.401C236.413 159.106 233.189 126.81 213.842 97.7447C200.945 81.597 184.822 68.679 162.251 65.4494C137.423 60.6052 113.885 66.0954 95.1828 78.6905C101.954 74.4921 109.37 71.2626 117.109 68.679C159.027 55.7609 204.169 75.138 223.516 117.122C229.964 139.728 229.964 159.106 223.516 181.712C204.169 230.155 139.68 249.532 97.7623 214.007C84.8646 201.089 75.1912 188.171 71.9668 168.794C68.7423 152.646 68.7423 136.499 78.4157 123.581C84.8646 113.892 88.089 104.204 97.7623 97.7447C113.885 84.8266 133.231 78.3675 152.578 81.5971C165.476 84.8266 175.149 91.2856 184.822 94.5151C197.72 100.974 204.169 117.122 210.618 130.04C211.908 133.915 212.23 138.114 211.908 142.958C211.908 139.728 211.585 136.499 210.618 133.269C207.393 120.351 200.945 110.663 191.271 100.974C171.925 84.8266 149.353 81.5971 126.782 84.8266C110.66 88.0561 97.7623 97.7447 88.089 110.663C78.4157 123.581 75.1912 136.499 71.9668 149.417C71.9668 168.794 78.4157 184.942 88.089 201.089C117.109 239.844 171.925 239.844 204.169 207.548C217.067 194.63 223.516 178.483 226.74 162.335C229.964 149.417 226.74 136.499 223.516 123.581C220.291 110.663 210.618 100.974 204.169 91.2856C180.953 68.0331 149.676 62.5429 121.946 70.6167C142.905 65.7724 163.863 69.3249 184.822 78.3675C200.945 88.0561 210.618 104.204 220.291 120.351C223.516 130.04 223.516 136.499 226.74 146.187C226.74 159.106 223.516 172.024 220.291 181.712C197.72 233.384 130.007 243.073 91.3134 201.089C65.5179 172.024 68.7423 130.04 94.5379 104.204C113.885 84.8266 146.129 78.3675 171.925 91.2856C173.214 91.9315 174.504 92.9004 175.794 93.8692C147.419 76.7528 112.272 89.6709 91.3134 110.663C84.8646 120.351 81.6401 130.04 78.4157 139.728C65.5179 188.171 107.436 230.155 155.802 226.925C207.393 220.466 239.638 165.565 217.067 117.122C213.842 107.433 207.393 100.974 200.945 94.5151C195.785 87.7331 189.014 83.5348 181.275 80.3052C214.487 97.4217 228.997 137.468 220.291 172.024C217.067 178.483 213.842 188.171 207.393 194.63C194.496 210.778 181.598 217.237 162.251 223.696C152.578 223.696 142.905 226.925 133.231 223.696C120.333 220.466 110.66 217.237 100.987 207.548C95.8277 202.381 91.9583 197.537 88.7339 192.37C93.5706 199.475 99.697 204.965 107.436 210.778C120.333 220.466 136.456 223.696 152.578 223.696C168.7 220.466 181.598 217.237 194.496 207.548C204.169 197.86 210.618 184.942 217.067 175.253C226.74 149.417 220.291 120.351 200.945 97.7447C181.598 78.3675 152.578 71.9085 126.782 75.138C94.5379 81.597 71.9668 107.433 65.5179 136.499C64.873 141.02 64.5506 145.219 64.2281 149.417C65.8403 130.363 76.1586 112.277 88.089 97.7447C110.66 75.138 146.129 68.679 175.149 81.5971C191.271 91.2856 204.169 104.204 213.842 120.351C233.189 162.335 204.169 210.778 159.027 220.466C139.68 223.696 120.333 217.237 104.211 204.319C98.0848 199.152 93.2481 193.016 89.7012 186.556C99.697 203.996 117.754 216.268 139.68 220.466C171.925 223.696 200.945 204.319 213.842 175.253C220.291 152.646 217.067 130.04 204.169 107.433C191.271 91.2856 178.373 84.8266 159.027 78.3675C136.456 75.138 117.109 78.3675 97.7623 91.2856C81.6401 100.974 75.1912 117.122 68.7423 133.269C65.5179 155.876 65.5179 178.483 78.4157 197.86C88.089 210.778 97.7623 220.466 110.66 226.925C111.95 227.248 113.24 227.571 114.207 228.217C109.048 226.28 104.211 223.696 100.987 220.466C91.3134 210.778 78.4157 201.089 75.1912 188.171ZM139.68 88.0561C149.353 88.0561 162.251 88.0561 171.925 94.5151C188.047 104.204 200.945 113.892 204.169 133.269C207.393 146.187 207.393 162.335 200.945 175.253C199.655 176.545 198.687 177.837 197.72 179.129C210.295 157.491 208.038 130.363 191.271 110.663C181.598 100.974 171.925 94.5151 159.027 91.2856C149.676 91.2856 138.39 89.6709 128.072 91.2856C131.941 89.9938 135.811 89.0249 139.68 88.0561ZM191.594 187.525C189.014 191.401 186.112 194.953 181.598 197.86C173.537 203.35 164.831 206.257 156.125 207.548C169.023 204.319 181.598 201.089 191.271 188.171C191.271 187.848 191.594 187.848 191.594 187.525ZM152.578 104.204C145.807 104.204 140.97 102.589 135.166 102.912C140.647 102.266 146.451 102.589 152.578 104.204ZM94.2154 173.961C93.2481 171.055 92.2808 168.148 91.3134 165.565C86.7992 140.051 100.342 114.861 122.591 105.818C96.4725 117.445 85.5095 148.448 94.2154 173.961ZM105.501 193.016C100.019 188.171 96.795 181.389 94.5379 174.607C96.4725 181.389 100.342 187.525 105.501 193.016ZM110.66 104.204C109.693 104.527 108.725 104.85 108.081 105.496C112.272 102.266 116.787 99.6824 121.623 97.4217C118.076 99.6824 114.207 102.266 110.66 104.204ZM81.6401 175.253C82.285 178.806 83.2523 181.712 84.5421 184.619C81.6401 178.806 79.7055 172.347 78.4157 165.565C75.1912 155.876 78.4157 142.958 81.6401 133.269C88.089 123.581 91.3134 110.663 100.987 104.204C104.534 101.62 108.081 99.3594 111.305 97.7447C83.8972 114.538 75.5137 144.896 81.6401 175.253ZM90.3461 171.378C92.9257 178.483 96.4725 185.265 100.987 191.401C112.917 206.257 132.909 215.622 153.868 214.653C126.137 216.914 98.7297 198.829 90.3461 171.378ZM162.896 213.039C167.41 211.747 171.924 209.809 176.116 207.548C171.924 210.132 167.41 211.747 162.896 213.039ZM184.822 201.089C171.925 210.778 152.578 214.007 136.456 210.778C132.909 209.486 129.039 207.871 125.493 205.934C150.321 215.299 181.92 209.163 197.72 184.942C200.945 178.483 204.169 168.794 207.393 162.335C213.842 136.822 201.267 114.538 182.565 98.3906C193.851 107.11 202.557 117.445 207.393 130.04C213.842 155.876 207.393 181.712 184.822 201.089ZM195.785 192.693C201.912 183.65 207.716 174.607 210.618 165.565C208.683 177.514 202.879 185.911 195.785 192.693ZM213.842 133.269C219.324 150.063 216.422 167.502 208.038 182.035C216.422 164.273 217.067 143.927 210.295 124.55C211.585 127.456 212.552 130.363 213.842 133.269ZM71.9668 130.04C78.4157 117.122 84.8646 104.204 97.7623 94.5151C113.885 84.8266 130.007 78.3675 146.129 78.3675C159.027 81.5971 171.925 81.5971 184.822 91.2856C191.916 95.484 197.075 100.974 201.267 107.11C174.827 71.5855 117.754 71.5855 88.089 104.204C75.1912 120.351 68.7423 136.499 68.7423 155.876C68.7423 157.491 68.7423 158.783 68.7423 160.397C67.775 150.386 68.7423 140.051 71.9668 130.04Z" fill="black"/>
<path d="M160.316 236.291C167.733 234.676 174.826 232.093 181.598 230.155C200.944 220.466 217.067 204.319 226.74 184.942C246.087 136.499 220.291 84.8265 175.149 65.4494C133.231 49.3018 84.8644 68.6789 62.2933 107.433C59.0689 117.122 55.8444 126.81 52.62 136.499C44.2364 175.253 62.2933 211.747 91.9582 233.707C90.6684 232.738 89.3786 231.447 88.0889 230.155C80.3502 222.404 72.934 213.684 66.8075 204.319C68.4198 206.579 70.032 208.84 71.9666 210.778C81.64 220.466 91.3133 230.155 100.987 236.614C152.578 265.68 217.067 243.073 239.638 188.171C246.087 172.024 249.311 155.876 246.087 136.499C236.413 78.3674 184.822 39.6132 126.782 49.3018C107.436 52.5313 88.0889 58.9903 71.9666 75.1379C69.7095 78.3674 67.13 81.597 64.8729 84.8265C69.7095 79.3363 75.5135 74.1691 81.64 68.6789C113.884 46.0722 152.578 42.8427 188.047 58.9903C220.291 75.1379 242.862 104.204 246.087 142.958C249.311 191.401 217.067 233.384 171.924 246.302C152.578 249.532 133.231 249.532 117.109 243.073C94.5378 233.384 71.9666 217.237 62.2933 191.401C56.1669 172.992 52.9424 157.491 55.522 139.405C53.5873 150.709 53.5873 162.981 55.8444 175.253C58.1015 184.619 60.6811 194.307 65.5178 202.381C54.8771 185.265 48.4282 165.242 52.62 142.958C55.8444 133.269 55.8444 123.581 62.2933 113.892C71.9666 97.7446 81.64 84.8265 94.5378 75.1379C136.456 49.3018 188.047 58.9903 217.067 100.974C223.515 110.663 226.74 120.351 229.964 130.04C233.189 162.335 229.964 191.401 204.169 214.007C194.495 220.466 184.822 226.925 175.149 230.155C159.027 233.384 146.129 236.614 130.007 233.384C133.231 234.353 136.456 235.645 139.68 236.614C140.97 236.937 141.937 236.937 143.227 237.26C140.002 237.26 136.456 236.937 133.231 236.614C113.884 233.384 97.7622 223.696 84.8644 207.548C75.1911 194.63 68.7422 181.712 65.5178 168.794C63.9055 162.658 63.5831 156.522 63.9055 150.386C62.6158 167.179 64.8729 182.681 75.1911 197.86C107.436 249.532 178.373 252.762 217.067 207.548C219.969 203.027 222.226 198.183 224.483 193.661C223.193 196.245 221.903 198.829 220.291 201.089C206.426 222.081 183.855 233.061 160.316 236.291Z" fill="black"/>
<path d="M52.6198 214.007C46.1709 204.319 42.9464 194.63 39.722 184.942C36.4975 168.794 36.4975 155.876 36.4975 139.728C46.1709 71.9085 117.109 29.9247 181.597 52.5313C182.887 52.8543 184.499 53.5002 185.789 53.8231C176.761 50.5936 168.055 48.333 159.026 46.0723C107.435 39.6133 55.8442 71.9085 39.722 120.351C33.2731 142.958 33.2731 165.565 39.722 188.171C46.1709 201.089 49.3953 214.007 59.0686 226.925C81.9622 254.053 114.851 266.971 147.418 266.971C109.692 266.326 74.2235 249.209 52.6198 214.007Z" fill="black"/>
<path d="M279.621 130.363C281.878 146.833 281.233 163.627 277.686 179.774C278.975 174.93 280.265 170.086 281.555 165.242C283.49 153.938 281.878 142.312 279.621 130.363Z" fill="black"/>
<path d="M278.33 75.138C268.657 58.9904 255.759 42.8428 239.637 29.9247C238.025 28.6329 236.412 27.664 234.8 26.3722C282.522 61.8969 306.383 123.258 294.13 181.066C295.742 175.253 296.709 168.794 297.677 162.335C300.901 130.04 291.228 104.204 278.33 75.138Z" fill="black"/>
<path d="M40.0442 171.701C38.1095 156.199 39.7219 140.374 42.9463 123.581C43.9136 119.705 45.5259 115.83 47.1381 112.278C46.8156 112.923 46.4932 113.246 46.1708 113.892C38.1096 132.946 36.4973 152.646 40.0442 171.701Z" fill="black"/>
<path d="M130.007 233.384C124.848 231.77 119.689 229.832 114.207 228.217C119.689 230.155 125.17 231.77 130.007 233.384Z" fill="black"/>
<path d="M234.8 26.3722C224.482 18.9443 213.197 12.1623 200.944 7.31804C212.229 15.7148 223.515 19.2673 234.8 26.3722Z" fill="black"/>
<path d="M55.8443 136.499C55.5218 137.468 55.522 138.437 55.522 139.405C60.0362 114.215 74.8688 92.2545 95.1828 78.6905C74.8688 91.6086 60.681 112.277 55.8443 136.499Z" fill="black"/>
<path d="M239.315 51.5624C257.695 68.6789 269.947 90.6396 276.396 113.892C276.074 111.631 275.429 109.694 275.107 107.433C268.335 85.4724 255.437 66.7412 239.315 51.5624Z" fill="black"/>
<path d="M201.588 26.3723C193.85 22.8198 186.111 19.5903 178.372 17.0067C159.026 13.7771 142.904 10.5476 123.557 13.7771C121.3 14.423 119.365 15.0688 117.108 15.7147C120.333 15.0688 123.557 14.423 126.781 13.7771C152.577 11.1935 178.695 16.0378 201.588 26.3723Z" fill="black"/>
<path d="M36.4971 62.2199C44.5582 54.1461 53.5866 46.3952 63.2599 39.2902C62.9374 39.2902 62.6151 39.6133 62.2927 39.6133C49.3949 46.0723 42.946 55.7609 33.2727 65.4495C12.3138 90.6397 2.31801 121.643 2.31801 153.292C2.64046 146.51 3.28534 139.728 4.25268 133.269C10.7016 107.433 20.3749 84.8266 36.4971 62.2199Z" fill="black"/>
<path d="M213.842 285.057C189.014 298.944 161.929 300.882 134.521 299.267C153.223 301.204 172.57 299.913 191.271 294.745C223.516 285.057 252.535 262.45 271.881 233.384C255.759 255.991 236.413 272.139 213.842 285.057Z" fill="black"/>
<path d="M10.3803 203.35C10.3803 203.673 10.7025 203.996 10.7025 204.319C20.3758 232.416 38.1102 255.022 60.0364 271.17C36.498 251.47 20.0536 229.509 10.3803 203.35Z" fill="black"/>
<path d="M59.0685 262.45C62.293 265.68 65.5174 267.94 69.3868 269.878C61.9705 264.065 55.5217 258.252 49.7177 252.439C52.6197 255.991 55.8441 259.221 59.0685 262.45Z" fill="black"/>
<path d="M198.042 285.057C182.887 289.901 167.732 291.516 152.577 291.516C133.23 294.745 113.884 291.516 94.5371 281.827C85.8311 277.306 77.1254 274.399 69.3868 269.878C70.3541 270.524 71.3211 271.17 71.966 272.139C112.272 297.329 158.381 300.236 198.042 285.057Z" fill="black"/>
<path d="M256.726 242.104C240.927 262.127 220.613 276.66 198.042 285.057C205.458 282.796 212.874 279.567 220.29 275.368C235.445 265.357 246.408 255.345 256.726 242.104Z" fill="black"/>
<path d="M64.8729 84.8265C57.4567 93.2232 51.3299 102.266 47.1381 112.278C51.6523 103.235 58.1015 93.8691 64.8729 84.8265Z" fill="black"/>
<path d="M252.535 75.1381C250.278 72.8774 248.344 70.9397 246.087 68.679C256.405 81.5971 264.143 95.807 268.98 110.986C265.433 98.3906 259.629 86.4414 252.535 75.1381Z" fill="black"/>
<path d="M13.926 191.401C17.1504 204.319 23.5993 217.237 30.0482 230.155C32.6277 233.384 34.8848 236.614 37.4644 239.521C27.4686 223.373 19.4075 205.611 13.2811 187.202C13.6035 188.494 13.6035 189.786 13.926 191.401Z" fill="black"/>
<path d="M10.7018 130.04C17.1507 114.215 20.3751 98.3906 29.4036 82.5659C22.9547 92.9004 17.7956 104.527 13.9262 117.122C7.47736 136.499 7.47736 159.106 10.7018 178.483C11.6691 181.389 12.314 184.296 13.2814 186.879C10.3794 166.211 7.7998 148.125 10.7018 130.04Z" fill="black"/>
<path d="M39.7226 243.073C42.9471 246.302 46.1715 249.532 49.396 252.762C45.5266 248.563 41.3349 244.365 37.4655 239.52C38.1104 240.489 39.0778 241.781 39.7226 243.073Z" fill="black"/>
<path d="M232.866 108.402C228.996 100.328 223.837 92.9004 218.033 85.7954C224.16 92.9004 228.996 100.328 232.866 108.402Z" fill="black"/>
<path d="M164.507 73.8461C170.311 76.1068 175.793 77.7215 181.274 79.9822C177.082 78.3674 173.213 76.4297 168.699 75.1379C167.409 74.815 165.797 74.1691 164.507 73.8461Z" fill="black"/>
<path d="M88.734 219.175C84.5423 214.976 80.9954 210.455 77.4485 206.58C80.6729 211.101 84.5423 215.299 88.734 219.175Z" fill="black"/>
<path d="M126.782 71.9085C68.7417 84.8266 39.7218 155.876 75.1906 204.319C75.8355 204.965 76.4812 205.934 77.4485 206.58C75.1914 203.673 73.5784 200.766 71.9662 197.86C68.7417 188.171 65.5173 181.712 62.2928 172.024C59.0684 155.876 62.2928 139.728 65.5173 126.81C80.9946 89.3479 123.879 64.1576 164.507 73.8461C162.572 73.2002 160.961 72.5544 159.026 71.9085C149.353 68.6789 136.455 71.9085 126.782 71.9085Z" fill="black"/>
<path d="M246.409 202.381C242.217 208.517 238.025 214.976 233.833 221.112C238.67 215.299 242.862 209.163 246.409 202.381Z" fill="black"/>
<path d="M268.657 191.401C260.596 210.455 249.956 227.571 237.058 242.104C238.025 241.458 238.67 240.812 239.637 239.844C273.494 205.934 283.813 155.553 268.98 110.986C277.364 137.145 277.363 164.919 268.657 191.401Z" fill="black"/>
<path d="M71.9662 39.6132C84.8639 33.1542 94.5373 26.6951 107.435 23.4656C149.353 13.7771 188.046 20.2361 223.515 46.0723C230.931 53.5002 238.67 61.2511 246.087 68.679C188.047 -5.59995 78.4151 4.0885 30.0484 81.597C29.726 81.9199 29.726 82.243 29.4036 82.5659C40.0442 65.7724 54.2317 51.5624 71.9662 39.6132Z" fill="black"/>
<path d="M142.904 243.073C156.124 245.334 168.055 241.458 179.341 236.614C154.835 245.011 127.104 241.781 104.211 230.155C98.7292 227.571 93.5707 223.696 88.734 219.175C91.3136 222.081 94.5374 224.665 97.7619 226.926C110.66 236.614 126.782 239.844 142.904 243.073Z" fill="black"/>
<path d="M229.964 249.532C232.544 246.949 234.801 244.688 237.058 242.104C218.679 256.96 199.977 269.232 175.149 275.368C194.818 271.816 213.52 263.419 229.964 249.532Z" fill="black"/>
<path d="M204.169 71.9085C203.524 71.2626 202.557 70.6167 201.912 70.2937C205.781 73.5233 209.651 76.7528 212.875 80.3053C210.295 77.0757 207.393 74.4921 204.169 71.9085Z" fill="black"/>
<path d="M46.1707 126.81C53.5869 99.3594 70.9989 78.0445 92.2802 65.1264C91.9578 65.1264 91.6354 65.4494 91.3129 65.4494C78.4151 71.9084 71.9663 81.597 62.2929 91.2855C44.2361 117.122 36.4974 149.417 44.2361 179.451C41.0116 162.012 42.3014 143.927 46.1707 126.81Z" fill="black"/>
<path d="M162.251 52.5314C167.087 54.792 173.214 55.4379 179.018 57.0527C150.32 45.7494 118.398 49.3018 92.2802 65.1264C114.529 55.4379 136.778 49.3018 162.251 52.5314Z" fill="black"/>
<path d="M68.7419 201.089C81.6397 217.237 94.5375 233.384 113.884 239.843C126.782 243.073 139.68 249.532 155.802 246.302C168.7 243.073 181.597 243.073 191.271 236.614C203.846 229.186 216.421 217.56 225.772 205.288C219.968 211.424 216.421 217.56 207.393 223.696C181.597 243.073 149.353 249.532 120.333 239.843C110.66 236.614 100.986 230.155 91.313 223.696C51.9748 193.661 49.0728 138.436 74.5459 102.589C69.7093 109.048 65.5175 115.83 62.2931 123.581C52.6197 149.417 55.8442 178.483 68.7419 201.089Z" fill="black"/>
<path d="M52.6205 201.089C48.7511 193.984 45.8483 186.879 44.2361 179.451C46.4932 191.401 51.0082 203.35 59.0694 214.007C71.9671 230.155 84.8649 246.303 104.212 252.762C107.758 253.73 111.305 254.699 114.852 255.668C88.7342 246.948 65.5182 228.54 52.6205 201.089Z" fill="black"/>
<path d="M232.866 108.402C245.764 134.561 247.376 165.242 233.189 194.307C248.666 167.179 246.408 135.53 232.866 108.402Z" fill="black"/>
<path d="M74.5459 102.589C86.7988 87.0871 103.566 76.1069 121.946 70.6167C120.333 70.9396 118.721 71.2626 117.109 71.9085C99.0522 77.3987 84.5417 88.3789 74.5459 102.589Z" fill="black"/>
<path d="M233.511 194.307C233.189 194.63 233.189 194.953 232.866 195.276C232.866 194.953 233.189 194.953 233.189 194.63C233.189 194.63 233.189 194.307 233.511 194.307Z" fill="black"/>
<path d="M232.866 195.276C230.932 198.829 228.352 202.058 225.772 205.288C226.095 204.965 226.418 204.642 226.74 204.319C228.997 201.412 230.932 198.183 232.866 195.276Z" fill="black"/>
<path d="M184.822 58.9904C183.21 58.0215 180.952 57.3756 179.018 57.0527C185.789 59.6363 192.238 63.1887 198.365 67.7101C194.173 64.4805 189.659 61.574 184.822 58.9904Z" fill="black"/>
<path d="M72.2894 252.762C55.1999 239.198 42.947 221.112 34.5634 202.381C42.6245 223.05 55.8448 240.166 72.2894 252.762Z" fill="black"/>
<path d="M30.0493 191.401C31.339 194.953 32.9512 198.829 34.5634 202.381C32.9512 197.86 31.339 193.016 30.0493 188.171C24.2453 165.242 23.6004 141.989 30.3717 119.06C22.9555 141.989 21.9882 167.179 30.0493 191.401Z" fill="black"/>
<path d="M30.3717 119.06C31.6615 114.861 33.2738 110.986 35.2084 107.11C34.5635 108.402 33.9186 109.694 33.2738 110.986C32.3064 113.569 31.339 116.153 30.3717 119.06Z" fill="black"/>
<path d="M81.64 259.221C81.9625 259.543 82.6074 259.544 82.9298 259.866C80.3503 258.252 77.7707 256.637 75.5136 255.022C77.4482 256.314 79.3829 257.929 81.64 259.221Z" fill="black"/>
<path d="M114.852 255.668C131.942 261.481 150.643 262.773 168.7 259.867C150.643 261.804 132.909 259.867 114.852 255.668Z" fill="black"/>
<path d="M82.9298 259.866C108.08 275.045 139.035 281.504 170.634 276.337C141.292 280.535 110.66 274.399 82.9298 259.866Z" fill="black"/>
<path d="M71.9664 58.9904C56.1666 72.2315 43.5913 88.702 35.2077 106.787C41.6566 95.161 50.3626 83.5348 59.0686 71.9085C114.207 13.4542 216.099 31.2165 248.021 102.589C245.764 96.7758 243.184 90.6397 239.637 84.8266C200.944 29.9247 123.557 17.0067 71.9664 58.9904Z" fill="black"/>
<path d="M177.727 257.606C197.074 252.762 215.131 242.427 229.963 226.925C231.253 224.988 232.544 223.05 233.833 221.112C219.646 238.229 200.621 251.147 177.727 257.606Z" fill="black"/>
<path d="M171.924 259.221C173.859 258.898 175.793 258.252 177.727 257.606C174.825 258.252 171.924 258.898 168.7 259.544C169.667 259.544 170.957 259.221 171.924 259.221Z" fill="black"/>
<path d="M248.021 102.589C250.278 108.402 252.212 113.892 253.824 119.705C253.502 117.768 252.857 115.83 252.212 113.892C251.245 110.017 249.633 106.141 248.021 102.589Z" fill="black"/>
<path d="M249.311 197.86C255.76 178.483 265.433 155.876 258.984 133.269C257.05 128.748 255.76 124.227 254.148 119.705C255.76 127.456 256.405 135.207 258.984 142.958C260.274 164.273 255.76 184.619 246.409 202.381C247.376 200.766 248.344 199.475 249.311 197.86Z" fill="black"/>
</svg>
