<svg width="108" height="108" viewBox="0 0 108 108" fill="none" xmlns="http://www.w3.org/2000/svg">
<g filter="url(#filter0_d_352_6998)">
<rect x="4" y="3" width="100" height="100" rx="50" fill="#FAE8CC" shape-rendering="crispEdges"/>
<path d="M34.2841 62.2004C34.2574 57.8894 30.9086 54.8182 28.2627 51.8065C27.7423 51.1624 27.1542 50.5527 26.8374 49.784C26.5363 48.2629 27.2649 46.714 27.9961 45.4197C28.4481 44.6757 29.1082 44.1297 29.7005 43.5054C30.205 42.9733 30.7812 42.2646 30.8139 41.4969C30.8205 41.3172 30.3727 41.192 30.1942 41.2749C31.3244 40.2321 32.3615 39.0999 32.3803 37.4535C32.3827 37.4116 32.374 37.3699 32.3552 37.3324C32.3364 37.2949 32.3081 37.2631 32.2731 37.24C31.926 37.074 30.8832 37.3795 30.4582 37.5887C30.8833 36.5884 31.0591 35.4999 30.9706 34.4167C30.9479 34.1426 30.6675 34.0434 30.4606 34.2054C29.6131 34.8756 28.8162 35.6075 28.0764 36.3949C28.3117 35.297 28.2148 34.1265 27.6224 33.1545C27.5206 32.9873 27.2533 32.9014 27.0167 33.1878C25.1321 35.4682 23.5061 37.9527 21.9147 40.447C19.988 43.3909 18.1842 46.5421 17.0741 49.8981C16.8142 51.0836 17.2909 52.2724 17.6869 53.3753C19.0391 56.8449 21.4776 59.7437 23.7678 62.6335C25.9353 65.0583 26.3742 66.2246 25.8626 69.4839C25.8144 69.8502 26.3922 69.8476 26.4391 69.4839C26.5877 68.3352 26.727 67.1596 26.4876 66.0128C26.2483 64.8661 25.548 63.9789 24.8322 63.0864C23.299 61.1738 21.7326 59.2822 20.3724 57.2401C19.203 55.4461 17.0399 51.8778 17.707 49.7253C18.4477 47.6776 19.437 45.7188 20.5165 43.8384C20.3999 45.5994 21.0838 47.2498 21.5841 48.9063C21.6321 49.0654 21.637 49.2343 21.5984 49.3959C21.5598 49.5576 21.479 49.706 21.3643 49.8263C21.1998 49.9984 21.0394 50.174 20.8913 50.3579C20.8543 50.3991 20.8345 50.453 20.836 50.5084C20.8375 50.5639 20.8602 50.6166 20.8994 50.6558C20.9386 50.695 20.9913 50.7177 21.0468 50.7192C21.1022 50.7207 21.1561 50.7009 21.1974 50.6639C21.4393 50.4565 21.6656 50.2273 21.8882 49.9954C22.0951 50.5932 22.3915 52.1105 22.4611 52.8967C22.5152 53.5314 22.4621 54.1502 22.4616 54.7833C22.4616 55.0801 22.9283 55.16 22.9918 54.8551C23.7297 50.8961 20.0228 45.1069 21.9996 41.4244C23.8866 42.2026 24.0898 44.5514 24.535 46.2832C25.8331 52.3858 33.1053 55.3092 33.6512 61.6751C33.8025 64.1035 33.0178 66.4992 33.2864 68.9275C33.3291 69.311 33.9316 69.3217 33.8963 68.9275C33.6944 66.6669 34.3212 64.456 34.2841 62.2004ZM22.2142 40.9431C23.8286 38.4935 25.4998 36.0809 27.2808 33.749C27.8761 35.0584 27.6174 36.6868 26.8082 37.848C25.7275 39.2838 24.6233 40.7158 23.9035 42.3739C23.5192 41.7234 22.9893 41.1999 22.2142 40.9431ZM24.355 43.3484C24.4654 41.7932 25.9676 40.0458 26.8734 38.7811C27.8147 37.3175 29.0423 36.1147 30.3885 35.0158C30.4241 37.1499 29.1458 38.8438 27.7532 40.3311C26.4981 41.7607 25.4773 43.3057 24.8423 45.0832C24.7149 44.4956 24.5522 43.9163 24.355 43.3484ZM25.1658 46.4017C25.2959 45.1303 25.9212 43.9666 26.5621 42.8792C27.5292 41.2979 28.9707 40.0837 29.9666 38.5259C30.5036 38.1163 31.1322 37.7845 31.8216 37.7332C31.212 41.3198 26.6209 41.748 25.527 47.4647C25.3902 47.119 25.2698 46.7647 25.1658 46.4018V46.4017Z" fill="black"/>
<path d="M85.7151 40.4469C84.1236 37.9526 82.4976 35.468 80.6134 33.1873C80.3768 32.9009 80.1094 32.9868 80.0076 33.154C79.4152 34.1261 79.3184 35.2965 79.5536 36.3944C78.8138 35.6069 78.0169 34.8751 77.1694 34.2049C76.9626 34.0429 76.6822 34.1421 76.6594 34.4162C76.5709 35.4994 76.7467 36.5879 77.1718 37.5882C76.7466 37.379 75.7038 37.0735 75.357 37.2395C75.322 37.2626 75.2936 37.2944 75.2748 37.3319C75.256 37.3694 75.2473 37.4111 75.2497 37.453C75.2685 39.0995 76.3056 40.2318 77.4359 41.2744C77.2571 41.1915 76.8096 41.3167 76.8161 41.4964C76.8488 42.2641 77.425 42.9728 77.9296 43.5049C78.5218 44.1296 79.1822 44.6756 79.6339 45.4195C80.3652 46.7143 81.0935 48.2621 80.7926 49.7839C80.4758 50.5524 79.8877 51.1622 79.3674 51.8064C76.7213 54.8181 73.3727 57.8892 73.3463 62.2003C73.3092 64.4562 73.936 66.6668 73.7336 68.9279C73.698 69.3221 74.3011 69.3114 74.3436 68.9279C74.6122 66.4995 73.8274 64.1039 73.9787 61.6755C74.5246 55.3096 81.7968 52.3861 83.095 46.2836C83.5401 44.5518 83.7433 42.2029 85.6304 41.4248C87.6072 45.1066 83.9003 50.8961 84.6382 54.8555C84.7016 55.1603 85.1686 55.0804 85.1684 54.7837C85.1679 54.1503 85.1148 53.5318 85.1688 52.897C85.2384 52.1109 85.5348 50.5933 85.7417 49.9958C85.9644 50.2276 86.1907 50.4569 86.4326 50.6642C86.4739 50.7013 86.5278 50.7211 86.5832 50.7196C86.6386 50.7181 86.6914 50.6954 86.7306 50.6562C86.7698 50.617 86.7925 50.5642 86.794 50.5088C86.7955 50.4534 86.7757 50.3995 86.7386 50.3582C86.5905 50.1744 86.4302 49.9987 86.2656 49.8266C86.1509 49.7064 86.0702 49.5579 86.0315 49.3963C85.9929 49.2347 85.9979 49.0657 86.0459 48.9067C86.5463 47.2501 87.2303 45.5998 87.1134 43.8387C88.193 45.7191 89.1823 47.678 89.9229 49.7257C90.5899 51.878 88.4289 55.4426 87.2576 57.2404C85.8973 59.2828 84.3307 61.1742 82.7978 63.0865C82.0822 63.9792 81.3815 64.8666 81.1421 66.0132C80.9028 67.1598 81.042 68.3356 81.1907 69.4842C81.2378 69.848 81.8155 69.8506 81.7671 69.4842C81.2554 66.2246 81.6944 65.0586 83.8619 62.6339C86.2648 59.5882 91.0514 53.9307 90.5557 49.8984C89.4452 46.542 87.6417 43.3908 85.7151 40.4469ZM82.1027 47.4644C81.0088 41.7476 76.4178 41.3192 75.8081 37.7329C76.4975 37.7842 77.1261 38.116 77.6631 38.5255C78.659 40.0834 80.1005 41.2976 81.0677 42.8788C81.7082 43.9666 82.3339 45.1302 82.4639 46.4014C82.3605 46.7648 82.2401 47.1192 82.1027 47.4644ZM82.7877 45.0831C82.1524 43.3057 81.1316 41.7607 79.8768 40.3311C78.4841 38.8438 77.206 37.1501 77.2413 35.0157C78.5877 36.1146 79.8153 37.3175 80.7565 38.781C81.6623 40.0458 83.1645 41.7931 83.275 43.3483C83.0778 43.9162 82.915 44.4955 82.7877 45.0831ZM83.7262 42.3736C83.0068 40.7156 81.9022 39.2836 80.8215 37.8477C80.0123 36.6867 79.7539 35.0581 80.3489 33.7487C82.13 36.0806 83.8011 38.4932 85.4156 40.9428C84.6404 41.1998 84.1105 41.7232 83.7262 42.3736Z" fill="black"/>
<path d="M44.9343 41.2392C44.892 41.1964 44.8362 41.1697 44.7764 41.1636C44.7525 41.1571 44.7272 41.1571 44.7033 41.1636C44.6065 41.183 44.5203 41.2378 44.4618 41.3173C44.4273 41.3581 44.4052 41.4079 44.398 41.4609C44.3909 41.5138 44.399 41.5677 44.4214 41.6162C44.4435 41.6711 44.4818 41.7181 44.5311 41.7508C44.5804 41.7836 44.6385 41.8007 44.6977 41.7998L44.7775 41.789C44.8045 41.777 44.8327 41.7677 44.8591 41.7542C44.9226 41.7131 44.9712 41.6526 44.9975 41.5816C45.0237 41.5107 45.0264 41.4331 45.0049 41.3606L44.9772 41.2949L44.9343 41.2392Z" fill="black"/>
<path d="M63.253 59.8371C66.6278 55.3562 67.4444 48.93 64.7049 43.9388C63.7604 41.9279 62.3735 40.1282 60.4036 39.0318C56.4997 36.8848 49.7351 36.8444 46.2821 39.874C46.1048 40.046 46.3331 40.3455 46.5466 40.2169C47.4981 39.6437 48.4137 39.1016 49.4774 38.7541C55.6513 36.9409 62.3856 38.7461 64.5776 45.32C64.588 45.3436 64.5886 45.3704 64.5792 45.3944C64.5699 45.4184 64.5514 45.4377 64.5278 45.4481C64.5042 45.4585 64.4774 45.4591 64.4534 45.4497C64.4294 45.4404 64.4101 45.4219 64.3997 45.3983C58.5235 34.5255 43.9418 38.8075 42.568 48.4174C42.4887 48.7748 41.9588 48.6913 41.9895 48.3264C42.1313 46.8582 42.4964 45.264 43.2626 43.9683C43.4563 43.6481 42.9685 43.3649 42.7619 43.6757C38.9366 50.0226 42.0094 60.7726 50.0813 63.3717C50.4362 63.4822 50.5628 62.9784 50.2336 62.819C47.3061 61.4012 45.592 59.801 44.8531 58.7648C44.8393 58.7451 44.8332 58.721 44.8361 58.6971C44.839 58.6732 44.8507 58.6513 44.8688 58.6355C44.887 58.6197 44.9104 58.6112 44.9344 58.6116C44.9585 58.6121 44.9815 58.6214 44.9991 58.6379C50.3221 63.7003 58.4423 63.8787 62.9608 58.3298C62.9771 58.311 62.9999 58.2991 63.0246 58.2965C63.0493 58.2939 63.074 58.3008 63.0939 58.3157C63.1137 58.3307 63.1271 58.3526 63.1313 58.3771C63.1356 58.4016 63.1304 58.4268 63.1168 58.4475C61.3012 61.4239 57.8662 62.8823 54.5278 63.3496C54.2218 63.4009 54.2892 63.9267 54.6018 63.8962C56.4873 63.7023 58.4138 63.1633 60.0736 62.225C61.2272 61.5748 62.3708 60.8367 63.253 59.8371ZM45.4059 46.8319C44.1356 44.933 49.5045 40.9267 50.9623 42.6836C52.2325 44.5822 46.8638 48.5888 45.4059 46.8319ZM61.1844 51.002C58.6687 51.7058 56.2319 54.0683 54.0398 53.9241C51.8426 53.9815 49.5014 51.5259 47.0153 50.7238C46.9424 50.6975 46.8796 50.649 46.8357 50.5852C46.7918 50.5215 46.7689 50.4455 46.7704 50.3681C46.7718 50.2906 46.7974 50.2156 46.8436 50.1534C46.8899 50.0913 46.9544 50.0452 47.0282 50.0215C47.771 49.7831 48.7484 49.4048 49.6436 48.8538C55.5905 45.0949 55.8438 48.1627 61.1987 50.2999C61.2713 50.3265 61.3338 50.3751 61.3775 50.4389C61.4211 50.5028 61.4437 50.5787 61.4421 50.656C61.4405 50.7333 61.4148 50.8082 61.3685 50.8702C61.3223 50.9321 61.2578 50.9781 61.1841 51.0016L61.1844 51.002Z" fill="black"/>
<path d="M52.5268 63.4544C52.2924 63.3389 51.8702 63.3029 51.8293 63.6458C51.8227 63.7198 51.844 63.7937 51.8889 63.8529C51.9338 63.9121 51.9992 63.9524 52.0723 63.966C52.2727 64.0266 52.6127 64.0119 52.6706 63.7627C52.6836 63.7027 52.6766 63.64 52.6506 63.5843C52.6246 63.5287 52.5811 63.483 52.5268 63.4544Z" fill="black"/>
<path d="M41.7169 57.1732C39.9515 53.7065 39.8962 49.6798 40.9051 45.9831C40.9451 45.7946 40.6661 45.6479 40.5747 45.8438C38.2508 51.6612 40.4414 58.9727 45.51 62.6326C45.6977 62.7646 45.9257 62.4676 45.7554 62.3147C44.1161 60.8438 42.695 59.1566 41.7169 57.1732Z" fill="black"/>
<path d="M65.8477 58.0861C69.3543 52.395 68.6059 43.2367 63.0535 39.0752C62.825 38.9176 62.5402 39.2816 62.7546 39.4625C67.9951 43.8428 68.5516 52.0587 65.4421 57.849C65.2953 58.1169 65.6785 58.334 65.8477 58.0861Z" fill="black"/>
<path d="M62.9801 61.0686C62.4763 61.3783 62.0368 61.7899 61.55 62.1262C60.3902 62.9294 59.1043 63.5329 57.7455 63.9119C57.4631 63.9918 57.151 64.0336 56.895 64.1801C56.6899 64.2975 56.8016 64.5697 57.0064 64.5914C57.2976 64.6223 57.6114 64.5156 57.8913 64.4408C58.7591 64.2036 59.5998 63.8765 60.3998 63.465C60.9304 63.192 61.4412 62.8822 61.9285 62.5378C62.4133 62.1951 62.9076 61.8322 63.263 61.3513C63.3888 61.1805 63.1467 60.9662 62.9801 61.0686Z" fill="black"/>
<path d="M64.8841 59.5063C64.8374 59.4731 64.7804 59.4579 64.7234 59.4636C64.6664 59.4692 64.6134 59.4953 64.5743 59.5371C63.9431 59.9386 64.7795 60.5161 64.9416 59.8039L64.9578 59.7654C64.9673 59.693 64.9687 59.6829 64.9621 59.7351C64.9726 59.6935 64.9708 59.6498 64.957 59.6092C64.9431 59.5685 64.9178 59.5328 64.8841 59.5063Z" fill="black"/>
<path d="M42.6508 41.4824C42.3546 41.8779 41.987 42.3335 41.8537 42.8149C41.8447 42.8515 41.8478 42.8901 41.8625 42.9248C41.8773 42.9595 41.9028 42.9885 41.9354 43.0074C41.968 43.0264 42.0059 43.0343 42.0433 43.0299C42.0808 43.0256 42.1158 43.0093 42.1432 42.9833C42.4958 42.6482 42.7494 42.1738 43.0542 41.7934C45.2764 38.9618 48.669 37.0938 52.2674 36.8263C52.572 36.8017 52.5814 36.338 52.2674 36.3448C48.5053 36.4539 44.9144 38.5185 42.6508 41.4824Z" fill="black"/>
<path d="M57.6416 37.2351C57.7082 37.269 57.7849 37.2772 57.8571 37.2581C58.2754 37.4045 58.4667 36.8279 58.0227 36.7423C57.6672 36.4897 57.2582 36.9836 57.6416 37.2351Z" fill="black"/>
<path d="M55.9279 51.6834C55.621 51.6838 55.3241 51.5742 55.0911 51.3745C54.8581 51.1749 54.7043 50.8983 54.6576 50.595C54.611 50.2918 54.6746 49.9818 54.8369 49.7214C54.9992 49.4609 55.2494 49.2673 55.5423 49.1755C55.7134 49.1192 55.8948 49.1011 56.0737 49.1222C56.0908 49.1247 56.1083 49.1221 56.1239 49.1148C56.1396 49.1075 56.1529 49.0958 56.1621 49.0812C56.1713 49.0666 56.1761 49.0496 56.1758 49.0323C56.1756 49.015 56.1703 48.9981 56.1607 48.9838C55.845 48.5302 55.3927 48.1893 54.8697 48.0105C54.3467 47.8318 53.7804 47.8247 53.253 47.9902C52.7257 48.1557 52.265 48.4851 51.9379 48.9306C51.6108 49.376 51.4345 49.9142 51.4346 50.4669C51.5354 53.3839 55.1212 53.8238 56.2751 51.7885C56.2833 51.7734 56.2871 51.7564 56.2859 51.7393C56.2847 51.7222 56.2786 51.7058 56.2683 51.692C56.2581 51.6783 56.2441 51.6678 56.228 51.6618C56.2119 51.6558 56.1945 51.6545 56.1777 51.6582C56.0955 51.6749 56.0118 51.6833 55.9279 51.6834Z" fill="black"/>
</g>
<defs>
<filter id="filter0_d_352_6998" x="0" y="-1" width="108" height="109" filterUnits="userSpaceOnUse" color-interpolation-filters="sRGB">
<feFlood flood-opacity="0" result="BackgroundImageFix"/>
<feColorMatrix in="SourceAlpha" type="matrix" values="0 0 0 0 0 0 0 0 0 0 0 0 0 0 0 0 0 0 127 0" result="hardAlpha"/>
<feOffset dy="1"/>
<feGaussianBlur stdDeviation="2"/>
<feComposite in2="hardAlpha" operator="out"/>
<feColorMatrix type="matrix" values="0 0 0 0 0 0 0 0 0 0 0 0 0 0 0 0 0 0 0.25 0"/>
<feBlend mode="normal" in2="BackgroundImageFix" result="effect1_dropShadow_352_6998"/>
<feBlend mode="normal" in="SourceGraphic" in2="effect1_dropShadow_352_6998" result="shape"/>
</filter>
</defs>
</svg>
