<svg width="269" height="258" viewBox="0 0 269 258" fill="none" xmlns="http://www.w3.org/2000/svg">
<mask id="path-1-outside-1_352_5808" maskUnits="userSpaceOnUse" x="0" y="0" width="269" height="258" fill="black">
<rect fill="white" width="269" height="258"/>
<path d="M267.184 105.966C266.604 104.492 265.862 103.083 265.158 101.665C264.394 100.126 263.728 98.5691 263.104 96.9695C262.561 95.5776 261.58 94.4275 260.586 93.3368C259.506 92.1529 258.445 90.9758 257.489 89.6862C253.5 84.3074 250.933 77.9826 249.487 71.4687C249.119 69.8128 248.897 68.1542 248.663 66.4767C248.433 64.8358 247.9 63.288 247.465 61.6954C246.6 58.5266 245.91 55.311 244.961 52.1652C244.027 49.071 242.823 46.0314 241.041 43.3213C239.308 40.6861 237.051 38.4648 234.576 36.5297C232.101 34.5942 229.436 32.9188 226.795 31.2234C223.826 29.3177 220.857 27.4121 217.888 25.5064C216.435 24.5739 214.982 23.6413 213.529 22.7087C213.109 22.4392 212.746 23.1235 213.163 23.3915C218.896 27.0711 224.692 30.6692 230.356 34.4538C232.89 36.1466 235.363 37.9665 237.496 40.1551C239.776 42.4948 241.518 45.2603 242.77 48.2739C243.999 51.2301 244.801 54.3387 245.576 57.4382C245.967 59.0019 246.351 60.5677 246.78 62.1219C247.196 63.6328 247.675 65.0959 247.904 66.6467C246.598 65.9983 245.184 65.5417 243.797 65.1212C241.561 64.4433 239.287 63.8918 237.003 63.4054C231.913 62.3213 226.711 61.51 221.506 61.3031C219.437 61.221 217.34 61.228 215.293 61.5696C213.659 61.8424 211.567 62.4544 210.798 64.0998C210.017 65.7702 211.635 67.0571 213.087 67.4264C214.067 67.6756 215.086 67.8079 216.081 67.9868C217.154 68.1798 218.228 68.3729 219.301 68.5659C223.659 69.3495 228.016 70.1332 232.373 70.9168C233.324 71.0878 234.293 71.217 235.234 71.4373C236.07 71.6333 236.694 72.0921 236.675 73.0207C236.633 75.1612 233.943 75.5461 232.31 75.7564C228.323 76.2701 224.308 75.6272 220.411 74.786C219.449 74.5782 218.489 74.3569 217.53 74.1345C217.13 74.0418 216.927 74.5178 217.176 74.795C219.317 77.1798 222.133 78.0731 225.124 78.5688C224.671 78.7301 224.219 78.8921 223.762 79.0404C222.382 79.4882 221.062 79.6866 219.614 79.565C218.378 79.4612 217.071 79.3323 216.009 80.1058C215.732 80.3075 215.8 80.7078 216.125 80.8105C222.46 82.8174 229.408 82.6634 235.65 80.3803C236.034 80.2397 235.98 79.7665 235.629 79.6326C233.539 78.8368 231.343 78.5512 229.139 78.3018C229.804 78.212 230.475 78.1631 231.147 78.1437C233.74 78.0689 236.323 78.4003 238.916 78.3781C240.937 78.3609 243.012 78.0749 244.983 77.6168C245.404 77.5189 245.777 77.3492 246.177 77.1882C246.718 76.9706 247.272 76.7849 247.808 76.5566C248.533 76.2484 249.2 75.856 249.659 75.2527C250.66 78.7274 252.017 82.0974 253.756 85.2762C255.248 88.0045 257.027 90.6028 259.13 92.8981C260.157 94.0197 261.261 95.1118 262.01 96.4503C262.387 97.1247 262.598 97.8752 262.888 98.5885C263.206 99.3672 263.557 100.132 263.921 100.89C264.63 102.368 265.407 103.815 266.074 105.313C266.675 106.662 267.206 108.104 267.224 109.598C267.233 110.32 267.141 111.116 266.788 111.759C266.287 112.672 265.472 112.634 264.551 112.513C263.046 112.316 261.533 112.171 260.032 111.941C258.546 111.714 257.065 111.397 255.656 110.863C254.258 110.334 252.889 109.733 251.475 109.246C250.072 108.763 248.632 108.367 247.158 108.183C245.927 108.029 244.583 107.93 243.421 108.452C242.398 108.912 241.741 109.902 241.925 111.04C242.098 112.1 242.901 113.04 243.877 113.462C246.616 114.647 249.323 112.482 252.079 112.711C253.424 112.822 254.53 113.577 254.869 114.914C255.2 116.22 254.822 117.602 254.677 118.909C254.587 119.72 254.58 120.519 254.716 121.301C251.817 122.157 248.961 123.155 246.163 124.3C243.97 125.197 241.821 126.2 239.644 127.134C238.939 127.436 238.078 127.768 237.58 128.386C237.078 129.009 237.431 129.771 237.81 130.359C238.273 131.079 238.882 131.68 239.396 132.359C240.293 133.542 241.157 134.75 242.057 135.931C244.103 138.615 246.217 141.245 248.393 143.824C248.714 144.204 249.239 143.634 248.921 143.256C247.071 141.064 245.268 138.833 243.514 136.563C242.065 134.688 240.71 132.737 239.195 130.916C238.912 130.576 238.635 130.227 238.404 129.85C238.367 129.79 238.321 129.718 238.276 129.64C240.96 130.165 243.625 130.827 246.202 131.748C247.638 132.262 249.052 132.864 250.378 133.622C251.536 134.283 252.949 135.069 253.448 136.382C254.168 138.283 252.94 140.614 251.612 141.954C250.231 143.348 248.257 143.959 247.165 145.672C245.665 148.026 245.428 151.404 245.795 154.098C246.134 156.586 247.38 158.802 247.789 161.265C247.943 162.193 247.961 163.212 247.481 164.052C246.892 165.081 245.706 165.564 244.612 165.841C241.903 166.525 239.134 165.761 236.671 164.602C234.278 163.476 232.085 161.985 229.826 160.62C227.063 158.95 224.153 157.5 221.221 156.153C220.472 155.809 219.718 155.474 218.961 155.148C219.99 153.645 220.981 152.117 221.876 150.532C224.743 145.451 226.012 139.933 224.422 134.228C222.245 126.414 216.588 120.25 210.148 115.245C210.329 114.678 210.451 114.081 210.503 113.457C210.973 107.778 207.116 102.283 202.477 99.3937C197.581 96.3441 191.588 96.071 186.414 98.5955C185.988 98.8036 185.577 99.0328 185.174 99.2713C183.697 98.3256 182.229 97.364 180.768 96.3871C180.302 94.4866 179.93 92.5636 179.629 90.6479C178.5 83.4812 177.85 76.0828 178.098 68.8245C178.153 67.203 178.235 65.5695 177.891 63.9715C177.516 62.2332 176.937 60.5508 176.615 58.7966C175.984 55.3497 175.64 51.8105 175.331 48.3217C174.722 41.4343 174.663 34.4319 176 27.6218C176.573 24.7007 177.556 21.4317 180.342 19.8966C183.373 18.2259 187.245 19.0726 190.372 20.0049C202.559 23.6382 211.61 33.6567 223.772 37.3918C226.579 38.2539 229.493 38.7253 232.433 38.6746C232.931 38.666 232.912 37.891 232.414 37.8997C218.445 38.1406 208.012 27.0129 196.135 21.4163C193.14 20.0051 189.933 18.821 186.641 18.3656C183.514 17.9331 180.12 18.3321 177.951 20.8643C175.918 23.2383 175.339 26.5677 174.877 29.5603C174.326 33.1241 174.116 36.7348 174.146 40.3391C174.177 43.9657 174.447 47.5866 174.839 51.1907C175.23 54.7803 175.61 58.4063 176.533 61.9041C176.777 62.8308 177.092 63.7487 177.239 64.6976C177.387 65.6492 177.391 66.6151 177.367 67.5757C177.318 69.4991 177.274 71.415 177.315 73.3396C177.399 77.2134 177.685 81.081 178.106 84.932C178.501 88.5418 179.004 92.1919 179.822 95.7557C179.773 95.7222 179.722 95.6897 179.673 95.6562C173.04 91.1645 166.473 86.5638 159.597 82.4473C156.282 80.463 152.9 78.5823 149.417 76.9099C146.388 75.4555 143.091 74.5489 140.152 72.911C136.922 71.1107 134.41 68.0574 133.109 64.5979C133.06 64.4669 133.013 64.3333 132.966 64.1992C133.012 64.1788 133.058 64.1556 133.102 64.1125C135.945 61.3442 138.609 58.404 141.084 55.3145C142.735 54.0266 144.375 52.7212 145.988 51.3834C146.346 51.2877 146.705 51.1921 147.063 51.0957C148.962 50.5841 150.927 50.1062 152.707 49.2482C155.735 47.7882 158.583 45.7723 161.169 43.6391C169.993 36.3611 181.382 21.5906 172.077 10.5411C164.113 1.08497 149.645 -1.16816 138.47 3.01027C134.783 4.38896 131.276 6.24515 127.756 7.99473C124.189 9.76751 120.633 11.5625 117.089 13.3798C109.914 17.0585 102.785 20.8283 95.7056 24.6879C92.2937 26.548 88.8937 28.43 85.5042 30.3305C84.9772 30.626 85.3344 31.506 85.8659 31.208C99.2547 23.7006 112.819 16.5086 126.552 9.65186C132.832 6.51652 139.196 2.84995 146.29 2.07001C152.463 1.39119 158.816 2.62495 164.284 5.57462C169.959 8.63632 175.256 13.9656 174.649 20.9019C174.063 27.6009 169.468 33.9715 165.021 38.7284C160.877 43.1603 155.544 47.5453 149.673 49.3745C149.015 49.5794 148.351 49.77 147.684 49.9544C151.095 47.0302 154.345 43.9282 157.241 40.4829C159.954 37.2548 162.322 33.7218 164.102 29.891C165.468 26.9501 166.649 23.5388 165.67 20.2981C164.732 17.1898 161.861 15.192 158.822 14.4496C155.331 13.5969 151.734 14.5352 148.532 15.9743C144.857 17.6261 141.379 19.8031 137.963 21.9265C134.233 24.2445 130.584 26.6908 126.985 29.2062C119.779 34.2417 112.664 39.4472 105.711 44.8265C98.8568 50.1293 92.2397 55.7966 86.5283 62.3399C75.6322 74.8228 68.1761 89.7916 60.7874 104.498C53.3671 119.267 45.8341 134.299 34.6973 146.679C33.3163 148.215 31.8826 149.7 30.3984 151.135C29.964 151.555 30.5352 152.314 30.9733 151.89C42.4315 140.809 50.4118 126.892 57.6328 112.823C64.9862 98.4961 71.7152 83.7094 81.1854 70.6083C86.0635 63.8601 91.7077 57.8025 97.9898 52.3454C104.458 46.7269 111.395 41.6746 118.299 36.6148C125.193 31.5632 132.159 26.593 139.446 22.1205C142.837 20.039 146.297 17.8596 150.004 16.3793C153.382 15.0308 157.133 14.4739 160.54 16.0392C163.927 17.5951 165.536 20.8212 164.937 24.4712C164.309 28.3024 162.157 32.0036 160.039 35.1869C156.111 41.091 150.957 46.017 145.521 50.5346C145.175 50.6257 144.828 50.7171 144.482 50.809C146.667 47.7264 148.674 44.5149 150.481 41.1852C151.641 39.0483 152.728 36.867 153.71 34.6422C154.367 33.1542 154.957 31.5493 154.951 29.9004C154.946 28.2986 154.26 26.7914 152.887 25.9095C151.295 24.8866 149.242 24.8784 147.427 25.0964C138.789 26.1343 130.351 30.0121 124.696 36.7155C121.749 40.2094 119.49 44.1888 117.585 48.3575C110.526 51.9291 105.445 59.7549 101.048 65.955C87.4234 85.1702 75.7094 105.867 67.2432 127.885C63.0972 138.668 59.7481 149.767 57.3855 161.079C56.1834 166.835 55.2383 172.646 54.5766 178.489C53.9027 184.44 53.7523 190.417 53.2267 196.378C52.6556 202.856 50.9117 208.697 47.8373 214.426C44.7133 220.248 41.2506 225.968 37.4339 231.362C30.4349 241.253 21.4096 250.227 9.72896 254.234C7.0257 255.161 4.23839 255.764 1.39693 256.057C0.788712 256.119 0.917598 257.059 1.52441 256.997C12.4697 255.87 22.2148 249.886 29.7958 242.135C34.3598 237.468 38.219 232.164 41.715 226.664C45.0918 221.351 48.5396 215.855 51.0194 210.053C53.37 204.554 54.0807 198.73 54.4303 192.807C54.781 186.866 55.1712 180.951 55.9561 175.047C57.5122 163.345 60.1908 151.805 63.784 140.564C71.0137 117.947 81.8599 96.5874 94.8363 76.7512C98.0324 71.8657 101.362 67.0676 104.809 62.3567C108.214 57.7048 111.851 52.7119 116.943 49.7987C115.223 53.7613 113.782 57.8615 112.355 61.8581C107.653 75.0208 103.686 88.4663 100.729 102.132C97.8814 109.749 95.4844 117.534 93.5534 125.435C92.4203 130.07 91.4494 134.746 90.6438 139.449C89.8326 144.186 89.2302 148.959 88.2541 153.666C87.2586 158.467 85.7776 163.098 83.5767 167.486C81.3682 171.89 78.6196 175.994 75.789 180.015C75.0801 181.022 74.3649 182.025 73.6494 183.028C73.2954 183.524 74.0484 184.101 74.4039 183.602C79.9777 175.792 85.4758 167.842 88.0688 158.479C89.3297 153.926 90.0534 149.251 90.7768 144.589C91.4976 139.943 92.3039 135.316 93.3015 130.721C94.9123 123.301 96.9477 115.976 99.3743 108.783C98.9968 110.761 98.6374 112.743 98.3046 114.73C96.7924 123.759 95.7574 132.87 95.2803 142.014C94.8374 150.504 94.8623 159.01 94.7766 167.509C94.6082 184.22 94.0879 201.35 88.4431 217.262C87.7654 219.173 87.0131 221.055 86.194 222.909C85.9473 223.467 86.8271 223.822 87.0741 223.263C93.605 208.481 95.1543 192.226 95.5728 176.24C95.7869 168.057 95.7245 159.869 95.8912 151.686C96.0662 143.094 96.5919 134.525 97.6315 125.993C98.595 118.085 99.9465 110.232 101.627 102.448C104.769 94.0497 108.454 85.855 112.67 77.9422C116.706 70.3683 122.144 61.6534 131.347 60.2046C131.326 61.0215 131.416 61.8504 131.573 62.656C131.607 62.8255 131.652 62.9887 131.69 63.1555C129.747 64.7328 128.804 66.7221 127.672 68.9171C126.331 71.5155 124.997 74.1189 123.783 76.7794C121.383 82.0387 119.459 87.5697 118.907 93.3564C118.362 99.0719 119.145 104.812 120.388 110.387C120.99 113.089 121.703 115.765 122.431 118.436C123.147 121.061 123.76 123.836 125.284 126.136C126.586 128.101 128.564 129.538 130.941 129.763C131.186 129.786 131.451 129.611 131.469 129.349C131.92 122.83 133.385 116.331 136.547 110.567C138.256 107.452 140.464 104.575 143.102 102.192C145.013 100.466 149.471 96.3829 152.26 98.1193C152.85 98.487 153.424 99.2325 153.354 99.9711C153.241 101.172 151.661 101.691 150.792 102.177C149.448 102.928 148.171 103.793 146.981 104.771C144.624 106.709 142.574 109.068 141.049 111.714C140.001 113.531 139.073 115.847 139.819 117.949C140.533 119.964 142.568 120.957 144.607 120.992C147.819 121.048 150.314 118.762 152.66 116.871C155.341 114.71 158.211 112.817 161.24 111.19C158.948 115.002 156.013 118.401 152.537 121.188C149.463 123.652 144.381 127.559 140.146 126.052C138.875 125.599 137.601 124.435 136.168 124.941C134.703 125.458 134.47 127.227 134.533 128.575C134.627 130.553 135.356 132.409 135.937 134.278C136.639 136.532 136.653 138.683 136.39 141.015C135.853 145.785 135.483 150.475 134.172 155.119C133.376 157.936 132.156 161.663 134.279 164.21C138.474 169.24 146.347 161.355 150.355 166.796C153.182 170.633 150.922 176.08 153.593 180.01C154.903 181.938 157.828 183.024 159.865 181.907C159.449 186.757 167.048 188.667 169.535 191.641C171.541 194.04 170.348 197.577 172.572 199.867C174.391 201.74 177.358 201.914 179.774 201.424C186.095 200.141 190.982 194.463 194.675 189.563C199.433 183.25 203.836 176.647 208.384 170.181C210.793 166.757 213.202 163.332 215.611 159.908C216.578 158.534 217.562 157.166 218.522 155.783C222.707 157.566 226.781 159.629 230.629 162.022C235.021 164.754 240.52 168.419 245.895 166.242C251.204 164.092 247.182 158.043 246.602 154.296C246.32 152.469 246.393 150.59 246.807 148.789C247.102 147.506 247.534 146.205 248.486 145.255C249.901 143.843 251.811 143.166 252.991 141.484C254.184 139.782 255.027 137.414 253.862 135.479C253.191 134.365 251.941 133.633 250.844 132.997C249.505 132.221 248.075 131.612 246.624 131.082C246.128 130.901 245.628 130.733 245.126 130.57C245.467 130.605 245.809 130.636 246.151 130.663C247.533 130.769 248.927 130.806 250.309 130.676C251.462 130.568 252.704 130.381 253.757 129.873C255.64 128.966 257.161 126.83 256.821 124.677C256.707 123.954 256.314 123.362 255.994 122.72C255.618 121.964 255.401 121.159 255.375 120.315C255.334 118.978 255.691 117.673 255.758 116.344C255.816 115.207 255.58 114.007 254.799 113.14C253.973 112.222 252.681 111.885 251.482 111.926C249.966 111.977 248.551 112.577 247.08 112.873C245.756 113.14 244.191 113.157 243.236 112.043C242.831 111.57 242.549 110.91 242.705 110.282C242.881 109.57 243.533 109.176 244.197 108.994C245.626 108.603 247.283 108.92 248.693 109.243C251.692 109.928 254.395 111.452 257.363 112.204C258.818 112.572 260.307 112.775 261.796 112.954C262.587 113.05 263.379 113.138 264.17 113.241C264.866 113.331 265.608 113.489 266.288 113.234C267.539 112.765 267.919 111.225 267.989 110.034C268.071 108.64 267.69 107.252 267.184 105.966ZM217.317 80.3542C218.162 80.1459 219.102 80.3047 219.965 80.3668C221.198 80.4553 222.384 80.2696 223.564 79.9145C224.664 79.5834 225.73 79.1513 226.828 78.8138C229.37 79.1353 231.968 79.3226 234.331 80.0131C228.834 81.7808 222.882 81.8988 217.317 80.3542ZM247.264 75.9451C246.446 76.2674 245.617 76.6757 244.76 76.8748C242.791 77.3322 240.734 77.5989 238.716 77.6042C236.125 77.611 233.542 77.2796 230.95 77.3747C229.724 77.4197 228.494 77.561 227.304 77.8675C227.123 77.9142 226.945 77.9707 226.766 78.0241C226.465 77.9852 226.165 77.9446 225.866 77.8995C223.346 77.5196 220.752 76.8141 218.751 75.2108C222.148 75.9841 225.586 76.6762 229.078 76.7138C230.95 76.734 232.943 76.614 234.743 76.0591C236.293 75.5813 237.668 74.3843 237.423 72.6145C237.175 70.8187 235.325 70.6617 233.881 70.4018C231.733 70.0157 229.586 69.6296 227.439 69.2434C223.082 68.4598 218.725 67.6769 214.367 66.8925C213.507 66.7376 212.491 66.6171 211.846 65.9606C211.143 65.2451 211.337 64.4034 212.015 63.764C212.591 63.2205 213.271 62.8795 214.021 62.6509C215.783 62.1138 217.688 62.0439 219.517 62.0388C224.628 62.0245 229.76 62.7738 234.768 63.742C237.171 64.2064 239.562 64.7425 241.922 65.3879C243.681 65.8688 245.456 66.3854 247.126 67.1271C247.408 67.2525 247.687 67.3862 247.958 67.5334C247.984 67.5474 248.008 67.5484 248.033 67.5564C248.345 69.7922 248.787 72.0115 249.367 74.1936C248.993 75.1462 248.173 75.587 247.264 75.9451ZM215.805 121.711C219.467 125.679 222.719 130.427 223.835 135.795C225.223 142.477 222.332 148.455 218.672 153.873C218.469 154.173 218.26 154.47 218.056 154.77C215.997 153.904 213.913 153.098 211.803 152.365C208.793 151.319 205.728 150.455 202.69 149.499C196.665 147.603 190.77 145.159 186.512 140.301C182.218 135.403 179.863 129.036 178.42 122.766C177.026 116.712 176.644 109.904 180.44 104.609C180.903 103.963 181.418 103.356 181.97 102.783C182.53 104.195 183.167 105.578 183.904 106.92C186.753 112.107 191.214 116.66 196.792 118.825C199.574 119.904 202.816 120.533 205.735 119.637C207.624 119.056 208.998 117.801 209.78 116.172C211.917 117.866 213.944 119.695 215.805 121.711ZM182.567 102.189C183.312 101.489 184.12 100.855 184.978 100.298C190.272 103.682 195.69 106.841 201.042 110.143C203.84 111.87 206.585 113.694 209.181 115.704C207.92 118.582 204.671 119.494 201.661 119.23C195.713 118.709 190.424 114.775 186.912 110.139C185.068 107.704 183.66 105.014 182.567 102.189ZM194.815 97.6453C200.461 98.0321 205.686 101.709 208.236 106.72C209.459 109.124 210.198 112.077 209.505 114.749C206.518 112.481 203.383 110.453 200.364 108.622C195.517 105.683 190.678 102.773 185.908 99.7374C188.607 98.2197 191.709 97.4326 194.815 97.6453ZM181.542 98.0582C182.446 98.6632 183.356 99.257 184.268 99.8454C183.563 100.324 182.901 100.852 182.282 101.421C181.847 100.226 181.465 99.0099 181.129 97.7796C181.267 97.8723 181.404 97.9657 181.542 98.0582ZM136.455 57.5141C136.251 59.9369 134.288 61.213 132.499 62.5323C132.328 61.7201 132.241 60.8901 132.293 60.0833C133.109 60.0072 133.928 60.0001 134.748 60.066C135.354 60.1147 135.473 59.1728 134.863 59.1237C134.045 59.0579 133.231 59.0652 132.426 59.1314C132.606 58.3028 132.963 57.5187 133.562 56.8298C134.281 56.0016 135.182 55.3506 136.154 54.8079C136.413 55.6896 136.532 56.6032 136.455 57.5141ZM137.471 58.1681C137.409 58.2378 137.346 58.3059 137.284 58.3754C137.32 58.216 137.344 58.0546 137.366 57.8923C137.469 57.9406 137.586 57.9465 137.707 57.8958C137.628 57.9861 137.55 58.0781 137.471 58.1681ZM140.478 54.5799C139.463 55.3719 138.446 56.1604 137.427 56.9452C137.419 56.0764 137.259 55.1988 136.995 54.3698C137.816 53.9743 138.666 53.6399 139.487 53.3372C140.354 53.0181 141.233 52.7384 142.116 52.4713C141.58 53.1824 141.033 53.8845 140.478 54.5799ZM143.465 52.2174C143.51 52.1563 143.556 52.0958 143.601 52.0346C143.646 52.022 143.691 52.0099 143.737 51.9973C143.646 52.0705 143.556 52.1444 143.465 52.2174ZM125.921 36.744C128.908 33.3502 132.588 30.753 136.745 28.994C138.766 28.139 140.861 27.4661 142.99 26.94C145.013 26.44 147.15 25.9031 149.247 25.9329C151.4 25.9634 153.61 26.8515 153.96 29.2204C154.217 30.9547 153.517 32.7326 152.83 34.2888C150.2 40.2462 146.902 45.9203 143.065 51.1928C140.875 51.8017 138.714 52.4945 136.669 53.4948C136.61 53.3522 136.552 53.2076 136.487 53.0705C134.515 48.89 130.376 46.5008 125.82 46.4206C123.349 46.377 121.08 46.8587 118.98 47.7183C120.838 43.7949 123.046 40.0105 125.921 36.744ZM123.823 62.2533C119.91 64.8437 116.99 68.6443 114.583 72.6178C112.11 76.6996 109.954 80.9948 107.892 85.2959C106.164 88.8987 104.549 92.5547 103.035 96.2524C104.834 88.7292 106.932 81.276 109.28 73.9082C111.946 65.5413 114.733 57.0717 118.358 49.0623C123.042 46.8698 129.157 46.4108 133.195 50.1497C134.292 51.1653 135.249 52.4801 135.843 53.9214C134.441 54.6866 133.101 55.6583 132.24 57.0141C131.798 57.7087 131.551 58.4646 131.431 59.245C128.72 59.6424 126.126 60.7289 123.823 62.2533ZM155.497 180.596C154.064 179.611 153.494 177.92 153.22 176.249C153.251 176.194 153.271 176.129 153.276 176.052C153.388 174.495 153.484 172.92 154.057 171.452C154.651 169.929 155.622 168.54 156.937 167.558C158.319 166.527 159.918 166.148 161.621 166.353C163.36 166.563 165.036 167.065 166.793 167.166C168.391 167.259 169.989 167.138 171.557 166.831C170.332 169.88 168.321 172.556 165.693 174.537C163.565 176.143 160.89 177.701 160.188 180.406C159.021 181.856 156.918 181.573 155.497 180.596ZM164.647 187.161C162.791 186.004 160.624 183.976 160.89 181.645C160.931 181.585 160.96 181.512 160.968 181.421C160.98 181.273 161.007 181.132 161.032 180.991C161.058 180.907 161.078 180.824 161.11 180.74C161.137 180.67 161.143 180.602 161.137 180.537C161.918 177.78 165.065 176.356 167.114 174.617C169.418 172.661 171.211 170.158 172.364 167.368C173.308 170.641 173.325 174.18 172.345 177.45C171.128 181.511 168.455 185.011 164.917 187.324C164.827 187.27 164.736 187.216 164.647 187.161ZM205.564 172.542C201.312 178.587 197.257 184.858 192.645 190.637C188.852 195.388 182.345 202.307 175.495 200.448C173.707 199.962 172.484 198.717 172.086 196.893C171.787 195.525 171.836 194.085 171.312 192.767C170.337 190.32 168.001 189.096 165.818 187.851C171.263 184.122 174.408 177.709 173.982 171.102C173.868 169.351 173.499 167.626 172.912 165.974C172.848 165.795 172.604 165.636 172.41 165.685C170.579 166.142 168.693 166.337 166.808 166.218C164.958 166.102 163.188 165.524 161.348 165.371C157.834 165.078 154.938 167.361 153.47 170.425C153.197 170.994 153.001 171.58 152.849 172.176C152.655 169.708 152.267 167.211 150.43 165.435C148.517 163.585 145.848 163.72 143.418 164.171C140.972 164.624 137.593 165.887 135.436 164.037C132.513 161.53 134.836 156.499 135.569 153.522C136.575 149.437 136.865 145.295 137.332 141.13C137.527 139.385 137.667 137.604 137.34 135.864C136.965 133.873 136.06 132.023 135.672 130.034C135.475 129.027 135.182 127.545 135.723 126.601C136.551 125.155 137.783 125.967 138.725 126.438C140.216 127.184 141.698 127.463 143.356 127.183C144.449 126.998 145.527 126.646 146.58 126.185C146.529 127.373 146.967 128.469 146.466 129.651C146.245 130.173 144.876 132.445 146.046 132.584C146.249 132.608 146.439 132.493 146.611 132.383C149.131 130.764 151.65 129.145 154.169 127.526C154.822 127.107 155.498 126.663 155.893 125.995C156.181 125.507 156.299 124.926 156.634 124.469C157.046 123.907 157.719 123.613 158.271 123.188C159.124 122.532 159.697 121.522 159.824 120.452C159.861 120.145 159.863 119.828 159.974 119.539C160.198 118.953 160.987 118.793 161.255 119.453C160.36 117.25 161.821 113.081 161.402 112.699C161.927 111.883 162.431 111.053 162.899 110.199C163.093 109.844 162.624 109.409 162.278 109.584C159.231 111.115 156.317 112.89 153.591 114.941C151.067 116.841 148.479 119.796 145.134 120.032C143.326 120.159 141.324 119.44 140.695 117.587C140.162 116.013 140.784 114.259 141.5 112.849C143.086 109.725 145.608 106.97 148.386 104.871C149.662 103.908 151.033 103.163 152.417 102.374C153.43 101.797 154.343 101.017 154.294 99.759C154.222 97.8949 152.337 96.7253 150.622 96.8043C147.793 96.9349 144.949 99.321 142.925 101.084C140.479 103.215 138.381 105.732 136.673 108.489C132.894 114.585 131.114 121.647 130.567 128.749C127.321 128.18 125.501 125.182 124.505 122.234C123.542 119.38 122.833 116.413 122.099 113.494C120.646 107.715 119.487 101.771 119.698 95.7835C119.912 89.6891 121.698 83.8522 124.138 78.3042C125.314 75.6302 126.626 73.0187 127.959 70.4208C128.628 69.1183 129.261 67.7862 129.975 66.508C130.491 65.5847 131.183 64.8421 131.961 64.1722C133.536 69.3439 137.697 73.0892 142.652 75.1284C145.87 76.4531 149.044 77.7217 152.137 79.3342C155.659 81.1698 159.08 83.1906 162.443 85.3023C168.455 89.078 174.269 93.1539 180.154 97.1226C180.576 98.7787 181.075 100.412 181.672 102.009C178.951 104.772 177.209 108.404 176.774 112.4C176.422 115.638 176.806 118.908 177.477 122.08C178.177 125.389 179.149 128.664 180.463 131.782C183.056 137.935 187.107 143.21 193.025 146.449C198.831 149.627 205.416 150.961 211.622 153.118C213.637 153.819 215.638 154.585 217.619 155.407C213.679 161.171 209.581 166.833 205.564 172.542ZM256.069 124.845C256.153 125.448 256.052 126.075 255.823 126.636C255.412 127.644 254.616 128.5 253.68 129.04C252.682 129.617 251.419 129.795 250.291 129.901C247.454 130.168 244.582 129.785 241.781 129.354C240.598 129.173 239.417 128.974 238.234 128.793C238.384 128.639 238.614 128.513 238.754 128.429C239.142 128.195 239.557 128.007 239.974 127.83C241.949 126.996 243.886 126.081 245.865 125.257C248.817 124.028 251.834 122.962 254.9 122.055C254.963 122.261 255.033 122.465 255.12 122.668C255.431 123.388 255.957 124.052 256.069 124.845Z"/>
</mask>
<path d="M267.184 105.966C266.604 104.492 265.862 103.083 265.158 101.665C264.394 100.126 263.728 98.5691 263.104 96.9695C262.561 95.5776 261.58 94.4275 260.586 93.3368C259.506 92.1529 258.445 90.9758 257.489 89.6862C253.5 84.3074 250.933 77.9826 249.487 71.4687C249.119 69.8128 248.897 68.1542 248.663 66.4767C248.433 64.8358 247.9 63.288 247.465 61.6954C246.6 58.5266 245.91 55.311 244.961 52.1652C244.027 49.071 242.823 46.0314 241.041 43.3213C239.308 40.6861 237.051 38.4648 234.576 36.5297C232.101 34.5942 229.436 32.9188 226.795 31.2234C223.826 29.3177 220.857 27.4121 217.888 25.5064C216.435 24.5739 214.982 23.6413 213.529 22.7087C213.109 22.4392 212.746 23.1235 213.163 23.3915C218.896 27.0711 224.692 30.6692 230.356 34.4538C232.89 36.1466 235.363 37.9665 237.496 40.1551C239.776 42.4948 241.518 45.2603 242.77 48.2739C243.999 51.2301 244.801 54.3387 245.576 57.4382C245.967 59.0019 246.351 60.5677 246.78 62.1219C247.196 63.6328 247.675 65.0959 247.904 66.6467C246.598 65.9983 245.184 65.5417 243.797 65.1212C241.561 64.4433 239.287 63.8918 237.003 63.4054C231.913 62.3213 226.711 61.51 221.506 61.3031C219.437 61.221 217.34 61.228 215.293 61.5696C213.659 61.8424 211.567 62.4544 210.798 64.0998C210.017 65.7702 211.635 67.0571 213.087 67.4264C214.067 67.6756 215.086 67.8079 216.081 67.9868C217.154 68.1798 218.228 68.3729 219.301 68.5659C223.659 69.3495 228.016 70.1332 232.373 70.9168C233.324 71.0878 234.293 71.217 235.234 71.4373C236.07 71.6333 236.694 72.0921 236.675 73.0207C236.633 75.1612 233.943 75.5461 232.31 75.7564C228.323 76.2701 224.308 75.6272 220.411 74.786C219.449 74.5782 218.489 74.3569 217.53 74.1345C217.13 74.0418 216.927 74.5178 217.176 74.795C219.317 77.1798 222.133 78.0731 225.124 78.5688C224.671 78.7301 224.219 78.8921 223.762 79.0404C222.382 79.4882 221.062 79.6866 219.614 79.565C218.378 79.4612 217.071 79.3323 216.009 80.1058C215.732 80.3075 215.8 80.7078 216.125 80.8105C222.46 82.8174 229.408 82.6634 235.65 80.3803C236.034 80.2397 235.98 79.7665 235.629 79.6326C233.539 78.8368 231.343 78.5512 229.139 78.3018C229.804 78.212 230.475 78.1631 231.147 78.1437C233.74 78.0689 236.323 78.4003 238.916 78.3781C240.937 78.3609 243.012 78.0749 244.983 77.6168C245.404 77.5189 245.777 77.3492 246.177 77.1882C246.718 76.9706 247.272 76.7849 247.808 76.5566C248.533 76.2484 249.2 75.856 249.659 75.2527C250.66 78.7274 252.017 82.0974 253.756 85.2762C255.248 88.0045 257.027 90.6028 259.13 92.8981C260.157 94.0197 261.261 95.1118 262.01 96.4503C262.387 97.1247 262.598 97.8752 262.888 98.5885C263.206 99.3672 263.557 100.132 263.921 100.89C264.63 102.368 265.407 103.815 266.074 105.313C266.675 106.662 267.206 108.104 267.224 109.598C267.233 110.32 267.141 111.116 266.788 111.759C266.287 112.672 265.472 112.634 264.551 112.513C263.046 112.316 261.533 112.171 260.032 111.941C258.546 111.714 257.065 111.397 255.656 110.863C254.258 110.334 252.889 109.733 251.475 109.246C250.072 108.763 248.632 108.367 247.158 108.183C245.927 108.029 244.583 107.93 243.421 108.452C242.398 108.912 241.741 109.902 241.925 111.04C242.098 112.1 242.901 113.04 243.877 113.462C246.616 114.647 249.323 112.482 252.079 112.711C253.424 112.822 254.53 113.577 254.869 114.914C255.2 116.22 254.822 117.602 254.677 118.909C254.587 119.72 254.58 120.519 254.716 121.301C251.817 122.157 248.961 123.155 246.163 124.3C243.97 125.197 241.821 126.2 239.644 127.134C238.939 127.436 238.078 127.768 237.58 128.386C237.078 129.009 237.431 129.771 237.81 130.359C238.273 131.079 238.882 131.68 239.396 132.359C240.293 133.542 241.157 134.75 242.057 135.931C244.103 138.615 246.217 141.245 248.393 143.824C248.714 144.204 249.239 143.634 248.921 143.256C247.071 141.064 245.268 138.833 243.514 136.563C242.065 134.688 240.71 132.737 239.195 130.916C238.912 130.576 238.635 130.227 238.404 129.85C238.367 129.79 238.321 129.718 238.276 129.64C240.96 130.165 243.625 130.827 246.202 131.748C247.638 132.262 249.052 132.864 250.378 133.622C251.536 134.283 252.949 135.069 253.448 136.382C254.168 138.283 252.94 140.614 251.612 141.954C250.231 143.348 248.257 143.959 247.165 145.672C245.665 148.026 245.428 151.404 245.795 154.098C246.134 156.586 247.38 158.802 247.789 161.265C247.943 162.193 247.961 163.212 247.481 164.052C246.892 165.081 245.706 165.564 244.612 165.841C241.903 166.525 239.134 165.761 236.671 164.602C234.278 163.476 232.085 161.985 229.826 160.62C227.063 158.95 224.153 157.5 221.221 156.153C220.472 155.809 219.718 155.474 218.961 155.148C219.99 153.645 220.981 152.117 221.876 150.532C224.743 145.451 226.012 139.933 224.422 134.228C222.245 126.414 216.588 120.25 210.148 115.245C210.329 114.678 210.451 114.081 210.503 113.457C210.973 107.778 207.116 102.283 202.477 99.3937C197.581 96.3441 191.588 96.071 186.414 98.5955C185.988 98.8036 185.577 99.0328 185.174 99.2713C183.697 98.3256 182.229 97.364 180.768 96.3871C180.302 94.4866 179.93 92.5636 179.629 90.6479C178.5 83.4812 177.85 76.0828 178.098 68.8245C178.153 67.203 178.235 65.5695 177.891 63.9715C177.516 62.2332 176.937 60.5508 176.615 58.7966C175.984 55.3497 175.64 51.8105 175.331 48.3217C174.722 41.4343 174.663 34.4319 176 27.6218C176.573 24.7007 177.556 21.4317 180.342 19.8966C183.373 18.2259 187.245 19.0726 190.372 20.0049C202.559 23.6382 211.61 33.6567 223.772 37.3918C226.579 38.2539 229.493 38.7253 232.433 38.6746C232.931 38.666 232.912 37.891 232.414 37.8997C218.445 38.1406 208.012 27.0129 196.135 21.4163C193.14 20.0051 189.933 18.821 186.641 18.3656C183.514 17.9331 180.12 18.3321 177.951 20.8643C175.918 23.2383 175.339 26.5677 174.877 29.5603C174.326 33.1241 174.116 36.7348 174.146 40.3391C174.177 43.9657 174.447 47.5866 174.839 51.1907C175.23 54.7803 175.61 58.4063 176.533 61.9041C176.777 62.8308 177.092 63.7487 177.239 64.6976C177.387 65.6492 177.391 66.6151 177.367 67.5757C177.318 69.4991 177.274 71.415 177.315 73.3396C177.399 77.2134 177.685 81.081 178.106 84.932C178.501 88.5418 179.004 92.1919 179.822 95.7557C179.773 95.7222 179.722 95.6897 179.673 95.6562C173.04 91.1645 166.473 86.5638 159.597 82.4473C156.282 80.463 152.9 78.5823 149.417 76.9099C146.388 75.4555 143.091 74.5489 140.152 72.911C136.922 71.1107 134.41 68.0574 133.109 64.5979C133.06 64.4669 133.013 64.3333 132.966 64.1992C133.012 64.1788 133.058 64.1556 133.102 64.1125C135.945 61.3442 138.609 58.404 141.084 55.3145C142.735 54.0266 144.375 52.7212 145.988 51.3834C146.346 51.2877 146.705 51.1921 147.063 51.0957C148.962 50.5841 150.927 50.1062 152.707 49.2482C155.735 47.7882 158.583 45.7723 161.169 43.6391C169.993 36.3611 181.382 21.5906 172.077 10.5411C164.113 1.08497 149.645 -1.16816 138.47 3.01027C134.783 4.38896 131.276 6.24515 127.756 7.99473C124.189 9.76751 120.633 11.5625 117.089 13.3798C109.914 17.0585 102.785 20.8283 95.7056 24.6879C92.2937 26.548 88.8937 28.43 85.5042 30.3305C84.9772 30.626 85.3344 31.506 85.8659 31.208C99.2547 23.7006 112.819 16.5086 126.552 9.65186C132.832 6.51652 139.196 2.84995 146.29 2.07001C152.463 1.39119 158.816 2.62495 164.284 5.57462C169.959 8.63632 175.256 13.9656 174.649 20.9019C174.063 27.6009 169.468 33.9715 165.021 38.7284C160.877 43.1603 155.544 47.5453 149.673 49.3745C149.015 49.5794 148.351 49.77 147.684 49.9544C151.095 47.0302 154.345 43.9282 157.241 40.4829C159.954 37.2548 162.322 33.7218 164.102 29.891C165.468 26.9501 166.649 23.5388 165.67 20.2981C164.732 17.1898 161.861 15.192 158.822 14.4496C155.331 13.5969 151.734 14.5352 148.532 15.9743C144.857 17.6261 141.379 19.8031 137.963 21.9265C134.233 24.2445 130.584 26.6908 126.985 29.2062C119.779 34.2417 112.664 39.4472 105.711 44.8265C98.8568 50.1293 92.2397 55.7966 86.5283 62.3399C75.6322 74.8228 68.1761 89.7916 60.7874 104.498C53.3671 119.267 45.8341 134.299 34.6973 146.679C33.3163 148.215 31.8826 149.7 30.3984 151.135C29.964 151.555 30.5352 152.314 30.9733 151.89C42.4315 140.809 50.4118 126.892 57.6328 112.823C64.9862 98.4961 71.7152 83.7094 81.1854 70.6083C86.0635 63.8601 91.7077 57.8025 97.9898 52.3454C104.458 46.7269 111.395 41.6746 118.299 36.6148C125.193 31.5632 132.159 26.593 139.446 22.1205C142.837 20.039 146.297 17.8596 150.004 16.3793C153.382 15.0308 157.133 14.4739 160.54 16.0392C163.927 17.5951 165.536 20.8212 164.937 24.4712C164.309 28.3024 162.157 32.0036 160.039 35.1869C156.111 41.091 150.957 46.017 145.521 50.5346C145.175 50.6257 144.828 50.7171 144.482 50.809C146.667 47.7264 148.674 44.5149 150.481 41.1852C151.641 39.0483 152.728 36.867 153.71 34.6422C154.367 33.1542 154.957 31.5493 154.951 29.9004C154.946 28.2986 154.26 26.7914 152.887 25.9095C151.295 24.8866 149.242 24.8784 147.427 25.0964C138.789 26.1343 130.351 30.0121 124.696 36.7155C121.749 40.2094 119.49 44.1888 117.585 48.3575C110.526 51.9291 105.445 59.7549 101.048 65.955C87.4234 85.1702 75.7094 105.867 67.2432 127.885C63.0972 138.668 59.7481 149.767 57.3855 161.079C56.1834 166.835 55.2383 172.646 54.5766 178.489C53.9027 184.44 53.7523 190.417 53.2267 196.378C52.6556 202.856 50.9117 208.697 47.8373 214.426C44.7133 220.248 41.2506 225.968 37.4339 231.362C30.4349 241.253 21.4096 250.227 9.72896 254.234C7.0257 255.161 4.23839 255.764 1.39693 256.057C0.788712 256.119 0.917598 257.059 1.52441 256.997C12.4697 255.87 22.2148 249.886 29.7958 242.135C34.3598 237.468 38.219 232.164 41.715 226.664C45.0918 221.351 48.5396 215.855 51.0194 210.053C53.37 204.554 54.0807 198.73 54.4303 192.807C54.781 186.866 55.1712 180.951 55.9561 175.047C57.5122 163.345 60.1908 151.805 63.784 140.564C71.0137 117.947 81.8599 96.5874 94.8363 76.7512C98.0324 71.8657 101.362 67.0676 104.809 62.3567C108.214 57.7048 111.851 52.7119 116.943 49.7987C115.223 53.7613 113.782 57.8615 112.355 61.8581C107.653 75.0208 103.686 88.4663 100.729 102.132C97.8814 109.749 95.4844 117.534 93.5534 125.435C92.4203 130.07 91.4494 134.746 90.6438 139.449C89.8326 144.186 89.2302 148.959 88.2541 153.666C87.2586 158.467 85.7776 163.098 83.5767 167.486C81.3682 171.89 78.6196 175.994 75.789 180.015C75.0801 181.022 74.3649 182.025 73.6494 183.028C73.2954 183.524 74.0484 184.101 74.4039 183.602C79.9777 175.792 85.4758 167.842 88.0688 158.479C89.3297 153.926 90.0534 149.251 90.7768 144.589C91.4976 139.943 92.3039 135.316 93.3015 130.721C94.9123 123.301 96.9477 115.976 99.3743 108.783C98.9968 110.761 98.6374 112.743 98.3046 114.73C96.7924 123.759 95.7574 132.87 95.2803 142.014C94.8374 150.504 94.8623 159.01 94.7766 167.509C94.6082 184.22 94.0879 201.35 88.4431 217.262C87.7654 219.173 87.0131 221.055 86.194 222.909C85.9473 223.467 86.8271 223.822 87.0741 223.263C93.605 208.481 95.1543 192.226 95.5728 176.24C95.7869 168.057 95.7245 159.869 95.8912 151.686C96.0662 143.094 96.5919 134.525 97.6315 125.993C98.595 118.085 99.9465 110.232 101.627 102.448C104.769 94.0497 108.454 85.855 112.67 77.9422C116.706 70.3683 122.144 61.6534 131.347 60.2046C131.326 61.0215 131.416 61.8504 131.573 62.656C131.607 62.8255 131.652 62.9887 131.69 63.1555C129.747 64.7328 128.804 66.7221 127.672 68.9171C126.331 71.5155 124.997 74.1189 123.783 76.7794C121.383 82.0387 119.459 87.5697 118.907 93.3564C118.362 99.0719 119.145 104.812 120.388 110.387C120.99 113.089 121.703 115.765 122.431 118.436C123.147 121.061 123.76 123.836 125.284 126.136C126.586 128.101 128.564 129.538 130.941 129.763C131.186 129.786 131.451 129.611 131.469 129.349C131.92 122.83 133.385 116.331 136.547 110.567C138.256 107.452 140.464 104.575 143.102 102.192C145.013 100.466 149.471 96.3829 152.26 98.1193C152.85 98.487 153.424 99.2325 153.354 99.9711C153.241 101.172 151.661 101.691 150.792 102.177C149.448 102.928 148.171 103.793 146.981 104.771C144.624 106.709 142.574 109.068 141.049 111.714C140.001 113.531 139.073 115.847 139.819 117.949C140.533 119.964 142.568 120.957 144.607 120.992C147.819 121.048 150.314 118.762 152.66 116.871C155.341 114.71 158.211 112.817 161.24 111.19C158.948 115.002 156.013 118.401 152.537 121.188C149.463 123.652 144.381 127.559 140.146 126.052C138.875 125.599 137.601 124.435 136.168 124.941C134.703 125.458 134.47 127.227 134.533 128.575C134.627 130.553 135.356 132.409 135.937 134.278C136.639 136.532 136.653 138.683 136.39 141.015C135.853 145.785 135.483 150.475 134.172 155.119C133.376 157.936 132.156 161.663 134.279 164.21C138.474 169.24 146.347 161.355 150.355 166.796C153.182 170.633 150.922 176.08 153.593 180.01C154.903 181.938 157.828 183.024 159.865 181.907C159.449 186.757 167.048 188.667 169.535 191.641C171.541 194.04 170.348 197.577 172.572 199.867C174.391 201.74 177.358 201.914 179.774 201.424C186.095 200.141 190.982 194.463 194.675 189.563C199.433 183.25 203.836 176.647 208.384 170.181C210.793 166.757 213.202 163.332 215.611 159.908C216.578 158.534 217.562 157.166 218.522 155.783C222.707 157.566 226.781 159.629 230.629 162.022C235.021 164.754 240.52 168.419 245.895 166.242C251.204 164.092 247.182 158.043 246.602 154.296C246.32 152.469 246.393 150.59 246.807 148.789C247.102 147.506 247.534 146.205 248.486 145.255C249.901 143.843 251.811 143.166 252.991 141.484C254.184 139.782 255.027 137.414 253.862 135.479C253.191 134.365 251.941 133.633 250.844 132.997C249.505 132.221 248.075 131.612 246.624 131.082C246.128 130.901 245.628 130.733 245.126 130.57C245.467 130.605 245.809 130.636 246.151 130.663C247.533 130.769 248.927 130.806 250.309 130.676C251.462 130.568 252.704 130.381 253.757 129.873C255.64 128.966 257.161 126.83 256.821 124.677C256.707 123.954 256.314 123.362 255.994 122.72C255.618 121.964 255.401 121.159 255.375 120.315C255.334 118.978 255.691 117.673 255.758 116.344C255.816 115.207 255.58 114.007 254.799 113.14C253.973 112.222 252.681 111.885 251.482 111.926C249.966 111.977 248.551 112.577 247.08 112.873C245.756 113.14 244.191 113.157 243.236 112.043C242.831 111.57 242.549 110.91 242.705 110.282C242.881 109.57 243.533 109.176 244.197 108.994C245.626 108.603 247.283 108.92 248.693 109.243C251.692 109.928 254.395 111.452 257.363 112.204C258.818 112.572 260.307 112.775 261.796 112.954C262.587 113.05 263.379 113.138 264.17 113.241C264.866 113.331 265.608 113.489 266.288 113.234C267.539 112.765 267.919 111.225 267.989 110.034C268.071 108.64 267.69 107.252 267.184 105.966ZM217.317 80.3542C218.162 80.1459 219.102 80.3047 219.965 80.3668C221.198 80.4553 222.384 80.2696 223.564 79.9145C224.664 79.5834 225.73 79.1513 226.828 78.8138C229.37 79.1353 231.968 79.3226 234.331 80.0131C228.834 81.7808 222.882 81.8988 217.317 80.3542ZM247.264 75.9451C246.446 76.2674 245.617 76.6757 244.76 76.8748C242.791 77.3322 240.734 77.5989 238.716 77.6042C236.125 77.611 233.542 77.2796 230.95 77.3747C229.724 77.4197 228.494 77.561 227.304 77.8675C227.123 77.9142 226.945 77.9707 226.766 78.0241C226.465 77.9852 226.165 77.9446 225.866 77.8995C223.346 77.5196 220.752 76.8141 218.751 75.2108C222.148 75.9841 225.586 76.6762 229.078 76.7138C230.95 76.734 232.943 76.614 234.743 76.0591C236.293 75.5813 237.668 74.3843 237.423 72.6145C237.175 70.8187 235.325 70.6617 233.881 70.4018C231.733 70.0157 229.586 69.6296 227.439 69.2434C223.082 68.4598 218.725 67.6769 214.367 66.8925C213.507 66.7376 212.491 66.6171 211.846 65.9606C211.143 65.2451 211.337 64.4034 212.015 63.764C212.591 63.2205 213.271 62.8795 214.021 62.6509C215.783 62.1138 217.688 62.0439 219.517 62.0388C224.628 62.0245 229.76 62.7738 234.768 63.742C237.171 64.2064 239.562 64.7425 241.922 65.3879C243.681 65.8688 245.456 66.3854 247.126 67.1271C247.408 67.2525 247.687 67.3862 247.958 67.5334C247.984 67.5474 248.008 67.5484 248.033 67.5564C248.345 69.7922 248.787 72.0115 249.367 74.1936C248.993 75.1462 248.173 75.587 247.264 75.9451ZM215.805 121.711C219.467 125.679 222.719 130.427 223.835 135.795C225.223 142.477 222.332 148.455 218.672 153.873C218.469 154.173 218.26 154.47 218.056 154.77C215.997 153.904 213.913 153.098 211.803 152.365C208.793 151.319 205.728 150.455 202.69 149.499C196.665 147.603 190.77 145.159 186.512 140.301C182.218 135.403 179.863 129.036 178.42 122.766C177.026 116.712 176.644 109.904 180.44 104.609C180.903 103.963 181.418 103.356 181.97 102.783C182.53 104.195 183.167 105.578 183.904 106.92C186.753 112.107 191.214 116.66 196.792 118.825C199.574 119.904 202.816 120.533 205.735 119.637C207.624 119.056 208.998 117.801 209.78 116.172C211.917 117.866 213.944 119.695 215.805 121.711ZM182.567 102.189C183.312 101.489 184.12 100.855 184.978 100.298C190.272 103.682 195.69 106.841 201.042 110.143C203.84 111.87 206.585 113.694 209.181 115.704C207.92 118.582 204.671 119.494 201.661 119.23C195.713 118.709 190.424 114.775 186.912 110.139C185.068 107.704 183.66 105.014 182.567 102.189ZM194.815 97.6453C200.461 98.0321 205.686 101.709 208.236 106.72C209.459 109.124 210.198 112.077 209.505 114.749C206.518 112.481 203.383 110.453 200.364 108.622C195.517 105.683 190.678 102.773 185.908 99.7374C188.607 98.2197 191.709 97.4326 194.815 97.6453ZM181.542 98.0582C182.446 98.6632 183.356 99.257 184.268 99.8454C183.563 100.324 182.901 100.852 182.282 101.421C181.847 100.226 181.465 99.0099 181.129 97.7796C181.267 97.8723 181.404 97.9657 181.542 98.0582ZM136.455 57.5141C136.251 59.9369 134.288 61.213 132.499 62.5323C132.328 61.7201 132.241 60.8901 132.293 60.0833C133.109 60.0072 133.928 60.0001 134.748 60.066C135.354 60.1147 135.473 59.1728 134.863 59.1237C134.045 59.0579 133.231 59.0652 132.426 59.1314C132.606 58.3028 132.963 57.5187 133.562 56.8298C134.281 56.0016 135.182 55.3506 136.154 54.8079C136.413 55.6896 136.532 56.6032 136.455 57.5141ZM137.471 58.1681C137.409 58.2378 137.346 58.3059 137.284 58.3754C137.32 58.216 137.344 58.0546 137.366 57.8923C137.469 57.9406 137.586 57.9465 137.707 57.8958C137.628 57.9861 137.55 58.0781 137.471 58.1681ZM140.478 54.5799C139.463 55.3719 138.446 56.1604 137.427 56.9452C137.419 56.0764 137.259 55.1988 136.995 54.3698C137.816 53.9743 138.666 53.6399 139.487 53.3372C140.354 53.0181 141.233 52.7384 142.116 52.4713C141.58 53.1824 141.033 53.8845 140.478 54.5799ZM143.465 52.2174C143.51 52.1563 143.556 52.0958 143.601 52.0346C143.646 52.022 143.691 52.0099 143.737 51.9973C143.646 52.0705 143.556 52.1444 143.465 52.2174ZM125.921 36.744C128.908 33.3502 132.588 30.753 136.745 28.994C138.766 28.139 140.861 27.4661 142.99 26.94C145.013 26.44 147.15 25.9031 149.247 25.9329C151.4 25.9634 153.61 26.8515 153.96 29.2204C154.217 30.9547 153.517 32.7326 152.83 34.2888C150.2 40.2462 146.902 45.9203 143.065 51.1928C140.875 51.8017 138.714 52.4945 136.669 53.4948C136.61 53.3522 136.552 53.2076 136.487 53.0705C134.515 48.89 130.376 46.5008 125.82 46.4206C123.349 46.377 121.08 46.8587 118.98 47.7183C120.838 43.7949 123.046 40.0105 125.921 36.744ZM123.823 62.2533C119.91 64.8437 116.99 68.6443 114.583 72.6178C112.11 76.6996 109.954 80.9948 107.892 85.2959C106.164 88.8987 104.549 92.5547 103.035 96.2524C104.834 88.7292 106.932 81.276 109.28 73.9082C111.946 65.5413 114.733 57.0717 118.358 49.0623C123.042 46.8698 129.157 46.4108 133.195 50.1497C134.292 51.1653 135.249 52.4801 135.843 53.9214C134.441 54.6866 133.101 55.6583 132.24 57.0141C131.798 57.7087 131.551 58.4646 131.431 59.245C128.72 59.6424 126.126 60.7289 123.823 62.2533ZM155.497 180.596C154.064 179.611 153.494 177.92 153.22 176.249C153.251 176.194 153.271 176.129 153.276 176.052C153.388 174.495 153.484 172.92 154.057 171.452C154.651 169.929 155.622 168.54 156.937 167.558C158.319 166.527 159.918 166.148 161.621 166.353C163.36 166.563 165.036 167.065 166.793 167.166C168.391 167.259 169.989 167.138 171.557 166.831C170.332 169.88 168.321 172.556 165.693 174.537C163.565 176.143 160.89 177.701 160.188 180.406C159.021 181.856 156.918 181.573 155.497 180.596ZM164.647 187.161C162.791 186.004 160.624 183.976 160.89 181.645C160.931 181.585 160.96 181.512 160.968 181.421C160.98 181.273 161.007 181.132 161.032 180.991C161.058 180.907 161.078 180.824 161.11 180.74C161.137 180.67 161.143 180.602 161.137 180.537C161.918 177.78 165.065 176.356 167.114 174.617C169.418 172.661 171.211 170.158 172.364 167.368C173.308 170.641 173.325 174.18 172.345 177.45C171.128 181.511 168.455 185.011 164.917 187.324C164.827 187.27 164.736 187.216 164.647 187.161ZM205.564 172.542C201.312 178.587 197.257 184.858 192.645 190.637C188.852 195.388 182.345 202.307 175.495 200.448C173.707 199.962 172.484 198.717 172.086 196.893C171.787 195.525 171.836 194.085 171.312 192.767C170.337 190.32 168.001 189.096 165.818 187.851C171.263 184.122 174.408 177.709 173.982 171.102C173.868 169.351 173.499 167.626 172.912 165.974C172.848 165.795 172.604 165.636 172.41 165.685C170.579 166.142 168.693 166.337 166.808 166.218C164.958 166.102 163.188 165.524 161.348 165.371C157.834 165.078 154.938 167.361 153.47 170.425C153.197 170.994 153.001 171.58 152.849 172.176C152.655 169.708 152.267 167.211 150.43 165.435C148.517 163.585 145.848 163.72 143.418 164.171C140.972 164.624 137.593 165.887 135.436 164.037C132.513 161.53 134.836 156.499 135.569 153.522C136.575 149.437 136.865 145.295 137.332 141.13C137.527 139.385 137.667 137.604 137.34 135.864C136.965 133.873 136.06 132.023 135.672 130.034C135.475 129.027 135.182 127.545 135.723 126.601C136.551 125.155 137.783 125.967 138.725 126.438C140.216 127.184 141.698 127.463 143.356 127.183C144.449 126.998 145.527 126.646 146.58 126.185C146.529 127.373 146.967 128.469 146.466 129.651C146.245 130.173 144.876 132.445 146.046 132.584C146.249 132.608 146.439 132.493 146.611 132.383C149.131 130.764 151.65 129.145 154.169 127.526C154.822 127.107 155.498 126.663 155.893 125.995C156.181 125.507 156.299 124.926 156.634 124.469C157.046 123.907 157.719 123.613 158.271 123.188C159.124 122.532 159.697 121.522 159.824 120.452C159.861 120.145 159.863 119.828 159.974 119.539C160.198 118.953 160.987 118.793 161.255 119.453C160.36 117.25 161.821 113.081 161.402 112.699C161.927 111.883 162.431 111.053 162.899 110.199C163.093 109.844 162.624 109.409 162.278 109.584C159.231 111.115 156.317 112.89 153.591 114.941C151.067 116.841 148.479 119.796 145.134 120.032C143.326 120.159 141.324 119.44 140.695 117.587C140.162 116.013 140.784 114.259 141.5 112.849C143.086 109.725 145.608 106.97 148.386 104.871C149.662 103.908 151.033 103.163 152.417 102.374C153.43 101.797 154.343 101.017 154.294 99.759C154.222 97.8949 152.337 96.7253 150.622 96.8043C147.793 96.9349 144.949 99.321 142.925 101.084C140.479 103.215 138.381 105.732 136.673 108.489C132.894 114.585 131.114 121.647 130.567 128.749C127.321 128.18 125.501 125.182 124.505 122.234C123.542 119.38 122.833 116.413 122.099 113.494C120.646 107.715 119.487 101.771 119.698 95.7835C119.912 89.6891 121.698 83.8522 124.138 78.3042C125.314 75.6302 126.626 73.0187 127.959 70.4208C128.628 69.1183 129.261 67.7862 129.975 66.508C130.491 65.5847 131.183 64.8421 131.961 64.1722C133.536 69.3439 137.697 73.0892 142.652 75.1284C145.87 76.4531 149.044 77.7217 152.137 79.3342C155.659 81.1698 159.08 83.1906 162.443 85.3023C168.455 89.078 174.269 93.1539 180.154 97.1226C180.576 98.7787 181.075 100.412 181.672 102.009C178.951 104.772 177.209 108.404 176.774 112.4C176.422 115.638 176.806 118.908 177.477 122.08C178.177 125.389 179.149 128.664 180.463 131.782C183.056 137.935 187.107 143.21 193.025 146.449C198.831 149.627 205.416 150.961 211.622 153.118C213.637 153.819 215.638 154.585 217.619 155.407C213.679 161.171 209.581 166.833 205.564 172.542ZM256.069 124.845C256.153 125.448 256.052 126.075 255.823 126.636C255.412 127.644 254.616 128.5 253.68 129.04C252.682 129.617 251.419 129.795 250.291 129.901C247.454 130.168 244.582 129.785 241.781 129.354C240.598 129.173 239.417 128.974 238.234 128.793C238.384 128.639 238.614 128.513 238.754 128.429C239.142 128.195 239.557 128.007 239.974 127.83C241.949 126.996 243.886 126.081 245.865 125.257C248.817 124.028 251.834 122.962 254.9 122.055C254.963 122.261 255.033 122.465 255.12 122.668C255.431 123.388 255.957 124.052 256.069 124.845Z" fill="black"/>
<path d="M267.184 105.966C266.604 104.492 265.862 103.083 265.158 101.665C264.394 100.126 263.728 98.5691 263.104 96.9695C262.561 95.5776 261.58 94.4275 260.586 93.3368C259.506 92.1529 258.445 90.9758 257.489 89.6862C253.5 84.3074 250.933 77.9826 249.487 71.4687C249.119 69.8128 248.897 68.1542 248.663 66.4767C248.433 64.8358 247.9 63.288 247.465 61.6954C246.6 58.5266 245.91 55.311 244.961 52.1652C244.027 49.071 242.823 46.0314 241.041 43.3213C239.308 40.6861 237.051 38.4648 234.576 36.5297C232.101 34.5942 229.436 32.9188 226.795 31.2234C223.826 29.3177 220.857 27.4121 217.888 25.5064C216.435 24.5739 214.982 23.6413 213.529 22.7087C213.109 22.4392 212.746 23.1235 213.163 23.3915C218.896 27.0711 224.692 30.6692 230.356 34.4538C232.89 36.1466 235.363 37.9665 237.496 40.1551C239.776 42.4948 241.518 45.2603 242.77 48.2739C243.999 51.2301 244.801 54.3387 245.576 57.4382C245.967 59.0019 246.351 60.5677 246.78 62.1219C247.196 63.6328 247.675 65.0959 247.904 66.6467C246.598 65.9983 245.184 65.5417 243.797 65.1212C241.561 64.4433 239.287 63.8918 237.003 63.4054C231.913 62.3213 226.711 61.51 221.506 61.3031C219.437 61.221 217.34 61.228 215.293 61.5696C213.659 61.8424 211.567 62.4544 210.798 64.0998C210.017 65.7702 211.635 67.0571 213.087 67.4264C214.067 67.6756 215.086 67.8079 216.081 67.9868C217.154 68.1798 218.228 68.3729 219.301 68.5659C223.659 69.3495 228.016 70.1332 232.373 70.9168C233.324 71.0878 234.293 71.217 235.234 71.4373C236.07 71.6333 236.694 72.0921 236.675 73.0207C236.633 75.1612 233.943 75.5461 232.31 75.7564C228.323 76.2701 224.308 75.6272 220.411 74.786C219.449 74.5782 218.489 74.3569 217.53 74.1345C217.13 74.0418 216.927 74.5178 217.176 74.795C219.317 77.1798 222.133 78.0731 225.124 78.5688C224.671 78.7301 224.219 78.8921 223.762 79.0404C222.382 79.4882 221.062 79.6866 219.614 79.565C218.378 79.4612 217.071 79.3323 216.009 80.1058C215.732 80.3075 215.8 80.7078 216.125 80.8105C222.46 82.8174 229.408 82.6634 235.65 80.3803C236.034 80.2397 235.98 79.7665 235.629 79.6326C233.539 78.8368 231.343 78.5512 229.139 78.3018C229.804 78.212 230.475 78.1631 231.147 78.1437C233.74 78.0689 236.323 78.4003 238.916 78.3781C240.937 78.3609 243.012 78.0749 244.983 77.6168C245.404 77.5189 245.777 77.3492 246.177 77.1882C246.718 76.9706 247.272 76.7849 247.808 76.5566C248.533 76.2484 249.2 75.856 249.659 75.2527C250.66 78.7274 252.017 82.0974 253.756 85.2762C255.248 88.0045 257.027 90.6028 259.13 92.8981C260.157 94.0197 261.261 95.1118 262.01 96.4503C262.387 97.1247 262.598 97.8752 262.888 98.5885C263.206 99.3672 263.557 100.132 263.921 100.89C264.63 102.368 265.407 103.815 266.074 105.313C266.675 106.662 267.206 108.104 267.224 109.598C267.233 110.32 267.141 111.116 266.788 111.759C266.287 112.672 265.472 112.634 264.551 112.513C263.046 112.316 261.533 112.171 260.032 111.941C258.546 111.714 257.065 111.397 255.656 110.863C254.258 110.334 252.889 109.733 251.475 109.246C250.072 108.763 248.632 108.367 247.158 108.183C245.927 108.029 244.583 107.93 243.421 108.452C242.398 108.912 241.741 109.902 241.925 111.04C242.098 112.1 242.901 113.04 243.877 113.462C246.616 114.647 249.323 112.482 252.079 112.711C253.424 112.822 254.53 113.577 254.869 114.914C255.2 116.22 254.822 117.602 254.677 118.909C254.587 119.72 254.58 120.519 254.716 121.301C251.817 122.157 248.961 123.155 246.163 124.3C243.97 125.197 241.821 126.2 239.644 127.134C238.939 127.436 238.078 127.768 237.58 128.386C237.078 129.009 237.431 129.771 237.81 130.359C238.273 131.079 238.882 131.68 239.396 132.359C240.293 133.542 241.157 134.75 242.057 135.931C244.103 138.615 246.217 141.245 248.393 143.824C248.714 144.204 249.239 143.634 248.921 143.256C247.071 141.064 245.268 138.833 243.514 136.563C242.065 134.688 240.71 132.737 239.195 130.916C238.912 130.576 238.635 130.227 238.404 129.85C238.367 129.79 238.321 129.718 238.276 129.64C240.96 130.165 243.625 130.827 246.202 131.748C247.638 132.262 249.052 132.864 250.378 133.622C251.536 134.283 252.949 135.069 253.448 136.382C254.168 138.283 252.94 140.614 251.612 141.954C250.231 143.348 248.257 143.959 247.165 145.672C245.665 148.026 245.428 151.404 245.795 154.098C246.134 156.586 247.38 158.802 247.789 161.265C247.943 162.193 247.961 163.212 247.481 164.052C246.892 165.081 245.706 165.564 244.612 165.841C241.903 166.525 239.134 165.761 236.671 164.602C234.278 163.476 232.085 161.985 229.826 160.62C227.063 158.95 224.153 157.5 221.221 156.153C220.472 155.809 219.718 155.474 218.961 155.148C219.99 153.645 220.981 152.117 221.876 150.532C224.743 145.451 226.012 139.933 224.422 134.228C222.245 126.414 216.588 120.25 210.148 115.245C210.329 114.678 210.451 114.081 210.503 113.457C210.973 107.778 207.116 102.283 202.477 99.3937C197.581 96.3441 191.588 96.071 186.414 98.5955C185.988 98.8036 185.577 99.0328 185.174 99.2713C183.697 98.3256 182.229 97.364 180.768 96.3871C180.302 94.4866 179.93 92.5636 179.629 90.6479C178.5 83.4812 177.85 76.0828 178.098 68.8245C178.153 67.203 178.235 65.5695 177.891 63.9715C177.516 62.2332 176.937 60.5508 176.615 58.7966C175.984 55.3497 175.64 51.8105 175.331 48.3217C174.722 41.4343 174.663 34.4319 176 27.6218C176.573 24.7007 177.556 21.4317 180.342 19.8966C183.373 18.2259 187.245 19.0726 190.372 20.0049C202.559 23.6382 211.61 33.6567 223.772 37.3918C226.579 38.2539 229.493 38.7253 232.433 38.6746C232.931 38.666 232.912 37.891 232.414 37.8997C218.445 38.1406 208.012 27.0129 196.135 21.4163C193.14 20.0051 189.933 18.821 186.641 18.3656C183.514 17.9331 180.12 18.3321 177.951 20.8643C175.918 23.2383 175.339 26.5677 174.877 29.5603C174.326 33.1241 174.116 36.7348 174.146 40.3391C174.177 43.9657 174.447 47.5866 174.839 51.1907C175.23 54.7803 175.61 58.4063 176.533 61.9041C176.777 62.8308 177.092 63.7487 177.239 64.6976C177.387 65.6492 177.391 66.6151 177.367 67.5757C177.318 69.4991 177.274 71.415 177.315 73.3396C177.399 77.2134 177.685 81.081 178.106 84.932C178.501 88.5418 179.004 92.1919 179.822 95.7557C179.773 95.7222 179.722 95.6897 179.673 95.6562C173.04 91.1645 166.473 86.5638 159.597 82.4473C156.282 80.463 152.9 78.5823 149.417 76.9099C146.388 75.4555 143.091 74.5489 140.152 72.911C136.922 71.1107 134.41 68.0574 133.109 64.5979C133.06 64.4669 133.013 64.3333 132.966 64.1992C133.012 64.1788 133.058 64.1556 133.102 64.1125C135.945 61.3442 138.609 58.404 141.084 55.3145C142.735 54.0266 144.375 52.7212 145.988 51.3834C146.346 51.2877 146.705 51.1921 147.063 51.0957C148.962 50.5841 150.927 50.1062 152.707 49.2482C155.735 47.7882 158.583 45.7723 161.169 43.6391C169.993 36.3611 181.382 21.5906 172.077 10.5411C164.113 1.08497 149.645 -1.16816 138.47 3.01027C134.783 4.38896 131.276 6.24515 127.756 7.99473C124.189 9.76751 120.633 11.5625 117.089 13.3798C109.914 17.0585 102.785 20.8283 95.7056 24.6879C92.2937 26.548 88.8937 28.43 85.5042 30.3305C84.9772 30.626 85.3344 31.506 85.8659 31.208C99.2547 23.7006 112.819 16.5086 126.552 9.65186C132.832 6.51652 139.196 2.84995 146.29 2.07001C152.463 1.39119 158.816 2.62495 164.284 5.57462C169.959 8.63632 175.256 13.9656 174.649 20.9019C174.063 27.6009 169.468 33.9715 165.021 38.7284C160.877 43.1603 155.544 47.5453 149.673 49.3745C149.015 49.5794 148.351 49.77 147.684 49.9544C151.095 47.0302 154.345 43.9282 157.241 40.4829C159.954 37.2548 162.322 33.7218 164.102 29.891C165.468 26.9501 166.649 23.5388 165.67 20.2981C164.732 17.1898 161.861 15.192 158.822 14.4496C155.331 13.5969 151.734 14.5352 148.532 15.9743C144.857 17.6261 141.379 19.8031 137.963 21.9265C134.233 24.2445 130.584 26.6908 126.985 29.2062C119.779 34.2417 112.664 39.4472 105.711 44.8265C98.8568 50.1293 92.2397 55.7966 86.5283 62.3399C75.6322 74.8228 68.1761 89.7916 60.7874 104.498C53.3671 119.267 45.8341 134.299 34.6973 146.679C33.3163 148.215 31.8826 149.7 30.3984 151.135C29.964 151.555 30.5352 152.314 30.9733 151.89C42.4315 140.809 50.4118 126.892 57.6328 112.823C64.9862 98.4961 71.7152 83.7094 81.1854 70.6083C86.0635 63.8601 91.7077 57.8025 97.9898 52.3454C104.458 46.7269 111.395 41.6746 118.299 36.6148C125.193 31.5632 132.159 26.593 139.446 22.1205C142.837 20.039 146.297 17.8596 150.004 16.3793C153.382 15.0308 157.133 14.4739 160.54 16.0392C163.927 17.5951 165.536 20.8212 164.937 24.4712C164.309 28.3024 162.157 32.0036 160.039 35.1869C156.111 41.091 150.957 46.017 145.521 50.5346C145.175 50.6257 144.828 50.7171 144.482 50.809C146.667 47.7264 148.674 44.5149 150.481 41.1852C151.641 39.0483 152.728 36.867 153.71 34.6422C154.367 33.1542 154.957 31.5493 154.951 29.9004C154.946 28.2986 154.26 26.7914 152.887 25.9095C151.295 24.8866 149.242 24.8784 147.427 25.0964C138.789 26.1343 130.351 30.0121 124.696 36.7155C121.749 40.2094 119.49 44.1888 117.585 48.3575C110.526 51.9291 105.445 59.7549 101.048 65.955C87.4234 85.1702 75.7094 105.867 67.2432 127.885C63.0972 138.668 59.7481 149.767 57.3855 161.079C56.1834 166.835 55.2383 172.646 54.5766 178.489C53.9027 184.44 53.7523 190.417 53.2267 196.378C52.6556 202.856 50.9117 208.697 47.8373 214.426C44.7133 220.248 41.2506 225.968 37.4339 231.362C30.4349 241.253 21.4096 250.227 9.72896 254.234C7.0257 255.161 4.23839 255.764 1.39693 256.057C0.788712 256.119 0.917598 257.059 1.52441 256.997C12.4697 255.87 22.2148 249.886 29.7958 242.135C34.3598 237.468 38.219 232.164 41.715 226.664C45.0918 221.351 48.5396 215.855 51.0194 210.053C53.37 204.554 54.0807 198.73 54.4303 192.807C54.781 186.866 55.1712 180.951 55.9561 175.047C57.5122 163.345 60.1908 151.805 63.784 140.564C71.0137 117.947 81.8599 96.5874 94.8363 76.7512C98.0324 71.8657 101.362 67.0676 104.809 62.3567C108.214 57.7048 111.851 52.7119 116.943 49.7987C115.223 53.7613 113.782 57.8615 112.355 61.8581C107.653 75.0208 103.686 88.4663 100.729 102.132C97.8814 109.749 95.4844 117.534 93.5534 125.435C92.4203 130.07 91.4494 134.746 90.6438 139.449C89.8326 144.186 89.2302 148.959 88.2541 153.666C87.2586 158.467 85.7776 163.098 83.5767 167.486C81.3682 171.89 78.6196 175.994 75.789 180.015C75.0801 181.022 74.3649 182.025 73.6494 183.028C73.2954 183.524 74.0484 184.101 74.4039 183.602C79.9777 175.792 85.4758 167.842 88.0688 158.479C89.3297 153.926 90.0534 149.251 90.7768 144.589C91.4976 139.943 92.3039 135.316 93.3015 130.721C94.9123 123.301 96.9477 115.976 99.3743 108.783C98.9968 110.761 98.6374 112.743 98.3046 114.73C96.7924 123.759 95.7574 132.87 95.2803 142.014C94.8374 150.504 94.8623 159.01 94.7766 167.509C94.6082 184.22 94.0879 201.35 88.4431 217.262C87.7654 219.173 87.0131 221.055 86.194 222.909C85.9473 223.467 86.8271 223.822 87.0741 223.263C93.605 208.481 95.1543 192.226 95.5728 176.24C95.7869 168.057 95.7245 159.869 95.8912 151.686C96.0662 143.094 96.5919 134.525 97.6315 125.993C98.595 118.085 99.9465 110.232 101.627 102.448C104.769 94.0497 108.454 85.855 112.67 77.9422C116.706 70.3683 122.144 61.6534 131.347 60.2046C131.326 61.0215 131.416 61.8504 131.573 62.656C131.607 62.8255 131.652 62.9887 131.69 63.1555C129.747 64.7328 128.804 66.7221 127.672 68.9171C126.331 71.5155 124.997 74.1189 123.783 76.7794C121.383 82.0387 119.459 87.5697 118.907 93.3564C118.362 99.0719 119.145 104.812 120.388 110.387C120.99 113.089 121.703 115.765 122.431 118.436C123.147 121.061 123.76 123.836 125.284 126.136C126.586 128.101 128.564 129.538 130.941 129.763C131.186 129.786 131.451 129.611 131.469 129.349C131.92 122.83 133.385 116.331 136.547 110.567C138.256 107.452 140.464 104.575 143.102 102.192C145.013 100.466 149.471 96.3829 152.26 98.1193C152.85 98.487 153.424 99.2325 153.354 99.9711C153.241 101.172 151.661 101.691 150.792 102.177C149.448 102.928 148.171 103.793 146.981 104.771C144.624 106.709 142.574 109.068 141.049 111.714C140.001 113.531 139.073 115.847 139.819 117.949C140.533 119.964 142.568 120.957 144.607 120.992C147.819 121.048 150.314 118.762 152.66 116.871C155.341 114.71 158.211 112.817 161.24 111.19C158.948 115.002 156.013 118.401 152.537 121.188C149.463 123.652 144.381 127.559 140.146 126.052C138.875 125.599 137.601 124.435 136.168 124.941C134.703 125.458 134.47 127.227 134.533 128.575C134.627 130.553 135.356 132.409 135.937 134.278C136.639 136.532 136.653 138.683 136.39 141.015C135.853 145.785 135.483 150.475 134.172 155.119C133.376 157.936 132.156 161.663 134.279 164.21C138.474 169.24 146.347 161.355 150.355 166.796C153.182 170.633 150.922 176.08 153.593 180.01C154.903 181.938 157.828 183.024 159.865 181.907C159.449 186.757 167.048 188.667 169.535 191.641C171.541 194.04 170.348 197.577 172.572 199.867C174.391 201.74 177.358 201.914 179.774 201.424C186.095 200.141 190.982 194.463 194.675 189.563C199.433 183.25 203.836 176.647 208.384 170.181C210.793 166.757 213.202 163.332 215.611 159.908C216.578 158.534 217.562 157.166 218.522 155.783C222.707 157.566 226.781 159.629 230.629 162.022C235.021 164.754 240.52 168.419 245.895 166.242C251.204 164.092 247.182 158.043 246.602 154.296C246.32 152.469 246.393 150.59 246.807 148.789C247.102 147.506 247.534 146.205 248.486 145.255C249.901 143.843 251.811 143.166 252.991 141.484C254.184 139.782 255.027 137.414 253.862 135.479C253.191 134.365 251.941 133.633 250.844 132.997C249.505 132.221 248.075 131.612 246.624 131.082C246.128 130.901 245.628 130.733 245.126 130.57C245.467 130.605 245.809 130.636 246.151 130.663C247.533 130.769 248.927 130.806 250.309 130.676C251.462 130.568 252.704 130.381 253.757 129.873C255.64 128.966 257.161 126.83 256.821 124.677C256.707 123.954 256.314 123.362 255.994 122.72C255.618 121.964 255.401 121.159 255.375 120.315C255.334 118.978 255.691 117.673 255.758 116.344C255.816 115.207 255.58 114.007 254.799 113.14C253.973 112.222 252.681 111.885 251.482 111.926C249.966 111.977 248.551 112.577 247.08 112.873C245.756 113.14 244.191 113.157 243.236 112.043C242.831 111.57 242.549 110.91 242.705 110.282C242.881 109.57 243.533 109.176 244.197 108.994C245.626 108.603 247.283 108.92 248.693 109.243C251.692 109.928 254.395 111.452 257.363 112.204C258.818 112.572 260.307 112.775 261.796 112.954C262.587 113.05 263.379 113.138 264.17 113.241C264.866 113.331 265.608 113.489 266.288 113.234C267.539 112.765 267.919 111.225 267.989 110.034C268.071 108.64 267.69 107.252 267.184 105.966ZM217.317 80.3542C218.162 80.1459 219.102 80.3047 219.965 80.3668C221.198 80.4553 222.384 80.2696 223.564 79.9145C224.664 79.5834 225.73 79.1513 226.828 78.8138C229.37 79.1353 231.968 79.3226 234.331 80.0131C228.834 81.7808 222.882 81.8988 217.317 80.3542ZM247.264 75.9451C246.446 76.2674 245.617 76.6757 244.76 76.8748C242.791 77.3322 240.734 77.5989 238.716 77.6042C236.125 77.611 233.542 77.2796 230.95 77.3747C229.724 77.4197 228.494 77.561 227.304 77.8675C227.123 77.9142 226.945 77.9707 226.766 78.0241C226.465 77.9852 226.165 77.9446 225.866 77.8995C223.346 77.5196 220.752 76.8141 218.751 75.2108C222.148 75.9841 225.586 76.6762 229.078 76.7138C230.95 76.734 232.943 76.614 234.743 76.0591C236.293 75.5813 237.668 74.3843 237.423 72.6145C237.175 70.8187 235.325 70.6617 233.881 70.4018C231.733 70.0157 229.586 69.6296 227.439 69.2434C223.082 68.4598 218.725 67.6769 214.367 66.8925C213.507 66.7376 212.491 66.6171 211.846 65.9606C211.143 65.2451 211.337 64.4034 212.015 63.764C212.591 63.2205 213.271 62.8795 214.021 62.6509C215.783 62.1138 217.688 62.0439 219.517 62.0388C224.628 62.0245 229.76 62.7738 234.768 63.742C237.171 64.2064 239.562 64.7425 241.922 65.3879C243.681 65.8688 245.456 66.3854 247.126 67.1271C247.408 67.2525 247.687 67.3862 247.958 67.5334C247.984 67.5474 248.008 67.5484 248.033 67.5564C248.345 69.7922 248.787 72.0115 249.367 74.1936C248.993 75.1462 248.173 75.587 247.264 75.9451ZM215.805 121.711C219.467 125.679 222.719 130.427 223.835 135.795C225.223 142.477 222.332 148.455 218.672 153.873C218.469 154.173 218.26 154.47 218.056 154.77C215.997 153.904 213.913 153.098 211.803 152.365C208.793 151.319 205.728 150.455 202.69 149.499C196.665 147.603 190.77 145.159 186.512 140.301C182.218 135.403 179.863 129.036 178.42 122.766C177.026 116.712 176.644 109.904 180.44 104.609C180.903 103.963 181.418 103.356 181.97 102.783C182.53 104.195 183.167 105.578 183.904 106.92C186.753 112.107 191.214 116.66 196.792 118.825C199.574 119.904 202.816 120.533 205.735 119.637C207.624 119.056 208.998 117.801 209.78 116.172C211.917 117.866 213.944 119.695 215.805 121.711ZM182.567 102.189C183.312 101.489 184.12 100.855 184.978 100.298C190.272 103.682 195.69 106.841 201.042 110.143C203.84 111.87 206.585 113.694 209.181 115.704C207.92 118.582 204.671 119.494 201.661 119.23C195.713 118.709 190.424 114.775 186.912 110.139C185.068 107.704 183.66 105.014 182.567 102.189ZM194.815 97.6453C200.461 98.0321 205.686 101.709 208.236 106.72C209.459 109.124 210.198 112.077 209.505 114.749C206.518 112.481 203.383 110.453 200.364 108.622C195.517 105.683 190.678 102.773 185.908 99.7374C188.607 98.2197 191.709 97.4326 194.815 97.6453ZM181.542 98.0582C182.446 98.6632 183.356 99.257 184.268 99.8454C183.563 100.324 182.901 100.852 182.282 101.421C181.847 100.226 181.465 99.0099 181.129 97.7796C181.267 97.8723 181.404 97.9657 181.542 98.0582ZM136.455 57.5141C136.251 59.9369 134.288 61.213 132.499 62.5323C132.328 61.7201 132.241 60.8901 132.293 60.0833C133.109 60.0072 133.928 60.0001 134.748 60.066C135.354 60.1147 135.473 59.1728 134.863 59.1237C134.045 59.0579 133.231 59.0652 132.426 59.1314C132.606 58.3028 132.963 57.5187 133.562 56.8298C134.281 56.0016 135.182 55.3506 136.154 54.8079C136.413 55.6896 136.532 56.6032 136.455 57.5141ZM137.471 58.1681C137.409 58.2378 137.346 58.3059 137.284 58.3754C137.32 58.216 137.344 58.0546 137.366 57.8923C137.469 57.9406 137.586 57.9465 137.707 57.8958C137.628 57.9861 137.55 58.0781 137.471 58.1681ZM140.478 54.5799C139.463 55.3719 138.446 56.1604 137.427 56.9452C137.419 56.0764 137.259 55.1988 136.995 54.3698C137.816 53.9743 138.666 53.6399 139.487 53.3372C140.354 53.0181 141.233 52.7384 142.116 52.4713C141.58 53.1824 141.033 53.8845 140.478 54.5799ZM143.465 52.2174C143.51 52.1563 143.556 52.0958 143.601 52.0346C143.646 52.022 143.691 52.0099 143.737 51.9973C143.646 52.0705 143.556 52.1444 143.465 52.2174ZM125.921 36.744C128.908 33.3502 132.588 30.753 136.745 28.994C138.766 28.139 140.861 27.4661 142.99 26.94C145.013 26.44 147.15 25.9031 149.247 25.9329C151.4 25.9634 153.61 26.8515 153.96 29.2204C154.217 30.9547 153.517 32.7326 152.83 34.2888C150.2 40.2462 146.902 45.9203 143.065 51.1928C140.875 51.8017 138.714 52.4945 136.669 53.4948C136.61 53.3522 136.552 53.2076 136.487 53.0705C134.515 48.89 130.376 46.5008 125.82 46.4206C123.349 46.377 121.08 46.8587 118.98 47.7183C120.838 43.7949 123.046 40.0105 125.921 36.744ZM123.823 62.2533C119.91 64.8437 116.99 68.6443 114.583 72.6178C112.11 76.6996 109.954 80.9948 107.892 85.2959C106.164 88.8987 104.549 92.5547 103.035 96.2524C104.834 88.7292 106.932 81.276 109.28 73.9082C111.946 65.5413 114.733 57.0717 118.358 49.0623C123.042 46.8698 129.157 46.4108 133.195 50.1497C134.292 51.1653 135.249 52.4801 135.843 53.9214C134.441 54.6866 133.101 55.6583 132.24 57.0141C131.798 57.7087 131.551 58.4646 131.431 59.245C128.72 59.6424 126.126 60.7289 123.823 62.2533ZM155.497 180.596C154.064 179.611 153.494 177.92 153.22 176.249C153.251 176.194 153.271 176.129 153.276 176.052C153.388 174.495 153.484 172.92 154.057 171.452C154.651 169.929 155.622 168.54 156.937 167.558C158.319 166.527 159.918 166.148 161.621 166.353C163.36 166.563 165.036 167.065 166.793 167.166C168.391 167.259 169.989 167.138 171.557 166.831C170.332 169.88 168.321 172.556 165.693 174.537C163.565 176.143 160.89 177.701 160.188 180.406C159.021 181.856 156.918 181.573 155.497 180.596ZM164.647 187.161C162.791 186.004 160.624 183.976 160.89 181.645C160.931 181.585 160.96 181.512 160.968 181.421C160.98 181.273 161.007 181.132 161.032 180.991C161.058 180.907 161.078 180.824 161.11 180.74C161.137 180.67 161.143 180.602 161.137 180.537C161.918 177.78 165.065 176.356 167.114 174.617C169.418 172.661 171.211 170.158 172.364 167.368C173.308 170.641 173.325 174.18 172.345 177.45C171.128 181.511 168.455 185.011 164.917 187.324C164.827 187.27 164.736 187.216 164.647 187.161ZM205.564 172.542C201.312 178.587 197.257 184.858 192.645 190.637C188.852 195.388 182.345 202.307 175.495 200.448C173.707 199.962 172.484 198.717 172.086 196.893C171.787 195.525 171.836 194.085 171.312 192.767C170.337 190.32 168.001 189.096 165.818 187.851C171.263 184.122 174.408 177.709 173.982 171.102C173.868 169.351 173.499 167.626 172.912 165.974C172.848 165.795 172.604 165.636 172.41 165.685C170.579 166.142 168.693 166.337 166.808 166.218C164.958 166.102 163.188 165.524 161.348 165.371C157.834 165.078 154.938 167.361 153.47 170.425C153.197 170.994 153.001 171.58 152.849 172.176C152.655 169.708 152.267 167.211 150.43 165.435C148.517 163.585 145.848 163.72 143.418 164.171C140.972 164.624 137.593 165.887 135.436 164.037C132.513 161.53 134.836 156.499 135.569 153.522C136.575 149.437 136.865 145.295 137.332 141.13C137.527 139.385 137.667 137.604 137.34 135.864C136.965 133.873 136.06 132.023 135.672 130.034C135.475 129.027 135.182 127.545 135.723 126.601C136.551 125.155 137.783 125.967 138.725 126.438C140.216 127.184 141.698 127.463 143.356 127.183C144.449 126.998 145.527 126.646 146.58 126.185C146.529 127.373 146.967 128.469 146.466 129.651C146.245 130.173 144.876 132.445 146.046 132.584C146.249 132.608 146.439 132.493 146.611 132.383C149.131 130.764 151.65 129.145 154.169 127.526C154.822 127.107 155.498 126.663 155.893 125.995C156.181 125.507 156.299 124.926 156.634 124.469C157.046 123.907 157.719 123.613 158.271 123.188C159.124 122.532 159.697 121.522 159.824 120.452C159.861 120.145 159.863 119.828 159.974 119.539C160.198 118.953 160.987 118.793 161.255 119.453C160.36 117.25 161.821 113.081 161.402 112.699C161.927 111.883 162.431 111.053 162.899 110.199C163.093 109.844 162.624 109.409 162.278 109.584C159.231 111.115 156.317 112.89 153.591 114.941C151.067 116.841 148.479 119.796 145.134 120.032C143.326 120.159 141.324 119.44 140.695 117.587C140.162 116.013 140.784 114.259 141.5 112.849C143.086 109.725 145.608 106.97 148.386 104.871C149.662 103.908 151.033 103.163 152.417 102.374C153.43 101.797 154.343 101.017 154.294 99.759C154.222 97.8949 152.337 96.7253 150.622 96.8043C147.793 96.9349 144.949 99.321 142.925 101.084C140.479 103.215 138.381 105.732 136.673 108.489C132.894 114.585 131.114 121.647 130.567 128.749C127.321 128.18 125.501 125.182 124.505 122.234C123.542 119.38 122.833 116.413 122.099 113.494C120.646 107.715 119.487 101.771 119.698 95.7835C119.912 89.6891 121.698 83.8522 124.138 78.3042C125.314 75.6302 126.626 73.0187 127.959 70.4208C128.628 69.1183 129.261 67.7862 129.975 66.508C130.491 65.5847 131.183 64.8421 131.961 64.1722C133.536 69.3439 137.697 73.0892 142.652 75.1284C145.87 76.4531 149.044 77.7217 152.137 79.3342C155.659 81.1698 159.08 83.1906 162.443 85.3023C168.455 89.078 174.269 93.1539 180.154 97.1226C180.576 98.7787 181.075 100.412 181.672 102.009C178.951 104.772 177.209 108.404 176.774 112.4C176.422 115.638 176.806 118.908 177.477 122.08C178.177 125.389 179.149 128.664 180.463 131.782C183.056 137.935 187.107 143.21 193.025 146.449C198.831 149.627 205.416 150.961 211.622 153.118C213.637 153.819 215.638 154.585 217.619 155.407C213.679 161.171 209.581 166.833 205.564 172.542ZM256.069 124.845C256.153 125.448 256.052 126.075 255.823 126.636C255.412 127.644 254.616 128.5 253.68 129.04C252.682 129.617 251.419 129.795 250.291 129.901C247.454 130.168 244.582 129.785 241.781 129.354C240.598 129.173 239.417 128.974 238.234 128.793C238.384 128.639 238.614 128.513 238.754 128.429C239.142 128.195 239.557 128.007 239.974 127.83C241.949 126.996 243.886 126.081 245.865 125.257C248.817 124.028 251.834 122.962 254.9 122.055C254.963 122.261 255.033 122.465 255.12 122.668C255.431 123.388 255.957 124.052 256.069 124.845Z" stroke="black" mask="url(#path-1-outside-1_352_5808)"/>
</svg>
