<svg width="134" height="280" viewBox="0 0 134 280" fill="none" xmlns="http://www.w3.org/2000/svg">
<path d="M119.335 188.024C120.724 183.868 130.755 160.399 133.361 155.787C136.262 150.661 128.432 135.923 126.907 133.164C125.493 129.78 113.766 101.749 109.303 94.4785L114.442 11.2317C114.675 7.35694 111.725 4.00949 107.828 3.77657L46.3389 0.0122603L45.8964 0C42.1839 0 39.0982 2.90604 38.8647 6.6092L38.5574 11.5384L4.94744 22.0347C1.23493 23.1873 -0.842405 27.1478 0.325131 30.8509L26.3002 113.558C21.5919 114.943 16.3059 117.028 15.3964 117.384C15.003 117.568 11.4995 119.284 11.1307 122.644C10.8602 124.974 12.2001 127.291 15.1012 129.547C18.1868 131.951 21.0019 132.968 24.5177 132.968C26.755 132.968 29.1523 132.576 32.1885 132.085C35.569 131.534 39.7857 130.859 45.3052 130.491C43.4367 133.569 40.7077 138.94 40.056 144.924C38.5194 145.635 32.1026 149.669 33.2704 155.199L33.4671 156.155C34.5489 161.477 36.565 171.397 48.7842 174.401C49.1161 174.487 49.4603 174.499 49.7799 174.523C46.5839 183.144 38.0646 206.331 37.2042 215.453C36.2085 226.109 36.8723 229.419 40.7569 241.62C44.3954 253.097 46.1905 278.283 46.215 278.541C46.2765 279.375 46.9649 280 47.7762 280C47.8131 280 47.85 280 47.8869 279.988C48.7474 279.926 49.3989 279.178 49.3497 278.32C49.2759 277.266 47.5058 252.509 43.7565 240.677C39.9949 228.82 39.3926 225.889 40.3392 215.761C40.9047 209.802 45.1579 196.044 53.0009 174.882C53.259 174.195 53.4311 173.729 53.554 173.373C54.4022 172.773 55.1521 171.89 55.8036 170.847C54.9554 175.016 54.3285 179.026 54.1195 182.521C53.763 188.321 52.5706 193.14 51.4273 197.799C49.4359 205.88 47.5672 213.519 50.1612 224.824C54.1317 242.15 62.1836 266.196 62.2699 266.441C62.4911 267.103 63.1058 267.52 63.7573 267.52C63.9294 267.52 64.0892 267.496 64.2614 267.434C65.085 267.165 65.5275 266.27 65.2448 265.448C65.171 265.215 57.1561 241.305 53.2223 224.139C50.8006 213.557 52.5954 206.273 54.4762 198.561C55.6563 193.766 56.8733 188.812 57.2544 182.731C58.0043 170.763 63.696 152.272 66.7445 142.328C67.7402 139.091 68.4532 136.749 68.7114 135.621C68.9326 134.616 68.9326 132.973 68.7483 130.643C68.7605 130.569 68.7974 130.508 68.7974 130.434C68.7974 130.226 68.7605 130.03 68.6868 129.846C68.6745 129.686 68.6499 129.503 68.6253 129.331C68.5884 128.975 68.5516 128.607 68.5024 128.227C68.4532 127.859 68.4163 127.492 68.3549 127.112C68.318 126.879 68.2934 126.646 68.2565 126.4C68.1828 125.873 68.0967 125.334 68.023 124.77C68.0107 124.696 67.9984 124.61 67.9861 124.537C67.3591 120.466 66.4495 115.855 65.4168 111.588C65.38 111.465 65.3554 111.331 65.3308 111.208C65.1956 110.644 65.0358 110.055 64.876 109.442C64.2121 106.781 63.5237 104.415 62.8845 102.576C62.5157 101.521 62.1592 100.577 61.815 99.8903C61.7044 99.6696 61.6675 99.3876 61.5938 99.1424C61.2004 96.1382 62.1592 92.1163 63.2779 88.8056C63.7204 92.1653 64.7899 96.3465 66.5848 96.7021C70.1742 97.4133 79.136 95.9419 79.7506 95.2552C80.23 94.7279 78.8778 90.9023 77.4026 87.6038C77.6977 88.1556 78.005 88.7197 78.3123 89.3082C81.6192 95.6108 85.4053 103.961 86.7699 107.026L87.7533 109.246C87.9131 110.153 88.6015 114.151 88.9949 117.204L89.0195 117.388C89.1424 118.369 89.2284 119.239 89.253 119.865C89.4374 124.377 93.1009 149.918 106.217 162.267C106.844 162.855 107.852 162.831 108.442 162.205C109.032 161.58 109.008 160.587 108.381 159.998C100.538 152.616 96.2475 139.778 94.1457 130.459C94.4161 130.631 94.6251 130.643 94.9078 130.643C95.461 130.643 95.9773 130.349 96.2601 129.895V129.883C96.8501 129.724 97.9442 129.527 98.9522 129.417C99.7144 129.331 100.317 128.718 100.354 127.946C100.39 127.185 99.8865 126.499 99.1243 126.327C97.8828 126.045 94.7481 121.189 92.4247 115.929C92.314 115.672 92.1174 115.475 91.9084 115.316C91.4536 112.128 90.8635 108.731 90.8266 108.511C90.802 108.388 90.7651 108.265 90.716 108.155L90.3226 107.272L101.325 109.136L101.767 109.148C105.48 109.148 108.566 106.242 108.799 102.539L108.922 100.467C113.384 109.43 120.846 126.879 124.067 134.579C127.583 140.967 132.107 151.659 130.607 154.295C127.951 158.992 117.748 182.853 116.334 187.07C116.138 187.658 115.609 188.774 114.933 190.172C111.22 197.922 102.542 216.044 107.422 235.785C113.015 258.371 116.617 276.715 116.654 276.9C116.802 277.648 117.465 278.163 118.191 278.163C118.289 278.163 118.387 278.151 118.498 278.126C119.346 277.954 119.912 277.133 119.74 276.287C119.703 276.103 116.088 257.686 110.471 235.024C105.848 216.374 114.196 198.951 117.76 191.521C118.535 189.927 119.077 188.809 119.335 188.024ZM42.013 6.79631C42.136 4.7486 43.8324 3.14218 46.1312 3.14218H46.1558L61.7677 4.09861L41.7915 10.4994L42.013 6.79631ZM3.33957 29.9099C2.70035 27.8621 3.84359 25.6672 5.8965 25.0296L38.3484 14.889V14.9013L40.3152 14.2759L64.2866 6.78403C65.1594 6.69819 66.0444 6.77177 66.8312 7.18868C67.8392 7.71594 68.5522 8.59879 68.9825 9.65331L93.0151 88.2387L94.0355 91.5984L95.8302 97.484C96.3096 99.0535 95.5352 100.684 94.1707 101.347C93.9617 101.42 93.765 101.494 93.5315 101.58L92.6218 101.911L88.7371 103.125C87.262 99.8506 84.9878 94.8969 82.6767 90.2495C82.1112 89.1215 81.558 88.0302 81.0171 86.9755C79.6649 84.3761 78.3618 82.0341 77.2801 80.4524C77.0957 80.1826 76.899 79.9496 76.5916 79.6063C75.1657 77.951 73.2725 77.0804 71.1335 77.0804C66.7205 77.0804 62.5038 80.7712 62.3194 80.9307L61.9383 81.4334C61.3359 82.7086 56.3697 93.5114 58.5701 100.157C58.7299 101.003 58.9634 101.825 59.3322 102.548C60.0944 104.093 61.041 107.085 62.0244 110.972C62.0613 111.131 62.0982 111.279 62.135 111.438L53.8742 114.013L35.6068 119.715C33.5784 120.34 31.341 119.163 30.7141 117.152L30.2839 115.791L29.325 112.75L3.33957 29.9099ZM31.6748 128.984C24.6309 130.124 21.3734 130.443 17.0218 127.071C15.6695 126.016 14.0838 124.459 14.2436 123C14.3911 121.626 16.0875 120.535 16.6407 120.265C18.7797 119.419 23.3526 117.703 27.2373 116.562L27.7167 118.095C28.651 121.05 31.3553 123.024 34.4532 123.024C35.1661 123.024 35.8669 122.914 36.5553 122.705L62.8623 114.49C63.9072 119.137 64.8046 124.054 65.3086 127.99C65.3209 128.113 65.3455 128.235 65.3578 128.358C61.2887 127.524 56.7035 127.107 51.7004 127.107C49.8319 127.107 47.828 127.169 45.7016 127.304C39.715 127.684 35.2643 128.407 31.6748 128.984ZM43.1563 145.414C43.8571 138.487 47.8769 132.159 49.1677 130.283C55.0193 130.112 59.6658 130.553 63.0712 131.13C62.6901 133.594 58.7441 141.944 55.8797 147.438C55.5601 148.026 55.2281 149.731 54.7241 158.142C54.4414 162.863 51.2083 164.531 49.3028 165.107C46.4385 165.966 43.9922 165.254 43.5375 164.654C41.4846 161.931 42.7015 149.939 43.1563 145.414ZM36.5549 155.518L36.3582 154.537C35.8665 152.232 38.0177 150.136 39.6773 148.885C38.9889 156.977 39.0135 162.925 40.6608 165.88C37.9809 162.508 37.145 158.449 36.5549 155.518ZM42.148 167.535C43.279 168.258 44.8525 168.651 46.5982 168.651C47.766 168.651 48.9954 168.479 50.2 168.111C51.9087 167.608 53.3592 166.775 54.5394 165.708C54.3304 166.946 53.7403 168.626 52.6954 169.926C51.712 171.14 50.6425 171.606 49.5484 171.336C46.3155 170.551 43.9305 169.19 42.148 167.535ZM56.961 162.213C57.4527 161.036 57.7723 159.749 57.8584 158.338C58.0796 154.574 58.2763 152.269 58.4239 150.859L60.5137 152.22C59.5056 155.715 58.473 159.467 57.5388 163.255C57.4035 162.863 57.2191 162.52 56.961 162.213ZM65.6643 134.894C65.443 135.9 64.6932 138.315 63.7589 141.356C63.0828 143.563 62.2715 146.187 61.4232 149.069L59.272 147.683C60.9315 144.446 64.4472 137.358 65.7504 133.19C65.7627 134.17 65.7135 134.698 65.6643 134.894ZM95.1797 126.887C95.1428 126.899 95.1182 126.912 95.0937 126.912C94.5282 126.249 93.7783 125.354 93.0776 124.484L92.9916 123.76C93.6677 124.888 94.4176 125.967 95.1797 126.887ZM105.666 102.302C105.543 104.35 103.822 105.956 101.769 105.956L101.695 105.969L94.2084 104.693L94.86 104.485C95.0935 104.411 95.3025 104.289 95.5238 104.191C97.9332 103.283 100.564 101.873 99.4084 98.0721L97.626 92.2232L96.5811 88.8023L72.1918 9.11196C72.1058 8.82994 71.9828 8.5847 71.8599 8.31494L71.6386 7.59149C71.2821 6.42663 70.5691 5.40889 69.5365 4.57508L107.622 6.90483C109.773 7.03971 111.42 8.89123 111.285 11.037L106.306 91.6596L106.085 95.3382L105.666 102.302Z" fill="black"/>
</svg>
