<svg width="303" height="233" viewBox="0 0 303 233" fill="none" xmlns="http://www.w3.org/2000/svg">
<path d="M147.294 225.478L53.4514 223.479H52.9477L6.97701 195.481C6.71702 195.286 6.55453 194.978 6.55453 194.653C6.55453 194.328 6.71703 194.019 6.97701 193.824L34.9263 167.873V167.857C35.1051 167.695 35.3488 167.597 35.5926 167.613L109.48 165.615C109.626 165.566 109.789 165.566 109.935 165.615L161.85 187.584C162.354 187.828 162.598 188.429 162.387 188.949L148.412 224.893C148.201 225.315 147.749 225.543 147.294 225.478Z" fill="black"/>
<path d="M133.563 54.3383L163.137 63.5682L210.098 41.0138L189.298 35.7653L153.81 39.9252L133.563 54.3383Z" fill="black"/>
<path d="M248.12 92.6873L219.001 91.6961C218.79 91.6798 218.595 91.5986 218.416 91.4848L186.47 59.5383C186.242 59.2945 186.128 58.9533 186.193 58.6283C186.258 58.3033 186.47 58.0108 186.762 57.8808L203.743 49.886C203.905 49.821 204.1 49.821 204.279 49.886L246.202 52.8759C246.381 52.8109 246.576 52.8109 246.755 52.8759L265.718 67.858C265.913 68.0368 266.01 68.2968 266.01 68.5568C266.01 68.833 265.913 69.0768 265.718 69.2718L248.754 92.2322C248.607 92.4597 248.38 92.6223 248.12 92.6873Z" fill="black"/>
<path d="M180.735 105.67L111.349 103.671C110.926 103.639 110.553 103.363 110.39 102.973L102.363 81.0036C102.249 80.7274 102.249 80.4349 102.363 80.1749C102.493 79.8986 102.736 79.6874 103.029 79.6224L152.947 67.6466H153.24L187.185 69.6453C187.462 69.6453 187.722 69.759 187.884 69.9703L207.855 91.9394C208.098 92.1831 208.196 92.5243 208.115 92.8493C208.033 93.1743 207.822 93.4343 207.53 93.5643L181.075 105.54C180.962 105.605 180.849 105.654 180.735 105.67Z" fill="black"/>
<path d="M179.321 191.535C179.175 191.567 179.012 191.567 178.866 191.535L99.0008 151.594C98.6596 151.431 98.4483 151.09 98.4159 150.716C98.3834 150.359 98.5621 150.001 98.8709 149.806L158.523 109.751C158.718 109.686 158.913 109.686 159.108 109.751H239.477L299.371 129.722C299.696 129.819 299.94 130.063 300.037 130.388C300.183 130.664 300.183 131.006 300.037 131.298L271.341 171.239C271.194 171.451 270.967 171.597 270.707 171.646L179.319 191.324L179.321 191.535Z" fill="black"/>
<path d="M157.27 31.7836C157.14 31.8324 156.993 31.8324 156.863 31.7836L149.876 28.8262V28.8425C149.6 28.68 149.405 28.4525 149.291 28.1762C149.177 27.9 149.177 27.6075 149.291 27.3313L153.451 20.3439C153.597 20.1002 153.857 19.9052 154.15 19.8564C188.972 13.2918 189.46 13.6978 189.964 14.0717C190.467 14.4457 203.646 16.5741 211.43 17.8579C211.836 17.9229 212.161 18.2154 212.274 18.6054C212.388 18.9791 212.274 19.3853 211.982 19.6453L202.996 27.6402V27.6239C202.833 27.8027 202.606 27.8839 202.362 27.8839L157.431 32.0438L157.27 31.7836Z" fill="black"/>
<path d="M150.202 16.82H149.877L130.914 10.824H130.898C130.508 10.6777 130.231 10.3203 130.199 9.914C130.166 9.47526 130.41 9.06905 130.816 8.90653L139.802 4.74666H140.127L172.074 2.74796L172.09 2.76421C172.237 2.69921 172.415 2.69921 172.578 2.76421L186.552 8.76025V8.744C186.991 8.92275 187.235 9.36149 187.186 9.83272C187.089 10.2715 186.747 10.6127 186.309 10.6939L150.446 16.6089L150.202 16.82Z" fill="black"/>
<path fill-rule="evenodd" clip-rule="evenodd" d="M262.519 99.3519L262.974 99.7743V99.7581C263.217 99.9693 263.445 100.181 263.64 100.424C264.176 101.172 264.631 101.968 265.135 102.715C266.662 105.787 267.41 109.199 267.296 112.611C267.41 113.749 267.41 114.903 267.296 116.024C267.263 116.3 267.117 116.56 266.873 116.706C266.646 116.869 266.37 116.918 266.094 116.869C265.817 116.82 265.574 116.674 265.411 116.446C265.249 116.219 265.167 115.926 265.216 115.65C265.33 114.691 265.33 113.716 265.216 112.741C265.281 109.703 264.615 106.697 263.266 103.967C262.811 103.252 262.356 102.504 261.852 101.805C261.349 101.09 261.397 101.383 261.137 101.139H261.154C260.829 100.879 260.601 100.554 260.439 100.18C260.276 99.6279 260.569 99.0429 261.105 98.8479C261.349 98.7017 261.657 98.6855 261.917 98.783C262.194 98.8804 262.405 99.0756 262.519 99.3519Z" fill="black"/>
<path fill-rule="evenodd" clip-rule="evenodd" d="M270.838 116.981C271.017 117.127 271.131 117.338 271.163 117.566C271.196 117.728 271.196 117.907 271.163 118.07C271.196 118.248 271.196 118.427 271.163 118.606C271.001 118.947 270.676 119.158 270.302 119.191C269.879 119.223 269.473 118.996 269.294 118.606C269.132 118.167 269.002 117.696 268.921 117.241C268.45 115.616 268.124 113.959 267.93 112.285C267.653 108.889 267.897 105.46 268.628 102.129C269.229 100.341 269.961 98.6028 270.838 96.9291C270.952 96.6691 271.179 96.4741 271.439 96.3766C271.699 96.2954 271.992 96.3116 272.252 96.4416C272.756 96.7016 272.951 97.3028 272.707 97.8065C271.894 99.3502 271.196 100.943 270.627 102.6C269.928 105.769 269.717 109.035 270.009 112.285C270.026 113.861 270.221 115.437 270.594 116.981C270.594 116.981 270.838 116.9 270.838 116.981Z" fill="black"/>
<path fill-rule="evenodd" clip-rule="evenodd" d="M272.543 117.908V115.861C272.641 114.805 272.82 113.732 273.08 112.709C273.73 109.312 275.16 106.128 277.24 103.381C277.435 103.186 277.695 103.073 277.971 103.073C278.247 103.073 278.507 103.186 278.702 103.381C279.092 103.788 279.092 104.438 278.702 104.844C276.898 107.314 275.663 110.157 275.078 113.163C274.835 114.073 274.656 115 274.575 115.942V117.648C274.623 117.99 274.623 118.315 274.575 118.656C274.461 119.03 274.136 119.322 273.746 119.403C273.194 119.501 272.641 119.127 272.544 118.575C272.479 118.347 272.478 118.12 272.543 117.908Z" fill="black"/>
<path fill-rule="evenodd" clip-rule="evenodd" d="M277.452 118.608H277.988C277.809 118.576 277.631 118.576 277.452 118.608ZM276.363 119.226V118.478C276.461 117.552 276.786 116.658 277.289 115.862C277.403 115.602 277.631 115.391 277.923 115.309C278.199 115.212 278.508 115.244 278.752 115.391C279.012 115.537 279.191 115.797 279.256 116.073C279.304 116.366 279.256 116.674 279.077 116.902C278.752 117.438 278.524 118.039 278.411 118.657C278.427 118.982 278.427 119.323 278.411 119.648C278.362 119.924 278.248 120.184 278.069 120.396C277.874 120.59 277.614 120.704 277.322 120.688C277.094 120.688 276.851 120.623 276.656 120.477C276.314 120.168 276.201 119.664 276.363 119.242L276.363 119.226Z" fill="black"/>
<path fill-rule="evenodd" clip-rule="evenodd" d="M82.9787 161.488C83.0762 161.666 83.1412 161.845 83.1899 162.04C83.2387 162.592 82.8324 163.096 82.28 163.161C81.955 163.21 81.6462 163.129 81.4025 162.934C81.1425 162.755 80.98 162.479 80.9475 162.154C80.8662 161.244 80.8662 160.334 80.9475 159.408C80.8825 157.295 80.5087 155.183 79.81 153.168C77.6488 146.278 73.4891 140.168 67.8828 135.618C67.6553 135.456 67.5091 135.212 67.4603 134.936C67.4116 134.659 67.4766 134.367 67.6553 134.139C67.9966 133.668 68.6628 133.571 69.134 133.912C74.9836 138.754 79.3224 145.173 81.6136 152.42C82.3774 154.646 82.7999 156.986 82.8486 159.326C82.8486 159.326 82.9787 161.033 82.9787 161.488Z" fill="black"/>
<path fill-rule="evenodd" clip-rule="evenodd" d="M88.39 162.494C88.3737 162.77 88.26 163.03 88.0487 163.209C87.8537 163.404 87.5775 163.501 87.3012 163.485C86.7325 163.453 86.2775 162.949 86.31 162.364C86.375 161.893 86.375 161.422 86.31 160.95C86.1638 160.317 86.0663 159.683 86.0175 159.033C86.0175 155.588 86.44 152.208 86.635 148.796V148.812C86.6188 146.001 86.9925 143.19 87.7562 140.492C87.8537 140.216 88.0487 140.005 88.2925 139.875C88.5525 139.761 88.845 139.745 89.105 139.842C89.365 139.924 89.5762 140.135 89.7062 140.379C89.8199 140.639 89.8199 140.931 89.7224 141.191C88.9912 143.677 88.65 146.261 88.715 148.844C88.5037 152.208 87.9675 155.539 88.0975 158.919C88.26 160.105 88.3575 161.292 88.39 162.494Z" fill="black"/>
<path fill-rule="evenodd" clip-rule="evenodd" d="M94.9219 161.778C95.1819 162.298 94.9706 162.931 94.4669 163.191C93.9469 163.468 93.3132 163.256 93.0532 162.736C91.8508 159.877 91.5582 156.708 92.2083 153.669C93.0532 147.332 95.0357 141.206 98.0745 135.583C98.2045 135.34 98.432 135.161 98.7082 135.08C98.9682 134.998 99.2445 135.031 99.4882 135.161C99.9757 135.453 100.171 136.071 99.9107 136.575C96.9858 141.953 95.0844 147.819 94.2882 153.88C93.6707 156.513 93.8982 159.276 94.9219 161.778Z" fill="black"/>
<path fill-rule="evenodd" clip-rule="evenodd" d="M85.1085 149.136C85.1247 149.705 84.7022 150.176 84.1497 150.225C83.581 150.241 83.0935 149.835 83.0285 149.266C82.931 141.596 80.5586 134.138 76.2038 127.833C75.8951 127.395 75.9926 126.793 76.4151 126.452C76.8376 126.111 77.4551 126.16 77.8288 126.55C82.4275 133.196 84.962 141.06 85.1085 149.136Z" fill="black"/>
<path fill-rule="evenodd" clip-rule="evenodd" d="M118.013 71.4347L117.639 70.6873L116.518 67.3236H116.502C115.072 62.2864 111.822 57.9639 107.402 55.1689C107.158 55.0227 106.979 54.7952 106.931 54.5189C106.866 54.2427 106.914 53.9502 107.061 53.7227C107.369 53.2352 108.003 53.089 108.474 53.3815C113.301 56.4039 116.843 61.0839 118.468 66.5275C119.053 68.2337 119.004 68.1849 119.589 69.8586L119.914 70.4436C120.044 70.6873 120.141 70.9636 120.206 71.2235C120.271 71.581 120.174 71.9385 119.963 72.231C119.784 72.4423 119.556 72.6048 119.296 72.686C119.036 72.7673 118.744 72.7348 118.5 72.6048C118.256 72.4585 118.078 72.2473 118.013 71.9711C117.964 71.7923 117.964 71.6135 118.013 71.4347Z" fill="black"/>
<path fill-rule="evenodd" clip-rule="evenodd" d="M123.113 66.526C123.519 66.9322 123.519 67.5822 123.113 67.9884C122.934 68.1834 122.674 68.2972 122.398 68.2972C122.121 68.2972 121.845 68.1834 121.666 67.9884C119.684 65.6648 118.611 62.7075 118.676 59.6687C118.319 54.5662 118.725 49.4479 119.911 44.4756C119.96 44.1994 120.106 43.9556 120.334 43.7931C120.561 43.6469 120.854 43.5819 121.13 43.6469C121.666 43.7769 122.04 44.2969 121.959 44.8493C120.821 49.6265 120.415 54.5502 120.756 59.4576C120.675 62.025 121.52 64.5276 123.113 66.526Z" fill="black"/>
<path fill-rule="evenodd" clip-rule="evenodd" d="M127.776 52.3898C127.906 52.9423 127.581 53.511 127.029 53.6735C126.476 53.7873 125.924 53.4623 125.745 52.926C125.371 51.2686 125.485 49.5624 126.07 47.97C126.85 45.6788 127.971 43.5176 129.401 41.5675C129.564 41.34 129.807 41.1938 130.084 41.145C130.344 41.0963 130.636 41.1613 130.864 41.3238C131.075 41.47 131.237 41.6975 131.286 41.9737C131.335 42.2337 131.27 42.51 131.107 42.7374C129.84 44.4761 128.816 46.3936 128.069 48.4248C127.565 49.6923 127.468 51.0736 127.776 52.3898Z" fill="black"/>
<path fill-rule="evenodd" clip-rule="evenodd" d="M128.653 62.6115C128.653 62.0753 129.06 61.6203 129.612 61.5716C130.197 61.5553 130.685 61.994 130.733 62.579C130.75 62.6603 130.75 62.7415 130.733 62.8228C130.815 63.2615 130.587 63.7165 130.197 63.9115C129.937 64.0415 129.661 64.0578 129.385 63.9765C129.125 63.8953 128.897 63.7003 128.783 63.4565C128.735 63.294 128.735 63.1153 128.783 62.9528C128.718 62.8553 128.67 62.7415 128.653 62.6115Z" fill="black"/>
<path fill-rule="evenodd" clip-rule="evenodd" d="M136.554 67.5177C136.521 68.0702 136.066 68.4764 135.514 68.4764C134.945 68.4764 134.474 68.0214 134.474 67.4364C134.474 67.4364 134.474 66.7702 134.685 66.6077C134.734 66.494 134.831 66.3965 134.929 66.3152C135.416 66.0065 136.066 66.1365 136.391 66.6077C136.635 66.8515 136.749 67.1927 136.732 67.5177H136.554Z" fill="black"/>
<path fill-rule="evenodd" clip-rule="evenodd" d="M144.918 63.9096H145.211C145.487 63.8771 145.763 63.9746 145.974 64.1533C146.186 64.332 146.316 64.592 146.332 64.8683C146.413 65.242 146.218 65.632 145.877 65.8107C145.617 65.8432 145.341 65.8432 145.081 65.8107C144.561 65.8107 144.122 65.437 144.057 64.9332C143.976 64.4133 144.301 63.9258 144.788 63.7795L144.918 63.9096Z" fill="black"/>
<path fill-rule="evenodd" clip-rule="evenodd" d="M177.029 66.0219C176.997 65.8919 176.997 65.7457 177.029 65.6157C176.98 65.7457 176.98 65.8919 177.029 66.0219ZM177.029 64.9332V64.9494C177.322 64.7544 177.63 64.6082 177.955 64.4944C178.232 64.5107 178.508 64.6407 178.703 64.8682C178.849 65.0307 178.947 65.2581 178.947 65.4856C178.947 65.8756 178.768 66.2331 178.443 66.4444C178.037 66.7531 177.484 66.7531 177.078 66.4444C176.672 66.0219 176.672 65.3556 177.078 64.9494L177.029 64.9332Z" fill="black"/>
<path fill-rule="evenodd" clip-rule="evenodd" d="M186.518 61.2434C186.534 61.3734 186.534 61.4872 186.518 61.6172C186.55 61.4872 186.55 61.3572 186.518 61.2434ZM185.722 60.041C186.307 60.041 186.762 60.496 186.762 61.0809C186.762 61.6497 186.307 62.1209 185.722 62.1209H185.055C184.714 61.9422 184.503 61.5847 184.519 61.1947C184.454 61.0159 184.454 60.8047 184.519 60.6097C184.73 60.171 185.234 59.9272 185.722 60.041Z" fill="black"/>
<path fill-rule="evenodd" clip-rule="evenodd" d="M193.556 73.0571C193.394 72.4884 193.719 71.9034 194.271 71.7409C194.84 71.5784 195.425 71.9034 195.587 72.4721C195.831 72.9921 195.636 73.6096 195.132 73.8858C194.612 74.1295 193.995 73.9345 193.719 73.4308C193.637 73.317 193.589 73.1871 193.556 73.0571Z" fill="black"/>
<path fill-rule="evenodd" clip-rule="evenodd" d="M147.423 31.216H147.406C147.683 31.216 147.943 31.3459 148.137 31.5409C148.332 31.7522 148.43 32.0122 148.414 32.2884C148.365 32.8734 147.877 33.3121 147.293 33.2959H146.968C145.716 33.2959 146.171 31.671 146.253 31.5897C146.448 31.3135 146.756 31.1835 147.081 31.216L147.423 31.216Z" fill="black"/>
<path fill-rule="evenodd" clip-rule="evenodd" d="M166.55 35.1142C166.42 34.8704 166.404 34.5779 166.501 34.318C166.599 34.058 166.794 33.8467 167.054 33.7492C167.574 33.5055 168.175 33.733 168.419 34.2367C168.549 34.4967 168.565 34.773 168.467 35.0329C168.37 35.2929 168.175 35.5042 167.931 35.6179C167.411 35.8617 166.794 35.6342 166.55 35.1142Z" fill="black"/>
<path fill-rule="evenodd" clip-rule="evenodd" d="M202.868 30.55C203.177 31.0213 203.047 31.6712 202.575 31.9963C202.088 32.305 201.454 32.175 201.113 31.7038V31.4113C200.869 30.9725 200.967 30.4038 201.373 30.0788C201.844 29.7376 202.51 29.8351 202.868 30.2901L202.868 30.55Z" fill="black"/>
<path fill-rule="evenodd" clip-rule="evenodd" d="M194.255 31.117C194.239 31.2145 194.239 31.312 194.255 31.4095V31.117ZM194.255 31.117C194.499 30.7757 194.922 30.597 195.344 30.662C195.88 30.792 196.238 31.3282 196.124 31.8807C196.173 32.0432 196.173 32.2057 196.124 32.3682C195.929 32.5794 195.669 32.6932 195.377 32.6932C195.1 32.6932 194.824 32.5794 194.629 32.3682C194.223 32.0594 194.077 31.507 194.304 31.0357L194.255 31.117Z" fill="black"/>
<path fill-rule="evenodd" clip-rule="evenodd" d="M150.655 108.337C150.802 107.834 151.305 107.525 151.825 107.622C152.378 107.736 152.752 108.272 152.654 108.841C152.638 109.069 152.557 109.296 152.443 109.491C152.313 109.702 152.134 109.865 151.907 109.962C151.647 110.076 151.354 110.109 151.094 110.011C150.818 109.914 150.607 109.719 150.493 109.459C150.314 109.085 150.379 108.63 150.655 108.337Z" fill="black"/>
<path fill-rule="evenodd" clip-rule="evenodd" d="M189.771 105.006C189.884 104.827 190.063 104.681 190.258 104.583C190.778 104.356 191.396 104.567 191.639 105.087V105.721C191.542 105.965 191.396 106.208 191.217 106.42C190.843 106.858 190.177 106.907 189.738 106.517C189.299 106.143 189.267 105.477 189.641 105.055L189.771 105.006Z" fill="black"/>
<path fill-rule="evenodd" clip-rule="evenodd" d="M199.584 102.13C199.568 102.228 199.568 102.325 199.584 102.423C199.551 102.325 199.551 102.228 199.584 102.13ZM200.006 101.627L199.99 101.643C200.201 101.578 200.412 101.578 200.624 101.643C200.9 101.659 201.144 101.789 201.339 102C201.517 102.212 201.599 102.488 201.582 102.764C201.566 103.008 201.469 103.252 201.29 103.43C201.079 103.593 200.835 103.723 200.575 103.804C200.039 103.967 199.47 103.674 199.291 103.138C199.129 102.829 199.145 102.472 199.308 102.163C199.47 101.87 199.779 101.675 200.12 101.643L200.006 101.627Z" fill="black"/>
<path fill-rule="evenodd" clip-rule="evenodd" d="M219.505 95.0574C219.977 94.9599 220.448 95.2361 220.627 95.6911C220.74 95.9348 220.74 96.2273 220.627 96.4873C220.513 96.7473 220.302 96.9586 220.042 97.0561C219.814 97.1048 219.57 97.1048 219.343 97.0561C218.758 97.0561 218.303 96.5849 218.303 96.0161C218.303 95.4474 218.758 94.9761 219.343 94.9761L219.505 95.0574Z" fill="black"/>
<path fill-rule="evenodd" clip-rule="evenodd" d="M213.398 104.466C212.976 104.839 212.342 104.839 211.936 104.466C211.741 104.271 211.611 103.994 211.611 103.718C211.611 103.426 211.741 103.166 211.936 102.971C212.342 102.629 212.911 102.629 213.317 102.971C213.691 103.247 213.821 103.783 213.593 104.206V104.449L213.398 104.466Z" fill="black"/>
<path fill-rule="evenodd" clip-rule="evenodd" d="M233.773 105.329C234.05 105.231 234.358 105.231 234.651 105.329C234.375 105.215 234.05 105.215 233.773 105.329ZM233.318 105.946V103.2V103.216C233.14 102.046 232.863 100.893 232.49 99.7553C232.343 99.4466 232.197 99.1378 232.035 98.8453C232.035 98.8453 232.035 98.5528 231.661 98.5203H231.645C231.141 98.2441 230.946 97.6104 231.19 97.1067C231.45 96.6029 232.067 96.3917 232.571 96.6354C233.253 97.0254 233.79 97.6266 234.115 98.3416C234.716 99.8041 235.138 101.315 235.349 102.875C235.431 104.029 235.431 105.183 235.349 106.336C235.317 106.645 235.138 106.937 234.878 107.1C234.618 107.279 234.277 107.311 233.985 107.214C233.497 107.002 233.253 106.466 233.4 105.962L233.318 105.946Z" fill="black"/>
<path fill-rule="evenodd" clip-rule="evenodd" d="M238.974 105.8C238.99 106.077 238.892 106.337 238.697 106.548C238.519 106.743 238.259 106.873 237.982 106.873C237.414 106.873 236.942 106.45 236.894 105.882C236.227 102.339 236.926 98.683 238.844 95.6446C239.039 95.4496 239.299 95.3359 239.575 95.3359C239.851 95.3359 240.111 95.4496 240.306 95.6446C240.696 96.0508 240.696 96.7009 240.306 97.1071C238.795 99.7395 238.324 102.827 238.974 105.8Z" fill="black"/>
<path fill-rule="evenodd" clip-rule="evenodd" d="M243.474 107.537C243.669 108.074 243.442 108.675 242.922 108.919C242.678 109.016 242.386 109.032 242.126 108.935C241.866 108.821 241.671 108.626 241.557 108.366C240.988 106.53 241.037 104.564 241.719 102.76C241.784 102.5 241.963 102.272 242.191 102.142C242.434 102.012 242.711 101.98 242.971 102.045C243.523 102.207 243.848 102.776 243.718 103.345C243.166 104.677 243.068 106.156 243.474 107.537Z" fill="black"/>
<path fill-rule="evenodd" clip-rule="evenodd" d="M103.112 108.417C102.771 108.173 102.625 107.734 102.738 107.328C102.592 106.873 102.365 106.434 102.072 106.044C100.821 104.111 99.2447 102.388 97.4084 100.974C97.1647 100.812 97.0022 100.536 96.9534 100.243C96.9209 99.9506 97.0022 99.6581 97.1972 99.4306C97.3922 99.2031 97.6684 99.0732 97.9609 99.0569C98.2534 99.0569 98.5459 99.1706 98.7409 99.3819C100.756 100.958 102.494 102.843 103.908 104.955C104.493 105.882 104.851 106.921 104.948 107.994C104.964 108.221 104.883 108.449 104.737 108.628C104.558 108.92 104.217 109.083 103.859 109.034C103.681 109.083 103.502 109.083 103.323 109.034C103.323 109.034 103.193 108.547 103.112 108.417Z" fill="black"/>
<path fill-rule="evenodd" clip-rule="evenodd" d="M108.279 105.478V105.461C108.474 105.998 108.247 106.599 107.727 106.843C107.369 107.103 106.882 107.103 106.524 106.843C106.378 106.599 106.248 106.355 106.151 106.095V105.591C105.728 104.633 105.241 103.723 104.818 102.764C104.168 101.431 103.632 100.034 103.242 98.604C103.096 97.6128 103.015 96.6053 102.982 95.5979C102.771 94.5254 102.625 93.4204 102.527 92.3155C102.527 91.7467 102.998 91.2755 103.567 91.2755C103.843 91.2755 104.103 91.3892 104.298 91.5842C104.493 91.7792 104.607 92.0392 104.607 92.3155C104.607 93.3067 104.932 94.3467 105.029 95.3866C105.111 96.4266 105.029 97.2553 105.273 98.1328V98.149C105.647 99.4327 106.118 100.684 106.687 101.886C107.142 102.845 107.646 103.804 108.052 104.763L108.296 105.429L108.279 105.478Z" fill="black"/>
<path fill-rule="evenodd" clip-rule="evenodd" d="M148.284 0.292491C148.69 -0.0974969 149.34 -0.0974969 149.746 0.292491C149.941 0.503733 150.055 0.763721 150.055 1.0562C150.055 1.33244 149.941 1.60868 149.746 1.80369C149.616 1.93369 149.454 2.04744 149.291 2.12868H148.869C148.3 2.12868 147.829 1.65745 147.829 1.08872C147.845 0.763726 148.008 0.47124 148.284 0.292491Z" fill="black"/>
<path fill-rule="evenodd" clip-rule="evenodd" d="M138.387 2.76445C138.436 2.58571 138.436 2.42321 138.387 2.26073C138.42 2.42323 138.42 2.58572 138.387 2.76445ZM138.387 1.48076V1.46451C138.891 1.692 139.135 2.27697 138.924 2.79695C138.81 3.05694 138.615 3.25192 138.355 3.34943C138.095 3.46317 137.803 3.44692 137.559 3.33318C137.299 3.33318 137.039 3.23568 136.86 3.04069C136.681 2.86194 136.584 2.60194 136.6 2.34195C136.584 2.04946 136.681 1.75699 136.892 1.54571C137.039 1.38322 137.25 1.26948 137.477 1.25323C137.656 1.20448 137.867 1.20448 138.046 1.25323C138.176 1.31822 138.306 1.38322 138.436 1.46446L138.387 1.48076Z" fill="black"/>
<path fill-rule="evenodd" clip-rule="evenodd" d="M133.562 15.2767C134.131 15.2767 134.602 15.748 134.602 16.3167C134.602 16.8854 134.131 17.3567 133.562 17.3567C133.27 17.3892 132.977 17.3079 132.75 17.1129C132.522 16.9342 132.376 16.6579 132.36 16.3654C132.279 15.8129 132.652 15.2767 133.562 15.2767Z" fill="black"/>
<path fill-rule="evenodd" clip-rule="evenodd" d="M141.507 27.7234C141.556 28.1784 141.28 28.6009 140.841 28.7634C140.532 28.9259 140.159 28.9259 139.85 28.7634C139.525 28.6171 139.314 28.3084 139.265 27.9671C139.249 27.7884 139.249 27.6097 139.265 27.4309C139.363 27.2034 139.493 26.9922 139.639 26.7972C139.834 26.6022 140.094 26.4884 140.386 26.4884C140.663 26.4884 140.939 26.6022 141.134 26.7972C141.394 27.0247 141.54 27.3659 141.507 27.7234Z" fill="black"/>
<path fill-rule="evenodd" clip-rule="evenodd" d="M147.506 19.7275C148.01 19.5 148.594 19.7113 148.871 20.1825C149.001 20.4263 149.033 20.7188 148.936 20.995C148.854 21.255 148.66 21.4825 148.416 21.5962C148.221 21.7587 147.961 21.8562 147.701 21.8562C147.392 21.9212 147.067 21.8237 146.823 21.6125C146.58 21.4012 146.433 21.0925 146.466 20.7675C146.385 20.5725 146.385 20.345 146.466 20.15C146.531 20.02 146.628 19.9225 146.758 19.8575L147.506 19.7275Z" fill="black"/>
<path fill-rule="evenodd" clip-rule="evenodd" d="M140.305 16.8991C140.581 16.8991 140.841 17.0128 141.036 17.2078C141.231 17.4028 141.345 17.6628 141.345 17.939C141.345 18.4753 140.923 18.9303 140.386 18.979C140.191 19.0115 139.996 19.0115 139.801 18.979C139.558 18.9953 139.314 18.8978 139.135 18.7353C138.859 18.5403 138.713 18.2316 138.713 17.8903C138.745 17.6141 138.859 17.3541 139.054 17.1428C139.363 16.7691 139.883 16.6716 140.305 16.8991Z" fill="black"/>
<path fill-rule="evenodd" clip-rule="evenodd" d="M197.828 13.1154H197.373C197.064 13.1317 196.772 12.9854 196.577 12.7417C196.382 12.5305 196.301 12.238 196.333 11.9455C196.366 11.718 196.463 11.5067 196.626 11.328L196.999 11.1167C197.178 11.1005 197.357 11.1005 197.536 11.1167C197.812 11.1005 198.088 11.198 198.283 11.393C198.494 11.588 198.608 11.848 198.624 12.1242C198.592 12.6279 198.202 13.0342 197.714 13.1154L197.828 13.1154Z" fill="black"/>
<path fill-rule="evenodd" clip-rule="evenodd" d="M189.771 6.66051C189.186 6.66051 188.731 6.20551 188.731 5.62055C188.731 5.05181 189.186 4.58058 189.771 4.58058C189.771 4.58058 190.599 4.58058 190.859 4.90557L190.843 4.92182C191.249 5.32805 191.249 5.99428 190.843 6.41679C190.567 6.70929 190.144 6.80676 189.771 6.66051Z" fill="black"/>
<path fill-rule="evenodd" clip-rule="evenodd" d="M162.095 230.84V226.339V226.356C162.225 225.202 162.42 224.064 162.68 222.943C163.232 219.255 164.142 215.631 165.426 212.121C166.287 209.716 167.896 207.652 170.008 206.206C170.236 206.06 170.512 206.011 170.772 206.076C171.048 206.141 171.276 206.304 171.422 206.547C171.552 206.791 171.584 207.067 171.503 207.344C171.422 207.604 171.243 207.831 170.999 207.961C169.244 209.163 167.928 210.902 167.262 212.917C166.027 216.248 165.133 219.709 164.597 223.236C164.597 224.276 164.175 225.364 164.061 226.437H164.045C164.142 227.818 164.142 229.199 164.045 230.597C163.996 231.052 163.866 231.49 163.638 231.88C163.508 232.368 163.151 232.758 162.68 232.92C162.111 233.018 161.575 232.644 161.477 232.092C161.315 231.572 161.591 231.019 162.095 230.84Z" fill="black"/>
<path fill-rule="evenodd" clip-rule="evenodd" d="M167.965 231.165C168.111 230.758 168.225 230.32 168.306 229.881C168.599 228.63 168.891 227.183 169.054 226.81C170.711 222.959 172.97 219.416 175.748 216.28C175.927 216.037 176.203 215.89 176.512 215.874C176.805 215.842 177.097 215.955 177.308 216.167C177.52 216.378 177.633 216.67 177.617 216.979C177.601 217.271 177.438 217.548 177.195 217.743C174.643 220.733 172.547 224.096 171.004 227.72C170.76 228.223 170.386 230.84 170.012 231.88C169.899 232.172 169.752 232.432 169.541 232.676C169.33 232.887 169.021 232.985 168.712 232.968C168.436 232.968 168.176 232.838 167.981 232.643C167.786 232.432 167.689 232.156 167.721 231.88C167.689 231.62 167.786 231.36 167.965 231.165Z" fill="black"/>
<path fill-rule="evenodd" clip-rule="evenodd" d="M164.711 194.894C164.711 194.618 164.808 194.358 164.987 194.147C165.182 193.952 165.442 193.822 165.718 193.822C166.303 193.822 166.774 194.277 166.791 194.862V195.479C166.791 196.048 166.336 196.519 165.751 196.519C165.182 196.519 164.711 196.048 164.711 195.479L164.711 194.894Z" fill="black"/>
<path fill-rule="evenodd" clip-rule="evenodd" d="M178.281 200.094C178.054 199.899 177.94 199.607 177.989 199.314C177.973 198.989 178.119 198.68 178.363 198.469C178.525 198.339 178.736 198.258 178.948 198.225C179.175 198.144 179.419 198.144 179.646 198.225L179.89 198.518H179.906C180.004 198.697 180.101 198.875 180.199 199.054C180.329 199.298 180.345 199.59 180.247 199.85C180.15 200.11 179.955 200.322 179.695 200.435C179.191 200.679 178.59 200.468 178.33 199.964L178.281 200.094Z" fill="black"/>
<path fill-rule="evenodd" clip-rule="evenodd" d="M160.227 207.424C160.227 206.839 160.698 206.384 161.267 206.384C161.836 206.384 162.307 206.839 162.307 207.424V207.961C162.307 208.529 161.836 209.001 161.267 209.001C160.698 209.001 160.227 208.529 160.227 207.961V207.424Z" fill="black"/>
<path fill-rule="evenodd" clip-rule="evenodd" d="M114.306 131.753C114.127 131.915 113.883 132.013 113.64 131.997C113.315 131.997 113.006 131.932 112.713 131.802C112.518 131.623 112.388 131.395 112.34 131.135C112.258 130.908 112.258 130.68 112.34 130.469C112.453 130.258 112.632 130.095 112.843 130.014C113.071 129.949 113.315 129.949 113.558 130.014C113.835 129.982 114.095 130.079 114.306 130.258C114.517 130.437 114.647 130.68 114.68 130.957C114.68 131.265 114.533 131.558 114.306 131.753Z" fill="black"/>
<path fill-rule="evenodd" clip-rule="evenodd" d="M138.471 114.072C138.975 113.796 139.592 113.942 139.933 114.413C140.21 114.917 140.047 115.551 139.56 115.86C138.975 116.185 138.357 116.282 137.691 116.607H137.675C137.171 116.851 136.57 116.656 136.31 116.152C136.066 115.632 136.261 115.015 136.765 114.738C137.35 114.446 137.935 114.413 138.471 114.072Z" fill="black"/>
<path fill-rule="evenodd" clip-rule="evenodd" d="M116.045 112.284C115.931 112.707 115.558 112.999 115.135 113.032C114.615 113.113 114.128 112.788 114.014 112.284C113.884 111.829 113.949 111.342 114.225 110.952C114.371 110.692 114.631 110.513 114.924 110.448C115.249 110.399 115.574 110.399 115.883 110.448C116.451 110.448 116.923 110.919 116.923 111.488C116.923 112.073 116.451 112.528 115.883 112.528L116.045 112.284Z" fill="black"/>
<path fill-rule="evenodd" clip-rule="evenodd" d="M97.4087 122.555C96.84 122.555 96.3687 122.1 96.3687 121.515C96.3687 120.947 96.84 120.475 97.4087 120.475H97.9937C98.1399 120.54 98.2699 120.622 98.3674 120.735C98.4811 120.849 98.5786 120.995 98.6274 121.142C98.7249 121.402 98.7249 121.694 98.6274 121.954C98.5136 122.214 98.3024 122.425 98.0424 122.523C97.8474 122.604 97.6199 122.62 97.4087 122.555Z" fill="black"/>
<path fill-rule="evenodd" clip-rule="evenodd" d="M68.8394 152.339C69.1482 152.355 69.4407 152.518 69.6194 152.761C69.7819 152.989 69.8469 153.265 69.7981 153.541C69.7494 153.818 69.6032 154.061 69.3757 154.208C69.2619 154.321 69.1157 154.403 68.9532 154.419C68.6932 154.565 68.3845 154.565 68.1245 154.419H67.7995C67.5395 154.305 67.3607 154.094 67.2632 153.834C67.182 153.574 67.2145 153.298 67.3282 153.054C67.442 152.794 67.6532 152.599 67.9132 152.501C68.1732 152.404 68.4657 152.42 68.7094 152.55L68.8394 152.339Z" fill="black"/>
<path fill-rule="evenodd" clip-rule="evenodd" d="M50.8679 160.043C50.8192 160.579 50.3642 161.002 49.8279 161.002C49.243 161.002 48.788 160.531 48.788 159.962C48.7555 159.816 48.7555 159.686 48.788 159.539C48.8042 159.296 48.9505 159.084 49.1617 158.954C49.4217 158.792 49.7629 158.792 50.0392 158.954C50.2829 159.02 50.5104 159.166 50.6567 159.377V159.751C50.7379 159.832 50.8192 159.929 50.8679 160.043Z" fill="black"/>
<path fill-rule="evenodd" clip-rule="evenodd" d="M60.9263 144.362C61.4463 144.102 62.0638 144.314 62.3238 144.834C62.5838 145.354 62.3563 145.971 61.8526 146.231C61.3326 146.475 60.6989 146.28 60.4389 145.776C60.3089 145.516 60.2926 145.224 60.3739 144.964C60.4714 144.687 60.6663 144.476 60.9263 144.362Z" fill="black"/>
<path fill-rule="evenodd" clip-rule="evenodd" d="M74.1219 158.66C74.4144 158.578 74.7232 158.627 74.9832 158.806C75.2431 158.985 75.4056 159.261 75.4382 159.57C75.4707 159.862 75.3569 160.171 75.1457 160.398C74.9344 160.61 74.6257 160.723 74.3332 160.707C74.1057 160.74 73.8782 160.74 73.667 160.707C73.082 160.707 72.627 160.236 72.627 159.667C72.627 159.082 73.082 158.627 73.667 158.627L74.1219 158.66Z" fill="black"/>
<path fill-rule="evenodd" clip-rule="evenodd" d="M21.2459 170.197C21.3109 170.409 21.3109 170.636 21.2459 170.847C21.0834 171.416 20.5147 171.741 19.9622 171.611C19.6697 171.546 19.3934 171.416 19.1659 171.237C18.9384 171.059 18.776 170.799 18.7109 170.522C18.6459 170.181 18.7597 169.824 19.0034 169.564C19.2309 169.336 19.5234 169.174 19.8322 169.06C20.3846 168.897 20.9696 169.19 21.1646 169.726C21.2134 169.872 21.2296 170.035 21.2459 170.197Z" fill="black"/>
<path fill-rule="evenodd" clip-rule="evenodd" d="M2.02307 185.133C1.84433 185.49 1.4706 185.701 1.06434 185.701C0.511871 185.701 0.0568644 185.263 0.0243758 184.71C-0.00812526 184.434 -0.00812526 184.158 0.0243758 183.881C0.121871 183.719 0.268113 183.589 0.446851 183.54C0.788089 183.296 1.24309 183.296 1.56806 183.54C1.79556 183.703 1.95805 183.946 1.99054 184.223C2.03928 184.499 1.97429 184.775 1.81179 185.003L2.02307 185.133Z" fill="black"/>
<path fill-rule="evenodd" clip-rule="evenodd" d="M12.9263 171.237C13.3813 171.286 13.7225 171.659 13.755 172.098C13.8038 172.374 13.7388 172.651 13.5763 172.878C13.4138 173.089 13.1538 173.236 12.8776 173.268H12.3413C12.0001 173.284 11.6751 173.106 11.5126 172.813C11.3338 172.586 11.2688 172.293 11.3013 172.017C11.3013 171.448 11.7726 170.977 12.3413 170.977C12.5688 170.993 12.7638 171.074 12.9263 171.237Z" fill="black"/>
<path fill-rule="evenodd" clip-rule="evenodd" d="M292.334 159.717L292.35 159.7C292.432 159.359 292.708 159.067 293.049 158.953C293.342 158.807 293.683 158.807 293.959 158.953C294.284 159.132 294.479 159.473 294.463 159.83C294.495 159.96 294.495 160.09 294.463 160.204L294.17 160.789C293.878 161.26 293.26 161.439 292.757 161.211C292.253 160.935 292.058 160.302 292.302 159.798L292.334 159.717Z" fill="black"/>
<path fill-rule="evenodd" clip-rule="evenodd" d="M300.573 143.272C300.622 143.061 300.719 142.849 300.865 142.687C301.028 142.524 301.223 142.394 301.45 142.362C301.792 142.248 302.165 142.346 302.409 142.606C302.62 142.817 302.75 143.109 302.75 143.402V143.727L302.507 144.231H302.49C302.214 144.734 301.597 144.929 301.077 144.686C300.573 144.426 300.378 143.824 300.622 143.321L300.573 143.272Z" fill="black"/>
<path fill-rule="evenodd" clip-rule="evenodd" d="M196.464 197.692V197.935C196.464 198.504 195.992 198.975 195.424 198.975C194.839 198.975 194.384 198.504 194.384 197.935C194.4 197.708 194.4 197.497 194.384 197.269C194.4 196.879 194.611 196.505 194.969 196.31C195.261 196.164 195.619 196.164 195.911 196.31C196.447 196.489 196.756 197.058 196.577 197.61L196.447 197.692H196.464Z" fill="black"/>
<path fill-rule="evenodd" clip-rule="evenodd" d="M185.349 210.707H185.609C186.145 210.545 186.714 210.837 186.892 211.374C187.055 211.942 186.746 212.527 186.177 212.706C185.966 212.771 185.755 212.852 185.56 212.95C185.3 213.015 185.024 213.015 184.764 212.95C184.536 212.852 184.309 212.69 184.146 212.495C183.789 212.137 183.74 211.569 184.032 211.146C184.341 210.74 184.894 210.594 185.349 210.837L185.349 210.707Z" fill="black"/>
<path fill-rule="evenodd" clip-rule="evenodd" d="M217.213 35.702C216.644 35.702 216.173 35.2307 216.173 34.662C216.189 34.0933 216.644 33.6383 217.213 33.622H217.554C217.831 33.6708 218.074 33.817 218.237 34.0445C218.399 34.272 218.464 34.5482 218.415 34.8245C218.399 35.117 218.237 35.377 218.009 35.5395C217.782 35.702 217.489 35.767 217.213 35.702Z" fill="black"/>
<path fill-rule="evenodd" clip-rule="evenodd" d="M208.943 33.2472C208.781 33.1984 208.602 33.1984 208.439 33.2472C208.602 33.2147 208.781 33.2147 208.943 33.2472ZM207.984 33.2472C208.423 32.8734 209.089 32.9384 209.463 33.3934C209.821 33.8484 209.756 34.4984 209.317 34.8721C209.122 35.1646 208.797 35.3596 208.439 35.3759C207.968 35.4246 207.513 35.1159 207.399 34.6609C207.302 34.4009 207.302 34.1246 207.399 33.8646C207.448 33.7346 207.546 33.6046 207.643 33.4909L207.984 33.2472Z" fill="black"/>
<path fill-rule="evenodd" clip-rule="evenodd" d="M215.054 27.136C214.924 27.591 214.518 27.8997 214.063 27.916C213.51 27.916 213.055 27.5097 213.023 26.9572C212.974 26.7135 212.974 26.4697 213.023 26.2098C213.104 26.0798 213.234 25.966 213.396 25.8848C213.884 25.5923 214.518 25.771 214.81 26.2585C215.005 26.5022 215.103 26.811 215.054 27.136Z" fill="black"/>
<path fill-rule="evenodd" clip-rule="evenodd" d="M219.293 45.2735C219.553 45.046 219.91 44.9648 220.235 45.046C220.56 45.1435 220.82 45.4035 220.918 45.7285C221.194 46.216 221.032 46.8497 220.544 47.1422C220.122 47.3859 220.219 47.3859 219.829 47.3859C219.26 47.3859 218.789 46.9309 218.789 46.346C218.692 45.8909 218.935 45.4197 219.374 45.2247L219.293 45.2735Z" fill="black"/>
<path fill-rule="evenodd" clip-rule="evenodd" d="M231.693 49.1382C231.709 49.4145 231.628 49.6907 231.449 49.9019C231.271 50.1132 231.011 50.2432 230.734 50.2594C230.458 50.3082 230.182 50.2432 229.971 50.0644C229.743 49.8857 229.63 49.6257 229.613 49.3494C229.613 48.0982 229.776 46.847 230.117 45.6446C230.653 41.0945 232.847 36.9022 236.276 33.8638C236.714 33.5713 237.316 33.6688 237.657 34.0913C237.998 34.5138 237.949 35.115 237.559 35.4888C234.521 38.235 232.587 41.9886 232.148 46.0511C231.856 47.0586 231.693 48.0983 231.693 49.1382Z" fill="black"/>
<path fill-rule="evenodd" clip-rule="evenodd" d="M226.656 47.6439V45.9377C226.705 43.939 226.916 41.9403 227.29 39.9903C228.281 35.0018 230.621 30.3706 234.017 26.5843C234.423 26.1943 235.073 26.1943 235.479 26.5843C235.674 26.7793 235.788 27.0393 235.788 27.3155C235.788 27.5918 235.674 27.8518 235.479 28.0467C232.343 31.5729 230.198 35.8952 229.288 40.5263C228.947 42.3788 228.752 44.2637 228.703 46.1488V47.9038V47.8875C228.72 48.1638 228.72 48.44 228.703 48.7163C228.541 49.0737 228.216 49.3337 227.826 49.3825C227.241 49.4313 226.721 49.0088 226.656 48.4238C226.575 48.18 226.575 47.9039 226.656 47.6439Z" fill="black"/>
<path fill-rule="evenodd" clip-rule="evenodd" d="M281.662 199.642C281.679 199.414 281.679 199.203 281.662 198.976C281.549 198.098 281.386 197.221 281.159 196.359L280.866 195.482C279.127 190.055 275.276 185.554 270.174 183.002C269.67 182.726 269.475 182.109 269.719 181.589C269.979 181.085 270.58 180.89 271.084 181.134C276.674 183.929 280.915 188.836 282.865 194.767C282.865 195.092 282.865 195.433 283.157 195.807C283.498 196.961 283.693 198.147 283.775 199.349C283.807 200.097 283.466 200.812 282.865 201.267C282.621 201.397 282.329 201.413 282.052 201.332C281.792 201.25 281.565 201.055 281.451 200.812C281.256 200.422 281.337 199.951 281.662 199.642Z" fill="black"/>
<path fill-rule="evenodd" clip-rule="evenodd" d="M288.193 198.148C288.339 198.44 288.339 198.782 288.209 199.074C288.063 199.367 287.803 199.578 287.478 199.643C286.942 199.805 286.373 199.513 286.194 198.977C285.447 196.474 284.163 194.102 283.399 191.567C281.839 186.4 280.929 181.07 280.653 175.675C280.214 172.068 280.344 168.395 281.076 164.82C281.141 164.56 281.319 164.317 281.563 164.187C281.807 164.057 282.099 164.024 282.359 164.122C282.636 164.187 282.863 164.365 282.993 164.609C283.139 164.853 283.156 165.145 283.074 165.405C282.424 168.769 282.311 172.198 282.733 175.594C282.993 180.826 283.887 185.993 285.398 190.998C286.145 193.273 287.478 195.483 288.193 198.148Z" fill="black"/>
<path fill-rule="evenodd" clip-rule="evenodd" d="M292.141 199.106C292.271 199.35 292.303 199.626 292.222 199.902C292.141 200.162 291.962 200.39 291.718 200.52C291.474 200.666 291.198 200.698 290.922 200.617C290.646 200.536 290.434 200.357 290.304 200.097C289.135 197.188 288.647 194.036 288.891 190.9C288.647 185.749 289.59 180.614 291.637 175.885C292.742 173.984 294.026 172.197 295.472 170.523C295.813 170.068 296.463 169.97 296.918 170.312C297.373 170.653 297.471 171.319 297.129 171.774C295.748 173.415 294.529 175.186 293.473 177.055C291.572 181.507 290.727 186.334 290.971 191.159C290.743 193.857 291.133 196.587 292.141 199.106Z" fill="black"/>
<path fill-rule="evenodd" clip-rule="evenodd" d="M223.29 47.2705C223.42 47.0918 223.615 46.9781 223.827 46.9293C223.615 46.9943 223.437 47.108 223.29 47.2705ZM223.047 47.9368C222.949 47.628 222.884 47.3193 222.835 47.0105V44.7194V44.7356C222.705 42.6069 222.705 40.4784 222.835 38.366C223.112 31.1674 225.321 24.1801 229.238 18.1516C229.563 17.6803 230.213 17.5503 230.7 17.8591C231.155 18.1841 231.285 18.8341 230.993 19.3053C227.272 25.0413 225.176 31.6713 224.916 38.496C224.786 40.5435 224.786 42.5909 224.916 44.6385V47.9372C224.916 48.4084 224.591 48.8309 224.119 48.9284C223.843 49.0096 223.567 48.9771 223.323 48.8309C223.079 48.6846 222.901 48.4571 222.836 48.1809C222.836 48.1809 223.047 48.018 223.047 47.9368Z" fill="black"/>
</svg>
