<svg width="78" height="73" viewBox="0 0 78 73" fill="none" xmlns="http://www.w3.org/2000/svg">
<path d="M78 35.8083C67.4951 45.5515 52.598 42.3759 44.5984 34.4251C36.6716 26.5471 34 11.0692 42.5865 0C31.8044 0.584008 20.8898 8.14473 16.4367 18.6378C16.5726 17.0046 16.6454 15.2896 16.1259 13.718C15.952 13.2315 15.6955 12.7809 15.5694 12.2765C15.2031 11.595 14.5053 13.0668 14.3173 13.3604C13.6825 14.3872 13.1467 15.4846 12.4228 16.4475C12.1054 16.8432 11.8163 17.2445 11.575 17.6951C10.3751 19.8047 9.76966 22.9276 11.5348 24.8736C11.2272 25.3657 11.0218 25.9138 10.887 26.4889C11.0739 24.9812 9.93269 23.8289 8.91752 22.9288C8.11213 22.1867 7.30673 21.4446 6.50134 20.7026C6.36548 20.577 6.06332 20.6476 6.09266 20.8774C6.26113 22.2035 6.42852 23.5374 6.79698 24.8231C7.16652 26.1862 7.96431 28.4359 9.69683 28.0514C9.90226 28.5099 10.1805 28.9986 10.6631 29.169C10.6674 29.354 10.675 29.5378 10.6837 29.7183C9.6914 30.1442 9.45119 31.4378 8.4795 31.9052C7.32956 30.3168 5.27096 30.735 3.60257 30.5993C3.44497 30.5803 3.3341 30.7719 3.37215 30.9121C3.62648 31.8626 3.8493 32.8311 4.14059 33.7705C3.75147 33.8097 1.2516 34.6717 1.57658 35.1862C2.28524 36.3475 3.08194 37.6063 4.48187 37.8114C4.58839 38.9492 5.37205 39.7899 6.36982 40.1912C6.72198 40.3347 7.07631 40.4714 7.36434 40.7303C6.84806 41.2572 6.42526 41.9085 6.37526 42.6797C3.73843 42.7391 1.23203 44.3499 0.029918 46.7688C-0.0287748 46.8865 -0.00160221 47.0379 0.115783 47.1062C1.83635 48.1263 2.63414 50.1653 4.32101 51.2369C2.95477 52.3018 1.97004 53.8218 1.55593 55.5435C1.52876 55.6545 1.57549 55.761 1.66571 55.8226C3.54931 57.0983 5.99267 57.3751 8.09909 56.5512C8.55341 57.7977 9.72183 58.6676 10.9989 58.7898C11.3554 58.8245 11.7076 58.7662 12.0304 58.9624C12.3424 59.1518 12.5847 59.4522 12.9162 59.6114C11.4554 60.7155 11.4631 62.8363 11.1598 64.5189C11.1229 64.7442 11.3815 64.9538 11.5598 64.7587C12.4217 63.9281 13.789 64.3642 14.8292 63.9259C14.6499 64.6556 14.6988 65.4403 14.9835 66.1375C15.0205 66.2283 15.1031 66.3337 15.214 66.3191C16.99 66.0792 18.5594 64.9011 19.2551 63.1995C19.6029 63.4203 20.0126 63.5437 20.4072 63.5885C19.4898 66.3393 21.9397 68.8546 21.4408 71.5886C21.3897 71.8543 21.7147 72.0045 21.8843 71.8139C23.6961 70.7378 26.5406 70.7894 28.1155 69.2885C28.2079 70.5663 29.4002 71.4844 29.3948 72.7634C29.385 72.9987 29.6535 73.0615 29.8035 72.9382C30.798 72.1199 31.6142 71.1021 32.1892 69.9341C33.1783 70.9463 35.1434 72.7432 36.2444 70.9474C37.3085 72.0661 39.0487 71.8498 40.166 70.8578C40.8986 70.304 41.1149 69.3176 41.83 68.765C42.0398 68.626 42.2594 68.5083 42.4583 68.3614C43.6115 68.5374 44.5071 67.3963 44.4973 66.272C44.6364 66.2832 44.7788 66.2911 44.9158 66.3C44.381 67.8873 45.5266 69.3725 46.9537 69.8624C47.1396 70.3791 47.8069 70.7143 48.2797 70.8779C49.446 71.3084 50.6807 70.8017 51.5154 69.9274C52.6067 68.9163 54.4555 67.199 53.1273 65.6633C53.1273 65.6622 53.1273 65.6622 53.1273 65.6611C55.9152 65.0704 58.6259 64.0929 61.1867 62.7231C60.7161 63.2668 60.2694 63.8441 59.7313 64.3182C59.0325 64.9504 58.1488 65.2934 57.288 65.6163C55.9891 66.1061 54.6044 66.6587 53.8588 67.9444C53.7642 68.1081 53.886 68.3132 54.0653 68.3155C59.44 68.58 63.7637 68.3637 66.9908 63.278C67.9244 61.9071 68.3657 60.2896 68.9026 58.7393C69.0091 58.5297 69.1635 58.319 68.9983 58.0937C68.6439 57.7036 68.0255 58.0959 67.5994 58.1721C68.1831 57.6352 68.7526 57.0702 69.3037 56.4795C74.7186 50.6921 77.5989 43.332 78 35.8083ZM49.6851 63.1805C50.3383 63.0672 51.0415 63.1614 51.422 63.7835C51.8491 64.3743 52.3719 64.9235 52.6241 65.6241C52.5284 65.6622 52.4382 65.7183 52.3578 65.7822C51.9252 64.9078 50.9089 64.8148 50.0829 65.0648C49.747 65.1309 49.5797 64.9381 49.3003 64.798C48.6134 64.4505 47.8591 64.9291 47.5058 65.5501C47.433 65.4123 47.4015 65.2688 47.5058 65.0894C47.6939 64.7677 48.1189 64.6108 48.4102 64.4068C48.8775 64.0526 49.3655 63.6939 49.6851 63.1805ZM52.0198 66.2081C51.7882 66.6128 51.6611 67.1105 51.3078 67.4266C51.2426 66.7114 50.4937 66.207 50.5524 65.4717C51.1296 65.2934 51.8339 65.5815 52.0198 66.2081ZM47.8026 66.5937C48.2971 66.6856 48.5232 67.2786 49.0003 67.4311C49.3308 67.5443 49.7264 67.4849 49.9916 67.7595C49.4753 67.727 49.046 68.0498 48.5775 68.2123C48.5351 67.8211 48.3004 67.4826 47.9297 67.3033C47.821 67.2506 47.6319 67.2181 47.6178 67.0634C47.6113 66.9132 47.7819 66.7439 47.8026 66.5937ZM47.7819 66.0344C48.0058 65.5983 48.408 65.0737 48.9449 65.1959C48.6569 65.5087 48.4015 65.8864 48.4004 66.3359C48.2243 66.2048 48.0265 66.1117 47.8037 66.0994C47.7982 66.077 47.7895 66.0557 47.7819 66.0344ZM48.9884 66.8706C48.9927 66.856 48.9971 66.8426 49.0014 66.8291C49.084 66.615 49.2155 66.4054 49.4003 66.2731C49.3775 66.5242 49.4123 66.7865 49.4927 67.0309C49.3166 67.0129 49.1329 66.9849 48.9884 66.8706ZM49.8057 65.7194C49.4938 65.6891 49.1612 65.7732 48.9482 66.0232C49.0503 65.7889 49.2155 65.6129 49.3916 65.4268C49.5981 65.5479 49.8296 65.6073 50.0688 65.5647C50.0655 65.6308 50.0764 65.6947 50.0862 65.7597C49.9938 65.7407 49.9003 65.7261 49.8057 65.7194ZM47.1852 60.0217C47.1254 59.9936 47.0678 59.96 47.0113 59.9264C47.4015 59.6876 47.7754 59.4208 48.1308 59.1272C47.9515 59.4702 47.7504 59.8042 47.5265 60.1214C47.408 60.1046 47.295 60.0654 47.1852 60.0217ZM47.2026 60.5474C47.0841 60.6931 46.9591 60.831 46.8298 60.9655C46.4396 60.8915 46.0624 60.7705 45.7146 60.5855C45.9961 60.4689 46.2711 60.3378 46.5407 60.1943C46.7385 60.3546 46.9624 60.4734 47.2026 60.5474ZM47.9167 58.6698C46.9917 59.459 45.9211 60.0452 44.7723 60.4017C44.7886 60.1528 44.7908 59.9062 44.7853 59.6708C44.7832 59.589 44.7766 59.5083 44.769 59.4287C45.6603 58.7236 46.8244 58.4636 47.9167 58.6698ZM42.3941 57.3292C42.5615 57.5937 42.7952 57.7966 43.043 57.976C43.643 58.356 44.3299 58.7942 44.3049 59.6181C44.3343 60.3568 44.2919 61.3477 43.8397 61.9642C43.7376 61.9575 43.6343 61.962 43.5321 61.9788C43.4571 61.2468 42.5126 60.7738 41.8659 60.8848C41.8507 60.3467 41.6322 59.839 41.317 59.4253C42.0942 58.0152 41.5387 56.2766 40.0334 55.733C40.666 55.4157 41.4398 55.5559 41.8713 56.1802C42.1115 56.5266 42.1681 56.9716 42.3941 57.3292ZM32.7544 63.2163C32.5327 62.6738 31.7773 62.2366 32.1805 61.6055C32.3675 61.313 32.5892 61.0653 32.6751 60.7155C32.7827 60.3725 32.6881 60.0441 32.6251 59.7C33.1805 59.5979 33.612 59.1955 34.1326 59.0005C35.3945 58.5689 36.8879 59.9118 36.6738 61.2659C36.3705 62.5427 35.6314 63.417 36.6259 64.6444C36.8227 64.9146 37.0564 65.206 37.1161 65.5535C37.1879 67.0993 35.4977 66.7327 34.6087 66.309C33.8391 66.0108 32.8142 65.5367 32.8642 64.5323C32.8577 64.0951 32.9174 63.6244 32.7544 63.2163ZM28.71 59.5711C28.6981 59.478 28.6926 59.3861 28.6926 59.2931C31.6751 60.9633 28.9818 63.5582 31.8892 64.3362C31.7055 64.3855 31.5273 64.4516 31.3675 64.5424C29.9774 64.6287 29.2252 63.9124 29.6459 62.4676C29.9132 61.3926 29.5285 60.2761 28.71 59.5711ZM27.2601 55.7475C27.2286 55.761 27.2047 55.7879 27.1775 55.8103C27.009 55.7016 26.7743 55.6534 26.5623 55.6769C26.6862 54.8855 26.4775 54.1166 26.2319 53.3756C26.1634 53.0629 26.2188 52.7468 26.2047 52.4296C26.1645 51.5138 25.3428 50.8177 24.4689 50.9903C24.4613 50.9791 24.4548 50.9679 24.4461 50.9578C24.9548 50.5161 25.0733 49.7427 24.9972 49.0152C26.783 48.9681 26.6036 49.3985 27.4123 50.7336C28.9665 52.1538 28.9328 54.4517 27.2601 55.7475ZM28.4937 55.0739C28.447 55.446 28.4133 55.8215 28.3872 56.197C28.2742 56.0266 28.147 55.8664 28.0101 55.7173C28.1938 55.5177 28.3568 55.3025 28.4937 55.0739ZM17.6073 56.9593C17.5508 57.986 17.0389 59.0554 17.2921 60.0945C15.9433 59.7493 14.5879 59.2662 13.5173 58.3279C12.2511 57.2507 11.4565 55.4449 12.0728 53.787C12.1619 53.5438 12.4206 52.8645 12.7358 52.8914C12.8043 52.897 12.8825 52.9474 12.9575 53.0057C13.6042 54.3026 14.4836 54.4921 15.7965 54.5392C16.9921 54.5717 17.8269 55.7744 17.6073 56.9593ZM17.6095 61.1135C17.341 61.5652 17.0084 61.9699 16.6258 62.3207C16.5802 61.7188 16.403 61.1314 16.1476 60.5889C16.2063 60.5059 16.2585 60.4162 16.3096 60.3277C16.6943 60.4487 17.0845 60.5552 17.4715 60.6483C17.5095 60.8052 17.5551 60.961 17.6095 61.1135ZM15.1629 59.9028C14.4444 59.8053 13.7608 60.0418 13.0554 60.1102C13.2043 59.969 13.3945 59.8793 13.5727 59.7751C13.8618 59.7795 14.151 59.6977 14.4096 59.5318C14.6542 59.6686 14.9064 59.7919 15.1629 59.9028ZM14.9574 21.4278C15.1455 21.3068 15.3129 21.1442 15.4922 21.0052C15.4302 21.2025 15.3618 21.3976 15.2879 21.5904C15.2596 21.5803 15.2303 21.5713 15.202 21.5612C15.2237 21.5691 15.2303 21.5713 15.2281 21.5702C15.1379 21.5343 15.0455 21.476 14.9574 21.4278ZM14.1053 21.2193C14.3651 20.7048 14.5901 20.1746 14.7629 19.6198C15.4052 19.4639 15.7335 18.7992 15.9911 18.2264C15.9378 18.9405 15.8368 19.65 15.6694 20.3439C15.1216 20.5871 14.7379 21.1734 14.1053 21.2193ZM14.2347 21.6946C14.3281 21.7294 14.4379 21.7092 14.5303 21.7596C14.5325 21.7585 14.552 21.7663 14.5607 21.7697C14.5575 21.7686 14.5575 21.7686 14.5553 21.7686C14.7379 21.856 14.9074 21.976 15.0977 22.0455C15.0455 22.1654 14.9857 22.282 14.9259 22.3974C14.9672 22.3974 14.9694 22.4064 14.9346 22.4243C14.4694 22.8234 13.7966 22.5555 13.2564 22.7079C13.3793 22.505 13.5032 22.3022 13.6238 22.0993C13.6999 21.9715 13.7738 21.8426 13.8455 21.7125C13.9749 21.7193 14.1053 21.7137 14.2347 21.6946ZM16.8063 25.702C16.5041 25.9676 16.2563 26.2893 15.9987 26.5998C15.2466 26.8061 14.5325 26.194 13.7847 26.212C13.8836 26.1503 13.9901 26.0932 14.1042 26.0427C14.1673 26.0147 14.2292 25.9867 14.2923 25.9586C15.1292 26.2355 15.9498 25.5641 16.8063 25.702ZM15.2933 25.4475C15.627 25.2401 15.9357 24.9913 16.2367 24.7357C16.7682 24.9319 17.3312 24.7144 17.8769 24.7357C17.6877 24.9229 17.4801 25.0966 17.278 25.2715C16.6074 25.1348 15.9389 25.1953 15.2933 25.4475ZM13.8553 25.6235C13.7195 25.6874 13.589 25.758 13.4662 25.8353C13.2782 24.4622 13.4347 24.0923 14.6705 23.5027C14.4129 24.2358 13.6379 24.766 13.8553 25.6235ZM14.3444 23.135C13.6097 23.5105 13.0249 24.0082 12.5293 24.6819C12.4097 24.7032 12.2989 24.7032 12.1989 24.6819C12.375 24.2537 12.5869 23.8446 12.8152 23.4444C13.2412 23.0711 13.8282 23.1765 14.3444 23.135ZM12.9228 24.9565C12.8869 25.4071 13.1478 25.9519 12.8608 26.3521C12.5641 26.6951 12.3424 27.1143 12.0054 27.4192C11.8 27.0471 11.9728 26.5752 12.175 26.1873C12.3945 25.7636 12.6413 25.3421 12.9228 24.9565ZM13.1086 26.8184C13.9314 26.4485 14.7042 27.0493 15.5205 27.1323C14.7183 27.9797 13.3869 28.4404 12.3489 27.7578C12.638 27.4842 12.8575 27.1334 13.1086 26.8184ZM15.4596 29.6443C16.1878 29.6196 17.6606 29.2262 17.728 30.355C17.3149 30.3202 16.8965 30.4357 16.5204 30.6161C16.1661 29.9369 15.3161 29.7093 14.6998 30.2317C14.527 30.3034 14.3281 30.0938 14.1912 30.0052C13.8325 29.7754 13.4608 29.7945 13.1847 30.0669C13.1119 30.0153 13.0478 29.9492 12.9847 29.8797C13.2456 29.5557 13.6499 29.3685 14.0575 29.3764C14.5325 29.4156 14.9694 29.6824 15.4596 29.6443ZM17.8475 36.7835C17.7182 36.3094 17.4747 35.8901 17.1573 35.5359C17.3356 35.3891 17.4584 35.1167 17.516 34.9183C17.6214 34.5697 17.5704 34.2155 17.4378 33.9038C17.4421 33.8882 17.4465 33.8702 17.4421 33.8837C17.4823 33.7974 17.5704 33.6617 17.6704 33.6225C18.1953 33.5474 18.8518 33.8982 19.0203 34.4307C18.5714 35.1884 18.5605 36.2085 17.8475 36.7835ZM19.1475 35.3297C19.2953 34.8813 19.6876 34.0843 20.2072 33.9621C19.0638 34.702 19.2725 36.2141 19.0583 37.3978C18.6116 39.8403 16.4813 38.0345 15.3618 39.522C15.0911 39.8796 14.8977 40.2741 14.5814 40.597C15.2889 38.3002 16.2183 38.3372 17.991 37.2958C18.6594 36.806 18.8942 36.0975 19.1475 35.3297ZM17.3584 33.2358C17.278 33.2952 17.1932 33.3781 17.1215 33.4723C16.6921 33.0407 16.0639 33.0519 15.5292 33.2324C15.077 33.3277 14.7118 32.9006 14.2607 32.9129C14.1292 32.6809 14.2781 32.2549 14.4466 32.098C14.8042 31.7651 15.4618 32.0487 15.8389 32.1922C16.0846 32.2852 16.3313 32.3794 16.5921 32.422C17.2226 32.4522 17.8432 32.3401 18.0616 33.1338C17.8203 33.0889 17.5562 33.09 17.3584 33.2358ZM16.5302 33.7749C16.5748 33.7525 16.628 33.729 16.6748 33.7559C16.7095 33.7895 16.7378 33.8332 16.7932 33.8332C16.916 33.9285 16.9997 34.072 17.0465 34.2166C16.8693 34.1661 16.6758 34.2076 16.5389 34.3343C16.5161 34.1953 16.4422 34.063 16.3237 33.9868C16.3726 33.9005 16.4519 33.8276 16.5356 33.7716C16.5345 33.7738 16.5345 33.7738 16.5302 33.7749ZM16.4563 34.916C16.5258 34.6526 16.8052 34.369 17.0595 34.5125C17.0693 34.5204 17.0856 34.5338 17.0921 34.5473C17.0845 34.7468 17.015 34.9452 16.8932 35.101C16.8302 35.0741 16.7595 35.073 16.6976 35.1077C16.6182 35.0461 16.5367 34.9867 16.453 34.9306C16.4541 34.9261 16.4552 34.9217 16.4563 34.916ZM16.1063 33.6998C16.1063 33.701 16.1074 33.7021 16.1074 33.7021C16.0878 33.7379 16.0878 33.7817 16.1085 33.8198C16.0889 33.8512 16.0748 33.8848 16.0628 33.9195C15.9139 33.9229 15.7868 34.0215 15.6878 34.128C15.6563 34.0316 15.6009 33.9352 15.5118 33.8713C15.552 33.7884 15.6487 33.7671 15.6976 33.6942C15.8063 33.6662 15.915 33.6348 16.0248 33.6158C16.0465 33.6483 16.0867 33.664 16.1063 33.6998ZM15.7454 34.5058C15.7781 34.4531 15.8574 34.341 15.9183 34.2794C15.9226 34.2771 15.978 34.2278 15.9987 34.2177C16.0172 34.2121 16.0824 34.1785 16.1313 34.1953C16.3346 34.2603 16.2954 34.582 16.2411 34.7031C16.2204 34.7221 16.2063 34.7468 16.1976 34.7726C16.0454 34.6874 15.89 34.6078 15.7291 34.5439C15.7324 34.5316 15.7389 34.5192 15.7454 34.5058ZM14.3683 33.9106C14.3901 33.9072 14.4118 33.9139 14.4292 33.9263C14.4444 33.9375 14.4629 33.9565 14.4716 33.9711C14.4759 33.9767 14.5031 34.0137 14.4825 33.9868C14.527 34.0653 14.5412 34.1617 14.5488 34.2525C14.4162 34.2424 14.2847 34.2412 14.1531 34.2513C14.1597 34.1168 14.2433 33.9577 14.3683 33.9106ZM14.1444 33.72C14.1118 33.6001 14.051 33.4857 13.9564 33.4073C14.0803 33.3871 14.2064 33.3882 14.3303 33.4095C14.2662 33.4869 14.202 33.5799 14.201 33.6853C14.1814 33.6954 14.1618 33.7066 14.1444 33.72ZM14.4912 33.6505C14.5227 33.5877 14.5781 33.5339 14.6412 33.5048C14.8574 33.6068 15.0411 33.7223 15.2705 33.7447C15.264 33.757 15.2563 33.7682 15.2509 33.7805C15.0868 33.7951 14.9064 33.8523 14.8009 33.9913C14.7933 34.0025 14.7868 34.0159 14.7792 34.0271C14.752 33.8669 14.6488 33.6998 14.4912 33.6505ZM14.952 34.304C14.9824 34.2278 14.9966 34.1605 15.064 34.1179C15.052 34.1236 15.0531 34.1236 15.0672 34.1157C15.0987 34.0978 15.189 34.0686 15.1966 34.0675C15.2422 34.0552 15.2922 34.0529 15.3346 34.0798C15.3085 34.0664 15.3476 34.0899 15.3542 34.0944C15.3639 34.1023 15.3726 34.1101 15.3813 34.1191C15.4346 34.1717 15.4748 34.3298 15.4444 34.4385C15.2835 34.3847 15.1194 34.3388 14.952 34.3063C14.9509 34.3051 14.952 34.304 14.952 34.304ZM13.1314 31.4849C13.2195 31.1508 13.2619 30.7764 13.4553 30.485C13.7836 30.0243 14.2075 30.7989 14.6238 30.745C14.9151 30.7473 15.0672 30.4872 15.3346 30.4424C16.0933 30.3763 16.3661 31.2562 16.4932 31.8951C15.8465 31.7068 15.1672 31.3122 14.4814 31.5353C14.0999 31.1766 13.5521 31.2282 13.1314 31.4849ZM14.0575 31.8189C13.7955 32.1025 13.6847 32.5598 13.7705 32.9432C12.9912 33.0609 12.45 34.0877 13.0434 34.7008C12.7467 34.9194 12.4674 35.2221 12.1282 35.3812C12.0967 35.3342 12.0489 35.296 11.9935 35.2725C11.5489 35.0349 11.6087 34.3937 11.8326 34.0115C12.1043 33.4902 12.5206 33.0766 12.7576 32.5352C13.0521 32.172 13.5423 31.5689 14.0575 31.8189ZM13.3967 33.9095C13.339 33.961 13.2967 34.0238 13.2651 34.0933C13.2401 33.8613 13.388 33.6662 13.5716 33.5485C13.6249 33.5754 13.6934 33.5552 13.7455 33.59C13.8238 33.6371 13.864 33.7234 13.889 33.8097C13.8977 33.8388 13.9042 33.8736 13.9075 33.9038C13.7716 33.7705 13.5347 33.7817 13.3967 33.9095ZM13.8108 34.3018C13.6945 34.332 13.5869 34.3746 13.4836 34.4251C13.4803 34.4015 13.4749 34.3758 13.4771 34.3522C13.4673 34.1213 13.7521 33.9139 13.8108 34.3018ZM11.7087 32.9051C10.7577 33.4476 10.1696 34.2816 10.624 35.4171C9.38163 35.6301 8.87731 37.1366 8.81427 38.3158C8.05452 38.1287 7.56976 37.2835 7.65346 36.4943C7.73171 35.5314 8.48494 34.9194 9.19686 34.4116C10.1805 33.6483 10.2805 31.8245 11.6293 31.5813C11.9761 31.5723 12.3434 31.7696 12.4815 32.1036C12.2434 32.3906 12.0206 32.6899 11.7087 32.9051ZM11.4881 35.4732C11.3826 35.4642 11.2783 35.4496 11.1739 35.435C10.8076 34.86 10.8979 34.0103 11.4967 33.6404C11.1337 34.1717 11.0435 34.9855 11.4881 35.4732ZM9.65879 36.8609C10.374 35.2579 11.2207 36.2746 12.3565 35.8206C12.7912 35.6099 13.0999 35.212 13.5043 34.9542C14.9281 34.2143 17.1236 35.5034 17.4236 37.0772C16.3704 37.6018 15.2759 38.0446 14.6607 39.142C14.2336 39.8751 14.1662 40.9837 13.4738 41.5217C12.3489 41.1204 11.2576 40.6003 10.2588 39.93C9.06317 39.2552 9.13273 37.9919 9.65879 36.8609ZM15.6139 42.6595C15.6052 42.7144 15.5955 42.7705 15.5846 42.8254C13.9988 42.3053 12.5184 43.6549 12.2652 45.2332C11.45 44.5314 10.8337 43.4722 9.66205 43.415C7.93822 43.4307 6.81545 43.081 7.73063 41.0823C8.85122 42.4857 10.9457 43.1448 12.1695 41.5296C13.289 41.969 14.4053 42.5306 15.6139 42.6595ZM21.9071 36.389C23.1494 36.9842 23.5049 38.6353 22.6299 39.7574C22.2353 40.2629 21.7321 40.6698 21.4332 41.2516C21.1311 41.8412 21.0158 42.5126 20.6843 43.0866C20.3072 43.0888 19.8192 43.4778 19.4594 43.2917C18.754 42.5564 17.8356 42.3602 16.9226 42.7985C16.8291 42.729 16.7411 42.6528 16.6552 42.5754C17.453 42.3154 18.1855 41.8535 18.9453 41.4937C21.3267 40.5017 22.1604 39.0232 21.9071 36.389ZM24.6907 51.4588C25.5439 51.4532 25.8037 52.1785 25.7178 52.9452C25.7808 53.9159 26.3178 54.8149 26.0656 55.8114C24.5005 56.7687 24.1363 56.5658 22.4386 56.2183C22.9516 55.6388 23.2712 54.8306 23.0679 54.0516C24.7211 54.658 25.0863 52.7748 24.6907 51.4588ZM16.7737 53.3229C15.8813 53.0539 14.9368 53.3229 14.0434 53.0842C14.0662 51.6998 14.3629 50.1036 15.7205 49.4781C16.9476 48.9872 18.8388 48.5265 19.7855 49.7393C20.0844 50.2101 19.7963 50.839 19.8279 51.3546C19.855 51.8041 20.0474 52.2356 20.3626 52.5484C20.9213 53.0528 21.7028 53.036 22.2549 53.5606C23.0505 54.3396 22.5169 55.5514 21.8136 56.1847C20.0181 56.2116 19.4409 58.8906 17.8182 58.6855C18.0312 56.9268 19.0322 54.0549 16.7737 53.3229ZM13.789 46.4337C14.014 46.5357 14.1944 46.7251 14.2836 47.0367C14.3466 47.2564 14.3227 47.4896 14.3977 47.7082C14.5683 48.2586 15.1368 48.6049 15.2466 49.1766C15.09 49.2696 14.9477 49.375 14.8172 49.4905C13.4466 48.5735 14.5977 47.3775 13.789 46.4337ZM20.9495 47.6039C20.9495 47.6039 20.9517 47.6073 20.9539 47.6095C20.9528 47.6084 20.9528 47.6084 20.9517 47.6073C20.9582 47.614 20.9658 47.623 20.9691 47.6286C20.968 47.6264 20.9669 47.6241 20.968 47.623C20.968 47.623 20.9702 47.6275 20.9713 47.6308C20.9713 47.6297 20.9702 47.6297 20.9691 47.6286C21.0387 47.8012 20.8593 47.9492 20.7311 48.031C20.6876 47.8461 20.5104 47.7284 20.3289 47.7407C20.5626 47.6533 20.8332 47.6006 20.9354 47.5938C20.9408 47.5983 20.9474 47.6028 20.9528 47.6084C20.9506 47.6062 20.9495 47.6051 20.9495 47.6039ZM22.1527 48.6957C22.1799 48.7047 22.2027 48.7226 22.219 48.745C22.2647 48.9109 22.0767 48.9961 21.9908 49.1004C21.9604 48.9827 21.8984 48.8616 21.7908 48.8045C21.7952 48.8022 21.7995 48.7989 21.8038 48.7966C21.9071 48.7383 22.0299 48.6621 22.1527 48.6957ZM21.8897 49.6115C22.0104 49.6227 22.1299 49.4299 22.2136 49.4075C22.2756 49.3739 22.344 49.3504 22.4136 49.3504C22.3886 49.3515 22.4386 49.3526 22.444 49.3526C22.506 49.3604 22.5853 49.3896 22.606 49.4557C22.5277 49.6586 22.3658 49.8167 22.1734 49.9142C22.0777 49.792 21.9169 49.7494 21.7702 49.7785C21.8158 49.7259 21.8549 49.6698 21.8897 49.6115ZM23.0342 49.9983C23.044 49.9938 23.0538 49.9904 23.0647 49.9859C23.1103 50.0857 23.1538 50.1877 23.1918 50.2908C23.1462 50.3995 23.1103 50.5161 23.0484 50.6181C23.0049 50.6013 22.9603 50.589 22.9136 50.5823C23.031 50.4231 23.1494 50.1888 23.0342 49.9983ZM22.3332 51.6001C22.4147 51.5664 22.4973 51.5261 22.5864 51.5227C22.5571 51.5205 22.6332 51.5238 22.6375 51.5373C22.6582 51.5799 22.6397 51.6315 22.631 51.6763C22.6071 51.7783 22.5006 52.0215 22.4103 52.1415C22.2962 52.0148 22.1951 51.8758 22.1006 51.7301C22.1756 51.6808 22.2495 51.6371 22.3332 51.6001ZM21.9006 51.3848C21.8267 51.238 21.7593 51.09 21.7104 50.9331L21.7115 50.932C21.8245 50.8659 21.9767 50.8289 22.0973 50.83C22.1527 50.8322 22.1951 50.8378 22.2343 50.8614C22.219 50.8535 22.2538 50.8771 22.2582 50.8916C22.2614 50.895 22.2745 50.9499 22.269 50.9185C22.3093 51.1483 22.056 51.2672 21.9006 51.3848ZM22.6418 52.3365C22.7679 52.1437 22.931 51.9251 23.1733 51.9038C23.2136 51.9005 23.2429 51.942 23.2429 51.9789C23.232 52.0238 23.2157 52.072 23.2375 52.1179C23.1386 52.3522 22.8538 52.5114 22.6375 52.3455C22.6386 52.3421 22.6408 52.3399 22.6418 52.3365ZM23.106 51.6259C23.232 51.4364 23.3157 51.2167 23.369 50.9948C23.3983 51.2212 23.4016 51.4543 23.3679 51.6785C23.2875 51.6259 23.1962 51.6146 23.106 51.6259ZM23.0864 50.988C23.0353 51.1427 22.9864 51.3041 22.8984 51.4387C22.8331 51.2638 22.6288 51.2044 22.4614 51.2548C22.5092 51.1786 22.5408 51.0923 22.5473 50.9936C22.5734 50.9858 22.5984 50.9723 22.6201 50.9499C22.6103 50.96 22.6092 50.9611 22.6125 50.9578C22.6353 50.9342 22.6658 50.9141 22.6875 50.9006C22.8201 50.8266 22.9951 50.8659 23.0864 50.988ZM22.7995 50.2123C22.7614 50.3502 22.5821 50.5722 22.4136 50.6484C22.3343 50.5733 22.2223 50.5509 22.1169 50.5475C22.1604 50.4937 22.1984 50.4354 22.2234 50.3715C22.2343 50.3435 22.2408 50.3144 22.2473 50.2841C22.4038 50.1653 22.6136 50.1092 22.8049 50.1485C22.8103 50.1709 22.8038 50.1911 22.7995 50.2123ZM21.8734 50.0521C21.8473 50.0498 21.9321 50.0633 21.906 50.0565C21.918 50.0599 21.9299 50.0655 21.9408 50.0722C21.9386 50.0734 21.9614 50.0947 21.9593 50.0902C21.9658 50.1003 21.9756 50.1148 21.9669 50.098C21.9875 50.1339 21.9799 50.1406 21.9886 50.1798C21.9864 50.1854 21.981 50.2336 21.9821 50.2269C21.9212 50.4096 21.7604 50.5184 21.6071 50.5968C21.5713 50.4646 21.5365 50.3334 21.4995 50.2023C21.5365 50.1832 21.5734 50.1642 21.6104 50.1451C21.693 50.1014 21.7832 50.0509 21.8734 50.0521ZM21.3615 49.801C21.2821 49.6082 21.1811 49.4299 21.0626 49.264C21.1702 49.1923 21.28 49.1194 21.3876 49.0668C21.4213 49.0499 21.4571 49.0354 21.493 49.0253C21.4821 49.0286 21.5202 49.0197 21.5202 49.0197C21.5495 49.0141 21.5778 49.0141 21.6049 49.0219C21.5854 49.0141 21.6332 49.032 21.6419 49.0376C21.6234 49.0275 21.6571 49.0488 21.6604 49.0522C21.6723 49.0645 21.6745 49.0656 21.668 49.0578C21.7147 49.1105 21.7321 49.1744 21.7321 49.2551C21.7104 49.4759 21.5158 49.653 21.3615 49.801ZM21.6875 48.2574C21.681 48.2799 21.6462 48.3662 21.6223 48.4043C21.6299 48.3908 21.6071 48.4289 21.6082 48.4278C21.5365 48.5702 21.3767 48.6352 21.2789 48.7473C21.2941 48.5635 21.2169 48.2989 21.0354 48.2294C21.1082 48.1846 21.1811 48.1442 21.2669 48.1162C21.3963 48.0736 21.5506 48.0792 21.6528 48.1801C21.6408 48.1633 21.6789 48.2115 21.6832 48.2216C21.6691 48.1958 21.6973 48.263 21.6886 48.2328C21.6941 48.2485 21.693 48.2395 21.6875 48.2574ZM21.2974 51.2055C21.4821 51.683 21.7473 52.1404 22.093 52.5136C23.157 53.5796 24.0059 52.276 23.8592 51.1304C24.4113 51.266 24.4646 52.9598 24.1863 53.3667C23.6255 54.2914 22.4234 52.9968 21.8582 52.7289C21.43 52.526 20.9495 52.5013 20.6213 52.1157C19.9235 51.3423 20.743 50.2359 20.1518 49.4221C20.0278 49.2461 19.8692 49.1071 19.704 48.9748C19.6137 48.9031 19.4561 48.8403 19.5692 48.7249C19.6322 48.6599 19.7822 48.7024 19.88 48.7294C20.1702 49.0118 20.4909 49.2652 20.7224 49.607C21.0441 50.0812 21.093 50.6764 21.2974 51.2055ZM21.0061 48.7271C20.9789 48.8145 20.8909 48.8919 20.8256 48.9692C20.7289 48.8538 20.6159 48.7585 20.4974 48.6554C20.5072 48.6475 20.517 48.6397 20.5267 48.6318C20.6441 48.541 20.7941 48.4872 20.9419 48.4962C20.9658 48.5455 20.9865 48.5993 21.005 48.6509C21.005 48.6543 21.0093 48.7181 21.0104 48.6901C21.0093 48.6968 21.0017 48.7428 21.0061 48.7271ZM20.3854 48.0276C20.58 48.1016 20.3996 48.3393 20.2996 48.4256C20.317 48.4076 20.2713 48.4514 20.2702 48.4558C20.2018 48.4065 20.1931 48.3213 20.1039 48.2866C20.0692 48.2462 20.0365 48.2059 20.0061 48.1633C20.1039 48.0826 20.3028 48.0007 20.3854 48.0276ZM20.3137 47.215C19.8637 47.3484 19.3083 47.7317 19.5083 48.2429C19.3333 48.2776 19.1822 48.365 19.0964 48.5422C18.742 48.5354 18.3377 48.4558 18.1138 48.1521C17.9127 47.8797 17.9138 47.4997 18.1997 47.2979C18.3758 47.1735 18.5703 47.0883 18.7355 46.9459C19.1116 46.6623 19.2757 45.8642 19.8583 46.0705C20.292 46.2521 20.3452 46.7913 20.3137 47.215ZM18.5051 46.4886C18.341 46.6713 18.1138 46.7554 17.9203 46.8977C17.3965 47.2677 17.3736 48.022 17.7736 48.5007C17.0682 48.5366 16.3509 48.6924 15.69 48.9659C15.6063 48.661 15.4183 48.3998 15.2205 48.1431C15.0411 47.6073 15.6161 47.1881 16.0052 46.965C16.5193 46.7184 16.9258 46.3305 17.253 45.8598C17.8747 45.111 18.9159 45.0067 19.6344 45.5504C19.0953 45.5459 18.8062 46.1019 18.5051 46.4886ZM21.8017 56.6712C22.931 56.6745 24.0646 57.3 25.1874 56.8461C25.633 56.6813 26.4275 55.928 26.9329 56.2251C26.1515 56.3136 25.7384 57.1498 25.0548 57.4693C23.5407 58.3885 21.9082 56.966 20.3528 57.5478C20.7539 57.1061 21.2017 56.7127 21.8017 56.6712ZM24.0353 50.6551C23.9603 50.6305 23.8755 50.6204 23.7864 50.6193C23.5603 49.6037 22.8875 48.7226 22.2658 47.9167C21.9169 47.4369 21.4202 47.0098 20.7974 47.1085C20.805 46.8899 20.7854 46.6691 20.7289 46.4617C21.0756 45.9595 21.7017 46.4864 22.0799 46.6926C22.6625 46.9807 23.3929 46.8865 23.8537 47.4257C24.5559 48.1655 24.908 49.9355 24.0353 50.6551ZM21.5821 45.8631C21.2321 45.7308 20.7767 45.7421 20.492 45.9775L20.4909 45.9763C20.5083 45.9382 20.5159 45.8967 20.5072 45.8508C20.7376 45.0998 20.3615 44.37 19.9083 43.7939C20.0572 43.7647 20.2072 43.7188 20.355 43.6728C20.6463 43.5809 20.8963 43.5159 21.1756 43.6762C21.3821 43.7939 21.5636 43.9508 21.7832 44.0461C22.0223 44.1503 22.2734 44.1447 22.5223 44.2019C23.0831 44.3981 23.6744 44.8005 23.9603 45.3464C23.2733 44.5796 21.8875 44.8184 21.5821 45.8631ZM23.9418 43.4542C23.7885 43.6818 23.6211 43.8981 23.4451 44.1044C23.157 43.9071 22.8397 43.7513 22.5288 43.7008C22.0897 43.6717 21.7375 43.4766 21.3789 43.2289C21.6299 43.0372 21.9288 42.9319 22.2288 42.8366C22.7527 43.1191 23.3418 43.3903 23.9418 43.4542ZM22.8734 42.6158C23.0397 42.5519 23.2027 42.4813 23.3646 42.405C23.6896 42.5552 24.0429 42.6393 24.3972 42.6673C24.3461 42.7705 24.2929 42.8725 24.2363 42.9733C23.7668 42.9778 23.3038 42.8198 22.8734 42.6158ZM17.0899 43.2659C17.5856 43.0955 18.0269 42.9397 18.5268 43.1998C19.2594 43.6414 19.9811 44.4193 20.0931 45.3127C19.2605 44.5415 17.954 44.4776 17.0867 45.3206C16.8378 45.5627 16.6682 45.8777 16.4139 46.1131C15.8813 46.5626 15.1357 46.7397 14.8281 47.447C14.8303 46.2039 13.6695 45.5773 12.5967 45.9337C12.9173 44.1268 13.7586 42.785 15.727 43.3477C16.1998 43.4251 16.6345 43.4217 17.0899 43.2659ZM12.1282 45.8429C12.075 46.0088 12.0011 46.1624 11.8848 46.2902C11.4935 46.5603 11.1609 46.9235 10.9153 47.3394C10.8685 47.3484 10.8218 47.354 10.774 47.3629C10.524 46.4684 9.94247 45.6804 9.17186 45.1962C10.2066 45.1805 11.1978 45.3733 12.1282 45.8429ZM10.8109 49.2472C10.9207 48.7596 10.987 48.2597 11.2065 47.8079C11.5815 46.9908 12.6597 45.9775 13.4771 46.8047C13.7455 47.1174 13.6042 47.6095 13.5858 47.9828C13.551 48.7204 13.9021 49.4232 14.4792 49.8469C13.8314 50.6596 13.6086 51.8007 13.5673 52.8723C13.2586 52.6616 12.9815 52.3242 12.5663 52.4015C11.9445 52.6168 11.6772 53.4317 11.4978 54.0247C11.4707 54.1367 11.45 54.2488 11.4315 54.3621C10.7718 53.2837 10.1696 52.0193 10.4022 50.7112C10.4957 50.2124 10.7 49.7427 10.8109 49.2472ZM13.9716 53.5729C14.1444 53.6166 14.3205 53.6447 14.4977 53.6626C15.7596 53.7175 17.5041 53.4205 17.7182 55.168C16.74 53.4821 15.1542 54.4764 13.9716 53.5729ZM17.7388 59.181C18.3421 59.3244 18.8486 59.0588 19.304 58.6575C20.9985 57.3482 21.8517 58.0937 23.6385 58.2921C24.3211 58.3055 25.0146 58.1026 25.5895 57.7237C26.0602 57.4996 26.8264 56.2295 27.3351 56.8763C27.5514 57.42 27.1655 57.8964 26.8134 58.2517C24.5255 60.7189 20.8919 60.7985 17.8475 60.1472C17.6595 59.858 17.6867 59.5139 17.7388 59.181ZM27.1492 31.5308C27.2449 29.9088 29.5361 30.0344 29.3535 31.6833C29.1535 33.08 27.1971 32.951 27.1492 31.5308ZM30.5817 48.939C30.5686 49.0432 30.561 49.1486 30.5502 49.2551C30.4045 50.589 29.46 51.6146 29.0176 52.8387C28.9741 52.3881 28.8513 51.9173 28.6155 51.5014C28.972 50.4096 29.6752 49.5544 30.5817 48.939ZM36.8933 54.7107C37.2346 54.4327 37.7335 54.3587 38.1291 54.5515C38.7052 54.8822 38.9345 55.6007 39.4921 55.9661C39.7714 56.1769 40.0964 56.2867 40.3877 56.4739C41.2018 56.9929 41.3779 58.1407 40.9877 58.9904C40.8018 58.7416 40.6323 58.4815 40.5399 58.1598C40.204 56.5187 39.4671 56.3349 37.965 56.4907C38.0378 55.7442 37.6781 54.8497 36.8933 54.7107ZM38.2574 64.8462C38.1596 64.8013 38.0476 64.798 37.9444 64.8148C38.0031 64.6668 37.9585 64.4617 37.8215 64.3877C38.0041 64.2633 38.4226 64.1613 38.4813 64.4651C38.4824 64.446 38.4791 64.4886 38.478 64.4964C38.4563 64.5121 38.4378 64.5357 38.4378 64.5648C38.3998 64.6074 38.3465 64.6511 38.3096 64.7027C38.2791 64.7453 38.2639 64.7946 38.2574 64.8462ZM38.2487 65.3102C38.0574 65.3461 37.8509 65.317 37.677 65.2194C37.7259 65.1791 37.7705 65.1331 37.8215 65.0917C37.9759 64.9336 38.4791 65.0311 38.2487 65.3102ZM37.0227 63.6995C37.1292 63.6479 37.2205 63.5717 37.2727 63.4607C37.277 63.4517 37.2781 63.4416 37.2813 63.4316C37.4835 63.4529 37.9204 63.25 38.0107 63.556C38.0954 63.8833 37.8107 64.1501 37.5813 64.3148C37.5183 64.3092 37.4552 64.3126 37.3966 64.3227C37.5487 64.0346 37.3205 63.7196 37.0227 63.6995ZM38.128 63.3497C38.6215 63.0785 39.0889 63.417 38.5672 63.871C38.4813 63.9371 38.403 64.0156 38.3074 64.0671C38.2433 64.0559 38.178 64.0548 38.1139 64.0615C38.2335 63.8564 38.2889 63.5459 38.128 63.3497ZM37.9161 63.2074C37.8911 63.1995 37.865 63.1906 37.8378 63.1861C38.0259 63.0572 38.1117 62.7579 37.9074 62.6009C37.9922 62.5583 38.0694 62.481 38.1041 62.3824C38.5041 62.3723 38.6617 62.629 38.2911 62.8834C38.1693 62.9933 38.0248 63.0852 37.9161 63.2074ZM37.8987 62.3353C37.815 62.4575 37.6607 62.4575 37.527 62.4597C37.5009 62.3229 37.3976 62.2266 37.2813 62.1694C37.3553 62.1425 37.427 62.1055 37.4835 62.0528C37.6129 62.0752 37.7672 62.0382 37.8748 62.1391C37.9335 62.1884 37.9444 62.2736 37.8987 62.3353ZM37.4868 62.7018C37.6042 62.7164 37.7933 62.6884 37.8237 62.8397C37.8248 62.8498 37.8172 62.8924 37.8063 62.9114C37.6922 63.0886 37.4792 63.1592 37.29 63.213C37.2629 63.093 37.1618 63.0101 37.052 62.9708C37.2074 62.907 37.3944 62.852 37.4868 62.7018ZM38.4552 64.8843C38.4552 64.8843 38.4552 64.8798 38.4541 64.8764C38.453 64.8574 38.4835 64.8114 38.4965 64.7991C38.5422 64.7487 38.5998 64.7072 38.6324 64.6455C38.7171 64.6018 38.7726 64.5749 38.8737 64.5962C38.8574 64.8529 38.7161 65.1062 38.503 65.2183C38.5259 65.1275 38.4911 65.0311 38.4313 64.965C38.4487 64.9471 38.4596 64.919 38.4552 64.8843ZM38.678 64.4012C38.6639 64.3115 38.6085 64.2252 38.5432 64.1714C38.6585 64.0694 38.7758 63.9562 38.9247 63.9136C38.8943 64.0694 38.8932 64.2297 38.8878 64.3888C38.8171 64.3765 38.7465 64.381 38.678 64.4012ZM38.4215 63.046C38.5139 62.9708 38.6085 62.889 38.665 62.7803C38.8715 62.759 39.1182 62.6929 39.291 62.8487C39.3139 62.8711 39.3247 62.9058 39.3193 62.9383C39.2682 63.1031 39.0986 63.2421 38.9356 63.2634C38.8247 63.1042 38.6117 63.0123 38.4215 63.046ZM38.6932 62.5057C38.6671 62.4149 38.6106 62.3342 38.5324 62.2792C38.6204 62.2411 38.7008 62.1862 38.7682 62.1044C38.79 62.0775 38.8084 62.0472 38.8237 62.0158C38.9334 62.0214 39.066 62.0181 39.1541 62.0864C39.1617 62.1683 39.1726 62.2501 39.1867 62.3319C39.0519 62.4451 38.8671 62.4978 38.6932 62.5057ZM39.0921 61.6762C39.0258 61.7221 38.9432 61.7524 38.8693 61.7771C38.8617 61.6526 38.8041 61.5338 38.6911 61.4688C38.8182 61.4184 38.9378 61.3163 38.9584 61.1695C39.0682 61.2827 39.1084 61.471 39.1247 61.6504C39.1139 61.6594 39.103 61.6683 39.0921 61.6762ZM38.2476 61.3399C38.2161 61.2995 38.1715 61.2648 38.1237 61.2457C38.2161 61.1964 38.2965 61.109 38.3128 61.0014C38.4519 61.0866 38.6128 61.0496 38.7584 61.0709C38.7769 61.332 38.4139 61.3074 38.2476 61.3399ZM38.2193 61.8421C38.2802 61.7714 38.315 61.6829 38.3215 61.5932C38.49 61.6145 38.7226 61.628 38.6585 61.8757C38.5813 62.0999 38.3183 62.1436 38.115 62.1526C38.102 62.0853 38.0585 62.0281 38.0085 61.9822C38.0878 61.9542 38.1596 61.9116 38.2193 61.8421ZM38.1063 61.6381C38.028 61.8309 37.7726 61.8253 37.5987 61.8028C37.5965 61.7232 37.5596 61.6526 37.5042 61.5977C37.5879 61.5786 37.6694 61.5473 37.7313 61.4901C37.7618 61.4621 37.7846 61.4273 37.802 61.3903C37.94 61.3926 38.1965 61.4363 38.1063 61.6381ZM38.1096 60.9722C38.1041 61.0059 38.0454 61.0619 37.9878 61.0787C37.9215 61.1056 37.8498 61.0821 37.7857 61.109C37.727 61.0227 37.627 60.9722 37.5292 60.9498C37.6368 60.8758 37.7574 60.8276 37.8965 60.8276C37.9726 60.8276 38.0346 60.8512 38.0933 60.8803C38.0987 60.8893 38.1041 60.9061 38.1063 60.9139C38.1085 60.9218 38.1107 60.9364 38.1117 60.9431C38.1117 60.952 38.1107 60.9633 38.1096 60.9722ZM37.6226 61.2312C37.6248 61.2379 37.6324 61.2536 37.6324 61.2648C37.6313 61.2738 37.6313 61.276 37.6335 61.2682C37.565 61.4374 37.2857 61.4161 37.1357 61.4105C37.189 61.3208 37.2509 61.23 37.3216 61.146C37.3792 61.1415 37.4379 61.1448 37.4955 61.1572C37.5346 61.1673 37.5965 61.1908 37.6226 61.2312ZM37.3574 61.8936C37.252 61.9844 37.0922 62.0158 36.9553 62.0304C36.9955 61.9205 37.0324 61.8107 37.064 61.7008C37.1792 61.6437 37.4976 61.721 37.3574 61.8936ZM37.3248 62.5841C37.1585 62.7399 36.8966 62.8218 36.6738 62.8464C36.7216 62.6637 36.7868 62.481 36.8553 62.2994C37.0248 62.296 37.3813 62.3431 37.3248 62.5841ZM36.8835 63.1412C37.0161 63.1558 37.1705 63.2544 37.0694 63.4024C36.9716 63.5347 36.7803 63.5672 36.6292 63.6053C36.5988 63.4461 36.5977 63.2881 36.6183 63.13C36.7075 63.1255 36.7966 63.1267 36.8835 63.1412ZM36.9118 63.8967C37.2803 63.8979 37.3422 64.2117 37.0574 64.4225C36.9357 64.2532 36.8053 64.0817 36.7194 63.89C36.7835 63.8867 36.8488 63.89 36.9118 63.8967ZM37.4107 64.5334C37.5259 64.5043 37.7161 64.5189 37.7585 64.6231C37.79 64.8148 37.6139 64.9538 37.4672 65.0446C37.3618 64.9202 37.3042 64.7587 37.2031 64.631C37.2672 64.585 37.3357 64.5491 37.4107 64.5334ZM38.6182 65.7239C38.9019 65.5961 39.1313 65.3562 39.2497 65.0614C39.3845 64.7285 39.316 64.3765 39.3867 64.0335C39.4389 63.7723 39.6714 63.63 39.7551 63.3845C40.0486 63.5582 40.2845 63.8855 40.1345 64.2431C40.0171 64.4538 39.878 64.6579 39.8747 64.9123C39.9475 66.2518 38.4759 66.3101 37.6389 65.7205C37.9552 65.8449 38.3096 65.8629 38.6182 65.7239ZM40.1497 63.0605C40.0432 62.9798 39.9258 62.9126 39.8008 62.861C39.7606 62.5785 39.6465 62.3017 39.6247 62.0169C39.6323 61.3702 39.4345 60.5227 38.6508 60.581C38.4552 60.5642 38.303 60.3983 38.1052 60.3557C37.8063 60.2896 37.4813 60.377 37.2379 60.562C37.2987 60.3826 37.4129 60.2313 37.5846 60.1405C37.827 60.0116 38.1041 60.0968 38.3596 60.0105C38.5965 59.9309 38.8052 59.756 39.065 59.8479C39.5693 60.0508 39.4008 60.7346 39.6878 61.1292C40.0508 61.6907 40.654 62.4037 40.1497 63.0605ZM38.4693 59.4298C38.2943 59.5184 38.127 59.5744 37.9313 59.5699C37.5389 59.5767 37.1737 59.765 36.9488 60.0755C36.627 59.311 35.9618 58.6878 35.1901 58.4849C35.5651 58.0937 35.8445 57.6027 35.9695 57.0602C36.2727 56.9279 36.7575 56.8057 37.0172 57.0545C37.1683 57.1991 37.3031 57.3247 37.5009 57.3976C38.5987 57.5153 38.9682 58.4636 38.4693 59.4298ZM35.4706 57.068C35.3097 57.6083 34.9847 58.0892 34.5358 58.4187C34.3608 58.4299 34.1826 58.4624 34.0065 58.523C33.938 58.5488 33.8739 58.5801 33.8076 58.6115C34.1358 57.1991 34.7782 57.9311 35.4706 57.068ZM32.5077 59.2303C32.1196 58.7539 31.8175 58.264 31.986 57.6072C32.1968 56.7396 32.8555 55.8395 33.7902 55.8204C34.3456 55.8294 34.8249 56.2441 35.3934 56.0603C35.3249 56.5165 35.0641 56.9649 34.6087 57.0938C34.4032 57.1588 34.1869 57.1969 34.0033 57.3202C33.2381 57.8258 33.5804 59.1014 32.5077 59.2303ZM37.4618 56.8012C37.1129 56.3842 36.5651 56.3383 36.0553 56.5098C36.1118 55.9011 35.8738 55.4908 35.2271 55.6007C34.8336 55.6534 34.4945 55.4225 34.1163 55.3552C33.5826 55.2588 33.0218 55.4281 32.5946 55.7621C32.5609 55.4505 32.4696 55.1467 32.3294 54.8721C32.6946 54.4708 33.1424 54.1121 33.6989 54.111C34.3043 54.1087 34.6945 54.7017 35.2282 54.9281C35.7477 55.1871 36.3347 55.066 36.8759 55.2072C37.5172 55.4236 37.5389 56.2082 37.4618 56.8012ZM34.025 52.7031C33.6185 52.4991 33.1435 52.4419 32.7044 52.5618C32.7087 52.1493 32.6609 51.7435 32.5664 51.3467C32.8131 50.6731 33.1979 50.0588 33.6609 49.5196C33.6511 50.5867 34.3565 51.6438 34.025 52.7031ZM33.8326 53.1604C33.7576 53.3039 33.7011 53.4575 33.6587 53.6166C33.6576 53.6166 33.6565 53.6166 33.6554 53.6166C33.0196 53.6379 32.4892 54 32.0566 54.4517C31.9599 54.3318 31.8512 54.2231 31.7305 54.1278C31.987 53.2265 33.0153 52.702 33.8326 53.1604ZM32.2175 52.7591C31.8099 52.999 31.4816 53.416 31.311 53.8688C30.8088 53.6245 30.1676 53.6884 29.7556 54.0841C29.1274 54.6905 29.3448 55.6971 28.8524 56.3831C28.9122 55.4572 29.0078 54.5336 29.2557 53.6491C30.3502 53.5449 31.3556 52.9699 32.2186 52.2951C32.2262 52.4486 32.2251 52.6033 32.2175 52.7591ZM29.4198 53.1358C29.5056 52.8959 29.6046 52.6594 29.7198 52.4284C29.7817 52.3029 29.848 52.1807 29.9143 52.0574C30.6762 51.8702 31.4023 51.5283 31.9414 50.9466C32.0338 51.1977 32.1033 51.4532 32.1501 51.7133C31.3653 52.387 30.4404 52.9586 29.4198 53.1358ZM30.2458 51.4465C30.6502 50.7134 31.0099 49.9366 31.0349 49.078C31.1925 49.5577 31.5001 49.9915 31.7316 50.4534C31.3545 50.9432 30.8164 51.2503 30.2458 51.4465ZM30.9295 63.0616C30.6719 61.9542 30.8664 60.6449 30.0415 59.7414C29.6839 59.3267 29.1002 59.1473 28.7872 58.6945C28.9198 58.2192 28.985 57.717 28.8492 57.2317C29.1817 56.7687 29.535 56.3013 29.6382 55.7173C29.7372 55.2566 29.7622 54.6546 30.1795 54.3632C31.2338 53.7568 32.3033 55.2005 32.1283 56.2318C31.3229 57.2888 31.1708 58.5588 32.1501 59.5576C32.111 59.8053 32.249 60.0374 32.2479 60.2862C32.2881 60.9543 31.5762 61.3152 31.5632 61.9665C31.5805 62.7455 32.4425 63.148 32.4055 63.9517C31.8631 63.8642 31.099 63.6378 30.9295 63.0616ZM37.4922 66.1992C38.5204 66.865 40.2214 66.6711 40.3442 65.1903C40.3497 65.0849 40.341 64.9751 40.3605 64.8708C40.4355 64.622 40.6399 64.4202 40.6442 64.1433C41.0768 64.3911 41.3083 64.9146 41.1312 65.4279C40.8399 66.0579 40.191 66.4155 39.7519 66.9311C39.5258 67.1654 39.4671 67.458 39.3084 67.7337C38.8834 68.5251 37.8487 68.7538 37.0748 68.404C36.9357 67.9355 36.4716 67.6115 36.3368 67.1295C36.8977 67.1015 37.3248 66.7495 37.4922 66.1992ZM40.0475 60.7805C39.929 60.5384 39.929 60.266 39.841 60.0138C39.7214 59.6529 39.3986 59.3816 39.0313 59.3379C39.4139 58.412 38.9519 57.1431 37.915 56.9985C37.915 56.9974 37.915 56.9974 37.915 56.9963C38.4411 56.9469 39.0497 56.8528 39.5345 57.1128C39.9801 57.4222 39.9953 58.1217 40.1801 58.5902C40.5236 59.459 41.5996 60.1416 41.3616 61.1953C41.1257 61.4475 40.8073 61.5999 40.4736 61.452C40.3269 61.2312 40.1649 61.0193 40.0475 60.7805ZM37.5476 53.2523C38.2324 53.3981 38.953 53.2747 39.5899 53.6234C40.0301 53.8644 40.7094 54.4798 40.6834 55.0739C40.304 55.0772 39.9247 55.1893 39.5943 55.4202C39.0747 54.9315 38.79 54.1906 38.0476 54.0022C37.3955 53.8375 36.7053 54.0919 36.3042 54.64C36.0445 54.6221 35.7825 54.6053 35.5358 54.5212C35.001 54.3508 34.676 53.8375 34.1402 53.6805C34.3369 53.0629 34.8478 52.6067 35.5032 52.5708C36.251 52.5461 36.8205 53.1492 37.5476 53.2523ZM35.3858 34.5854C35.8608 33.4196 37.5639 34.1673 37.0868 35.3263C36.6183 36.4921 34.9097 35.7467 35.3858 34.5854ZM34.5793 52.3545C34.6565 51.3759 34.1576 50.4623 34.1413 49.486C34.8054 50.1843 35.2619 51.1304 35.1315 52.1269C34.9325 52.1729 34.7478 52.2502 34.5793 52.3545ZM34.4554 26.249C32.6446 26.6009 32.5664 28.8395 32.1392 29.7597C32.0946 29.7687 32.061 29.7687 32.0164 29.7597C31.6555 28.9695 31.374 26.4182 29.7339 26.1514C29.5665 26.1167 29.5035 26.0629 29.6589 25.9822C30.9491 25.4318 31.6012 24.5429 31.7914 23.1115C31.849 22.9254 31.8697 21.7989 32.1892 22.1811C32.3631 22.7819 32.3707 23.4489 32.5903 24.0441C32.8413 25.0137 33.6598 25.5932 34.4967 25.9822C34.651 26.0618 34.7315 26.1828 34.4554 26.249ZM30.1523 15.8657C30.1523 15.8624 30.1523 15.8624 30.1523 15.8601H30.1556C30.2697 15.516 30.4371 15.1024 30.7458 14.9096C31.4012 14.3256 32.4218 14.3738 33.0174 15.0362V15.0396C33.0283 15.0508 33.2739 15.4039 33.2815 15.4151C33.2805 15.4274 33.4533 15.8489 33.4489 15.8624C33.4522 15.8691 33.5109 16.3466 33.5098 16.3533C33.4859 16.6403 33.4294 17.055 33.2761 17.3005C33.2729 17.3061 33.0196 17.6682 33.0142 17.6738C33.0142 17.6772 33.0142 17.6772 33.0142 17.6772C32.9011 17.7837 32.7881 17.8879 32.6631 17.9787C32.6631 17.9787 32.6598 17.9787 32.6598 17.9821C32.6587 17.9787 32.2599 18.1693 32.2566 18.1693C31.9544 18.2399 31.6588 18.2343 31.3577 18.1693C31.2153 18.1098 31.074 18.0415 30.9349 17.9709C30.8154 17.8845 30.7034 17.7758 30.5925 17.6783C30.5925 17.6749 30.5893 17.6727 30.5871 17.6727C30.5839 17.6581 30.3273 17.3084 30.3252 17.2938C30.3219 17.2938 30.3219 17.2904 30.3219 17.2904C30.3219 17.2904 30.3219 17.2904 30.3219 17.2871C30.3165 17.2781 30.1556 16.851 30.1523 16.8454C30.1067 16.526 30.0632 16.1729 30.1523 15.8657ZM28.0514 10.7565C28.5231 9.59185 30.2295 10.3384 29.7524 11.4974C29.285 12.6643 27.572 11.9156 28.0514 10.7565ZM26.1167 19.0839C26.4743 17.889 28.1861 18.3722 27.8949 19.5917C27.5514 20.7911 25.8145 20.2923 26.1167 19.0839ZM26.6525 48.8089C26.1493 48.5209 25.4982 48.4917 24.9189 48.5242C24.87 48.3056 24.8059 48.1016 24.7331 47.9234C24.4961 47.345 24.0766 46.8406 23.5059 46.5973C23.0125 46.4146 22.4625 46.4303 22.0223 46.0952C22.1506 45.5762 22.6549 45.2746 23.1712 45.4181C23.7722 45.5862 23.9429 46.1938 24.3396 46.6097C24.7363 47.0244 25.3243 47.1533 25.783 47.4761C26.2352 47.7945 26.5764 48.2597 26.6525 48.8089ZM24.6157 42.1808C24.3929 42.1887 24.17 42.1539 23.9559 42.09C24.2711 41.9028 24.5711 41.6899 24.8548 41.4556C24.7896 41.7011 24.7113 41.9432 24.6157 42.1808ZM24.7374 40.9344C24.5211 41.1328 24.27 41.3054 24.0374 41.4623C23.2516 42.0531 22.2799 42.2403 21.4093 42.6393C21.5734 42.1831 21.7093 41.7134 21.9636 41.302C22.7201 40.6104 23.794 40.7371 24.7374 40.9344ZM21.6136 25.5574C22.0278 24.5261 23.5364 25.1863 23.1136 26.2086C22.7027 27.241 21.1887 26.5785 21.6136 25.5574ZM21.4093 36.1838C21.5082 37.1411 21.5234 38.1511 21.1376 39.0489C20.5528 40.4154 19.0757 40.8234 17.8943 41.4758C16.5324 42.3333 15.4911 42.3905 14.001 41.7358C14.2966 41.5094 14.5868 41.2751 14.8531 41.0128C15.1944 40.6765 15.4107 40.2887 15.6835 39.8986C16.7747 38.4055 19.1877 40.7472 19.6137 36.8216C19.6746 36.0157 19.6703 35.0685 20.3104 34.4923C20.4083 34.406 20.7474 34.1594 20.8995 34.2278C21.3245 34.702 21.3495 35.6088 21.4093 36.1838ZM20.7365 33.5451C20.2844 33.34 19.6594 33.5967 19.3431 33.9745C19.1659 33.6752 18.8768 33.4476 18.5638 33.3008C18.5464 32.4713 17.7856 31.8357 16.9976 31.9557C16.9302 31.6721 16.8476 31.356 16.7313 31.0578C17.0986 30.8807 17.5312 30.763 17.9225 30.8885C18.4008 31.0432 18.5486 31.5667 18.8181 31.9467C19.2855 32.6977 20.543 32.5834 20.7365 33.5451ZM18.2834 24.2997C17.7638 24.1483 17.2323 24.3378 16.7063 24.321C17.704 23.3951 18.6594 22.3257 19.9148 21.8213C19.3768 22.644 18.9257 23.5654 18.2834 24.2997ZM17.9671 22.2371C17.9736 22.2214 17.9801 22.2058 17.9866 22.1901C18.1986 22.1172 18.4116 22.0477 18.6247 21.9793C18.3453 22.1755 18.0779 22.3941 17.8171 22.6227C17.8671 22.4916 17.9171 22.3616 17.9703 22.2315C17.9693 22.2338 17.9693 22.2338 17.9671 22.2371ZM17.3888 22.3986C17.2671 22.7068 17.1508 23.0162 17.0476 23.3301C16.8324 23.5352 16.6182 23.7403 16.403 23.9398C16.5954 23.4814 16.9639 23.0857 16.9758 22.5476C17.1149 22.4983 17.2519 22.4479 17.3888 22.3986ZM16.4574 22.7382C16.3509 23.2751 15.6987 23.7168 16.0063 24.2952C15.477 24.7447 14.9248 25.1067 14.3107 25.4094C14.2477 25.035 14.4912 24.7469 14.6944 24.4723C14.9455 24.0979 15.1509 23.6899 15.2226 23.2381C15.6259 23.0554 16.0422 22.8929 16.4574 22.7382ZM15.4455 13.3167C15.5063 13.4568 15.5683 13.5981 15.6237 13.7427C15.7824 14.1541 15.8835 14.589 15.9454 15.0273C15.8063 15.2313 15.6672 15.4443 15.4759 15.5978C15.3998 15.655 15.3172 15.7032 15.2368 15.7559C15.4205 14.9533 15.5042 14.1417 15.4455 13.3167ZM15.1933 16.4296C15.4129 16.1404 15.8074 16.0451 16.0183 15.7368C16.0552 16.2547 16.0607 16.7782 16.0443 17.2983C15.5433 17.7702 15.4563 18.5605 14.9292 19.0044C15.1227 18.1491 15.164 17.3028 15.1933 16.4296ZM14.9477 13.2383C14.9574 13.2226 14.9661 13.2058 14.9759 13.1889C14.9705 13.8402 15.0303 14.5083 14.8564 15.1461C14.839 14.7325 14.714 14.3312 14.514 13.9736C14.6585 13.7292 14.8031 13.4837 14.9477 13.2383ZM14.2216 14.4735C14.4596 14.9286 14.2977 15.4532 14.4683 15.9195C14.8009 16.3881 14.7216 16.9396 14.6901 17.49C14.6542 17.9451 14.5814 18.3946 14.4781 18.8385C14.3618 18.6524 14.1847 18.5033 14.0434 18.3352C13.7792 17.9709 13.864 17.4967 13.8532 17.0752C13.8401 16.5854 13.7184 16.1034 13.526 15.6561C13.7575 15.2627 13.989 14.867 14.2216 14.4735ZM13.2108 16.1684C13.3934 16.6672 13.3706 17.1828 13.3717 17.7052C13.126 17.4384 12.9086 17.1436 12.7456 16.8174C12.9119 16.6089 13.0684 16.3926 13.2108 16.1684ZM12.426 17.2422C12.6695 17.666 12.9999 18.0426 13.3477 18.3721C13.6945 18.6927 14.2216 19.0402 14.276 19.5648C14.1053 20.0872 13.8879 20.586 13.6379 21.0702C12.901 20.0166 13.0945 18.5302 12.2804 17.5079C12.2804 17.5079 12.2804 17.5079 12.2793 17.509C12.2728 17.5012 12.2674 17.4922 12.2608 17.4844C12.3163 17.4025 12.3706 17.3218 12.426 17.2422ZM11.9945 17.9339C12.7043 19.0201 12.4934 20.5445 13.389 21.5332C13.1151 22.0242 12.8108 22.5006 12.5293 22.9859C12.0435 22.5958 11.7902 22.0029 11.6359 21.392C11.9522 20.5434 11.9359 19.5704 11.6435 18.7152C11.6391 18.7028 11.6315 18.6927 11.625 18.6815C11.7391 18.4271 11.863 18.1771 11.9945 17.9339ZM11.3283 19.4146C11.3946 19.7901 11.4 20.1713 11.3489 20.5479C11.2826 20.3999 11.2044 20.2587 11.1098 20.1231C11.1718 19.8854 11.2457 19.6489 11.3283 19.4146ZM11.2359 23.4859C10.925 22.6339 10.8326 21.7327 10.9631 20.8393C11.2718 21.7675 11.45 22.82 12.288 23.4141C12.1032 23.7504 11.9304 24.0945 11.7793 24.4499C11.5283 24.2089 11.362 23.8322 11.2359 23.4859ZM11.95 25.1213C12.025 25.1482 12.1043 25.1661 12.1869 25.1785C11.7011 25.925 11.0892 26.9518 11.625 27.7712C11.4598 27.955 11.2989 28.1422 11.1435 28.335C11.1772 27.2029 11.3663 26.0539 11.95 25.1213ZM11.25 28.9773C11.4761 28.6769 11.7174 28.3888 11.9695 28.112C12.4956 28.4808 13.2314 28.631 13.7695 28.5671C13.7564 28.6825 13.7401 28.7946 13.7325 28.9123C13.2934 28.9885 12.9108 29.2217 12.6217 29.5669C12.1717 29.3775 11.6207 29.4963 11.1587 29.5681C11.1522 29.4212 11.1468 29.2721 11.1435 29.1219C11.1761 29.076 11.2163 29.021 11.25 28.9773ZM9.1273 23.7896C9.22729 24.1326 9.24794 24.5037 9.13382 24.8456C9.07947 24.7514 9.02404 24.6584 8.96643 24.5676C8.95013 24.238 8.92622 23.9062 8.90774 23.5755C8.98274 23.645 9.05447 23.7179 9.1273 23.7896ZM8.40885 23.1171C8.40451 23.348 8.43494 23.5811 8.44363 23.8121C7.97627 23.1832 7.47194 22.5723 7.07631 21.8941C7.52085 22.3022 7.96105 22.7135 8.40885 23.1171ZM6.76111 22.2831C7.17848 22.9613 7.68389 23.5811 8.15234 24.229C7.78606 23.9028 7.43499 23.5184 6.95349 23.4052C6.88067 23.0319 6.81763 22.6586 6.76111 22.2831ZM7.07414 23.9701C7.63063 24.2851 8.02192 24.9621 8.69688 25.0462C8.92513 25.4307 9.11751 25.8398 9.22729 26.277C8.66645 26.0876 7.99366 26.0898 7.56868 25.6156C7.36325 25.0821 7.2013 24.5295 7.07414 23.9701ZM8.70449 27.417C8.35451 27.1827 8.11974 26.8094 7.92736 26.4306C8.39146 26.6211 8.90557 26.6379 9.36207 26.8509C9.41533 27.0953 9.46967 27.3396 9.54358 27.5784C9.2849 27.6401 8.99361 27.5963 8.70449 27.417ZM9.63923 25.9721C9.61314 25.8847 9.5838 25.7995 9.55228 25.7143C9.43489 25.3063 9.69792 24.8321 9.68814 24.3938C9.83378 24.5586 9.95878 24.7436 10.0707 24.9364C10.0479 25.0406 10.049 25.1437 10.0479 25.2502C10.0479 25.3309 10.0251 25.3645 9.97291 25.4251C9.8327 25.5876 9.72401 25.7737 9.63923 25.9721ZM9.97725 27.3497C9.93921 27.1793 9.8577 27.0067 9.87291 26.8319C9.93704 26.4171 10.1033 26.0147 10.3718 25.6963C10.5131 26.2378 10.4077 26.9854 9.97725 27.3497ZM10.6609 28.6231C10.6109 28.5895 10.5696 28.5536 10.5283 28.5088C10.3544 28.3227 10.2457 28.0851 10.137 27.8553C10.449 27.6535 10.6859 27.2903 10.7979 26.9294C10.7022 27.4865 10.6653 28.0593 10.6609 28.6231ZM9.14469 32.0588C9.6914 31.6452 9.96204 30.9771 10.4283 30.4861C10.7327 30.1756 11.1109 30.0489 11.5304 30.0052C11.8489 29.9716 12.3119 29.8774 12.5663 30.1218C12.6847 30.2361 12.7978 30.3572 12.926 30.4581C12.7869 30.791 12.7217 31.1486 12.6369 31.4983C11.4141 30.3897 10.2414 31.6866 9.71748 32.8479C9.49902 33.2571 9.27838 33.6785 8.93491 33.9924C8.61428 34.2861 8.24147 34.489 7.94257 34.8073C7.68389 34.1392 7.64693 33.3378 8.13278 32.7683C8.40233 32.4466 8.81753 32.3099 9.14469 32.0588ZM8.07735 32.1731C7.27087 32.7504 7.09261 33.9207 7.44912 34.823C6.0731 34.044 5.75029 32.098 4.49818 31.1396C5.79594 31.1475 7.25565 31.0443 8.07735 32.1731ZM6.07419 34.1505C6.24048 34.387 6.42091 34.6089 6.61981 34.8096C6.33722 34.8611 6.06223 34.9631 5.81985 35.1021C5.41226 34.9968 5.13184 34.7289 4.92859 34.3937C5.32531 34.4318 5.7329 34.3601 6.07419 34.1505ZM4.67426 33.8467C4.56013 33.5317 4.48513 33.2122 4.39709 32.8916C4.47535 32.9298 4.5547 32.9645 4.63621 32.9936C4.87316 33.0788 5.14271 33.1203 5.3927 33.0699C5.52747 33.2974 5.65899 33.5205 5.7992 33.7436C5.45356 33.9375 5.06228 33.9532 4.67426 33.8467ZM3.99059 31.3705C4.45144 31.681 4.79816 32.1238 5.10358 32.5991C5.08728 32.598 5.07206 32.5957 5.05576 32.5946C4.92642 32.5744 4.79599 32.5318 4.67317 32.4825C4.51013 32.4085 4.35471 32.3166 4.21232 32.2056C4.13841 31.9276 4.0645 31.6485 3.99059 31.3705ZM4.47427 37.316C3.3591 37.1232 2.68631 36.0785 2.11242 35.1369C2.78739 34.6997 3.52757 34.3982 4.31014 34.2379C4.53187 34.7524 4.87316 35.2109 5.36226 35.453C4.85033 35.9383 4.52752 36.6087 4.47427 37.316ZM5.18075 38.5367C4.66556 37.5177 5.01663 36.1973 5.97202 35.5931C5.14162 36.7891 5.11988 38.4044 6.06766 39.5097C5.6829 39.2888 5.38074 38.9391 5.18075 38.5367ZM7.17739 40.0096C6.43395 39.3281 5.68834 38.391 5.83507 37.2969C5.92637 36.5067 6.37091 35.4474 7.21869 35.2904C7.30782 35.3454 7.40129 35.3936 7.49803 35.4384C6.72633 36.6939 7.37521 38.5849 8.85774 38.8158C9.11099 40.2057 10.6435 40.7337 11.7174 41.3211C11.1576 41.9981 10.2479 42.1528 9.4425 41.8143C8.51863 41.4309 8.04257 40.4737 7.17739 40.0096ZM6.92958 42.2963C7.00566 44.0326 8.76318 43.7883 9.95443 43.9575C10.5305 44.0932 10.9207 44.5662 11.3152 44.9865C10.2533 44.5752 9.08165 44.87 8.01213 44.5057C7.11327 44.2165 6.64046 43.211 6.92958 42.2963ZM6.39265 43.1751C6.47199 43.7771 6.7785 44.3319 7.27847 44.6805C7.72845 44.9283 8.1143 45.2477 8.59471 45.4383C9.40663 45.8172 10.0359 46.5682 10.2979 47.4425C9.21751 47.595 8.12409 47.5994 7.04805 47.447C6.55025 45.8205 5.66877 44.2714 4.04059 43.6728C4.78403 43.3668 5.58073 43.1908 6.39265 43.1751ZM3.51018 43.9183C3.86669 44.1683 4.27427 44.3218 4.64817 44.5404C5.62964 45.1446 6.12418 46.2958 6.51221 47.3584C5.81224 47.2351 5.12858 47.0042 4.45253 46.7767C4.36666 45.6894 3.37758 45.0403 2.55914 44.5045C2.8613 44.2826 3.17976 44.0887 3.51018 43.9183ZM2.16568 44.8173C2.845 45.3105 3.71343 45.7365 3.95799 46.6287C2.9613 46.372 1.82439 46.0716 0.811401 46.3776C1.18638 45.7891 1.64397 45.2634 2.16568 44.8173ZM0.739666 46.9359C1.71897 46.5088 2.88739 46.8551 3.8819 47.1141C3.40367 47.6499 2.72652 48.0097 2.04721 48.1857C1.65049 47.7261 1.22986 47.2923 0.739666 46.9359ZM2.96564 49.2921C2.77435 49.0634 2.58631 48.8325 2.39719 48.6016C3.15694 48.3673 3.89821 47.9088 4.38297 47.2755C4.63295 47.3584 4.88403 47.4436 5.13836 47.5232C4.62317 48.3292 3.86125 48.9984 2.96564 49.2921ZM3.3091 49.6911C4.27101 49.3156 5.0851 48.5556 5.62312 47.66C5.90898 47.7373 6.19809 47.8023 6.4883 47.8561C5.74703 48.8224 4.79164 49.6026 3.69061 50.0913C3.55583 49.9601 3.42866 49.8256 3.3091 49.6911ZM4.07755 50.4455C5.25031 49.8738 6.24483 49.0174 7.02414 47.9413C8.2306 48.105 9.45663 48.0781 10.6609 47.8808C10.3827 48.6475 10.2914 49.4725 10.0273 50.2482C9.78596 50.1754 9.58271 49.9938 9.38054 49.8458C8.71645 49.3178 7.70237 49.1945 7.05675 49.8189C6.65242 50.2023 6.56003 50.7773 6.68068 51.3008C5.73399 51.5373 4.82751 51.08 4.07755 50.4455ZM4.78186 51.5025C5.42857 51.8243 6.13723 51.9689 6.84263 51.7716C7.11218 52.3668 7.59368 52.8891 7.75345 53.5348C6.8861 54.1737 5.86441 54.6075 4.80034 54.7163C3.90255 54.8082 2.99825 54.7768 2.1722 55.1321C2.64283 53.6727 3.55583 52.3914 4.78186 51.5025ZM2.27329 55.6265C3.09172 55.2375 4.00798 55.298 4.89924 55.1983C4.78186 55.6377 4.58839 56.0491 4.32971 56.401C3.61235 56.2609 2.91565 56.0031 2.27329 55.6265ZM6.01984 56.5109C5.63182 56.5367 5.24162 56.5277 4.85577 56.484C5.11336 56.0681 5.32857 55.6085 5.409 55.1176C5.76768 55.0458 6.11984 54.9427 6.46221 54.8082C6.44482 55.3978 6.32635 56.0042 6.01984 56.5109ZM6.59807 56.447C6.85023 55.8686 6.95566 55.2319 6.93827 54.6008C7.25239 54.4484 7.55564 54.2724 7.84258 54.0729C7.8991 54.7174 7.77954 55.437 7.95344 56.0838C7.51216 56.2542 7.05783 56.3753 6.59807 56.447ZM8.84361 56.9671C8.12191 55.9997 8.43929 54.7914 8.29256 53.6794C8.17952 53.11 7.90127 52.628 7.6002 52.1448C10.7022 53.6334 7.90018 56.2161 10.1207 58.0533C9.60445 57.8291 9.15664 57.4469 8.84361 56.9671ZM11.6261 58.3246C11.4891 58.3122 11.3565 58.3021 11.2261 58.2921C10.6283 57.8818 9.95986 57.3953 9.7164 56.6678C9.48271 55.8473 9.81531 54.9875 9.65771 54.1513C9.38163 51.5294 7.14152 52.1874 7.11544 50.7347C7.17631 49.968 8.06974 49.7416 8.66319 49.9915C9.13056 50.1754 9.45663 50.5767 9.92508 50.7213C9.65553 52.3668 10.5522 53.8812 11.3902 55.2028C11.4663 56.864 12.5554 58.3683 13.9064 59.228C13.0195 59.5352 12.4793 58.3627 11.6261 58.3246ZM12.6402 60.5855C13.5901 60.7267 14.6694 60.0418 15.5639 60.5541C15.0759 61.1448 14.4325 61.5719 13.7749 61.9844C13.4521 61.9418 13.1336 61.8219 12.8054 61.8544C12.5587 61.8779 12.3174 61.9844 12.075 62.0192C12.1782 61.5181 12.3565 61.0148 12.6402 60.5855ZM11.9674 62.5057C12.3706 62.5427 12.7608 62.2523 13.1673 62.3689C12.6673 62.6929 12.1913 63.0437 11.8011 63.4842C11.8522 63.158 11.9043 62.8307 11.9674 62.5057ZM12.7652 63.7533C12.538 63.779 12.313 63.8194 12.0978 63.8844C12.5326 63.3609 13.1021 62.963 13.6771 62.5976C13.7532 62.7691 13.8314 62.9406 13.9053 63.1132C13.9445 63.2119 14.0412 63.4629 14.0064 63.621C13.5977 63.686 13.1847 63.7062 12.7652 63.7533ZM14.4879 63.5212C14.477 63.1009 14.2499 62.7175 14.089 62.3398C14.2118 62.2624 14.3336 62.184 14.4553 62.1044C14.5379 62.2243 14.6096 62.3498 14.6629 62.4866C14.7238 62.6402 14.789 62.8733 14.814 63.0594C14.8238 63.0964 14.8292 63.3139 14.8357 63.408C14.7216 63.4506 14.6064 63.4943 14.4879 63.5212ZM14.8574 61.8286C15.1998 61.5831 15.5248 61.3141 15.8085 61.0047C16.0193 61.5338 16.1965 62.1414 16.1465 62.7119C15.8813 62.9047 15.5998 63.0717 15.3042 63.2118C15.277 62.7209 15.1237 62.2378 14.8574 61.8286ZM15.3976 63.7073C16.3769 63.2668 17.228 62.555 17.841 61.6515C17.9019 61.7703 17.9682 61.8858 18.0399 61.9979C17.6801 63.5403 16.0878 64.2375 15.2824 65.4795C15.1531 64.8933 15.19 64.2846 15.3976 63.7073ZM15.6955 65.7317C16.4987 64.576 17.9062 63.8721 18.4018 62.481C18.541 62.6402 18.691 62.787 18.8529 62.9193C18.3268 64.3182 17.1008 65.3753 15.6955 65.7317ZM19.5105 62.7837C18.754 62.3409 18.2171 61.5327 17.9736 60.6707C21.0278 61.2368 24.4733 61.1796 26.8775 58.8817C27.7351 58.1295 28.2361 57.2317 27.5275 56.1556C27.572 56.1219 27.6166 56.0883 27.6601 56.0524C28.0677 56.4952 28.3894 57.0478 28.4437 57.6655C28.5003 58.3033 28.1351 58.8772 28.2014 59.515C28.6013 60.5978 27.7525 61.5372 26.8677 62.0001C26.1221 62.3902 25.2885 62.4261 24.5015 62.1571C23.6592 61.8185 22.7332 61.6112 21.8484 61.9205C21.418 62.0573 21.0626 62.3028 20.6778 62.5359C20.3833 62.7142 19.8398 63.0112 19.5105 62.7837ZM21.7756 62.4676C22.8473 61.9564 23.9135 62.5158 24.958 62.787C26.2743 63.0022 27.6199 62.407 28.4014 61.2771C27.9807 63.4416 25.7265 63.9214 23.9961 63.0471C22.8886 62.6032 21.7539 63.1502 20.6278 63.1244C21.0419 62.9025 21.4419 62.6021 21.7756 62.4676ZM27.0623 63.6871C27.0873 64.2936 26.9732 64.8787 26.7634 65.4313C25.5613 64.5547 24.0016 64.3944 22.5658 64.5155C21.9593 64.5704 21.2963 64.8238 20.7028 64.6108C20.7256 64.2734 20.7919 63.9393 20.9115 63.6098C21.0778 63.6042 21.2441 63.5896 21.4126 63.5661C22.1767 63.4585 22.9516 63.2219 23.7146 63.4663C24.7657 63.9461 25.9689 64.2016 27.0623 63.6871ZM20.6963 65.1287C21.2006 65.2643 21.7136 65.1242 22.2245 65.0491C23.6907 64.8697 25.3417 64.9482 26.5645 65.8954C26.2417 66.559 25.7928 67.1699 25.3015 67.7113C24.9026 67.2865 24.1059 67.2248 23.6016 67.1777C22.7625 67.0398 21.8962 67.2203 21.0713 67.0354C20.8822 66.4144 20.7267 65.771 20.6963 65.1287ZM21.6854 68.9768C21.5571 68.5072 21.4006 68.0431 21.2474 67.5824C22.281 67.6687 23.3592 67.5364 24.3831 67.7965C24.582 67.848 24.8146 67.9164 24.9613 68.0722C24.6602 68.3805 24.3396 68.654 23.9961 68.9219C23.3364 68.3783 22.3745 68.5991 21.6854 68.9768ZM21.806 69.4622C22.3658 69.1876 23.0179 68.9174 23.6016 69.2279C23.0114 69.6819 22.4201 70.1426 21.9756 70.7255C21.9625 70.2995 21.8995 69.8792 21.806 69.4622ZM22.3593 71.0293C22.6734 70.6212 23.0636 70.2771 23.4701 69.9565C23.6288 69.831 23.7874 69.7077 23.9461 69.5844C24.1559 69.8063 24.3005 70.0922 24.3646 70.3948C23.6831 70.5697 23.0038 70.7524 22.3593 71.0293ZM24.8233 70.2749C24.7385 69.9061 24.5722 69.562 24.3255 69.2806C24.6559 69.0138 24.9776 68.7358 25.2809 68.4321C25.5461 68.9488 25.4287 69.5373 25.4656 70.0944C25.2526 70.1583 25.0385 70.2188 24.8233 70.2749ZM27.3438 69.2537C26.9134 69.5508 26.4254 69.7727 25.9406 69.9431C25.9221 69.3232 26.0058 68.6047 25.6232 68.079C26.1112 67.5398 26.5634 66.9322 26.9079 66.2743C27.3557 67.1912 27.3688 68.2538 27.3438 69.2537ZM27.1438 65.771C27.209 65.614 27.2688 65.4548 27.3199 65.2934C27.2742 65.5983 27.3134 65.9021 27.4014 66.1812C27.3318 66.0321 27.246 65.8942 27.1438 65.771ZM27.834 68.8524C27.8307 68.0554 27.7623 67.2764 27.5286 66.5074C27.7623 67.004 28.1188 67.4456 28.5242 67.8043C28.3731 68.2157 28.1318 68.5621 27.834 68.8524ZM27.7894 65.7597C28.2753 66.7596 29.16 67.5499 30.2023 67.8783C30.2089 67.9926 30.2339 68.1036 30.2513 68.2123C29.4285 67.9736 28.6905 67.4512 28.2024 66.7181C28.0166 66.4301 27.8253 66.1106 27.7894 65.7597ZM29.7698 71.9832C29.4546 70.8791 28.3927 69.9509 28.6013 68.7145C28.7231 68.5318 28.8307 68.3345 28.922 68.1159C29.3122 68.3861 29.7458 68.5867 30.2045 68.7078C29.9969 69.2672 30.3089 69.8702 30.2643 70.4497C30.2404 70.9979 30.0654 71.5314 29.7698 71.9832ZM30.211 67.3627C29.0144 66.93 28.109 65.8158 27.8992 64.5233C27.8677 64.1725 27.7025 63.8441 27.646 63.4977C27.6416 63.4517 27.6264 63.4147 27.6057 63.3822C28.5176 62.7298 29.0046 61.6246 28.8905 60.5126C29.5143 61.3522 29.1122 62.3611 29.0404 63.2948C29.0122 64.3205 29.9643 65.0087 30.8893 65.0311C30.6773 65.4974 30.5371 65.9907 30.3839 66.4794C30.3023 66.754 30.2382 67.0578 30.211 67.3627ZM30.5099 71.583C30.7328 71.0012 30.798 70.3567 30.6958 69.7391C30.6588 69.5115 30.548 69.182 30.6262 68.9387C30.9197 69.2907 31.461 69.3378 31.8251 69.5933C31.4751 70.322 31.0338 70.9878 30.5099 71.583ZM34.2902 71.0035C33.5631 70.5977 32.95 70.0283 32.3762 69.4207C33.4794 69.8287 34.1913 71.2086 35.4901 71.0674C35.1347 71.3252 34.6858 71.2277 34.2902 71.0035ZM36.1249 70.1863C35.8934 70.6033 35.3434 70.6481 34.9358 70.5204C33.9011 70.1594 33.2794 68.9936 32.1403 68.8591C31.8631 68.8177 31.3566 68.8266 31.0306 68.6529C30.2067 67.7785 30.9197 66.439 31.2219 65.4705C31.3925 64.9303 31.9381 64.8372 32.4153 64.7318C32.4794 66.2642 34.5913 66.9838 35.8314 67.1419C35.9738 67.579 36.1955 67.9377 36.4836 68.2875C36.6901 68.5374 36.5553 68.7 36.4357 68.9544C36.2434 69.3445 36.3401 69.803 36.1249 70.1863ZM36.5031 70.5091C36.5727 70.3836 36.6303 70.2468 36.6705 70.1146C37.0477 70.1348 37.3694 70.3769 37.6933 70.5663C38.1617 70.8454 38.6976 70.99 39.2389 70.9205C38.3769 71.4193 37.1585 71.314 36.5031 70.5091ZM42.5333 67.5712C42.3061 67.987 41.8713 68.1395 41.5083 68.3962C41.0257 68.728 40.816 69.2683 40.4931 69.7424C40.0377 70.2771 39.3182 70.5417 38.6356 70.4161C37.9628 70.2928 37.4422 69.6886 36.7662 69.6236C36.7716 69.3523 36.9009 69.1282 37.0053 68.8972C37.9411 69.2537 39.09 68.9869 39.6475 68.1014C39.8638 67.7662 39.9323 67.3571 40.2649 67.1082C40.7627 66.6251 41.4127 66.1666 41.6116 65.4728C42.0442 65.5725 42.5876 65.7418 42.7039 66.1745C42.818 66.6027 42.743 67.1878 42.5333 67.5712ZM42.6474 65.3495C42.355 65.1645 41.9887 65.0569 41.6648 64.9818C41.6333 64.3238 41.1714 63.7566 40.5562 63.5717C40.5345 63.5201 40.5084 63.4719 40.4801 63.4248C40.7997 63.037 40.9257 62.4788 40.7518 61.9923C41.0855 61.9912 41.4029 61.8466 41.6659 61.5786C41.7703 61.4722 41.8572 61.3702 42.0116 61.3556C42.38 61.3746 42.8474 61.5551 43.0278 61.9093C43.1398 62.1884 42.9474 62.5326 42.9115 62.815C42.8702 63.1367 42.9474 63.4473 43.0235 63.7578C43.1669 64.3518 43.0865 64.9157 42.6474 65.3495ZM44.1169 64.993C43.9832 65.3069 44.006 65.632 44.0201 65.966C44.0908 66.7518 43.7126 67.7001 42.9072 67.8727C43.2506 67.2371 43.381 66.3303 43.0039 65.6813C43.443 65.2385 43.6517 64.6018 43.5571 63.9741C43.455 63.4887 43.2745 62.991 43.4637 62.5012C44.0169 62.3263 44.5929 62.6884 44.7234 63.269C44.9103 63.9438 44.4071 64.4538 44.1169 64.993ZM44.6897 62.3151C44.5799 62.2221 44.4593 62.1447 44.3299 62.0876C44.5299 61.7423 44.6462 61.3455 44.7125 60.9352C44.856 60.8938 44.9994 60.8523 45.1407 60.8041C45.5168 61.0664 45.9527 61.2547 46.3983 61.3713C45.8983 61.7939 45.3299 62.1245 44.6897 62.3151ZM46.9722 69.3423C46.3396 69.0844 45.7548 68.626 45.4516 67.9893C45.0777 67.2046 45.3636 66.3594 45.6755 65.6062C46.2363 64.1321 47.5732 62.7231 49.2297 63.0067C48.7069 63.9931 46.4679 64.418 47.0591 65.7496C47.1863 66.0063 47.4472 66.2003 47.3298 66.5096C46.6211 67.9041 48.121 67.3974 48.1069 68.3783C47.6428 68.5453 47.1798 68.8457 46.9722 69.3423ZM52.936 67.5588C52.7089 68.033 52.3284 68.4175 51.973 68.7907C50.7818 70.183 49.209 71.3151 47.5602 69.8904C47.4341 69.7592 47.3678 69.6662 47.4385 69.4925C47.7569 68.8401 48.571 68.7896 49.1503 68.5105C49.6351 68.2011 50.1785 68.2527 50.722 68.2359C51.2035 68.1787 51.5872 67.9018 51.8774 67.5118C52.2154 67.1172 52.3078 66.5578 52.6447 66.1711C52.6991 66.1252 52.798 66.0501 52.873 66.0949C53.1577 66.5197 53.1784 67.1004 52.936 67.5588ZM55.7717 55.9482C55.2033 56.1275 54.6294 56.2968 54.0544 56.4504C53.2784 59.8446 53.4023 59.756 52.6317 56.4448C50.1688 55.7386 50.222 55.8294 52.6317 55.1299C53.4327 51.8119 53.3012 51.7402 54.0566 55.1333C54.6283 55.3048 55.1968 55.4886 55.7685 55.6534C55.913 55.6926 55.913 55.9022 55.7717 55.9482ZM68.1581 44.4193C70.0906 43.3791 71.7079 45.9707 69.8537 47.2665C68.0309 48.3337 66.3593 45.6199 68.1581 44.4193ZM64.3028 47.6779C64.7974 46.4583 66.581 47.2396 66.0843 48.4525C65.5919 49.6732 63.8029 48.893 64.3028 47.6779ZM65.518 59.617C65.3724 59.9623 65.1919 60.2929 64.9887 60.6079C65.03 60.3445 65.0898 60.0833 65.1691 59.8277C65.2843 59.756 65.4006 59.6854 65.518 59.617ZM62.2845 55.6926C62.2845 55.6892 62.2877 55.6892 62.2877 55.6892C62.5431 55.2218 63.2149 55.1176 63.579 55.5088C64.0268 55.9538 63.7822 56.7878 63.1953 56.9469C63.1953 56.9469 63.1953 56.9469 63.192 56.9469C62.691 57.1005 62.153 56.6723 62.1682 56.1343C62.1703 55.9829 62.2225 55.8226 62.2845 55.6926ZM62.3008 62.194C62.9931 61.4643 63.7518 60.803 64.5702 60.229C64.4333 60.8904 64.4137 61.5697 64.5018 62.2434C64.1692 62.6402 63.8409 63.0426 63.5181 63.4506C63.1333 63.9382 62.7171 64.437 62.2693 64.9078C62.1388 64.0156 61.9845 63.0684 62.3008 62.194ZM61.29 63.3621C61.4128 63.2141 61.5345 63.0672 61.6573 62.9204C61.603 63.4753 61.6432 64.0268 61.7443 64.5715C61.7899 64.8271 61.853 65.1174 61.7747 65.3741C61.3291 65.8528 60.7813 66.2361 60.2324 66.5578C60.2585 66.439 60.2802 66.3191 60.315 66.1992C60.4183 65.836 60.6704 65.5972 60.8585 65.2845C61.2019 64.7117 61.2573 64.0212 61.29 63.3621ZM60.7661 63.9718C60.7182 64.4718 60.5509 64.9504 60.2378 65.3383C60.2063 65.0961 60.1248 64.8462 60.1509 64.5973C60.3672 64.4 60.5704 64.1904 60.7661 63.9718ZM56.5141 66.4491C56.4989 66.5096 56.4793 66.5702 56.4684 66.6329C56.4358 66.8201 56.4239 67.0085 56.4217 67.1979C55.9456 67.1923 55.4739 67.2147 55.0163 67.329C55.4587 66.9547 55.9815 66.6767 56.5141 66.4491ZM54.9913 67.8424C55.6957 67.6227 56.4554 67.6765 57.201 67.7079C57.2315 67.7617 57.2641 67.8133 57.3021 67.8626C56.5315 67.8738 55.7609 67.8581 54.9913 67.8424ZM57.3206 67.2226C57.1804 67.2192 57.0391 67.2136 56.8989 67.2091C56.8858 66.8706 56.9619 66.5343 57.0826 66.2216C57.2793 66.1465 57.476 66.0714 57.6727 65.9951C57.476 66.3785 57.4804 66.8302 57.3206 67.2226ZM59.6889 64.9751C60.0911 66.791 59.5357 67.1833 57.8282 67.227C58.1118 65.5647 58.477 65.7799 59.6889 64.9751ZM58.0271 67.8424C57.9662 67.8021 57.8988 67.7685 57.8412 67.7214C58.5575 67.7214 59.2564 67.5566 59.902 67.2719C60.1465 67.366 60.3943 67.4479 60.6454 67.5118C59.7879 67.7169 58.9064 67.8088 58.0271 67.8424ZM61.6878 67.1979C61.2867 67.1598 60.8932 67.078 60.5085 66.9614C62.6486 65.6398 61.4704 65.5165 64.2105 65.7351C63.4507 66.3527 62.6018 66.8639 61.6878 67.1979ZM64.9028 65.1118C64.6648 65.2228 64.3985 65.2531 64.1311 65.2497C64.4637 65.039 64.8224 64.8551 65.2093 64.7946C65.1082 64.9022 65.0072 65.0087 64.9028 65.1118ZM65.7441 64.186C65.6267 64.2498 65.4778 64.2633 65.3495 64.2745C64.6007 64.3328 63.9518 64.7643 63.3485 65.1892C63.1409 65.1679 62.9236 65.1488 62.7073 65.1477C63.0007 64.8383 63.2822 64.5155 63.5572 64.1871C64.5909 64.2162 65.4604 63.5111 66.4245 63.2657C66.2136 63.5851 65.9843 63.8911 65.7441 64.186ZM66.7179 62.8061C66.4723 62.75 66.2201 62.7691 65.9875 62.8789C65.3256 63.1379 64.6974 63.5134 63.9974 63.6535C64.2713 63.315 64.542 62.9753 64.8148 62.6368C65.5821 62.7041 66.3277 62.4081 67.0592 62.2019C66.9505 62.4059 66.8375 62.6077 66.7179 62.8061ZM67.369 61.5786C66.6669 61.8275 65.9452 62.045 65.2093 62.1526C65.4343 61.8813 65.6615 61.6134 65.8952 61.3533C65.9734 61.267 66.0538 61.183 66.1321 61.0966C66.6625 61.0014 67.1788 60.757 67.7222 60.7469C67.6146 61.0294 67.4962 61.3063 67.369 61.5786ZM68.32 58.922C68.1646 59.3682 68.0581 59.83 67.8951 60.2739C67.5092 60.2178 67.1277 60.331 66.756 60.4297C67.2712 59.8916 67.8016 59.3682 68.345 58.8581C68.3363 58.8806 68.3276 58.9007 68.32 58.922ZM67.9233 58.5857C66.8701 59.5834 65.8778 60.6382 64.9311 61.7378C64.9267 61.6661 64.9246 61.5955 64.9235 61.5237C65.4484 60.8534 65.8962 60.1001 66.1549 59.2774C66.7256 58.987 67.3125 58.7741 67.9233 58.5857ZM67.8157 52.9911C67.0288 52.7838 66.6397 51.7234 67.0418 51.0138C67.3701 50.45 68.119 50.228 68.6733 50.5744C69.9319 51.3871 69.32 53.3129 67.8157 52.9911Z" fill="#09584B"/>
</svg>
