<svg width="128" height="123" viewBox="0 0 128 123" fill="none" xmlns="http://www.w3.org/2000/svg">
<path d="M127.609 50.4329C127.331 49.7245 126.975 49.0475 126.638 48.3664C126.271 47.6268 125.952 46.8789 125.653 46.1103C125.392 45.4416 124.922 44.889 124.446 44.365C123.928 43.7961 123.419 43.2305 122.961 42.611C121.049 40.0266 119.818 36.9877 119.125 33.858C118.948 33.0624 118.842 32.2655 118.73 31.4595C118.62 30.6711 118.364 29.9274 118.156 29.1622C117.741 27.6397 117.41 26.0947 116.955 24.5833C116.508 23.0966 115.93 21.6362 115.076 20.334C114.245 19.0679 113.163 18.0006 111.977 17.0709C110.79 16.141 109.513 15.336 108.246 14.5214C106.823 13.6058 105.4 12.6902 103.976 11.7746C103.28 11.3265 102.583 10.8784 101.887 10.4304C101.685 10.3009 101.511 10.6297 101.711 10.7584C104.46 12.5264 107.238 14.2551 109.954 16.0735C111.168 16.8869 112.354 17.7612 113.376 18.8128C114.47 19.937 115.304 21.2657 115.905 22.7136C116.494 24.134 116.879 25.6276 117.25 27.1168C117.438 27.8681 117.622 28.6204 117.827 29.3671C118.026 30.0931 118.256 30.7961 118.366 31.5412C117.74 31.2296 117.062 31.0103 116.397 30.8082C115.325 30.4825 114.235 30.2175 113.14 29.9839C110.7 29.463 108.206 29.0732 105.711 28.9738C104.719 28.9343 103.714 28.9377 102.732 29.1018C101.949 29.2329 100.946 29.5269 100.577 30.3175C100.203 31.1201 100.979 31.7384 101.675 31.9158C102.145 32.0356 102.633 32.0991 103.11 32.185C103.624 32.2778 104.139 32.3706 104.654 32.4633C106.743 32.8398 108.832 33.2163 110.92 33.5929C111.376 33.675 111.841 33.7371 112.292 33.8429C112.693 33.9371 112.992 34.1575 112.983 34.6037C112.963 35.6321 111.673 35.8171 110.89 35.9181C108.979 36.1649 107.054 35.8561 105.186 35.4519C104.725 35.352 104.265 35.2457 103.805 35.1388C103.613 35.0943 103.516 35.323 103.635 35.4562C104.661 36.602 106.011 37.0312 107.445 37.2694C107.228 37.3469 107.011 37.4247 106.792 37.496C106.131 37.7111 105.498 37.8065 104.804 37.748C104.211 37.6982 103.584 37.6362 103.076 38.0079C102.943 38.1048 102.975 38.2971 103.131 38.3465C106.168 39.3107 109.499 39.2367 112.491 38.1398C112.676 38.0722 112.65 37.8449 112.481 37.7805C111.479 37.3982 110.426 37.2609 109.37 37.1411C109.689 37.0979 110.01 37.0745 110.333 37.0651C111.576 37.0292 112.814 37.1884 114.057 37.1778C115.026 37.1695 116.021 37.0321 116.966 36.812C117.167 36.7649 117.346 36.6834 117.538 36.6061C117.797 36.5015 118.063 36.4123 118.32 36.3026C118.668 36.1545 118.987 35.966 119.207 35.6761C119.687 37.3456 120.338 38.9648 121.171 40.4921C121.887 41.803 122.74 43.0513 123.747 44.1542C124.24 44.6931 124.769 45.2178 125.128 45.8609C125.309 46.1849 125.41 46.5455 125.549 46.8882C125.702 47.2623 125.87 47.6298 126.044 47.9939C126.385 48.7041 126.757 49.3995 127.077 50.1194C127.365 50.7674 127.619 51.4601 127.628 52.178C127.632 52.5247 127.588 52.9074 127.419 53.2161C127.179 53.6548 126.788 53.6366 126.347 53.5786C125.625 53.4838 124.9 53.4144 124.18 53.3038C123.468 53.1944 122.758 53.0423 122.082 52.786C121.412 52.5316 120.756 52.2426 120.078 52.0086C119.405 51.7766 118.715 51.5866 118.008 51.4981C117.418 51.4242 116.774 51.3764 116.217 51.6273C115.726 51.8482 115.411 52.3238 115.5 52.8707C115.582 53.3803 115.967 53.8318 116.435 54.0346C117.748 54.6037 119.046 53.5637 120.368 53.6735C121.012 53.727 121.543 54.0896 121.705 54.7323C121.864 55.3598 121.683 56.0235 121.613 56.6516C121.57 57.041 121.566 57.4253 121.632 57.8008C120.242 58.2122 118.873 58.6918 117.531 59.2418C116.48 59.6729 115.45 60.1547 114.406 60.6033C114.068 60.7486 113.655 60.9082 113.417 61.205C113.176 61.5045 113.345 61.8703 113.527 62.153C113.749 62.4987 114.041 62.7876 114.287 63.1138C114.717 63.6825 115.131 64.2628 115.563 64.8302C116.544 66.1197 117.557 67.3833 118.601 68.6224C118.754 68.805 119.006 68.5311 118.853 68.3498C117.967 67.2965 117.102 66.2245 116.262 65.134C115.567 64.2329 114.917 63.2956 114.191 62.4204C114.055 62.2573 113.923 62.0896 113.812 61.9085C113.794 61.8796 113.772 61.845 113.75 61.8077C115.037 62.0598 116.315 62.3776 117.55 62.8204C118.238 63.0672 118.916 63.3564 119.552 63.7205C120.107 64.0385 120.785 64.4161 121.024 65.0469C121.369 65.96 120.78 67.0802 120.144 67.7242C119.482 68.3939 118.535 68.6874 118.012 69.5104C117.293 70.6415 117.179 72.2646 117.355 73.5586C117.517 74.7541 118.115 75.8188 118.311 77.0025C118.385 77.4483 118.393 77.9377 118.163 78.3415C117.881 78.8356 117.312 79.0681 116.788 79.2007C115.489 79.5294 114.162 79.1625 112.981 78.6056C111.833 78.0644 110.782 77.3485 109.699 76.6925C108.375 75.8902 106.98 75.1933 105.574 74.5462C105.215 74.3809 104.854 74.2201 104.491 74.0632C104.984 73.341 105.459 72.6071 105.888 71.8455C107.263 69.4042 107.871 66.7529 107.109 64.012C106.065 60.2573 103.353 57.2957 100.266 54.891C100.353 54.6189 100.411 54.3317 100.436 54.0321C100.661 51.3033 98.812 48.6634 96.5882 47.2751C94.2411 45.8099 91.3678 45.6787 88.8878 46.8916C88.6834 46.9916 88.4865 47.1017 88.2934 47.2163C87.5853 46.7619 86.8812 46.2999 86.1808 45.8305C85.9575 44.9174 85.7793 43.9935 85.6347 43.073C85.0936 39.6296 84.7821 36.0749 84.9008 32.5876C84.9272 31.8085 84.9667 31.0236 84.8015 30.2558C84.6218 29.4207 84.3442 28.6123 84.1901 27.7694C83.8873 26.1133 83.7224 24.4129 83.5744 22.7366C83.2822 19.4274 83.254 16.063 83.8949 12.791C84.1698 11.3874 84.6409 9.81679 85.9765 9.07921C87.4299 8.2765 89.2859 8.6833 90.7851 9.13128C96.6276 10.8769 100.967 15.6905 106.797 17.4851C108.143 17.8993 109.54 18.1258 110.949 18.1015C111.188 18.0973 111.179 17.725 110.94 17.7291C104.243 17.8449 99.2419 12.4984 93.548 9.80938C92.1123 9.13137 90.5747 8.56242 88.9962 8.34361C87.4974 8.13583 85.8703 8.32753 84.8306 9.54419C83.8557 10.6848 83.5784 12.2845 83.3566 13.7223C83.0926 15.4346 82.992 17.1695 83.0065 18.9012C83.0211 20.6437 83.1506 22.3834 83.3388 24.1151C83.5262 25.8398 83.708 27.582 84.1506 29.2625C84.2678 29.7078 84.4186 30.1488 84.4892 30.6047C84.56 31.0619 84.5621 31.526 84.5503 31.9875C84.5269 32.9117 84.5058 33.8322 84.5257 34.7569C84.5658 36.6181 84.7029 38.4764 84.9049 40.3267C85.0943 42.0611 85.3352 43.8149 85.7274 45.5272C85.7037 45.5111 85.6797 45.4954 85.6559 45.4793C82.4763 43.3212 79.3278 41.1107 76.0315 39.1329C74.4425 38.1795 72.8208 37.2759 71.1511 36.4723C69.699 35.7735 68.1187 35.338 66.7098 34.551C65.1613 33.686 63.9571 32.219 63.3333 30.5568C63.3097 30.4938 63.2871 30.4297 63.2648 30.3652C63.2868 30.3555 63.3088 30.3443 63.33 30.3236C64.6926 28.9935 65.9696 27.5809 67.1564 26.0964C67.9478 25.4776 68.7342 24.8504 69.5074 24.2076C69.6792 24.1617 69.8509 24.1157 70.0225 24.0694C70.9329 23.8236 71.8752 23.594 72.7283 23.1818C74.1801 22.4802 75.5455 21.5117 76.7854 20.4867C81.0154 16.9899 86.4752 9.89312 82.0143 4.5842C78.1966 0.0408245 71.2605 -1.04173 65.9034 0.965874C64.1358 1.62829 62.4542 2.52013 60.7667 3.36075C59.0569 4.21252 57.3522 5.07495 55.6531 5.94808C52.2133 7.71562 48.7959 9.52689 45.4019 11.3813C43.7663 12.275 42.1363 13.1793 40.5114 14.0924C40.2587 14.2343 40.43 14.6572 40.6848 14.514C47.1034 10.9069 53.6062 7.45141 60.1898 4.15695C63.2002 2.65051 66.2515 0.888843 69.6521 0.514105C72.6114 0.187952 75.6572 0.78074 78.2784 2.19796C80.9992 3.66901 83.5386 6.22956 83.2475 9.56225C82.9664 12.7809 80.7638 15.8418 78.6317 18.1273C76.6454 20.2567 74.0886 22.3636 71.2738 23.2424C70.9584 23.3409 70.64 23.4325 70.3204 23.521C71.9557 22.1161 73.5138 20.6257 74.902 18.9703C76.2028 17.4193 77.3381 15.7218 78.1911 13.8812C78.846 12.4682 79.4122 10.8292 78.9431 9.27215C78.4932 7.7787 77.117 6.81884 75.6599 6.46212C73.9865 6.05243 72.2619 6.50325 70.727 7.19468C68.9652 7.98833 67.2979 9.03431 65.6601 10.0545C63.872 11.1683 62.1228 12.3436 60.3972 13.5522C56.943 15.9716 53.532 18.4727 50.1986 21.0573C46.9126 23.6051 43.7404 26.328 41.0023 29.4719C35.7787 35.4696 32.2043 42.6616 28.6621 49.7274C25.1048 56.8235 21.4935 64.0462 16.1545 69.9944C15.4925 70.732 14.8051 71.4457 14.0936 72.1353C13.8854 72.3371 14.1592 72.7017 14.3692 72.4981C19.8623 67.174 23.688 60.4872 27.1498 53.7275C30.675 46.8438 33.9009 39.7393 38.4409 33.4446C40.7795 30.2023 43.4854 27.2918 46.497 24.6699C49.5977 21.9704 52.9233 19.5429 56.2334 17.1118C59.5383 14.6847 62.8777 12.2966 66.3712 10.1477C67.997 9.14765 69.6557 8.10049 71.4329 7.38928C73.0519 6.74134 74.8503 6.47381 76.4837 7.22586C78.1074 7.97344 78.8787 9.52345 78.5916 11.2772C78.2902 13.1179 77.259 14.8963 76.2436 16.4257C74.3604 19.2624 71.8895 21.6293 69.2834 23.7998C69.1174 23.8436 68.9515 23.8875 68.7856 23.9317C69.8331 22.4506 70.7949 20.9075 71.6612 19.3078C72.2172 18.281 72.7384 17.233 73.2092 16.164C73.5241 15.4491 73.807 14.678 73.8044 13.8858C73.8019 13.1161 73.4728 12.392 72.8147 11.9683C72.0514 11.4768 71.0672 11.4728 70.1974 11.5776C66.0562 12.0763 62.0109 13.9394 59.2999 17.1602C57.887 18.8389 56.804 20.7509 55.8908 22.7538C52.5067 24.4698 50.0709 28.2299 47.9633 31.2088C41.4314 40.4412 35.8158 50.3851 31.757 60.9643C29.7694 66.1452 28.1639 71.4777 27.0312 76.9129C26.455 79.6785 26.0019 82.4703 25.6847 85.2778C25.3616 88.1374 25.2895 91.0088 25.0375 93.8729C24.7638 96.9854 23.9277 99.7917 22.4539 102.545C20.9562 105.342 19.2962 108.09 17.4665 110.682C14.1111 115.434 9.7844 119.746 4.18467 121.671C2.88872 122.117 1.55249 122.406 0.19029 122.547C-0.101292 122.577 -0.0395037 123.029 0.251401 122.999C5.4986 122.457 10.1704 119.582 13.8047 115.858C15.9927 113.615 17.8428 111.067 19.5188 108.424C21.1376 105.872 22.7905 103.231 23.9794 100.443C25.1062 97.8012 25.4469 95.0032 25.6145 92.1573C25.7827 89.3028 25.9697 86.4606 26.346 83.6243C27.092 78.0016 28.3761 72.457 30.0987 67.0561C33.5646 56.1893 38.7643 45.9267 44.9852 36.3961C46.5174 34.0488 48.1135 31.7434 49.7662 29.48C51.3983 27.2449 53.1418 24.8459 55.5834 23.4462C54.7585 25.3502 54.0679 27.3202 53.3835 29.2404C51.1296 35.5647 49.2278 42.0248 47.8102 48.5906C46.445 52.2506 45.2959 55.9909 44.3702 59.7869C43.827 62.0142 43.3615 64.2606 42.9753 66.5206C42.5864 68.7962 42.2976 71.0898 41.8297 73.3514C41.3524 75.6581 40.6425 77.8829 39.5873 79.9914C38.5286 82.1071 37.2109 84.0791 35.8539 86.0112C35.5141 86.4951 35.1712 86.9769 34.8282 87.4586C34.6585 87.6969 35.0194 87.9741 35.1899 87.7348C37.862 83.982 40.4978 80.1624 41.7408 75.6639C42.3453 73.4762 42.6923 71.2302 43.039 68.9901C43.3846 66.7579 43.7711 64.5346 44.2494 62.3267C45.0216 58.7619 45.9974 55.2423 47.1607 51.7861C46.9797 52.7366 46.8074 53.6889 46.6479 54.6435C45.9229 58.9817 45.4268 63.3595 45.1981 67.7527C44.9857 71.8322 44.9977 75.9187 44.9566 80.0023C44.8758 88.0315 44.6264 96.2618 41.9203 103.907C41.5954 104.825 41.2348 105.73 40.8421 106.62C40.7238 106.889 41.1456 107.059 41.264 106.79C44.3949 99.6882 45.1377 91.878 45.3383 84.1972C45.4409 80.2655 45.411 76.3318 45.4909 72.3998C45.5748 68.2718 45.8268 64.1548 46.3252 60.0554C46.7871 56.2557 47.435 52.4823 48.2406 48.7425C49.747 44.7075 51.5137 40.7702 53.5348 36.9683C55.4694 33.3293 58.0764 29.1421 62.4886 28.446C62.4785 28.8385 62.5216 29.2367 62.597 29.6238C62.6129 29.7052 62.6345 29.7836 62.653 29.8638C61.7213 30.6216 61.2692 31.5774 60.7265 32.632C60.084 33.8805 59.4442 35.1314 58.8622 36.4096C57.7115 38.9365 56.7895 41.594 56.5248 44.3744C56.2634 47.1205 56.6387 49.8783 57.2347 52.5572C57.5235 53.8555 57.8651 55.1411 58.2141 56.4242C58.5571 57.6857 58.8512 59.019 59.5819 60.1242C60.2058 61.0679 61.1544 61.7584 62.2937 61.8666C62.4111 61.8778 62.5382 61.7938 62.5468 61.6679C62.7631 58.5356 63.4656 55.4131 64.9813 52.6437C65.8006 51.1468 66.8589 49.7646 68.1237 48.6196C69.0398 47.7903 71.1769 45.8285 72.514 46.6628C72.7971 46.8394 73.0722 47.1976 73.0387 47.5525C72.9843 48.1294 72.2272 48.3789 71.8104 48.6124C71.1662 48.9732 70.5538 49.3887 69.9835 49.8587C68.8537 50.7897 67.8708 51.9232 67.1394 53.1948C66.6373 54.0677 66.1924 55.1805 66.5497 56.1902C66.8924 57.1586 67.868 57.6355 68.8455 57.6525C70.3852 57.6793 71.5814 56.581 72.7058 55.6724C73.9911 54.6339 75.3673 53.7247 76.819 52.9428C75.7203 54.7745 74.3135 56.4074 72.647 57.7464C71.1732 58.9307 68.7367 60.8078 66.7066 60.0835C66.0973 59.8661 65.4867 59.3065 64.7997 59.5496C64.0974 59.7981 63.9855 60.6483 64.016 61.2959C64.0609 62.2462 64.4102 63.1379 64.689 64.036C65.0253 65.119 65.0322 66.1522 64.9063 67.273C64.6488 69.5645 64.4711 71.818 63.8426 74.0492C63.4612 75.4031 62.8762 77.1936 63.8941 78.4172C65.9049 80.8343 69.6795 77.0457 71.6009 79.6596C72.9562 81.5034 71.8725 84.1206 73.1532 86.0087C73.7814 86.9349 75.1833 87.4567 76.1599 86.9201C75.9604 89.2502 79.6033 90.1681 80.7957 91.5973C81.7574 92.7499 81.1854 94.449 82.2519 95.5495C83.1238 96.4493 84.5462 96.5328 85.7044 96.2973C88.7346 95.681 91.0773 92.9529 92.8479 90.5985C95.1289 87.5656 97.2396 84.3927 99.4199 81.2864C100.575 79.641 101.73 77.9956 102.885 76.3501C103.348 75.6899 103.82 75.0331 104.28 74.3684C106.287 75.225 108.24 76.2161 110.084 77.3661C112.19 78.6789 114.826 80.4394 117.403 79.3934C119.948 78.3604 118.02 75.4542 117.742 73.6539C117.607 72.7762 117.642 71.8734 117.84 71.0081C117.982 70.3915 118.189 69.7663 118.645 69.3102C119.323 68.6316 120.239 68.3061 120.805 67.498C121.377 66.6805 121.781 65.5427 121.222 64.6132C120.901 64.0777 120.301 63.7261 119.775 63.4203C119.133 63.0474 118.448 62.755 117.752 62.5002C117.515 62.4132 117.275 62.3325 117.034 62.2545C117.198 62.2712 117.361 62.2862 117.526 62.2989C118.188 62.3499 118.856 62.3677 119.519 62.3053C120.072 62.2533 120.667 62.1633 121.172 61.9194C122.074 61.4835 122.804 60.4574 122.641 59.423C122.586 59.0755 122.398 58.791 122.244 58.4824C122.064 58.1194 121.96 57.7328 121.948 57.3269C121.928 56.6849 122.099 56.0577 122.131 55.4192C122.159 54.8729 122.046 54.2966 121.672 53.8798C121.275 53.4388 120.656 53.2768 120.081 53.2963C119.355 53.3208 118.676 53.6091 117.971 53.7516C117.336 53.8798 116.586 53.8882 116.128 53.3528C115.934 53.1255 115.799 52.8083 115.873 52.5067C115.958 52.1646 116.27 51.975 116.589 51.8878C117.274 51.6999 118.068 51.8524 118.744 52.0072C120.182 52.3365 121.478 53.0687 122.9 53.4299C123.598 53.6069 124.312 53.7044 125.026 53.7906C125.405 53.8365 125.785 53.8789 126.164 53.9281C126.497 53.9713 126.853 54.0473 127.179 53.9248C127.779 53.6994 127.961 52.9595 127.995 52.3874C128.034 51.7178 127.852 51.0506 127.609 50.4329ZM103.702 38.1272C104.108 38.0271 104.558 38.1034 104.972 38.1332C105.563 38.1758 106.132 38.0865 106.697 37.9159C107.224 37.7569 107.736 37.5492 108.262 37.3871C109.481 37.5416 110.726 37.6315 111.859 37.9633C109.224 38.8126 106.37 38.8693 103.702 38.1272ZM118.059 36.0088C117.667 36.1636 117.269 36.3598 116.858 36.4555C115.915 36.6752 114.929 36.8034 113.961 36.8059C112.719 36.8092 111.481 36.65 110.238 36.6956C109.65 36.7173 109.061 36.7852 108.491 36.9324C108.404 36.9549 108.318 36.982 108.232 37.0077C108.088 36.989 107.944 36.9695 107.801 36.9478C106.593 36.7653 105.349 36.4263 104.39 35.656C106.019 36.0275 107.666 36.3601 109.341 36.3781C110.238 36.3878 111.194 36.3302 112.057 36.0635C112.799 35.834 113.459 35.2589 113.341 34.4085C113.222 33.5457 112.336 33.4702 111.643 33.3454C110.614 33.1599 109.584 32.9744 108.555 32.7888C106.466 32.4123 104.377 32.0362 102.288 31.6593C101.876 31.5849 101.389 31.5269 101.08 31.2115C100.743 30.8678 100.836 30.4634 101.161 30.1561C101.437 29.895 101.763 29.7312 102.122 29.6213C102.967 29.3632 103.88 29.3297 104.757 29.3272C107.208 29.3204 109.668 29.6804 112.069 30.1455C113.22 30.3687 114.367 30.6263 115.498 30.9364C116.342 31.1674 117.193 31.4156 117.993 31.772C118.128 31.8323 118.262 31.8965 118.392 31.9672C118.404 31.974 118.416 31.9744 118.428 31.9783C118.578 33.0525 118.789 34.1188 119.067 35.1672C118.888 35.6249 118.495 35.8367 118.059 36.0088ZM102.978 57.998C104.733 59.9041 106.292 62.1857 106.827 64.765C107.493 67.9752 106.107 70.8475 104.352 73.4506C104.255 73.595 104.155 73.7374 104.057 73.8814C103.07 73.4657 102.07 73.0782 101.059 72.7259C99.6163 72.2233 98.1465 71.8085 96.6902 71.3491C93.8019 70.4381 90.9758 69.2638 88.9345 66.9299C86.8761 64.5766 85.7472 61.5172 85.0551 58.5048C84.3868 55.5962 84.2038 52.3251 86.0235 49.7808C86.2454 49.4704 86.4925 49.1788 86.757 48.9037C87.0257 49.582 87.3311 50.2464 87.6845 50.8912C89.0501 53.3834 91.1886 55.5712 93.8629 56.611C95.1964 57.1295 96.7506 57.432 98.1501 57.0011C99.0556 56.7224 99.7143 56.1194 100.089 55.3363C101.114 56.1506 102.086 57.0293 102.978 57.998ZM87.0432 48.6179C87.4005 48.2816 87.7877 47.977 88.1991 47.7097C90.7369 49.3356 93.3346 50.8532 95.9002 52.4398C97.2418 53.2694 98.5577 54.146 99.802 55.1119C99.1974 56.4944 97.6398 56.9326 96.1971 56.8059C93.3455 56.5556 90.8099 54.6653 89.1264 52.4378C88.2422 51.2678 87.5673 49.9753 87.0432 48.6179ZM92.9149 46.4351C95.6218 46.6209 98.1266 48.3873 99.3491 50.7953C99.9355 51.9504 100.29 53.3691 99.9575 54.653C98.5253 53.5629 97.0227 52.589 95.5751 51.7091C93.2518 50.297 90.9318 48.8989 88.6448 47.4402C89.9388 46.711 91.426 46.3328 92.9149 46.4351ZM86.5522 46.6334C86.9854 46.9241 87.4214 47.2094 87.8589 47.4921C87.5207 47.7221 87.2036 47.9758 86.9069 48.2492C86.6983 47.675 86.5152 47.0907 86.3539 46.4996C86.4201 46.5441 86.486 46.589 86.5522 46.6334ZM64.9372 27.1533C64.8392 28.3174 63.8982 28.9305 63.0407 29.5643C62.9587 29.1741 62.9168 28.7753 62.9418 28.3877C63.3334 28.3511 63.7257 28.3477 64.1188 28.3793C64.4094 28.4028 64.4666 27.9502 64.1739 27.9266C63.7818 27.895 63.3918 27.8985 63.0056 27.9303C63.0921 27.5322 63.2633 27.1555 63.5502 26.8245C63.895 26.4265 64.3269 26.1138 64.7928 25.853C64.9173 26.2767 64.974 26.7156 64.9372 27.1533ZM65.4242 27.4675C65.3948 27.501 65.3644 27.5337 65.3349 27.5671C65.3517 27.4905 65.3633 27.413 65.3738 27.335C65.4235 27.3582 65.4796 27.361 65.5372 27.3366C65.4994 27.38 65.4623 27.4242 65.4242 27.4675ZM66.8656 25.7435C66.3794 26.124 65.8918 26.5028 65.403 26.8799C65.3992 26.4625 65.3229 26.0408 65.1962 25.6425C65.5899 25.4525 65.997 25.2918 66.3909 25.1464C66.8062 24.993 67.2277 24.8587 67.6511 24.7304C67.3942 25.072 67.1318 25.4093 66.8656 25.7435ZM68.2979 24.6084C68.3195 24.579 68.3415 24.55 68.363 24.5205C68.3846 24.5145 68.4063 24.5087 68.428 24.5026C68.3846 24.5378 68.3413 24.5733 68.2979 24.6084ZM59.8872 17.1739C61.3194 15.5433 63.0836 14.2954 65.0764 13.4502C66.0449 13.0394 67.0496 12.7162 68.0701 12.4634C69.0399 12.2231 70.0644 11.9651 71.0696 11.9795C72.1017 11.9941 73.1612 12.4208 73.3292 13.559C73.4522 14.3923 73.1166 15.2465 72.7873 15.9942C71.5266 18.8566 69.9454 21.5828 68.106 24.1161C67.056 24.4086 66.02 24.7415 65.04 25.2221C65.0114 25.1536 64.9837 25.0841 64.9527 25.0182C64.007 23.0097 62.0232 21.8617 59.8387 21.8232C58.6541 21.8022 57.5666 22.0337 56.5596 22.4467C57.4504 20.5616 58.5088 18.7433 59.8872 17.1739ZM58.8816 29.4303C57.0057 30.6749 55.6055 32.501 54.4516 34.4101C53.2661 36.3713 52.2326 38.435 51.2439 40.5016C50.4157 42.2326 49.6414 43.9892 48.9156 45.7658C49.7783 42.1511 50.7839 38.5701 51.9095 35.0301C53.1876 31.0101 54.5237 26.9407 56.2617 23.0924C58.5069 22.039 61.4387 21.8184 63.3743 23.6149C63.9001 24.1029 64.3591 24.7346 64.6438 25.4271C63.9719 25.7947 63.3294 26.2616 62.9163 26.913C62.7046 27.2468 62.5864 27.61 62.5288 27.9849C61.2291 28.1758 59.9856 28.6979 58.8816 29.4303ZM74.0661 86.2901C73.3792 85.8168 73.1059 85.0047 72.9746 84.2017C72.9892 84.1755 72.9988 84.144 73.0014 84.1068C73.0547 83.359 73.101 82.6023 73.3757 81.8967C73.6606 81.1651 74.1258 80.4978 74.7563 80.0261C75.4189 79.5304 76.1855 79.3483 77.0018 79.447C77.8355 79.5478 78.6388 79.7888 79.4812 79.8378C80.2474 79.8823 81.0136 79.8241 81.7652 79.6768C81.1777 81.1413 80.214 82.4273 78.9541 83.3793C77.9336 84.1505 76.6512 84.8991 76.3146 86.1989C75.7553 86.8956 74.7473 86.7596 74.0661 86.2901ZM78.4526 89.4443C77.5627 88.8888 76.5241 87.9144 76.6513 86.7941C76.671 86.7655 76.6849 86.7305 76.6887 86.6868C76.6947 86.6155 76.7075 86.548 76.7196 86.4801C76.7321 86.4399 76.7413 86.3999 76.757 86.3594C76.77 86.3257 76.7725 86.2933 76.77 86.262C77.1442 84.9374 78.6528 84.2532 79.635 83.4177C80.7399 82.4777 81.5994 81.2753 82.1518 79.9346C82.6046 81.5074 82.6128 83.2076 82.1429 84.7787C81.5594 86.73 80.2779 88.4116 78.5819 89.523C78.5387 89.4968 78.4951 89.4709 78.4526 89.4443ZM98.0683 82.4206C96.0296 85.3251 94.0859 88.3381 91.8746 91.1145C90.0565 93.3974 86.937 96.7216 83.653 95.8284C82.7957 95.5952 82.2094 94.9967 82.0185 94.1205C81.8753 93.4634 81.8991 92.7712 81.6476 92.1381C81.1804 90.9624 80.0603 90.3742 79.0137 89.7761C81.6241 87.9844 83.132 84.903 82.9275 81.7289C82.8733 80.8875 82.6962 80.0588 82.4147 79.2648C82.3842 79.1787 82.2671 79.1025 82.174 79.1258C81.2965 79.3457 80.3921 79.4393 79.4886 79.3823C78.6018 79.3263 77.753 79.0487 76.8708 78.9751C75.1862 78.8344 73.7982 79.9311 73.0941 81.4034C72.9633 81.677 72.8692 81.9585 72.7963 82.2446C72.7036 81.0587 72.5176 79.8593 71.6369 79.0059C70.7197 78.1171 69.4401 78.1821 68.2751 78.3984C67.1029 78.6161 65.4829 79.2233 64.4489 78.3343C63.0474 77.1296 64.161 74.7126 64.5124 73.2822C64.9947 71.3193 65.1339 69.3294 65.3575 67.3282C65.4512 66.4896 65.5182 65.6337 65.3613 64.7979C65.1818 63.8415 64.748 62.9526 64.5617 61.9967C64.4674 61.5127 64.3271 60.8008 64.5863 60.3473C64.9833 59.6526 65.5738 60.0427 66.0254 60.2692C66.7401 60.6275 67.4508 60.7613 68.2455 60.6268C68.7695 60.5382 69.2866 60.369 69.7914 60.1477C69.7667 60.7182 69.9768 61.2449 69.7367 61.8127C69.6308 62.0634 68.9743 63.1553 69.5353 63.2221C69.6325 63.2338 69.7238 63.1784 69.8062 63.1254C71.0139 62.3475 72.2217 61.5697 73.4294 60.7919C73.7424 60.5903 74.0666 60.3773 74.2557 60.056C74.3937 59.8215 74.4506 59.5426 74.6111 59.323C74.8084 59.053 75.1312 58.9116 75.3957 58.7076C75.8048 58.3922 76.0796 57.9071 76.1404 57.3931C76.1579 57.2453 76.159 57.093 76.2121 56.9541C76.3195 56.6728 76.6979 56.596 76.8265 56.913C76.3972 55.8544 77.0976 53.8512 76.897 53.6677C77.1487 53.2759 77.3901 52.877 77.6143 52.4667C77.7074 52.2963 77.4827 52.0873 77.3166 52.171C75.8561 52.9067 74.4593 53.7595 73.1524 54.7452C71.9422 55.6581 70.7016 57.0777 69.0977 57.191C68.2309 57.2522 67.2712 56.9069 66.97 56.0162C66.7141 55.26 67.0126 54.4172 67.3556 53.7399C68.116 52.2388 69.325 50.9154 70.6571 49.907C71.2688 49.4439 71.9258 49.0863 72.5896 48.7072C73.0752 48.4298 73.5127 48.0549 73.4895 47.4506C73.4549 46.555 72.5512 45.993 71.7291 46.031C70.3726 46.0937 69.0094 47.2402 68.0389 48.0873C66.8662 49.1109 65.8605 50.3207 65.0417 51.6449C63.2302 54.5742 62.3768 57.9673 62.1143 61.3793C60.5582 61.1061 59.6857 59.6655 59.2085 58.249C58.7465 56.878 58.4066 55.4525 58.0547 54.0499C57.3582 51.2733 56.8028 48.4172 56.9038 45.5405C57.0067 42.6124 57.8626 39.8079 59.0324 37.1422C59.5962 35.8575 60.225 34.6027 60.8644 33.3545C61.1851 32.7287 61.4886 32.0887 61.8308 31.4746C62.078 31.0309 62.41 30.6741 62.7827 30.3522C63.5377 32.8371 65.5328 34.6366 67.908 35.6164C69.451 36.2528 70.9724 36.8624 72.4554 37.6371C74.1435 38.5191 75.7839 39.49 77.3957 40.5046C80.2778 42.3187 83.0652 44.2771 85.8864 46.1839C86.0891 46.9796 86.3282 47.7642 86.6143 48.5317C85.3096 49.8593 84.4745 51.6044 84.2662 53.5243C84.0974 55.0799 84.2816 56.6511 84.6033 58.1751C84.9389 59.7651 85.4049 61.3384 86.0348 62.8366C87.2778 65.7929 89.2201 68.3276 92.0568 69.8838C94.8404 71.4108 97.9973 72.0516 100.972 73.0879C101.938 73.4245 102.898 73.7928 103.847 74.1875C101.959 76.9569 99.9937 79.6775 98.0683 82.4206ZM122.28 59.5037C122.321 59.7934 122.272 60.0946 122.162 60.3643C121.965 60.8484 121.584 61.2596 121.135 61.5195C120.657 61.7962 120.051 61.8821 119.51 61.933C118.15 62.061 116.773 61.877 115.43 61.6703C114.863 61.583 114.298 61.4876 113.73 61.4006C113.802 61.3268 113.912 61.2661 113.979 61.2257C114.166 61.1133 114.365 61.0227 114.564 60.938C115.511 60.5373 116.44 60.0977 117.389 59.7016C118.803 59.1109 120.25 58.5989 121.72 58.1632C121.75 58.2619 121.784 58.3602 121.826 58.4575C121.975 58.8034 122.227 59.1228 122.28 59.5037Z" fill="#FAE8CC"/>
</svg>
