<svg width="390" height="760" viewBox="0 0 390 760" fill="none" xmlns="http://www.w3.org/2000/svg">
<line x1="1.13016" y1="30.8481" x2="8.13016" y2="36.8481" stroke="#09584B" stroke-width="0.4"/>
<line x1="1.13016" y1="190.848" x2="8.13016" y2="196.848" stroke="#09584B" stroke-width="0.4"/>
<line x1="1.13016" y1="110.848" x2="8.13016" y2="116.848" stroke="#09584B" stroke-width="0.4"/>
<line x1="1.13016" y1="270.848" x2="8.13016" y2="276.848" stroke="#09584B" stroke-width="0.4"/>
<line x1="1.13016" y1="70.8481" x2="8.13016" y2="76.8482" stroke="#09584B" stroke-width="0.4"/>
<line x1="1.13016" y1="230.848" x2="8.13016" y2="236.848" stroke="#09584B" stroke-width="0.4"/>
<line x1="1.13016" y1="150.848" x2="8.13016" y2="156.848" stroke="#09584B" stroke-width="0.4"/>
<line x1="1.13016" y1="310.848" x2="8.13016" y2="316.848" stroke="#09584B" stroke-width="0.4"/>
<line x1="1.13016" y1="34.8481" x2="8.13016" y2="40.8481" stroke="#09584B" stroke-width="0.4"/>
<line x1="1.13016" y1="194.848" x2="8.13016" y2="200.848" stroke="#09584B" stroke-width="0.4"/>
<line x1="1.13016" y1="114.848" x2="8.13016" y2="120.848" stroke="#09584B" stroke-width="0.4"/>
<line x1="1.13016" y1="274.848" x2="8.13016" y2="280.848" stroke="#09584B" stroke-width="0.4"/>
<line x1="1.13016" y1="74.8481" x2="8.13016" y2="80.8482" stroke="#09584B" stroke-width="0.4"/>
<line x1="1.13016" y1="234.848" x2="8.13016" y2="240.848" stroke="#09584B" stroke-width="0.4"/>
<line x1="1.13016" y1="154.848" x2="8.13016" y2="160.848" stroke="#09584B" stroke-width="0.4"/>
<line x1="1.13016" y1="314.848" x2="8.13016" y2="320.848" stroke="#09584B" stroke-width="0.4"/>
<line x1="1.13016" y1="38.8481" x2="8.13016" y2="44.8481" stroke="#09584B" stroke-width="0.4"/>
<line x1="1.13016" y1="198.848" x2="8.13016" y2="204.848" stroke="#09584B" stroke-width="0.4"/>
<line x1="1.13016" y1="118.848" x2="8.13016" y2="124.848" stroke="#09584B" stroke-width="0.4"/>
<line x1="1.13016" y1="278.848" x2="8.13016" y2="284.848" stroke="#09584B" stroke-width="0.4"/>
<line x1="1.13016" y1="78.8481" x2="8.13016" y2="84.8482" stroke="#09584B" stroke-width="0.4"/>
<line x1="1.13016" y1="238.848" x2="8.13016" y2="244.848" stroke="#09584B" stroke-width="0.4"/>
<line x1="1.13016" y1="158.848" x2="8.13016" y2="164.848" stroke="#09584B" stroke-width="0.4"/>
<line x1="1.13016" y1="318.848" x2="8.13016" y2="324.848" stroke="#09584B" stroke-width="0.4"/>
<line x1="1.13016" y1="42.8481" x2="8.13016" y2="48.8481" stroke="#09584B" stroke-width="0.4"/>
<line x1="1.13016" y1="202.848" x2="8.13016" y2="208.848" stroke="#09584B" stroke-width="0.4"/>
<line x1="1.13016" y1="122.848" x2="8.13016" y2="128.848" stroke="#09584B" stroke-width="0.4"/>
<line x1="1.13016" y1="282.848" x2="8.13016" y2="288.848" stroke="#09584B" stroke-width="0.4"/>
<line x1="1.13016" y1="82.8481" x2="8.13016" y2="88.8482" stroke="#09584B" stroke-width="0.4"/>
<line x1="1.13016" y1="242.848" x2="8.13016" y2="248.848" stroke="#09584B" stroke-width="0.4"/>
<line x1="1.13016" y1="162.848" x2="8.13016" y2="168.848" stroke="#09584B" stroke-width="0.4"/>
<line x1="1.13016" y1="322.848" x2="8.13016" y2="328.848" stroke="#09584B" stroke-width="0.4"/>
<line x1="1.13016" y1="46.8481" x2="8.13016" y2="52.8481" stroke="#09584B" stroke-width="0.4"/>
<line x1="1.13016" y1="206.848" x2="8.13016" y2="212.848" stroke="#09584B" stroke-width="0.4"/>
<line x1="1.13016" y1="126.848" x2="8.13016" y2="132.848" stroke="#09584B" stroke-width="0.4"/>
<line x1="1.13016" y1="286.848" x2="8.13016" y2="292.848" stroke="#09584B" stroke-width="0.4"/>
<line x1="1.13016" y1="86.8481" x2="8.13016" y2="92.8482" stroke="#09584B" stroke-width="0.4"/>
<line x1="1.13016" y1="246.848" x2="8.13016" y2="252.848" stroke="#09584B" stroke-width="0.4"/>
<line x1="1.13016" y1="166.848" x2="8.13016" y2="172.848" stroke="#09584B" stroke-width="0.4"/>
<line x1="1.13016" y1="326.848" x2="8.13016" y2="332.848" stroke="#09584B" stroke-width="0.4"/>
<line x1="1.13016" y1="50.8481" x2="8.13016" y2="56.8481" stroke="#09584B" stroke-width="0.4"/>
<line x1="1.13016" y1="210.848" x2="8.13016" y2="216.848" stroke="#09584B" stroke-width="0.4"/>
<line x1="1.13016" y1="130.848" x2="8.13016" y2="136.848" stroke="#09584B" stroke-width="0.4"/>
<line x1="1.13016" y1="290.848" x2="8.13016" y2="296.848" stroke="#09584B" stroke-width="0.4"/>
<line x1="1.13016" y1="90.8481" x2="8.13016" y2="96.8482" stroke="#09584B" stroke-width="0.4"/>
<line x1="1.13016" y1="250.848" x2="8.13016" y2="256.848" stroke="#09584B" stroke-width="0.4"/>
<line x1="1.13016" y1="54.8481" x2="8.13016" y2="60.8481" stroke="#09584B" stroke-width="0.4"/>
<line x1="1.13016" y1="170.848" x2="8.13016" y2="176.848" stroke="#09584B" stroke-width="0.4"/>
<line x1="1.13016" y1="330.848" x2="8.13016" y2="336.848" stroke="#09584B" stroke-width="0.4"/>
<line x1="1.13016" y1="214.848" x2="8.13016" y2="220.848" stroke="#09584B" stroke-width="0.4"/>
<line x1="1.13016" y1="134.848" x2="8.13016" y2="140.848" stroke="#09584B" stroke-width="0.4"/>
<line x1="1.13016" y1="294.848" x2="8.13016" y2="300.848" stroke="#09584B" stroke-width="0.4"/>
<line x1="1.13016" y1="94.8481" x2="8.13016" y2="100.848" stroke="#09584B" stroke-width="0.4"/>
<line x1="1.13016" y1="254.848" x2="8.13016" y2="260.848" stroke="#09584B" stroke-width="0.4"/>
<line x1="1.13016" y1="174.848" x2="8.13016" y2="180.848" stroke="#09584B" stroke-width="0.4"/>
<line x1="1.13016" y1="334.848" x2="8.13016" y2="340.848" stroke="#09584B" stroke-width="0.4"/>
<line x1="1.13016" y1="58.8481" x2="8.13016" y2="64.8482" stroke="#09584B" stroke-width="0.4"/>
<line x1="1.13016" y1="218.848" x2="8.13016" y2="224.848" stroke="#09584B" stroke-width="0.4"/>
<line x1="1.13016" y1="138.848" x2="8.13016" y2="144.848" stroke="#09584B" stroke-width="0.4"/>
<line x1="1.13016" y1="298.848" x2="8.13016" y2="304.848" stroke="#09584B" stroke-width="0.4"/>
<line x1="1.13016" y1="98.8481" x2="8.13016" y2="104.848" stroke="#09584B" stroke-width="0.4"/>
<line x1="1.13016" y1="258.848" x2="8.13016" y2="264.848" stroke="#09584B" stroke-width="0.4"/>
<line x1="1.13016" y1="178.848" x2="8.13016" y2="184.848" stroke="#09584B" stroke-width="0.4"/>
<line x1="1.13016" y1="338.848" x2="8.13016" y2="344.848" stroke="#09584B" stroke-width="0.4"/>
<line x1="1.13016" y1="62.8481" x2="8.13016" y2="68.8482" stroke="#09584B" stroke-width="0.4"/>
<line x1="1.13016" y1="222.848" x2="8.13016" y2="228.848" stroke="#09584B" stroke-width="0.4"/>
<line x1="1.13016" y1="142.848" x2="8.13016" y2="148.848" stroke="#09584B" stroke-width="0.4"/>
<line x1="1.13016" y1="302.848" x2="8.13016" y2="308.848" stroke="#09584B" stroke-width="0.4"/>
<line x1="1.13016" y1="102.848" x2="8.13016" y2="108.848" stroke="#09584B" stroke-width="0.4"/>
<line x1="1.13016" y1="262.848" x2="8.13016" y2="268.848" stroke="#09584B" stroke-width="0.4"/>
<line x1="1.13016" y1="182.848" x2="8.13016" y2="188.848" stroke="#09584B" stroke-width="0.4"/>
<line x1="1.13016" y1="342.848" x2="8.13016" y2="348.848" stroke="#09584B" stroke-width="0.4"/>
<line x1="1.13016" y1="66.8481" x2="8.13016" y2="72.8482" stroke="#09584B" stroke-width="0.4"/>
<line x1="1.13016" y1="226.848" x2="8.13016" y2="232.848" stroke="#09584B" stroke-width="0.4"/>
<line x1="1.13016" y1="146.848" x2="8.13016" y2="152.848" stroke="#09584B" stroke-width="0.4"/>
<line x1="1.13016" y1="306.848" x2="8.13016" y2="312.848" stroke="#09584B" stroke-width="0.4"/>
<line x1="1.13016" y1="106.848" x2="8.13016" y2="112.848" stroke="#09584B" stroke-width="0.4"/>
<line x1="1.13016" y1="266.848" x2="8.13016" y2="272.848" stroke="#09584B" stroke-width="0.4"/>
<line x1="1.13016" y1="186.848" x2="8.13016" y2="192.848" stroke="#09584B" stroke-width="0.4"/>
<line x1="1.13016" y1="346.848" x2="8.13016" y2="352.848" stroke="#09584B" stroke-width="0.4"/>
<line x1="1.13016" y1="350.848" x2="8.13016" y2="356.848" stroke="#09584B" stroke-width="0.4"/>
<line x1="1.13016" y1="510.848" x2="8.13016" y2="516.848" stroke="#09584B" stroke-width="0.4"/>
<line x1="1.13016" y1="430.848" x2="8.13016" y2="436.848" stroke="#09584B" stroke-width="0.4"/>
<line x1="1.13016" y1="590.848" x2="8.13016" y2="596.848" stroke="#09584B" stroke-width="0.4"/>
<line x1="1.13016" y1="390.848" x2="8.13016" y2="396.848" stroke="#09584B" stroke-width="0.4"/>
<line x1="1.13016" y1="550.848" x2="8.13016" y2="556.848" stroke="#09584B" stroke-width="0.4"/>
<line x1="1.13016" y1="470.848" x2="8.13016" y2="476.848" stroke="#09584B" stroke-width="0.4"/>
<line x1="1.13016" y1="630.848" x2="8.13016" y2="636.848" stroke="#09584B" stroke-width="0.4"/>
<line x1="1.13016" y1="354.848" x2="8.13016" y2="360.848" stroke="#09584B" stroke-width="0.4"/>
<line x1="1.13016" y1="514.848" x2="8.13016" y2="520.848" stroke="#09584B" stroke-width="0.4"/>
<line x1="1.13016" y1="434.848" x2="8.13016" y2="440.848" stroke="#09584B" stroke-width="0.4"/>
<line x1="1.13016" y1="594.848" x2="8.13016" y2="600.848" stroke="#09584B" stroke-width="0.4"/>
<line x1="1.13016" y1="394.848" x2="8.13016" y2="400.848" stroke="#09584B" stroke-width="0.4"/>
<line x1="1.13016" y1="554.848" x2="8.13016" y2="560.848" stroke="#09584B" stroke-width="0.4"/>
<line x1="1.13016" y1="474.848" x2="8.13016" y2="480.848" stroke="#09584B" stroke-width="0.4"/>
<line x1="1.13016" y1="634.848" x2="8.13016" y2="640.848" stroke="#09584B" stroke-width="0.4"/>
<line x1="1.13016" y1="358.848" x2="8.13016" y2="364.848" stroke="#09584B" stroke-width="0.4"/>
<line x1="1.13016" y1="518.848" x2="8.13016" y2="524.848" stroke="#09584B" stroke-width="0.4"/>
<line x1="1.13016" y1="438.848" x2="8.13016" y2="444.848" stroke="#09584B" stroke-width="0.4"/>
<line x1="1.13016" y1="598.848" x2="8.13016" y2="604.848" stroke="#09584B" stroke-width="0.4"/>
<line x1="1.13016" y1="398.848" x2="8.13016" y2="404.848" stroke="#09584B" stroke-width="0.4"/>
<line x1="1.13016" y1="558.848" x2="8.13016" y2="564.848" stroke="#09584B" stroke-width="0.4"/>
<line x1="1.13016" y1="478.848" x2="8.13016" y2="484.848" stroke="#09584B" stroke-width="0.4"/>
<line x1="1.13016" y1="638.848" x2="8.13016" y2="644.848" stroke="#09584B" stroke-width="0.4"/>
<line x1="1.13016" y1="362.848" x2="8.13016" y2="368.848" stroke="#09584B" stroke-width="0.4"/>
<line x1="1.13016" y1="522.848" x2="8.13016" y2="528.848" stroke="#09584B" stroke-width="0.4"/>
<line x1="1.13016" y1="442.848" x2="8.13016" y2="448.848" stroke="#09584B" stroke-width="0.4"/>
<line x1="1.13016" y1="602.848" x2="8.13016" y2="608.848" stroke="#09584B" stroke-width="0.4"/>
<line x1="1.13016" y1="402.848" x2="8.13016" y2="408.848" stroke="#09584B" stroke-width="0.4"/>
<line x1="1.13016" y1="562.848" x2="8.13016" y2="568.848" stroke="#09584B" stroke-width="0.4"/>
<line x1="1.13016" y1="482.848" x2="8.13016" y2="488.848" stroke="#09584B" stroke-width="0.4"/>
<line x1="1.13016" y1="642.848" x2="8.13016" y2="648.848" stroke="#09584B" stroke-width="0.4"/>
<line x1="1.13016" y1="366.848" x2="8.13016" y2="372.848" stroke="#09584B" stroke-width="0.4"/>
<line x1="1.13016" y1="526.848" x2="8.13016" y2="532.848" stroke="#09584B" stroke-width="0.4"/>
<line x1="1.13016" y1="446.848" x2="8.13016" y2="452.848" stroke="#09584B" stroke-width="0.4"/>
<line x1="1.13016" y1="606.848" x2="8.13016" y2="612.848" stroke="#09584B" stroke-width="0.4"/>
<line x1="1.13016" y1="406.848" x2="8.13016" y2="412.848" stroke="#09584B" stroke-width="0.4"/>
<line x1="1.13016" y1="566.848" x2="8.13016" y2="572.848" stroke="#09584B" stroke-width="0.4"/>
<line x1="1.13016" y1="486.848" x2="8.13016" y2="492.848" stroke="#09584B" stroke-width="0.4"/>
<line x1="1.13016" y1="646.848" x2="8.13016" y2="652.848" stroke="#09584B" stroke-width="0.4"/>
<line x1="1.13016" y1="370.848" x2="8.13016" y2="376.848" stroke="#09584B" stroke-width="0.4"/>
<line x1="1.13016" y1="530.848" x2="8.13016" y2="536.848" stroke="#09584B" stroke-width="0.4"/>
<line x1="1.13016" y1="450.848" x2="8.13016" y2="456.848" stroke="#09584B" stroke-width="0.4"/>
<line x1="1.13016" y1="610.848" x2="8.13016" y2="616.848" stroke="#09584B" stroke-width="0.4"/>
<line x1="1.13016" y1="410.848" x2="8.13016" y2="416.848" stroke="#09584B" stroke-width="0.4"/>
<line x1="1.13016" y1="570.848" x2="8.13016" y2="576.848" stroke="#09584B" stroke-width="0.4"/>
<line x1="1.13016" y1="374.848" x2="8.13016" y2="380.848" stroke="#09584B" stroke-width="0.4"/>
<line x1="1.13016" y1="490.848" x2="8.13016" y2="496.848" stroke="#09584B" stroke-width="0.4"/>
<line x1="1.13016" y1="650.848" x2="8.13016" y2="656.848" stroke="#09584B" stroke-width="0.4"/>
<line x1="1.13016" y1="534.848" x2="8.13016" y2="540.848" stroke="#09584B" stroke-width="0.4"/>
<line x1="1.13016" y1="454.848" x2="8.13016" y2="460.848" stroke="#09584B" stroke-width="0.4"/>
<line x1="1.13016" y1="614.848" x2="8.13016" y2="620.848" stroke="#09584B" stroke-width="0.4"/>
<line x1="1.13016" y1="414.848" x2="8.13016" y2="420.848" stroke="#09584B" stroke-width="0.4"/>
<line x1="1.13016" y1="574.848" x2="8.13016" y2="580.848" stroke="#09584B" stroke-width="0.4"/>
<line x1="1.13016" y1="494.848" x2="8.13016" y2="500.848" stroke="#09584B" stroke-width="0.4"/>
<line x1="1.13016" y1="654.848" x2="8.13016" y2="660.848" stroke="#09584B" stroke-width="0.4"/>
<line x1="1.13016" y1="378.848" x2="8.13016" y2="384.848" stroke="#09584B" stroke-width="0.4"/>
<line x1="1.13016" y1="538.848" x2="8.13016" y2="544.848" stroke="#09584B" stroke-width="0.4"/>
<line x1="1.13016" y1="458.848" x2="8.13016" y2="464.848" stroke="#09584B" stroke-width="0.4"/>
<line x1="1.13016" y1="618.848" x2="8.13016" y2="624.848" stroke="#09584B" stroke-width="0.4"/>
<line x1="1.13016" y1="418.848" x2="8.13016" y2="424.848" stroke="#09584B" stroke-width="0.4"/>
<line x1="1.13016" y1="578.848" x2="8.13016" y2="584.848" stroke="#09584B" stroke-width="0.4"/>
<line x1="1.13016" y1="498.848" x2="8.13016" y2="504.848" stroke="#09584B" stroke-width="0.4"/>
<line x1="1.13016" y1="658.848" x2="8.13016" y2="664.848" stroke="#09584B" stroke-width="0.4"/>
<line x1="1.13016" y1="382.848" x2="8.13016" y2="388.848" stroke="#09584B" stroke-width="0.4"/>
<line x1="1.13016" y1="542.848" x2="8.13016" y2="548.848" stroke="#09584B" stroke-width="0.4"/>
<line x1="1.13016" y1="462.848" x2="8.13016" y2="468.848" stroke="#09584B" stroke-width="0.4"/>
<line x1="1.13016" y1="622.848" x2="8.13016" y2="628.848" stroke="#09584B" stroke-width="0.4"/>
<line x1="1.13016" y1="422.848" x2="8.13016" y2="428.848" stroke="#09584B" stroke-width="0.4"/>
<line x1="1.13016" y1="582.848" x2="8.13016" y2="588.848" stroke="#09584B" stroke-width="0.4"/>
<line x1="1.13016" y1="502.848" x2="8.13016" y2="508.848" stroke="#09584B" stroke-width="0.4"/>
<line x1="1.13016" y1="662.848" x2="8.13016" y2="668.848" stroke="#09584B" stroke-width="0.4"/>
<line x1="1.13016" y1="386.848" x2="8.13016" y2="392.848" stroke="#09584B" stroke-width="0.4"/>
<line x1="1.13016" y1="546.848" x2="8.13016" y2="552.848" stroke="#09584B" stroke-width="0.4"/>
<line x1="1.13016" y1="466.848" x2="8.13016" y2="472.848" stroke="#09584B" stroke-width="0.4"/>
<line x1="1.13016" y1="626.848" x2="8.13016" y2="632.848" stroke="#09584B" stroke-width="0.4"/>
<line x1="1.13016" y1="426.848" x2="8.13016" y2="432.848" stroke="#09584B" stroke-width="0.4"/>
<line x1="1.13016" y1="586.848" x2="8.13016" y2="592.848" stroke="#09584B" stroke-width="0.4"/>
<line x1="1.13016" y1="506.848" x2="8.13016" y2="512.848" stroke="#09584B" stroke-width="0.4"/>
<line x1="1.13016" y1="666.848" x2="8.13016" y2="672.848" stroke="#09584B" stroke-width="0.4"/>
<line x1="1.13016" y1="670.848" x2="8.13016" y2="676.848" stroke="#09584B" stroke-width="0.4"/>
<line x1="1.13016" y1="674.848" x2="8.13016" y2="680.848" stroke="#09584B" stroke-width="0.4"/>
<line x1="1.13016" y1="678.848" x2="8.13016" y2="684.848" stroke="#09584B" stroke-width="0.4"/>
<line x1="1.13016" y1="682.848" x2="8.13016" y2="688.848" stroke="#09584B" stroke-width="0.4"/>
<line x1="1.13016" y1="686.848" x2="8.13016" y2="692.848" stroke="#09584B" stroke-width="0.4"/>
<line x1="1.13016" y1="690.848" x2="8.13016" y2="696.848" stroke="#09584B" stroke-width="0.4"/>
<line x1="1.13016" y1="694.848" x2="8.13016" y2="700.848" stroke="#09584B" stroke-width="0.4"/>
<line x1="1.13016" y1="698.848" x2="8.13016" y2="704.848" stroke="#09584B" stroke-width="0.4"/>
<line x1="1.13016" y1="702.848" x2="8.13016" y2="708.848" stroke="#09584B" stroke-width="0.4"/>
<line x1="1.13016" y1="706.848" x2="8.13016" y2="712.848" stroke="#09584B" stroke-width="0.4"/>
<line x1="1.13016" y1="710.848" x2="8.13016" y2="716.848" stroke="#09584B" stroke-width="0.4"/>
<line x1="1.13016" y1="714.848" x2="8.13016" y2="720.848" stroke="#09584B" stroke-width="0.4"/>
<line x1="1.13016" y1="718.848" x2="8.13016" y2="724.848" stroke="#09584B" stroke-width="0.4"/>
<line x1="1.13016" y1="722.848" x2="8.13016" y2="728.848" stroke="#09584B" stroke-width="0.4"/>
<line x1="1.12" y1="726.84" x2="5.12" y2="729.84" stroke="#09584B" stroke-width="0.4"/>
<line x1="4.12" y1="29.84" x2="8.12" y2="32.84" stroke="#09584B" stroke-width="0.4"/>
<line x1="0.75" y1="30" x2="0.75" y2="730" stroke="black" stroke-width="1.5"/>
<line x1="30" y1="0.75" x2="120" y2="0.75" stroke="black" stroke-opacity="0.8" stroke-width="1.5"/>
<line x1="29" y1="758.5" x2="99" y2="758.5" stroke="black" stroke-opacity="0.5"/>
<line x1="290" y1="759.5" x2="360" y2="759.5" stroke="black" stroke-opacity="0.5"/>
<line x1="270" y1="0.75" x2="360" y2="0.75" stroke="black" stroke-opacity="0.8" stroke-width="1.5"/>
<line x1="8.5" y1="30" x2="8.5" y2="730" stroke="black" stroke-opacity="0.5"/>
<line x1="13.5" y1="30" x2="13.5" y2="730" stroke="black" stroke-opacity="0.5"/>
<line y1="-0.75" x2="700" y2="-0.75" transform="matrix(0 1 1 0 390 30)" stroke="black" stroke-width="1.5"/>
<line y1="-0.5" x2="700" y2="-0.5" transform="matrix(0 1 1 0 382 30)" stroke="black" stroke-opacity="0.5"/>
<line y1="-0.5" x2="700" y2="-0.5" transform="matrix(0 1 1 0 377 30)" stroke="black" stroke-opacity="0.5"/>
<line x1="382.13" y1="30.8481" x2="389.13" y2="36.8481" stroke="#09584B" stroke-width="0.4"/>
<line x1="382.13" y1="190.848" x2="389.13" y2="196.848" stroke="#09584B" stroke-width="0.4"/>
<line x1="382.13" y1="110.848" x2="389.13" y2="116.848" stroke="#09584B" stroke-width="0.4"/>
<line x1="382.13" y1="270.848" x2="389.13" y2="276.848" stroke="#09584B" stroke-width="0.4"/>
<line x1="382.13" y1="70.8481" x2="389.13" y2="76.8482" stroke="#09584B" stroke-width="0.4"/>
<line x1="382.13" y1="230.848" x2="389.13" y2="236.848" stroke="#09584B" stroke-width="0.4"/>
<line x1="382.13" y1="150.848" x2="389.13" y2="156.848" stroke="#09584B" stroke-width="0.4"/>
<line x1="382.13" y1="310.848" x2="389.13" y2="316.848" stroke="#09584B" stroke-width="0.4"/>
<line x1="382.13" y1="34.8481" x2="389.13" y2="40.8481" stroke="#09584B" stroke-width="0.4"/>
<line x1="382.13" y1="194.848" x2="389.13" y2="200.848" stroke="#09584B" stroke-width="0.4"/>
<line x1="382.13" y1="114.848" x2="389.13" y2="120.848" stroke="#09584B" stroke-width="0.4"/>
<line x1="382.13" y1="274.848" x2="389.13" y2="280.848" stroke="#09584B" stroke-width="0.4"/>
<line x1="382.13" y1="74.8481" x2="389.13" y2="80.8482" stroke="#09584B" stroke-width="0.4"/>
<line x1="382.13" y1="234.848" x2="389.13" y2="240.848" stroke="#09584B" stroke-width="0.4"/>
<line x1="382.13" y1="154.848" x2="389.13" y2="160.848" stroke="#09584B" stroke-width="0.4"/>
<line x1="382.13" y1="314.848" x2="389.13" y2="320.848" stroke="#09584B" stroke-width="0.4"/>
<line x1="382.13" y1="38.8481" x2="389.13" y2="44.8481" stroke="#09584B" stroke-width="0.4"/>
<line x1="382.13" y1="198.848" x2="389.13" y2="204.848" stroke="#09584B" stroke-width="0.4"/>
<line x1="382.13" y1="118.848" x2="389.13" y2="124.848" stroke="#09584B" stroke-width="0.4"/>
<line x1="382.13" y1="278.848" x2="389.13" y2="284.848" stroke="#09584B" stroke-width="0.4"/>
<line x1="382.13" y1="78.8481" x2="389.13" y2="84.8482" stroke="#09584B" stroke-width="0.4"/>
<line x1="382.13" y1="238.848" x2="389.13" y2="244.848" stroke="#09584B" stroke-width="0.4"/>
<line x1="382.13" y1="158.848" x2="389.13" y2="164.848" stroke="#09584B" stroke-width="0.4"/>
<line x1="382.13" y1="318.848" x2="389.13" y2="324.848" stroke="#09584B" stroke-width="0.4"/>
<line x1="382.13" y1="42.8481" x2="389.13" y2="48.8481" stroke="#09584B" stroke-width="0.4"/>
<line x1="382.13" y1="202.848" x2="389.13" y2="208.848" stroke="#09584B" stroke-width="0.4"/>
<line x1="382.13" y1="122.848" x2="389.13" y2="128.848" stroke="#09584B" stroke-width="0.4"/>
<line x1="382.13" y1="282.848" x2="389.13" y2="288.848" stroke="#09584B" stroke-width="0.4"/>
<line x1="382.13" y1="82.8481" x2="389.13" y2="88.8482" stroke="#09584B" stroke-width="0.4"/>
<line x1="382.13" y1="242.848" x2="389.13" y2="248.848" stroke="#09584B" stroke-width="0.4"/>
<line x1="382.13" y1="162.848" x2="389.13" y2="168.848" stroke="#09584B" stroke-width="0.4"/>
<line x1="382.13" y1="322.848" x2="389.13" y2="328.848" stroke="#09584B" stroke-width="0.4"/>
<line x1="382.13" y1="46.8481" x2="389.13" y2="52.8481" stroke="#09584B" stroke-width="0.4"/>
<line x1="382.13" y1="206.848" x2="389.13" y2="212.848" stroke="#09584B" stroke-width="0.4"/>
<line x1="382.13" y1="126.848" x2="389.13" y2="132.848" stroke="#09584B" stroke-width="0.4"/>
<line x1="382.13" y1="286.848" x2="389.13" y2="292.848" stroke="#09584B" stroke-width="0.4"/>
<line x1="382.13" y1="86.8481" x2="389.13" y2="92.8482" stroke="#09584B" stroke-width="0.4"/>
<line x1="382.13" y1="246.848" x2="389.13" y2="252.848" stroke="#09584B" stroke-width="0.4"/>
<line x1="382.13" y1="166.848" x2="389.13" y2="172.848" stroke="#09584B" stroke-width="0.4"/>
<line x1="382.13" y1="326.848" x2="389.13" y2="332.848" stroke="#09584B" stroke-width="0.4"/>
<line x1="382.13" y1="50.8481" x2="389.13" y2="56.8481" stroke="#09584B" stroke-width="0.4"/>
<line x1="382.13" y1="210.848" x2="389.13" y2="216.848" stroke="#09584B" stroke-width="0.4"/>
<line x1="382.13" y1="130.848" x2="389.13" y2="136.848" stroke="#09584B" stroke-width="0.4"/>
<line x1="382.13" y1="290.848" x2="389.13" y2="296.848" stroke="#09584B" stroke-width="0.4"/>
<line x1="382.13" y1="90.8481" x2="389.13" y2="96.8482" stroke="#09584B" stroke-width="0.4"/>
<line x1="382.13" y1="250.848" x2="389.13" y2="256.848" stroke="#09584B" stroke-width="0.4"/>
<line x1="382.13" y1="54.8481" x2="389.13" y2="60.8481" stroke="#09584B" stroke-width="0.4"/>
<line x1="382.13" y1="170.848" x2="389.13" y2="176.848" stroke="#09584B" stroke-width="0.4"/>
<line x1="382.13" y1="330.848" x2="389.13" y2="336.848" stroke="#09584B" stroke-width="0.4"/>
<line x1="382.13" y1="214.848" x2="389.13" y2="220.848" stroke="#09584B" stroke-width="0.4"/>
<line x1="382.13" y1="134.848" x2="389.13" y2="140.848" stroke="#09584B" stroke-width="0.4"/>
<line x1="382.13" y1="294.848" x2="389.13" y2="300.848" stroke="#09584B" stroke-width="0.4"/>
<line x1="382.13" y1="94.8481" x2="389.13" y2="100.848" stroke="#09584B" stroke-width="0.4"/>
<line x1="382.13" y1="254.848" x2="389.13" y2="260.848" stroke="#09584B" stroke-width="0.4"/>
<line x1="382.13" y1="174.848" x2="389.13" y2="180.848" stroke="#09584B" stroke-width="0.4"/>
<line x1="382.13" y1="334.848" x2="389.13" y2="340.848" stroke="#09584B" stroke-width="0.4"/>
<line x1="382.13" y1="58.8481" x2="389.13" y2="64.8482" stroke="#09584B" stroke-width="0.4"/>
<line x1="382.13" y1="218.848" x2="389.13" y2="224.848" stroke="#09584B" stroke-width="0.4"/>
<line x1="382.13" y1="138.848" x2="389.13" y2="144.848" stroke="#09584B" stroke-width="0.4"/>
<line x1="382.13" y1="298.848" x2="389.13" y2="304.848" stroke="#09584B" stroke-width="0.4"/>
<line x1="382.13" y1="98.8481" x2="389.13" y2="104.848" stroke="#09584B" stroke-width="0.4"/>
<line x1="382.13" y1="258.848" x2="389.13" y2="264.848" stroke="#09584B" stroke-width="0.4"/>
<line x1="382.13" y1="178.848" x2="389.13" y2="184.848" stroke="#09584B" stroke-width="0.4"/>
<line x1="382.13" y1="338.848" x2="389.13" y2="344.848" stroke="#09584B" stroke-width="0.4"/>
<line x1="382.13" y1="62.8481" x2="389.13" y2="68.8482" stroke="#09584B" stroke-width="0.4"/>
<line x1="382.13" y1="222.848" x2="389.13" y2="228.848" stroke="#09584B" stroke-width="0.4"/>
<line x1="382.13" y1="142.848" x2="389.13" y2="148.848" stroke="#09584B" stroke-width="0.4"/>
<line x1="382.13" y1="302.848" x2="389.13" y2="308.848" stroke="#09584B" stroke-width="0.4"/>
<line x1="382.13" y1="102.848" x2="389.13" y2="108.848" stroke="#09584B" stroke-width="0.4"/>
<line x1="382.13" y1="262.848" x2="389.13" y2="268.848" stroke="#09584B" stroke-width="0.4"/>
<line x1="382.13" y1="182.848" x2="389.13" y2="188.848" stroke="#09584B" stroke-width="0.4"/>
<line x1="382.13" y1="342.848" x2="389.13" y2="348.848" stroke="#09584B" stroke-width="0.4"/>
<line x1="382.13" y1="66.8481" x2="389.13" y2="72.8482" stroke="#09584B" stroke-width="0.4"/>
<line x1="382.13" y1="226.848" x2="389.13" y2="232.848" stroke="#09584B" stroke-width="0.4"/>
<line x1="382.13" y1="146.848" x2="389.13" y2="152.848" stroke="#09584B" stroke-width="0.4"/>
<line x1="382.13" y1="306.848" x2="389.13" y2="312.848" stroke="#09584B" stroke-width="0.4"/>
<line x1="382.13" y1="106.848" x2="389.13" y2="112.848" stroke="#09584B" stroke-width="0.4"/>
<line x1="382.13" y1="266.848" x2="389.13" y2="272.848" stroke="#09584B" stroke-width="0.4"/>
<line x1="382.13" y1="186.848" x2="389.13" y2="192.848" stroke="#09584B" stroke-width="0.4"/>
<line x1="382.13" y1="346.848" x2="389.13" y2="352.848" stroke="#09584B" stroke-width="0.4"/>
<line x1="382.13" y1="350.848" x2="389.13" y2="356.848" stroke="#09584B" stroke-width="0.4"/>
<line x1="382.13" y1="510.848" x2="389.13" y2="516.848" stroke="#09584B" stroke-width="0.4"/>
<line x1="382.13" y1="430.848" x2="389.13" y2="436.848" stroke="#09584B" stroke-width="0.4"/>
<line x1="382.13" y1="590.848" x2="389.13" y2="596.848" stroke="#09584B" stroke-width="0.4"/>
<line x1="382.13" y1="390.848" x2="389.13" y2="396.848" stroke="#09584B" stroke-width="0.4"/>
<line x1="382.13" y1="550.848" x2="389.13" y2="556.848" stroke="#09584B" stroke-width="0.4"/>
<line x1="382.13" y1="470.848" x2="389.13" y2="476.848" stroke="#09584B" stroke-width="0.4"/>
<line x1="382.13" y1="630.848" x2="389.13" y2="636.848" stroke="#09584B" stroke-width="0.4"/>
<line x1="382.13" y1="354.848" x2="389.13" y2="360.848" stroke="#09584B" stroke-width="0.4"/>
<line x1="382.13" y1="514.848" x2="389.13" y2="520.848" stroke="#09584B" stroke-width="0.4"/>
<line x1="382.13" y1="434.848" x2="389.13" y2="440.848" stroke="#09584B" stroke-width="0.4"/>
<line x1="382.13" y1="594.848" x2="389.13" y2="600.848" stroke="#09584B" stroke-width="0.4"/>
<line x1="382.13" y1="394.848" x2="389.13" y2="400.848" stroke="#09584B" stroke-width="0.4"/>
<line x1="382.13" y1="554.848" x2="389.13" y2="560.848" stroke="#09584B" stroke-width="0.4"/>
<line x1="382.13" y1="474.848" x2="389.13" y2="480.848" stroke="#09584B" stroke-width="0.4"/>
<line x1="382.13" y1="634.848" x2="389.13" y2="640.848" stroke="#09584B" stroke-width="0.4"/>
<line x1="382.13" y1="358.848" x2="389.13" y2="364.848" stroke="#09584B" stroke-width="0.4"/>
<line x1="382.13" y1="518.848" x2="389.13" y2="524.848" stroke="#09584B" stroke-width="0.4"/>
<line x1="382.13" y1="438.848" x2="389.13" y2="444.848" stroke="#09584B" stroke-width="0.4"/>
<line x1="382.13" y1="598.848" x2="389.13" y2="604.848" stroke="#09584B" stroke-width="0.4"/>
<line x1="382.13" y1="398.848" x2="389.13" y2="404.848" stroke="#09584B" stroke-width="0.4"/>
<line x1="382.13" y1="558.848" x2="389.13" y2="564.848" stroke="#09584B" stroke-width="0.4"/>
<line x1="382.13" y1="478.848" x2="389.13" y2="484.848" stroke="#09584B" stroke-width="0.4"/>
<line x1="382.13" y1="638.848" x2="389.13" y2="644.848" stroke="#09584B" stroke-width="0.4"/>
<line x1="382.13" y1="362.848" x2="389.13" y2="368.848" stroke="#09584B" stroke-width="0.4"/>
<line x1="382.13" y1="522.848" x2="389.13" y2="528.848" stroke="#09584B" stroke-width="0.4"/>
<line x1="382.13" y1="442.848" x2="389.13" y2="448.848" stroke="#09584B" stroke-width="0.4"/>
<line x1="382.13" y1="602.848" x2="389.13" y2="608.848" stroke="#09584B" stroke-width="0.4"/>
<line x1="382.13" y1="402.848" x2="389.13" y2="408.848" stroke="#09584B" stroke-width="0.4"/>
<line x1="382.13" y1="562.848" x2="389.13" y2="568.848" stroke="#09584B" stroke-width="0.4"/>
<line x1="382.13" y1="482.848" x2="389.13" y2="488.848" stroke="#09584B" stroke-width="0.4"/>
<line x1="382.13" y1="642.848" x2="389.13" y2="648.848" stroke="#09584B" stroke-width="0.4"/>
<line x1="382.13" y1="366.848" x2="389.13" y2="372.848" stroke="#09584B" stroke-width="0.4"/>
<line x1="382.13" y1="526.848" x2="389.13" y2="532.848" stroke="#09584B" stroke-width="0.4"/>
<line x1="382.13" y1="446.848" x2="389.13" y2="452.848" stroke="#09584B" stroke-width="0.4"/>
<line x1="382.13" y1="606.848" x2="389.13" y2="612.848" stroke="#09584B" stroke-width="0.4"/>
<line x1="382.13" y1="406.848" x2="389.13" y2="412.848" stroke="#09584B" stroke-width="0.4"/>
<line x1="382.13" y1="566.848" x2="389.13" y2="572.848" stroke="#09584B" stroke-width="0.4"/>
<line x1="382.13" y1="486.848" x2="389.13" y2="492.848" stroke="#09584B" stroke-width="0.4"/>
<line x1="382.13" y1="646.848" x2="389.13" y2="652.848" stroke="#09584B" stroke-width="0.4"/>
<line x1="382.13" y1="370.848" x2="389.13" y2="376.848" stroke="#09584B" stroke-width="0.4"/>
<line x1="382.13" y1="530.848" x2="389.13" y2="536.848" stroke="#09584B" stroke-width="0.4"/>
<line x1="382.13" y1="450.848" x2="389.13" y2="456.848" stroke="#09584B" stroke-width="0.4"/>
<line x1="382.13" y1="610.848" x2="389.13" y2="616.848" stroke="#09584B" stroke-width="0.4"/>
<line x1="382.13" y1="410.848" x2="389.13" y2="416.848" stroke="#09584B" stroke-width="0.4"/>
<line x1="382.13" y1="570.848" x2="389.13" y2="576.848" stroke="#09584B" stroke-width="0.4"/>
<line x1="382.13" y1="374.848" x2="389.13" y2="380.848" stroke="#09584B" stroke-width="0.4"/>
<line x1="382.13" y1="490.848" x2="389.13" y2="496.848" stroke="#09584B" stroke-width="0.4"/>
<line x1="382.13" y1="650.848" x2="389.13" y2="656.848" stroke="#09584B" stroke-width="0.4"/>
<line x1="382.13" y1="534.848" x2="389.13" y2="540.848" stroke="#09584B" stroke-width="0.4"/>
<line x1="382.13" y1="454.848" x2="389.13" y2="460.848" stroke="#09584B" stroke-width="0.4"/>
<line x1="382.13" y1="614.848" x2="389.13" y2="620.848" stroke="#09584B" stroke-width="0.4"/>
<line x1="382.13" y1="414.848" x2="389.13" y2="420.848" stroke="#09584B" stroke-width="0.4"/>
<line x1="382.13" y1="574.848" x2="389.13" y2="580.848" stroke="#09584B" stroke-width="0.4"/>
<line x1="382.13" y1="494.848" x2="389.13" y2="500.848" stroke="#09584B" stroke-width="0.4"/>
<line x1="382.13" y1="654.848" x2="389.13" y2="660.848" stroke="#09584B" stroke-width="0.4"/>
<line x1="382.13" y1="378.848" x2="389.13" y2="384.848" stroke="#09584B" stroke-width="0.4"/>
<line x1="382.13" y1="538.848" x2="389.13" y2="544.848" stroke="#09584B" stroke-width="0.4"/>
<line x1="382.13" y1="458.848" x2="389.13" y2="464.848" stroke="#09584B" stroke-width="0.4"/>
<line x1="382.13" y1="618.848" x2="389.13" y2="624.848" stroke="#09584B" stroke-width="0.4"/>
<line x1="382.13" y1="418.848" x2="389.13" y2="424.848" stroke="#09584B" stroke-width="0.4"/>
<line x1="382.13" y1="578.848" x2="389.13" y2="584.848" stroke="#09584B" stroke-width="0.4"/>
<line x1="382.13" y1="498.848" x2="389.13" y2="504.848" stroke="#09584B" stroke-width="0.4"/>
<line x1="382.13" y1="658.848" x2="389.13" y2="664.848" stroke="#09584B" stroke-width="0.4"/>
<line x1="382.13" y1="382.848" x2="389.13" y2="388.848" stroke="#09584B" stroke-width="0.4"/>
<line x1="382.13" y1="542.848" x2="389.13" y2="548.848" stroke="#09584B" stroke-width="0.4"/>
<line x1="382.13" y1="462.848" x2="389.13" y2="468.848" stroke="#09584B" stroke-width="0.4"/>
<line x1="382.13" y1="622.848" x2="389.13" y2="628.848" stroke="#09584B" stroke-width="0.4"/>
<line x1="382.13" y1="422.848" x2="389.13" y2="428.848" stroke="#09584B" stroke-width="0.4"/>
<line x1="382.13" y1="582.848" x2="389.13" y2="588.848" stroke="#09584B" stroke-width="0.4"/>
<line x1="382.13" y1="502.848" x2="389.13" y2="508.848" stroke="#09584B" stroke-width="0.4"/>
<line x1="382.13" y1="662.848" x2="389.13" y2="668.848" stroke="#09584B" stroke-width="0.4"/>
<line x1="382.13" y1="386.848" x2="389.13" y2="392.848" stroke="#09584B" stroke-width="0.4"/>
<line x1="382.13" y1="546.848" x2="389.13" y2="552.848" stroke="#09584B" stroke-width="0.4"/>
<line x1="382.13" y1="466.848" x2="389.13" y2="472.848" stroke="#09584B" stroke-width="0.4"/>
<line x1="382.13" y1="626.848" x2="389.13" y2="632.848" stroke="#09584B" stroke-width="0.4"/>
<line x1="382.13" y1="426.848" x2="389.13" y2="432.848" stroke="#09584B" stroke-width="0.4"/>
<line x1="382.13" y1="586.848" x2="389.13" y2="592.848" stroke="#09584B" stroke-width="0.4"/>
<line x1="382.13" y1="506.848" x2="389.13" y2="512.848" stroke="#09584B" stroke-width="0.4"/>
<line x1="382.13" y1="666.848" x2="389.13" y2="672.848" stroke="#09584B" stroke-width="0.4"/>
<line x1="382.13" y1="670.848" x2="389.13" y2="676.848" stroke="#09584B" stroke-width="0.4"/>
<line x1="382.13" y1="674.848" x2="389.13" y2="680.848" stroke="#09584B" stroke-width="0.4"/>
<line x1="382.13" y1="678.848" x2="389.13" y2="684.848" stroke="#09584B" stroke-width="0.4"/>
<line x1="382.13" y1="682.848" x2="389.13" y2="688.848" stroke="#09584B" stroke-width="0.4"/>
<line x1="382.13" y1="686.848" x2="389.13" y2="692.848" stroke="#09584B" stroke-width="0.4"/>
<line x1="382.13" y1="690.848" x2="389.13" y2="696.848" stroke="#09584B" stroke-width="0.4"/>
<line x1="382.13" y1="694.848" x2="389.13" y2="700.848" stroke="#09584B" stroke-width="0.4"/>
<line x1="382.13" y1="698.848" x2="389.13" y2="704.848" stroke="#09584B" stroke-width="0.4"/>
<line x1="382.13" y1="702.848" x2="389.13" y2="708.848" stroke="#09584B" stroke-width="0.4"/>
<line x1="382.13" y1="706.848" x2="389.13" y2="712.848" stroke="#09584B" stroke-width="0.4"/>
<line x1="382.13" y1="710.848" x2="389.13" y2="716.848" stroke="#09584B" stroke-width="0.4"/>
<line x1="382.13" y1="714.848" x2="389.13" y2="720.848" stroke="#09584B" stroke-width="0.4"/>
<line x1="382.13" y1="718.848" x2="389.13" y2="724.848" stroke="#09584B" stroke-width="0.4"/>
<line x1="382.13" y1="722.848" x2="389.13" y2="728.848" stroke="#09584B" stroke-width="0.4"/>
<line x1="382.12" y1="726.84" x2="386.12" y2="729.84" stroke="#09584B" stroke-width="0.4"/>
<line x1="385.12" y1="29.84" x2="389.12" y2="32.84" stroke="#09584B" stroke-width="0.4"/>
<rect x="360.5" y="730.5" width="29" height="29" stroke="black" stroke-opacity="0.5"/>
<rect x="363" y="733" width="24" height="24" fill="black"/>
<circle cx="373.226" cy="746.493" r="5.75" transform="rotate(-4.23168 373.226 746.493)" stroke="#FAE8CC" stroke-width="0.5"/>
<circle cx="374.869" cy="745.076" r="5.75" transform="rotate(-4.23168 374.869 745.076)" stroke="#FAE8CC" stroke-width="0.5"/>
<circle cx="376.512" cy="743.658" r="5.75" transform="rotate(-4.23168 376.512 743.658)" stroke="#FAE8CC" stroke-width="0.5"/>
<rect x="0.5" y="729.5" width="29" height="29" stroke="black" stroke-opacity="0.5"/>
<rect x="3" y="732" width="24" height="24" fill="black"/>
<circle cx="13.2257" cy="745.493" r="5.75" transform="rotate(-4.23168 13.2257 745.493)" stroke="#FAE8CC" stroke-width="0.5"/>
<circle cx="14.8688" cy="744.076" r="5.75" transform="rotate(-4.23168 14.8688 744.076)" stroke="#FAE8CC" stroke-width="0.5"/>
<circle cx="16.5118" cy="742.658" r="5.75" transform="rotate(-4.23168 16.5118 742.658)" stroke="#FAE8CC" stroke-width="0.5"/>
<rect x="360.5" y="0.5" width="29" height="29" stroke="black" stroke-opacity="0.5"/>
<rect x="363" y="3" width="24" height="24" fill="black"/>
<path d="M379.526 10.4989L387.185 3.01121L387.147 27.0112L363 26.9727L379.526 10.4989Z" fill="#09584B"/>
<circle cx="375" cy="15" r="8" fill="#FCECD4"/>
<rect x="3" y="3" width="24" height="24" fill="black"/>
<rect x="0.5" y="0.5" width="29" height="29" stroke="black" stroke-opacity="0.5"/>
<path d="M19.5 19.4998L26.9999 27.1465L2.99988 27.1465L3 2.99976L19.5 19.4998Z" fill="#09584B"/>
<circle cx="15" cy="15" r="8" fill="#FCECD4"/>
</svg>
