<svg width="36" height="33" viewBox="0 0 36 33" fill="none" xmlns="http://www.w3.org/2000/svg">
<path d="M13.2862 12.1837L13.1938 12.7111L13.6771 12.4621C13.7227 12.4387 13.7726 12.427 13.8225 12.427C13.8724 12.427 13.9224 12.4387 13.9679 12.4621L14.4512 12.7111L14.3589 12.1837C14.3415 12.0844 14.3752 11.9831 14.4488 11.9127L14.8397 11.5392L14.2994 11.4623C14.1976 11.4478 14.1096 11.3851 14.0641 11.2948L13.8224 10.8149L13.5808 11.2948C13.5353 11.3852 13.4473 11.4478 13.3455 11.4623L12.8052 11.5392L13.1962 11.9127C13.2698 11.9831 13.3035 12.0844 13.286 12.1838L13.2862 12.1837Z" fill="#FCECD4"/>
<path d="M16.1844 5.78149H2.57764C2.31912 5.78149 2.10889 5.98752 2.10889 6.24087V29.7087C2.10889 29.9621 2.31912 30.1681 2.57764 30.1681H16.1844C16.443 30.1681 16.6532 29.9621 16.6532 29.7087V6.24087C16.6532 5.98752 16.443 5.78149 16.1844 5.78149ZM11.8364 11.2308C11.8732 11.12 11.971 11.0392 12.0887 11.0224L13.0929 10.8793L13.5421 9.98753C13.5947 9.88295 13.7033 9.8168 13.8223 9.8168C13.9413 9.8168 14.0499 9.88295 14.1026 9.98753L14.5517 10.8793L15.556 11.0224C15.6737 11.0391 15.7715 11.1199 15.8083 11.2308C15.845 11.3416 15.8144 11.4634 15.7291 11.5447L15.0024 12.2389L15.1739 13.2192C15.194 13.3341 15.1458 13.4502 15.0495 13.5187C14.9951 13.5575 14.9307 13.5772 14.8658 13.5772C14.8161 13.5772 14.7662 13.5656 14.7205 13.5421L13.8222 13.0793L12.9239 13.5421C12.8187 13.5963 12.6911 13.5873 12.5947 13.5187C12.4986 13.4502 12.4503 13.3341 12.4705 13.2192L12.642 12.239L11.9152 11.5448C11.8301 11.4635 11.7994 11.3418 11.8361 11.2309L11.8364 11.2308ZM15.5319 16.4957C15.6556 16.6137 15.6583 16.8076 15.5379 16.9288C15.4766 16.9905 15.3953 17.0214 15.314 17.0214C15.2354 17.0214 15.1567 16.9925 15.096 16.9346C12.9755 14.9115 10.7992 14.0344 8.62897 14.3289C6.70897 14.5889 5.20842 15.6981 4.28779 16.5828C4.16459 16.7011 3.96686 16.6992 3.84584 16.5785C3.72506 16.4577 3.72701 16.2638 3.85022 16.1454C5.54506 14.5167 10.0763 11.2904 15.532 16.4957L15.5319 16.4957ZM3.12568 8.07194C3.16248 7.96107 3.26029 7.8803 3.37795 7.86346L4.23756 7.74103L4.62201 6.97763C4.67467 6.87305 4.78326 6.8069 4.90225 6.8069C5.02123 6.8069 5.12982 6.87305 5.18248 6.97755L5.56701 7.74096L6.42662 7.86338C6.54436 7.88015 6.64217 7.96092 6.67889 8.07186C6.71561 8.18272 6.68498 8.30446 6.59975 8.38577L5.97772 8.97997L6.12459 9.81902C6.14475 9.93386 6.09654 10.05 6.00029 10.1185C5.94584 10.1573 5.88139 10.177 5.81654 10.177C5.76678 10.177 5.71686 10.1654 5.67115 10.1419L4.90217 9.74575L4.13326 10.1419C4.02803 10.1961 3.90053 10.1871 3.80412 10.1185C3.70795 10.05 3.65967 9.93386 3.67982 9.81902L3.8267 8.97997L3.20467 8.38577C3.11943 8.30446 3.08889 8.18272 3.12553 8.07186L3.12568 8.07194ZM7.4885 24.1908L6.81748 24.8318L6.97584 25.737C6.996 25.8518 6.94779 25.968 6.85147 26.0365C6.79709 26.0752 6.73264 26.095 6.66779 26.095C6.61803 26.095 6.56811 26.0834 6.5224 26.0598L5.69295 25.6325L4.8635 26.0598C4.75826 26.1141 4.63068 26.105 4.53443 26.0365C4.43818 25.9679 4.3899 25.8518 4.41006 25.737L4.56842 24.8318L3.8974 24.1908C3.81225 24.1095 3.78162 23.9877 3.81826 23.8768C3.85506 23.7659 3.95287 23.6852 4.07053 23.6684L4.99787 23.5363L5.41264 22.7127C5.46529 22.6082 5.57389 22.542 5.69287 22.542C5.81186 22.542 5.92045 22.6082 5.97311 22.7127L6.38787 23.5363L7.31521 23.6684C7.43295 23.6852 7.53076 23.7659 7.56748 23.8768C7.6042 23.9877 7.5735 24.1094 7.48834 24.1908H7.4885ZM15.2892 27.0313L14.6552 27.6369L14.8048 28.4921C14.825 28.6069 14.7768 28.7231 14.6805 28.7916C14.6261 28.8303 14.5616 28.8501 14.4968 28.8501C14.447 28.8501 14.3971 28.8385 14.3514 28.8149L13.5678 28.4112L12.7841 28.8149C12.6789 28.8691 12.5513 28.8601 12.455 28.7916C12.3588 28.723 12.3105 28.6069 12.3307 28.4921L12.4804 27.6369L11.8464 27.0313C11.7612 26.95 11.7306 26.8282 11.7672 26.7173C11.804 26.6064 11.9019 26.5256 12.0195 26.5089L12.8957 26.3841L13.2876 25.606C13.3402 25.5015 13.4488 25.4353 13.5678 25.4353C13.6868 25.4353 13.7954 25.5015 13.848 25.606L14.2399 26.3841L15.1161 26.5089C15.2338 26.5256 15.3316 26.6063 15.3683 26.7173C15.4051 26.8281 15.3744 26.9499 15.2892 27.0313ZM15.8564 19.4474C15.8003 19.4882 15.7348 19.508 15.6699 19.508C15.5745 19.508 15.4804 19.4654 15.419 19.3847C15.2321 19.1388 15.0444 18.9048 14.856 18.6827C14.5529 18.945 14.1883 19.2532 13.7671 19.5604L14.2527 20.2845C14.3475 20.4259 14.3074 20.6158 14.1632 20.7087C14.1102 20.7427 14.0508 20.759 13.9919 20.759C13.8901 20.759 13.7905 20.7104 13.7304 20.6209L13.2551 19.9121C12.8847 20.1507 12.4797 20.3768 12.0423 20.5663L12.3318 21.3226C12.3924 21.4809 12.3105 21.6575 12.1489 21.7168C12.1128 21.7302 12.0756 21.7364 12.0393 21.7364C11.9127 21.7364 11.7936 21.6606 11.7466 21.5376L11.4601 20.7887C11.2552 20.8564 11.0446 20.9155 10.8279 20.9628C10.5242 21.0292 10.2209 21.0707 9.91842 21.0876V21.8659C9.91842 22.035 9.7785 22.1721 9.60592 22.1721C9.43334 22.1721 9.29342 22.035 9.29342 21.8659V21.0869C8.79553 21.0583 8.29982 20.9622 7.80678 20.7991L7.53631 21.5062C7.48928 21.6291 7.37022 21.705 7.24365 21.705C7.20725 21.705 7.17022 21.6988 7.13404 21.6854C6.97248 21.6261 6.89061 21.4495 6.95115 21.2912L7.22498 20.5754C6.84607 20.4088 6.46904 20.2017 6.09396 19.9554L5.59795 20.6701C5.53748 20.7573 5.43928 20.8041 5.3392 20.8041C5.27873 20.8041 5.21756 20.787 5.16381 20.7511C5.02107 20.6561 4.98404 20.4656 5.08107 20.3257L5.58686 19.5969C5.16287 19.2759 4.74178 18.9038 4.32396 18.4803C3.99381 18.8738 3.81178 19.149 3.80545 19.1587C3.71264 19.3014 3.51951 19.3433 3.37397 19.2522C3.2285 19.1613 3.18576 18.9719 3.27857 18.8294C3.37748 18.6775 5.741 15.1088 9.311 14.9822C11.5989 14.9009 13.8226 16.2592 15.9204 19.0188C16.0234 19.1544 15.9947 19.3462 15.8564 19.4474Z" fill="#FCECD4"/>
<path d="M17.5126 3.7146H1.25C0.560781 3.7146 0 4.26417 0 4.9396V31.0102C0 31.6856 0.560781 32.2352 1.25 32.2352H17.5126C18.2018 32.2352 18.7626 31.6856 18.7626 31.0102V4.9396C18.7626 4.26417 18.2018 3.7146 17.5126 3.7146ZM17.2784 29.7088C17.2784 30.2999 16.7878 30.7807 16.1847 30.7807H2.57789C1.97477 30.7807 1.48414 30.2999 1.48414 29.7088V6.24093C1.48414 5.64987 1.97477 5.16906 2.57789 5.16906H16.1847C16.7878 5.16906 17.2784 5.64987 17.2784 6.24093V29.7088Z" fill="#FCECD4"/>
<path d="M9.33344 15.5942C7.3243 15.6655 5.69313 17.0011 4.73633 18.0167C6.68914 20.0116 8.69211 20.8024 10.6916 20.3651C12.3147 20.01 13.6197 18.9353 14.4464 18.2199C12.78 16.4157 11.0638 15.5337 9.33344 15.5942ZM13.0077 18.4108C11.6967 19.6877 10.4616 19.9633 9.64023 19.9633C9.62312 19.9633 9.60617 19.9633 9.58945 19.963C8.41273 19.9466 7.27164 19.3772 6.19789 18.2705C6.0693 18.1387 6.07375 17.9288 6.20758 17.8025C6.81883 17.2237 8.0818 16.2553 9.6532 16.2855C10.8243 16.3069 11.9548 16.8655 13.0132 17.9456C13.1405 18.0752 13.1383 18.2841 13.0079 18.4109L13.0077 18.4108Z" fill="#FCECD4"/>
<path d="M5.90016 23.9518L5.69297 23.5403L5.48578 23.9518C5.44023 24.0422 5.35227 24.1049 5.25047 24.1193L4.78711 24.1853L5.12234 24.5056C5.19594 24.5759 5.22961 24.6773 5.21219 24.7766L5.13305 25.2289L5.5475 25.0154C5.59305 24.9919 5.64297 24.9802 5.69289 24.9802C5.74281 24.9802 5.79273 24.9919 5.83828 25.0154L6.25273 25.2289L6.17359 24.7766C6.15617 24.6773 6.18984 24.5759 6.26344 24.5056L6.59867 24.1853L6.13531 24.1193C6.03352 24.1049 5.94555 24.0422 5.9 23.9518H5.90016Z" fill="#FCECD4"/>
<path d="M6.85449 18.0504C7.36762 18.5401 7.89113 18.8918 8.42066 19.1053C8.20418 18.8404 8.07387 18.5051 8.07387 18.1401C8.07387 17.7302 8.23848 17.358 8.50504 17.0808C8.01941 17.2416 7.45191 17.5334 6.85449 18.0504Z" fill="#FCECD4"/>
<path d="M22.485 20.2372L22.2779 19.8257L22.0707 20.2372C22.0251 20.3276 21.9371 20.3903 21.8354 20.4047L21.3721 20.4707L21.7073 20.791C21.7809 20.8613 21.8146 20.9627 21.7971 21.0621L21.7179 21.5143L22.1324 21.3008C22.1779 21.2773 22.2279 21.2656 22.2778 21.2656C22.3277 21.2656 22.3776 21.2773 22.4232 21.3008L22.8376 21.5143L22.7585 21.062C22.7411 20.9627 22.7747 20.8613 22.8483 20.791L23.1836 20.4707L22.7202 20.4047C22.6184 20.3903 22.5304 20.3276 22.4849 20.2372H22.485Z" fill="#FCECD4"/>
<path d="M11.232 18.1402C11.232 18.5051 11.1017 18.8403 10.8853 19.1052C11.4667 18.8764 11.9677 18.5195 12.3593 18.1704C11.8761 17.7146 11.382 17.3808 10.8809 17.1694C11.1001 17.4352 11.232 17.7727 11.232 18.1402V18.1402Z" fill="#FCECD4"/>
<path d="M9.65287 17.2051C9.12678 17.2051 8.69873 17.6246 8.69873 18.1401C8.69873 18.6556 9.12678 19.0751 9.65287 19.0751C10.179 19.0751 10.6069 18.6556 10.6069 18.1401C10.6069 17.6245 10.1789 17.2051 9.65287 17.2051Z" fill="#FCECD4"/>
<path d="M13.7523 26.7996L13.568 26.4336L13.3837 26.7996C13.3381 26.8901 13.2502 26.9527 13.1484 26.9672L12.7363 27.0259L13.0345 27.3108C13.108 27.3811 13.1417 27.4825 13.1243 27.5818L13.0539 27.9841L13.4226 27.7942C13.4681 27.7708 13.518 27.759 13.568 27.759C13.6179 27.759 13.6678 27.7708 13.7134 27.7943L14.082 27.9841L14.0116 27.5818C13.9942 27.4825 14.0279 27.3811 14.1015 27.3108L14.3996 27.0259L13.9876 26.9672C13.8858 26.9528 13.7978 26.8901 13.7523 26.7996Z" fill="#FCECD4"/>
<path d="M4.47049 8.92506L4.40291 9.31116L4.75674 9.12887C4.80228 9.10544 4.85221 9.09372 4.90213 9.09372C4.95205 9.09372 5.00197 9.10544 5.04752 9.12887L5.40143 9.31116L5.33385 8.92506C5.31643 8.82576 5.3501 8.72431 5.42369 8.65395L5.70994 8.38047L5.31439 8.32412C5.2126 8.30965 5.12463 8.24694 5.07908 8.1566L4.90205 7.80518L4.7251 8.15652C4.67955 8.24694 4.59158 8.30957 4.48978 8.32404L4.09424 8.38039L4.38049 8.65387C4.45408 8.72423 4.48775 8.8256 4.47033 8.92498L4.47049 8.92506Z" fill="#FCECD4"/>
<path d="M21.0559 5.2103L20.9884 5.59641L21.3422 5.41411C21.3877 5.39068 21.4377 5.37897 21.4876 5.37897C21.5375 5.37897 21.5874 5.39068 21.633 5.41411L21.9868 5.59641L21.9192 5.2103C21.9018 5.11092 21.9355 5.00956 22.0091 4.93919L22.2953 4.66571L21.8998 4.60936C21.798 4.59489 21.71 4.53219 21.6645 4.44184L21.4875 4.09058L21.3105 4.44184C21.265 4.53227 21.177 4.59489 21.0752 4.60936L20.6797 4.66571L20.9659 4.93919C21.0395 5.00956 21.0732 5.11092 21.0558 5.2103H21.0559Z" fill="#FCECD4"/>
<path d="M34.2539 0H17.6786C17.0755 0 16.585 0.480736 16.585 1.07172V3.10208H17.5125C17.7062 3.10208 17.8932 3.13102 18.0691 3.18469V2.44969C18.0691 1.90097 18.5246 1.45446 19.0846 1.45446H32.8478C33.4078 1.45446 33.8633 1.90097 33.8633 2.44969V26.0708C33.8633 26.6196 33.4078 27.0661 32.8478 27.0661H19.3875V28.5206H34.2539C34.857 28.5206 35.3475 28.0398 35.3475 27.4488V1.07172C35.3475 0.480736 34.857 0 34.2539 0Z" fill="#FCECD4"/>
<path d="M26.4786 17.4743C27.9289 17.4743 29.2346 16.7804 30.0225 15.6626C29.3625 16.0309 28.6097 16.2308 27.8361 16.2308C25.3985 16.2308 23.4153 14.2873 23.4153 11.8984C23.4153 11.1655 23.6071 10.4491 23.961 9.81616C22.8537 10.5939 22.167 11.8577 22.167 13.2489C22.167 15.5788 24.1012 17.4743 26.4786 17.4743H26.4786Z" fill="#FCECD4"/>
<path d="M19.3873 26.4535H32.8475C33.0629 26.4535 33.2381 26.2819 33.2381 26.0708V2.44963C33.2381 2.23862 33.0629 2.06689 32.8475 2.06689H19.0844C18.869 2.06689 18.6938 2.23862 18.6938 2.44963V3.51408C19.1166 3.85126 19.3873 4.36492 19.3873 4.93944V26.4535ZM24.0735 20.4762L23.4024 21.1172L23.5607 22.0224C23.5809 22.1372 23.5327 22.2534 23.4364 22.3219C23.382 22.3606 23.3175 22.3804 23.2527 22.3804C23.2029 22.3804 23.153 22.3688 23.1073 22.3452L22.2778 21.9179L21.4484 22.3452C21.3431 22.3996 21.2156 22.3903 21.1192 22.3219C21.0231 22.2533 20.9748 22.1372 20.9949 22.0223L21.1534 21.1172L20.4823 20.4762C20.3971 20.3949 20.3665 20.2732 20.4031 20.1622C20.4399 20.0514 20.5378 19.9706 20.6554 19.9538L21.5828 19.8217L21.9975 18.9981C22.0502 18.8936 22.1588 18.8274 22.2778 18.8274C22.3967 18.8274 22.5053 18.8936 22.558 18.9981L22.9728 19.8217L23.9002 19.9538C24.0179 19.9706 24.1157 20.0513 24.1524 20.1622C24.1892 20.2731 24.1585 20.3948 24.0733 20.4762H24.0735ZM31.8741 23.3167L31.2401 23.9223L31.3898 24.7775C31.4099 24.8923 31.3617 25.0085 31.2655 25.077C31.1692 25.1454 31.0415 25.1545 30.9363 25.1003L30.1527 24.6966L29.3691 25.1003C29.3234 25.1239 29.2734 25.1355 29.2237 25.1355C29.1589 25.1355 29.0945 25.1157 29.04 25.077C28.9438 25.0084 28.8955 24.8923 28.9156 24.7775L29.0653 23.9223L28.4313 23.3167C28.3461 23.2354 28.3156 23.1136 28.3523 23.0027C28.389 22.8918 28.4868 22.811 28.6046 22.7943L29.4807 22.6695L29.8725 21.8915C29.9252 21.7869 30.0338 21.7207 30.1528 21.7207C30.2717 21.7207 30.3803 21.7869 30.433 21.8914L30.8249 22.6695L31.701 22.7943C31.8188 22.811 31.9166 22.8917 31.9533 23.0027C31.99 23.1135 31.9594 23.2353 31.8742 23.3167H31.8741ZM28.4213 7.51623C28.4581 7.40537 28.556 7.32459 28.6736 7.30783L29.6779 7.16481L30.1271 6.27301C30.1797 6.16842 30.2883 6.10227 30.4073 6.10227C30.5263 6.10227 30.6349 6.16842 30.6875 6.27301L31.1367 7.16481L32.141 7.30783C32.2587 7.32459 32.3565 7.40537 32.3932 7.51631C32.4299 7.62717 32.3992 7.7489 32.3141 7.83021L31.5873 8.52441L31.7588 9.50463C31.779 9.61948 31.7308 9.7357 31.6346 9.80415C31.5382 9.87267 31.4106 9.88163 31.3054 9.8275L30.4071 9.36468L29.5088 9.8275C29.4631 9.85108 29.4131 9.86264 29.3635 9.86264C29.2987 9.86264 29.2342 9.84289 29.1798 9.80415C29.0835 9.73562 29.0353 9.61948 29.0554 9.50463L29.2269 8.52433L28.5002 7.83014C28.4149 7.74883 28.3844 7.62709 28.421 7.51615L28.4213 7.51623ZM25.3221 8.78334C25.3962 8.90752 25.3721 9.06555 25.2642 9.16309C24.4863 9.86601 24.0402 10.8629 24.0402 11.8983C24.0402 13.9495 25.743 15.6182 27.836 15.6182C28.9148 15.6182 29.9464 15.1654 30.6664 14.3759C30.7642 14.2687 30.9251 14.2426 31.0529 14.3133C31.1807 14.384 31.2412 14.5323 31.1981 14.6698C30.5581 16.7136 28.6614 18.0868 26.4785 18.0868C23.7564 18.0868 21.5419 15.9164 21.5419 13.2488C21.5419 11.1445 22.9139 9.29493 24.956 8.64652C25.0956 8.60227 25.248 8.65915 25.3221 8.78334ZM19.7106 4.35741C19.7474 4.24655 19.8453 4.16578 19.9629 4.14894L20.8226 4.02651L21.2071 3.26311C21.2597 3.15852 21.3683 3.09237 21.4873 3.09237C21.6063 3.09237 21.7149 3.15852 21.7675 3.26311L22.152 4.02651L23.0117 4.14894C23.1294 4.1657 23.2272 4.24648 23.2639 4.35741C23.3006 4.46828 23.2699 4.59001 23.1848 4.67132L22.5627 5.26552L22.7096 6.10457C22.7297 6.21941 22.6815 6.33564 22.5853 6.40408C22.5308 6.44282 22.4663 6.46258 22.4015 6.46258C22.3517 6.46258 22.3018 6.45094 22.2561 6.42743L21.4872 6.0313L20.7183 6.42743C20.6131 6.48164 20.4855 6.47268 20.3892 6.40408C20.293 6.33556 20.2447 6.21941 20.2649 6.10457L20.4117 5.26552L19.7896 4.67132C19.7045 4.59001 19.6738 4.46828 19.7105 4.35741H19.7106Z" fill="#FCECD4"/>
<path d="M29.871 8.4692L29.7787 8.99657L30.262 8.74758C30.3531 8.70073 30.4618 8.70073 30.5529 8.74758L31.0362 8.99657L30.9438 8.4692C30.9264 8.36982 30.9601 8.26846 31.0337 8.19809L31.4247 7.82462L30.8844 7.74768C30.7826 7.73321 30.6946 7.6705 30.649 7.58016L30.4074 7.10034L30.1658 7.58016C30.1202 7.67058 30.0322 7.73321 29.9304 7.74768L29.3901 7.82462L29.7811 8.19809C29.8547 8.26846 29.8883 8.36982 29.8709 8.46913L29.871 8.4692Z" fill="#FCECD4"/>
<path d="M30.3372 23.085L30.1529 22.719L29.9687 23.0849C29.9232 23.1754 29.8352 23.238 29.7334 23.2524L29.3213 23.3111L29.6194 23.596C29.693 23.6664 29.7267 23.7677 29.7093 23.867L29.6389 24.2694L30.0075 24.0795C30.0531 24.056 30.103 24.0443 30.1529 24.0443C30.2029 24.0443 30.2528 24.056 30.2983 24.0794L30.667 24.2694L30.5966 23.867C30.5792 23.7677 30.6129 23.6664 30.6864 23.596L30.9846 23.3111L30.5725 23.2524C30.4707 23.238 30.3828 23.1754 30.3372 23.085Z" fill="#FCECD4"/>
</svg>
